<?xml version="1.0" encoding="UTF-8"?>
<!DOCTYPE svg PUBLIC "-//W3C//DTD SVG 1.1//EN" "http://www.w3.org/Graphics/SVG/1.1/DTD/svg11.dtd">
<svg width="91mm" height="58mm" viewBox="0 0 9100 5800" version="1.1" xmlns="http://www.w3.org/2000/svg" xmlns:xlink="http://www.w3.org/1999/xlink" stroke-width="28.222" stroke-linejoin="round" xml:space="preserve">
 <path fill="rgb(255,255,255)" stroke="none" d="M 4530,5817 L 0,5817 0,0 9059,0 9059,5817 4530,5817 Z"/>
 <path fill="none" stroke="rgb(179,179,179)" stroke-linejoin="round" d="M 5039,4539 L 1325,4539 1325,169 8753,169 8753,4539 5039,4539 Z"/>
 <path fill="none" stroke="rgb(179,179,179)" stroke-linejoin="round" d="M 8753,4538 L 1325,4538"/>
 <path fill="none" stroke="rgb(179,179,179)" stroke-linejoin="round" d="M 8753,4100 L 1325,4100"/>
 <path fill="none" stroke="rgb(179,179,179)" stroke-linejoin="round" d="M 8753,3663 L 1325,3663"/>
 <path fill="none" stroke="rgb(179,179,179)" stroke-linejoin="round" d="M 8753,3226 L 1325,3226"/>
 <path fill="none" stroke="rgb(179,179,179)" stroke-linejoin="round" d="M 8753,2790 L 1325,2790"/>
 <path fill="none" stroke="rgb(179,179,179)" stroke-linejoin="round" d="M 8753,2353 L 1325,2353"/>
 <path fill="none" stroke="rgb(179,179,179)" stroke-linejoin="round" d="M 8753,1916 L 1325,1916"/>
 <path fill="none" stroke="rgb(179,179,179)" stroke-linejoin="round" d="M 8753,1479 L 1325,1479"/>
 <path fill="none" stroke="rgb(179,179,179)" stroke-linejoin="round" d="M 8753,1042 L 1325,1042"/>
 <path fill="none" stroke="rgb(179,179,179)" stroke-linejoin="round" d="M 8753,605 L 1325,605"/>
 <path fill="none" stroke="rgb(179,179,179)" stroke-linejoin="round" d="M 8753,168 L 1325,168"/>
 <path fill="none" stroke="rgb(179,179,179)" stroke-linejoin="round" d="M 1325,4688 L 1325,4538"/>
 <path fill="none" stroke="rgb(179,179,179)" stroke-linejoin="round" d="M 1325,4688 L 1325,4538"/>
 <path fill="none" stroke="rgb(179,179,179)" stroke-linejoin="round" d="M 2067,4688 L 2067,4538"/>
 <path fill="none" stroke="rgb(179,179,179)" stroke-linejoin="round" d="M 2067,4688 L 2067,4538"/>
 <path fill="none" stroke="rgb(179,179,179)" stroke-linejoin="round" d="M 2810,4688 L 2810,4538"/>
 <path fill="none" stroke="rgb(179,179,179)" stroke-linejoin="round" d="M 2810,4688 L 2810,4538"/>
 <path fill="none" stroke="rgb(179,179,179)" stroke-linejoin="round" d="M 3553,4688 L 3553,4538"/>
 <path fill="none" stroke="rgb(179,179,179)" stroke-linejoin="round" d="M 3553,4688 L 3553,4538"/>
 <path fill="none" stroke="rgb(179,179,179)" stroke-linejoin="round" d="M 4296,4688 L 4296,4538"/>
 <path fill="none" stroke="rgb(179,179,179)" stroke-linejoin="round" d="M 4296,4688 L 4296,4538"/>
 <path fill="none" stroke="rgb(179,179,179)" stroke-linejoin="round" d="M 5038,4688 L 5038,4538"/>
 <path fill="none" stroke="rgb(179,179,179)" stroke-linejoin="round" d="M 5038,4688 L 5038,4538"/>
 <path fill="none" stroke="rgb(179,179,179)" stroke-linejoin="round" d="M 5781,4688 L 5781,4538"/>
 <path fill="none" stroke="rgb(179,179,179)" stroke-linejoin="round" d="M 5781,4688 L 5781,4538"/>
 <path fill="none" stroke="rgb(179,179,179)" stroke-linejoin="round" d="M 6524,4688 L 6524,4538"/>
 <path fill="none" stroke="rgb(179,179,179)" stroke-linejoin="round" d="M 6524,4688 L 6524,4538"/>
 <path fill="none" stroke="rgb(179,179,179)" stroke-linejoin="round" d="M 7267,4688 L 7267,4538"/>
 <path fill="none" stroke="rgb(179,179,179)" stroke-linejoin="round" d="M 7267,4688 L 7267,4538"/>
 <path fill="none" stroke="rgb(179,179,179)" stroke-linejoin="round" d="M 8010,4688 L 8010,4538"/>
 <path fill="none" stroke="rgb(179,179,179)" stroke-linejoin="round" d="M 8010,4688 L 8010,4538"/>
 <path fill="none" stroke="rgb(179,179,179)" stroke-linejoin="round" d="M 8753,4688 L 8753,4538"/>
 <path fill="none" stroke="rgb(179,179,179)" stroke-linejoin="round" d="M 8753,4688 L 8753,4538"/>
 <path fill="none" stroke="rgb(179,179,179)" stroke-linejoin="round" d="M 1325,4538 L 8753,4538"/>
 <path fill="none" stroke="rgb(179,179,179)" stroke-linejoin="round" d="M 1175,4538 L 1325,4538"/>
 <path fill="none" stroke="rgb(179,179,179)" stroke-linejoin="round" d="M 1175,4538 L 1325,4538"/>
 <path fill="none" stroke="rgb(179,179,179)" stroke-linejoin="round" d="M 1175,4100 L 1325,4100"/>
 <path fill="none" stroke="rgb(179,179,179)" stroke-linejoin="round" d="M 1175,4100 L 1325,4100"/>
 <path fill="none" stroke="rgb(179,179,179)" stroke-linejoin="round" d="M 1175,3663 L 1325,3663"/>
 <path fill="none" stroke="rgb(179,179,179)" stroke-linejoin="round" d="M 1175,3663 L 1325,3663"/>
 <path fill="none" stroke="rgb(179,179,179)" stroke-linejoin="round" d="M 1175,3226 L 1325,3226"/>
 <path fill="none" stroke="rgb(179,179,179)" stroke-linejoin="round" d="M 1175,3226 L 1325,3226"/>
 <path fill="none" stroke="rgb(179,179,179)" stroke-linejoin="round" d="M 1175,2790 L 1325,2790"/>
 <path fill="none" stroke="rgb(179,179,179)" stroke-linejoin="round" d="M 1175,2790 L 1325,2790"/>
 <path fill="none" stroke="rgb(179,179,179)" stroke-linejoin="round" d="M 1175,2353 L 1325,2353"/>
 <path fill="none" stroke="rgb(179,179,179)" stroke-linejoin="round" d="M 1175,2353 L 1325,2353"/>
 <path fill="none" stroke="rgb(179,179,179)" stroke-linejoin="round" d="M 1175,1916 L 1325,1916"/>
 <path fill="none" stroke="rgb(179,179,179)" stroke-linejoin="round" d="M 1175,1916 L 1325,1916"/>
 <path fill="none" stroke="rgb(179,179,179)" stroke-linejoin="round" d="M 1175,1479 L 1325,1479"/>
 <path fill="none" stroke="rgb(179,179,179)" stroke-linejoin="round" d="M 1175,1479 L 1325,1479"/>
 <path fill="none" stroke="rgb(179,179,179)" stroke-linejoin="round" d="M 1175,1042 L 1325,1042"/>
 <path fill="none" stroke="rgb(179,179,179)" stroke-linejoin="round" d="M 1175,1042 L 1325,1042"/>
 <path fill="none" stroke="rgb(179,179,179)" stroke-linejoin="round" d="M 1175,605 L 1325,605"/>
 <path fill="none" stroke="rgb(179,179,179)" stroke-linejoin="round" d="M 1175,605 L 1325,605"/>
 <path fill="none" stroke="rgb(179,179,179)" stroke-linejoin="round" d="M 1175,168 L 1325,168"/>
 <path fill="none" stroke="rgb(179,179,179)" stroke-linejoin="round" d="M 1175,168 L 1325,168"/>
 <path fill="none" stroke="rgb(179,179,179)" stroke-linejoin="round" d="M 1325,4538 L 1325,168"/>
 <path fill="none" stroke="rgb(0,69,134)" stroke-width="51" stroke-linejoin="round" d="M 1339,567 L 1354,593 1369,613 1384,645 1399,695 1414,708 1429,771 1443,861 1458,1009 1473,1155 1488,1148 1503,1277 1518,1398 1533,1386 1547,1234 1562,1322 1577,1342 1592,1570 1607,1139 1622,1453 1637,1492 1651,969 1666,1304 1681,1240 1696,1290 1711,1410 1726,1344 1741,1306 1755,1178 1770,1500 1785,1337 1800,1215 1815,1328 1830,1315 1845,1346 1859,1403 1874,1226 1889,1280 1904,1279 1919,1314 1934,1347 1949,1190 1963,1464 1978,1456 1993,1376 2008,1473 2023,1498 2038,1552 2053,1490 2067,1498 2082,1310 2097,1447 2112,1279 2127,1244 2142,1271 2157,1172 2171,1430 2186,1408 2201,1668 2216,1284 2231,1447 2246,1251 2261,1359 2275,1371 2290,1298 2305,1426 2320,1089 2335,1483 2350,1303 2365,1428 2379,1387 2394,1131 2409,1258 2424,1249 2439,1213 2454,1493 2469,1376 2483,1327 2498,1400 2513,1319 2528,1409 2543,1578 2558,1641 2573,1393 2587,1590 2602,1290 2617,1313 2632,1589 2647,1318 2662,1192 2677,1409 2691,1413 2706,1567 2721,1331 2736,1371 2751,1402 2766,1451 2781,1279 2795,1577 2810,1144 2825,1333 2840,1163 2855,1337 2870,1361 2885,1461 2899,1282 2914,1422 2929,1420 2944,1531 2959,1377 2974,1512 2989,1346 3003,1537 3018,1715 3033,1280 3048,1412 3063,1238 3078,1329 3093,1607 3107,1298 3122,1315 3137,1538 3152,1262 3167,1443 3182,1426 3197,1553 3211,1450 3226,1223 3241,1469 3256,1383 3271,1652 3286,1289 3301,1440 3315,1453 3330,1247 3345,1245 3360,1279 3375,1273 3390,1567 3405,1522 3419,1337 3434,1409 3449,1471 3464,1291 3479,1372 3494,1535 3509,1238 3523,1447 3538,1383 3553,1594 3568,1565 3583,1386 3598,1349 3613,1517 3627,1367 3642,1298 3657,1301 3672,1472 3687,1322 3702,1479 3717,1417 3731,1529 3746,1317 3761,1455 3776,1304 3791,1382 3806,1384 3821,1708 3836,1617 3850,1771 3865,1493 3880,1725 3895,1414 3910,1525 3925,1514 3940,1133 3954,1437 3969,1697 3984,1461 3999,1548 4014,1350 4029,1602 4044,1562 4058,1333 4073,1272 4088,1293 4103,1633 4118,1577 4133,1300 4148,1613 4162,1639 4177,1338 4192,1650 4207,1767 4222,1330 4237,1333 4252,1426 4266,1794 4281,1747 4296,1438 4311,1471 4326,1870 4341,1363 4356,1584 4370,1578 4385,1589 4400,1449 4415,1527 4430,1597 4445,1470 4460,1494 4474,1536 4489,1599 4504,1549 4519,1632 4533,1534 4548,1537 4563,1503 4577,1448 4592,1302 4607,1597 4622,1287 4637,1717 4652,1641 4667,1650 4681,1770 4696,1438 4711,1294 4726,1515 4741,1566 4756,1530 4771,1558 4785,1448 4800,1618 4815,1527 4830,1471 4845,1704 4860,1575 4875,1462 4889,1290 4904,1760 4919,1499 4934,1492 4949,1756 4964,1475 4979,1389 4993,1591 5008,1780 5023,1576 5038,1592 5053,1412 5068,1517 5083,1754 5097,1492 5112,1428 5127,1610 5142,1597 5157,1471 5172,1677 5187,1434 5201,1530 5216,1717 5231,1709 5246,1401 5261,1500 5276,1891 5291,1724 5305,1572 5320,1646 5335,1690 5350,1655 5365,1486 5380,1774 5395,1758 5409,1674 5424,1558 5439,1812 5454,1627 5469,1557 5484,1956 5499,1720 5513,1744 5528,1568 5543,1679 5558,1751 5573,1754 5588,1509 5603,1847 5617,1800 5632,1562 5647,1341 5662,1555 5677,1683 5692,1913 5707,1444 5721,1663 5736,1534 5751,1539 5766,1721 5781,1861 5796,1974 5811,1467 5825,1566 5840,1629 5855,1579 5870,1809 5885,1544 5900,1749 5915,1502 5929,1645 5944,1712 5959,1786 5974,1760 5989,1954 6004,1597 6019,1667 6033,1598 6048,1643 6063,1755 6078,1637 6093,2038 6108,1538 6123,1690 6137,1572 6152,1420 6167,2183 6182,1571 6197,1571 6212,1773 6227,1829 6241,1479 6256,1578 6271,1585 6286,1707 6301,1634 6316,1890 6331,1596 6346,1915 6360,1565 6375,1764 6390,1759 6405,1487 6420,1708 6435,1534 6450,1536 6464,1602 6479,1835 6494,1513 6509,1558 6524,1397 6539,1542 6554,1558 6568,1791 6583,1729 6598,1668 6613,1538 6628,1810 6643,1711 6658,1753 6672,1554 6687,1608 6702,1552 6717,1535 6732,1549 6747,1686 6762,1487 6776,1723 6791,1749 6806,1592 6821,1582 6836,1507 6851,1520 6866,1376 6880,1630 6895,1867 6910,1467 6925,1867 6940,1945 6955,1802 6970,1821 6984,1597 6999,1563 7014,1432 7029,1670 7044,1766 7059,1633 7074,1740 7088,1555 7103,1620 7118,1638 7133,1551 7148,1745 7163,1565 7178,1607 7192,1453 7207,1685 7222,1826 7237,1909 7252,1760 7267,1673 7282,1914 7296,1844 7311,1926 7326,1646 7341,1549 7356,1601 7371,1584 7386,1736 7400,1754 7415,1667 7430,1484 7445,1442 7460,1706 7475,1786 7490,1694 7504,1642 7519,1605 7534,1821 7549,1716 7564,2027 7579,1514 7594,1691 7608,1799 7623,1695 7638,1922 7653,1867 7668,1580 7683,2026 7698,1810 7712,1670 7727,1496 7742,1607 7757,1656 7772,1557 7787,1624 7802,1647 7816,1904 7831,1664 7846,1603 7861,1426 7876,1872 7891,1695 7906,1724 7920,1604 7935,1644 7950,1613 7965,1546 7980,1718 7995,1484 8010,1835 8024,1672 8039,1511 8054,1756 8069,1657 8084,1694 8099,1597 8114,1634 8128,2056 8143,1529 8158,1960 8173,1861 8188,1491 8203,1465 8218,1836 8232,1785 8247,1633 8262,1733 8277,1571 8292,1605 8307,1640 8322,2050 8336,1815 8351,1716 8366,2113 8381,1650 8396,1641 8411,1816 8426,1546 8440,1700 8455,1715 8470,1929 8485,1877 8500,1786 8515,1583 8530,1856 8544,1576 8559,1544 8574,1791 8589,1956 8604,1887 8619,1697 8634,1857 8648,1843 8663,1929 8678,1675 8693,1754 8708,1588 8723,1914 8738,1674 8753,1689"/>
 <path fill="none" stroke="rgb(129,212,26)" stroke-width="51" stroke-linejoin="round" d="M 1339,1272 L 8753,1808"/>
 <text class="TextShape"><tspan class="TextParagraph" font-family="Liberation Sans, sans-serif" font-size="282px" font-weight="400"><tspan class="TextPosition" x="1245" y="5053"><tspan fill="rgb(0,0,0)" stroke="none">0</tspan></tspan></tspan></text>
 <text class="TextShape"><tspan class="TextParagraph" font-family="Liberation Sans, sans-serif" font-size="282px" font-weight="400"><tspan class="TextPosition" x="1908" y="5053"><tspan fill="rgb(0,0,0)" stroke="none">50</tspan></tspan></tspan></text>
 <text class="TextShape"><tspan class="TextParagraph" font-family="Liberation Sans, sans-serif" font-size="282px" font-weight="400"><tspan class="TextPosition" x="2572" y="5053"><tspan fill="rgb(0,0,0)" stroke="none">100</tspan></tspan></tspan></text>
 <text class="TextShape"><tspan class="TextParagraph" font-family="Liberation Sans, sans-serif" font-size="282px" font-weight="400"><tspan class="TextPosition" x="3315" y="5053"><tspan fill="rgb(0,0,0)" stroke="none">150</tspan></tspan></tspan></text>
 <text class="TextShape"><tspan class="TextParagraph" font-family="Liberation Sans, sans-serif" font-size="282px" font-weight="400"><tspan class="TextPosition" x="4058" y="5053"><tspan fill="rgb(0,0,0)" stroke="none">200</tspan></tspan></tspan></text>
 <text class="TextShape"><tspan class="TextParagraph" font-family="Liberation Sans, sans-serif" font-size="282px" font-weight="400"><tspan class="TextPosition" x="4801" y="5053"><tspan fill="rgb(0,0,0)" stroke="none">250</tspan></tspan></tspan></text>
 <text class="TextShape"><tspan class="TextParagraph" font-family="Liberation Sans, sans-serif" font-size="282px" font-weight="400"><tspan class="TextPosition" x="5544" y="5053"><tspan fill="rgb(0,0,0)" stroke="none">300</tspan></tspan></tspan></text>
 <text class="TextShape"><tspan class="TextParagraph" font-family="Liberation Sans, sans-serif" font-size="282px" font-weight="400"><tspan class="TextPosition" x="6287" y="5053"><tspan fill="rgb(0,0,0)" stroke="none">350</tspan></tspan></tspan></text>
 <text class="TextShape"><tspan class="TextParagraph" font-family="Liberation Sans, sans-serif" font-size="282px" font-weight="400"><tspan class="TextPosition" x="7030" y="5053"><tspan fill="rgb(0,0,0)" stroke="none">400</tspan></tspan></tspan></text>
 <text class="TextShape"><tspan class="TextParagraph" font-family="Liberation Sans, sans-serif" font-size="282px" font-weight="400"><tspan class="TextPosition" x="7773" y="5053"><tspan fill="rgb(0,0,0)" stroke="none">450</tspan></tspan></tspan></text>
 <text class="TextShape"><tspan class="TextParagraph" font-family="Liberation Sans, sans-serif" font-size="282px" font-weight="400"><tspan class="TextPosition" x="8516" y="5053"><tspan fill="rgb(0,0,0)" stroke="none">500</tspan></tspan></tspan></text>
 <text class="TextShape"><tspan class="TextParagraph" font-family="Liberation Sans, sans-serif" font-size="282px" font-weight="400"><tspan class="TextPosition" x="757" y="4645"><tspan fill="rgb(0,0,0)" stroke="none">20</tspan></tspan></tspan></text>
 <text class="TextShape"><tspan class="TextParagraph" font-family="Liberation Sans, sans-serif" font-size="282px" font-weight="400"><tspan class="TextPosition" x="757" y="4207"><tspan fill="rgb(0,0,0)" stroke="none">30</tspan></tspan></tspan></text>
 <text class="TextShape"><tspan class="TextParagraph" font-family="Liberation Sans, sans-serif" font-size="282px" font-weight="400"><tspan class="TextPosition" x="757" y="3770"><tspan fill="rgb(0,0,0)" stroke="none">40</tspan></tspan></tspan></text>
 <text class="TextShape"><tspan class="TextParagraph" font-family="Liberation Sans, sans-serif" font-size="282px" font-weight="400"><tspan class="TextPosition" x="757" y="3333"><tspan fill="rgb(0,0,0)" stroke="none">50</tspan></tspan></tspan></text>
 <text class="TextShape"><tspan class="TextParagraph" font-family="Liberation Sans, sans-serif" font-size="282px" font-weight="400"><tspan class="TextPosition" x="757" y="2896"><tspan fill="rgb(0,0,0)" stroke="none">60</tspan></tspan></tspan></text>
 <text class="TextShape"><tspan class="TextParagraph" font-family="Liberation Sans, sans-serif" font-size="282px" font-weight="400"><tspan class="TextPosition" x="757" y="2459"><tspan fill="rgb(0,0,0)" stroke="none">70</tspan></tspan></tspan></text>
 <text class="TextShape"><tspan class="TextParagraph" font-family="Liberation Sans, sans-serif" font-size="282px" font-weight="400"><tspan class="TextPosition" x="757" y="2022"><tspan fill="rgb(0,0,0)" stroke="none">80</tspan></tspan></tspan></text>
 <text class="TextShape"><tspan class="TextParagraph" font-family="Liberation Sans, sans-serif" font-size="282px" font-weight="400"><tspan class="TextPosition" x="757" y="1585"><tspan fill="rgb(0,0,0)" stroke="none">90</tspan></tspan></tspan></text>
 <text class="TextShape"><tspan class="TextParagraph" font-family="Liberation Sans, sans-serif" font-size="282px" font-weight="400"><tspan class="TextPosition" x="599" y="1148"><tspan fill="rgb(0,0,0)" stroke="none">100</tspan></tspan></tspan></text>
 <text class="TextShape"><tspan class="TextParagraph" font-family="Liberation Sans, sans-serif" font-size="282px" font-weight="400"><tspan class="TextPosition" x="599" y="711"><tspan fill="rgb(0,0,0)" stroke="none">110</tspan></tspan></tspan></text>
 <text class="TextShape"><tspan class="TextParagraph" font-family="Liberation Sans, sans-serif" font-size="282px" font-weight="400"><tspan class="TextPosition" x="599" y="274"><tspan fill="rgb(0,0,0)" stroke="none">120</tspan></tspan></tspan></text>
 <text class="TextShape"><tspan class="TextParagraph" font-family="Liberation Sans, sans-serif" font-size="353px" font-weight="400"><tspan class="TextPosition" x="3340" y="5585"><tspan fill="rgb(0,0,0)" stroke="none">Training Sequence</tspan></tspan></tspan></text>
 <text class="TextShape" transform="rotate(-90 425 2928)"><tspan class="TextParagraph" font-family="Liberation Sans, sans-serif" font-size="353px" font-weight="400"><tspan class="TextPosition" x="425" y="2928"><tspan fill="rgb(0,0,0)" stroke="none">Loss</tspan></tspan></tspan></text>
</svg>