<?xml version="1.0" encoding="UTF-8"?>
<!DOCTYPE svg PUBLIC "-//W3C//DTD SVG 1.1//EN" "http://www.w3.org/Graphics/SVG/1.1/DTD/svg11.dtd">
<svg width="91mm" height="58mm" viewBox="0 0 9100 5800" version="1.1" xmlns="http://www.w3.org/2000/svg" xmlns:xlink="http://www.w3.org/1999/xlink" stroke-width="28.222" stroke-linejoin="round" xml:space="preserve">
 <path fill="rgb(255,255,255)" stroke="none" d="M 4530,5817 L 0,5817 0,0 9059,0 9059,5817 4530,5817 Z"/>
 <path fill="none" stroke="rgb(179,179,179)" stroke-linejoin="round" d="M 5039,4539 L 1325,4539 1325,169 8753,169 8753,4539 5039,4539 Z"/>
 <path fill="none" stroke="rgb(179,179,179)" stroke-linejoin="round" d="M 8753,4538 L 1325,4538"/>
 <path fill="none" stroke="rgb(179,179,179)" stroke-linejoin="round" d="M 8753,4140 L 1325,4140"/>
 <path fill="none" stroke="rgb(179,179,179)" stroke-linejoin="round" d="M 8753,3743 L 1325,3743"/>
 <path fill="none" stroke="rgb(179,179,179)" stroke-linejoin="round" d="M 8753,3345 L 1325,3345"/>
 <path fill="none" stroke="rgb(179,179,179)" stroke-linejoin="round" d="M 8753,2948 L 1325,2948"/>
 <path fill="none" stroke="rgb(179,179,179)" stroke-linejoin="round" d="M 8753,2552 L 1325,2552"/>
 <path fill="none" stroke="rgb(179,179,179)" stroke-linejoin="round" d="M 8753,2154 L 1325,2154"/>
 <path fill="none" stroke="rgb(179,179,179)" stroke-linejoin="round" d="M 8753,1757 L 1325,1757"/>
 <path fill="none" stroke="rgb(179,179,179)" stroke-linejoin="round" d="M 8753,1360 L 1325,1360"/>
 <path fill="none" stroke="rgb(179,179,179)" stroke-linejoin="round" d="M 8753,962 L 1325,962"/>
 <path fill="none" stroke="rgb(179,179,179)" stroke-linejoin="round" d="M 8753,565 L 1325,565"/>
 <path fill="none" stroke="rgb(179,179,179)" stroke-linejoin="round" d="M 8753,168 L 1325,168"/>
 <path fill="none" stroke="rgb(179,179,179)" stroke-linejoin="round" d="M 1325,4688 L 1325,4538"/>
 <path fill="none" stroke="rgb(179,179,179)" stroke-linejoin="round" d="M 1325,4688 L 1325,4538"/>
 <path fill="none" stroke="rgb(179,179,179)" stroke-linejoin="round" d="M 2067,4688 L 2067,4538"/>
 <path fill="none" stroke="rgb(179,179,179)" stroke-linejoin="round" d="M 2067,4688 L 2067,4538"/>
 <path fill="none" stroke="rgb(179,179,179)" stroke-linejoin="round" d="M 2810,4688 L 2810,4538"/>
 <path fill="none" stroke="rgb(179,179,179)" stroke-linejoin="round" d="M 2810,4688 L 2810,4538"/>
 <path fill="none" stroke="rgb(179,179,179)" stroke-linejoin="round" d="M 3553,4688 L 3553,4538"/>
 <path fill="none" stroke="rgb(179,179,179)" stroke-linejoin="round" d="M 3553,4688 L 3553,4538"/>
 <path fill="none" stroke="rgb(179,179,179)" stroke-linejoin="round" d="M 4296,4688 L 4296,4538"/>
 <path fill="none" stroke="rgb(179,179,179)" stroke-linejoin="round" d="M 4296,4688 L 4296,4538"/>
 <path fill="none" stroke="rgb(179,179,179)" stroke-linejoin="round" d="M 5038,4688 L 5038,4538"/>
 <path fill="none" stroke="rgb(179,179,179)" stroke-linejoin="round" d="M 5038,4688 L 5038,4538"/>
 <path fill="none" stroke="rgb(179,179,179)" stroke-linejoin="round" d="M 5781,4688 L 5781,4538"/>
 <path fill="none" stroke="rgb(179,179,179)" stroke-linejoin="round" d="M 5781,4688 L 5781,4538"/>
 <path fill="none" stroke="rgb(179,179,179)" stroke-linejoin="round" d="M 6524,4688 L 6524,4538"/>
 <path fill="none" stroke="rgb(179,179,179)" stroke-linejoin="round" d="M 6524,4688 L 6524,4538"/>
 <path fill="none" stroke="rgb(179,179,179)" stroke-linejoin="round" d="M 7267,4688 L 7267,4538"/>
 <path fill="none" stroke="rgb(179,179,179)" stroke-linejoin="round" d="M 7267,4688 L 7267,4538"/>
 <path fill="none" stroke="rgb(179,179,179)" stroke-linejoin="round" d="M 8010,4688 L 8010,4538"/>
 <path fill="none" stroke="rgb(179,179,179)" stroke-linejoin="round" d="M 8010,4688 L 8010,4538"/>
 <path fill="none" stroke="rgb(179,179,179)" stroke-linejoin="round" d="M 8753,4688 L 8753,4538"/>
 <path fill="none" stroke="rgb(179,179,179)" stroke-linejoin="round" d="M 8753,4688 L 8753,4538"/>
 <path fill="none" stroke="rgb(179,179,179)" stroke-linejoin="round" d="M 1325,4538 L 8753,4538"/>
 <path fill="none" stroke="rgb(179,179,179)" stroke-linejoin="round" d="M 1175,4538 L 1325,4538"/>
 <path fill="none" stroke="rgb(179,179,179)" stroke-linejoin="round" d="M 1175,4538 L 1325,4538"/>
 <path fill="none" stroke="rgb(179,179,179)" stroke-linejoin="round" d="M 1175,4140 L 1325,4140"/>
 <path fill="none" stroke="rgb(179,179,179)" stroke-linejoin="round" d="M 1175,4140 L 1325,4140"/>
 <path fill="none" stroke="rgb(179,179,179)" stroke-linejoin="round" d="M 1175,3743 L 1325,3743"/>
 <path fill="none" stroke="rgb(179,179,179)" stroke-linejoin="round" d="M 1175,3743 L 1325,3743"/>
 <path fill="none" stroke="rgb(179,179,179)" stroke-linejoin="round" d="M 1175,3345 L 1325,3345"/>
 <path fill="none" stroke="rgb(179,179,179)" stroke-linejoin="round" d="M 1175,3345 L 1325,3345"/>
 <path fill="none" stroke="rgb(179,179,179)" stroke-linejoin="round" d="M 1175,2948 L 1325,2948"/>
 <path fill="none" stroke="rgb(179,179,179)" stroke-linejoin="round" d="M 1175,2948 L 1325,2948"/>
 <path fill="none" stroke="rgb(179,179,179)" stroke-linejoin="round" d="M 1175,2552 L 1325,2552"/>
 <path fill="none" stroke="rgb(179,179,179)" stroke-linejoin="round" d="M 1175,2552 L 1325,2552"/>
 <path fill="none" stroke="rgb(179,179,179)" stroke-linejoin="round" d="M 1175,2154 L 1325,2154"/>
 <path fill="none" stroke="rgb(179,179,179)" stroke-linejoin="round" d="M 1175,2154 L 1325,2154"/>
 <path fill="none" stroke="rgb(179,179,179)" stroke-linejoin="round" d="M 1175,1757 L 1325,1757"/>
 <path fill="none" stroke="rgb(179,179,179)" stroke-linejoin="round" d="M 1175,1757 L 1325,1757"/>
 <path fill="none" stroke="rgb(179,179,179)" stroke-linejoin="round" d="M 1175,1360 L 1325,1360"/>
 <path fill="none" stroke="rgb(179,179,179)" stroke-linejoin="round" d="M 1175,1360 L 1325,1360"/>
 <path fill="none" stroke="rgb(179,179,179)" stroke-linejoin="round" d="M 1175,962 L 1325,962"/>
 <path fill="none" stroke="rgb(179,179,179)" stroke-linejoin="round" d="M 1175,962 L 1325,962"/>
 <path fill="none" stroke="rgb(179,179,179)" stroke-linejoin="round" d="M 1175,565 L 1325,565"/>
 <path fill="none" stroke="rgb(179,179,179)" stroke-linejoin="round" d="M 1175,565 L 1325,565"/>
 <path fill="none" stroke="rgb(179,179,179)" stroke-linejoin="round" d="M 1175,168 L 1325,168"/>
 <path fill="none" stroke="rgb(179,179,179)" stroke-linejoin="round" d="M 1175,168 L 1325,168"/>
 <path fill="none" stroke="rgb(179,179,179)" stroke-linejoin="round" d="M 1325,4538 L 1325,168"/>
 <path fill="none" stroke="rgb(255,66,14)" stroke-width="51" stroke-linejoin="round" d="M 2067,3178 L 2810,3178 3553,3229 4296,3350 5038,3339 5781,3418 6524,3541 7267,3539 8010,3541 8753,3842"/>
 <path fill="none" stroke="rgb(0,69,134)" stroke-width="51" stroke-linejoin="round" d="M 2067,2371 L 2810,3103 3553,3101 4296,3090 5038,3148 5781,3244 6524,3241 7267,3234 8010,3117 8753,3258"/>
 <text class="TextShape"><tspan class="TextParagraph" font-family="Liberation Sans, sans-serif" font-size="282px" font-weight="400"><tspan class="TextPosition" x="1245" y="5053"><tspan fill="rgb(0,0,0)" stroke="none">0</tspan></tspan></tspan></text>
 <text class="TextShape"><tspan class="TextParagraph" font-family="Liberation Sans, sans-serif" font-size="282px" font-weight="400"><tspan class="TextPosition" x="1987" y="5053"><tspan fill="rgb(0,0,0)" stroke="none">1</tspan></tspan></tspan></text>
 <text class="TextShape"><tspan class="TextParagraph" font-family="Liberation Sans, sans-serif" font-size="282px" font-weight="400"><tspan class="TextPosition" x="2730" y="5053"><tspan fill="rgb(0,0,0)" stroke="none">2</tspan></tspan></tspan></text>
 <text class="TextShape"><tspan class="TextParagraph" font-family="Liberation Sans, sans-serif" font-size="282px" font-weight="400"><tspan class="TextPosition" x="3473" y="5053"><tspan fill="rgb(0,0,0)" stroke="none">3</tspan></tspan></tspan></text>
 <text class="TextShape"><tspan class="TextParagraph" font-family="Liberation Sans, sans-serif" font-size="282px" font-weight="400"><tspan class="TextPosition" x="4216" y="5053"><tspan fill="rgb(0,0,0)" stroke="none">4</tspan></tspan></tspan></text>
 <text class="TextShape"><tspan class="TextParagraph" font-family="Liberation Sans, sans-serif" font-size="282px" font-weight="400"><tspan class="TextPosition" x="4959" y="5053"><tspan fill="rgb(0,0,0)" stroke="none">5</tspan></tspan></tspan></text>
 <text class="TextShape"><tspan class="TextParagraph" font-family="Liberation Sans, sans-serif" font-size="282px" font-weight="400"><tspan class="TextPosition" x="5702" y="5053"><tspan fill="rgb(0,0,0)" stroke="none">6</tspan></tspan></tspan></text>
 <text class="TextShape"><tspan class="TextParagraph" font-family="Liberation Sans, sans-serif" font-size="282px" font-weight="400"><tspan class="TextPosition" x="6445" y="5053"><tspan fill="rgb(0,0,0)" stroke="none">7</tspan></tspan></tspan></text>
 <text class="TextShape"><tspan class="TextParagraph" font-family="Liberation Sans, sans-serif" font-size="282px" font-weight="400"><tspan class="TextPosition" x="7188" y="5053"><tspan fill="rgb(0,0,0)" stroke="none">8</tspan></tspan></tspan></text>
 <text class="TextShape"><tspan class="TextParagraph" font-family="Liberation Sans, sans-serif" font-size="282px" font-weight="400"><tspan class="TextPosition" x="7931" y="5053"><tspan fill="rgb(0,0,0)" stroke="none">9</tspan></tspan></tspan></text>
 <text class="TextShape"><tspan class="TextParagraph" font-family="Liberation Sans, sans-serif" font-size="282px" font-weight="400"><tspan class="TextPosition" x="8595" y="5053"><tspan fill="rgb(0,0,0)" stroke="none">10</tspan></tspan></tspan></text>
 <text class="TextShape"><tspan class="TextParagraph" font-family="Liberation Sans, sans-serif" font-size="282px" font-weight="400"><tspan class="TextPosition" x="757" y="4645"><tspan fill="rgb(0,0,0)" stroke="none">10</tspan></tspan></tspan></text>
 <text class="TextShape"><tspan class="TextParagraph" font-family="Liberation Sans, sans-serif" font-size="282px" font-weight="400"><tspan class="TextPosition" x="757" y="4247"><tspan fill="rgb(0,0,0)" stroke="none">20</tspan></tspan></tspan></text>
 <text class="TextShape"><tspan class="TextParagraph" font-family="Liberation Sans, sans-serif" font-size="282px" font-weight="400"><tspan class="TextPosition" x="757" y="3850"><tspan fill="rgb(0,0,0)" stroke="none">30</tspan></tspan></tspan></text>
 <text class="TextShape"><tspan class="TextParagraph" font-family="Liberation Sans, sans-serif" font-size="282px" font-weight="400"><tspan class="TextPosition" x="757" y="3452"><tspan fill="rgb(0,0,0)" stroke="none">40</tspan></tspan></tspan></text>
 <text class="TextShape"><tspan class="TextParagraph" font-family="Liberation Sans, sans-serif" font-size="282px" font-weight="400"><tspan class="TextPosition" x="757" y="3055"><tspan fill="rgb(0,0,0)" stroke="none">50</tspan></tspan></tspan></text>
 <text class="TextShape"><tspan class="TextParagraph" font-family="Liberation Sans, sans-serif" font-size="282px" font-weight="400"><tspan class="TextPosition" x="757" y="2658"><tspan fill="rgb(0,0,0)" stroke="none">60</tspan></tspan></tspan></text>
 <text class="TextShape"><tspan class="TextParagraph" font-family="Liberation Sans, sans-serif" font-size="282px" font-weight="400"><tspan class="TextPosition" x="757" y="2260"><tspan fill="rgb(0,0,0)" stroke="none">70</tspan></tspan></tspan></text>
 <text class="TextShape"><tspan class="TextParagraph" font-family="Liberation Sans, sans-serif" font-size="282px" font-weight="400"><tspan class="TextPosition" x="757" y="1863"><tspan fill="rgb(0,0,0)" stroke="none">80</tspan></tspan></tspan></text>
 <text class="TextShape"><tspan class="TextParagraph" font-family="Liberation Sans, sans-serif" font-size="282px" font-weight="400"><tspan class="TextPosition" x="757" y="1466"><tspan fill="rgb(0,0,0)" stroke="none">90</tspan></tspan></tspan></text>
 <text class="TextShape"><tspan class="TextParagraph" font-family="Liberation Sans, sans-serif" font-size="282px" font-weight="400"><tspan class="TextPosition" x="599" y="1068"><tspan fill="rgb(0,0,0)" stroke="none">100</tspan></tspan></tspan></text>
 <text class="TextShape"><tspan class="TextParagraph" font-family="Liberation Sans, sans-serif" font-size="282px" font-weight="400"><tspan class="TextPosition" x="599" y="671"><tspan fill="rgb(0,0,0)" stroke="none">110</tspan></tspan></tspan></text>
 <text class="TextShape"><tspan class="TextParagraph" font-family="Liberation Sans, sans-serif" font-size="282px" font-weight="400"><tspan class="TextPosition" x="599" y="274"><tspan fill="rgb(0,0,0)" stroke="none">120</tspan></tspan></tspan></text>
 <path fill="rgb(238,238,238)" stroke="none" d="M 7519,1246 L 6408,1246 6408,294 8630,294 8630,1246 7519,1246 Z"/>
 <path fill="none" stroke="rgb(0,69,134)" stroke-width="51" stroke-linejoin="round" d="M 6552,557 L 7352,557"/>
 <path fill="none" stroke="rgb(255,66,14)" stroke-width="51" stroke-linejoin="round" d="M 6552,980 L 7352,980"/>
 <text class="TextShape"><tspan class="TextParagraph" font-family="Liberation Sans, sans-serif" font-size="282px" font-weight="400"><tspan class="TextPosition" x="7452" y="663"><tspan fill="rgb(0,0,0)" stroke="none">different</tspan></tspan></tspan></text>
 <text class="TextShape"><tspan class="TextParagraph" font-family="Liberation Sans, sans-serif" font-size="282px" font-weight="400"><tspan class="TextPosition" x="7452" y="1086"><tspan fill="rgb(0,0,0)" stroke="none">same</tspan></tspan></tspan></text>
 <text class="TextShape"><tspan class="TextParagraph" font-family="Liberation Sans, sans-serif" font-size="353px" font-weight="400"><tspan class="TextPosition" x="3347" y="5595"><tspan fill="rgb(0,0,0)" stroke="none">Training Sequence</tspan></tspan></tspan></text>
 <text class="TextShape" transform="rotate(-90 425 2928)"><tspan class="TextParagraph" font-family="Liberation Sans, sans-serif" font-size="353px" font-weight="400"><tspan class="TextPosition" x="425" y="2928"><tspan fill="rgb(0,0,0)" stroke="none">Loss</tspan></tspan></tspan></text>
</svg>