<?xml version="1.0" encoding="UTF-8"?>
<!DOCTYPE svg PUBLIC "-//W3C//DTD SVG 1.1//EN" "http://www.w3.org/Graphics/SVG/1.1/DTD/svg11.dtd">
<svg width="91mm" height="58mm" viewBox="0 0 9100 5800" version="1.1" xmlns="http://www.w3.org/2000/svg" xmlns:xlink="http://www.w3.org/1999/xlink" stroke-width="28.222" stroke-linejoin="round" xml:space="preserve">
 <path fill="rgb(255,255,255)" stroke="none" d="M 4530,5817 L 0,5817 0,0 9059,0 9059,5817 4530,5817 Z"/>
 <path fill="none" stroke="rgb(179,179,179)" stroke-linejoin="round" d="M 5039,4539 L 1325,4539 1325,169 8753,169 8753,4539 5039,4539 Z"/>
 <path fill="none" stroke="rgb(179,179,179)" stroke-linejoin="round" d="M 8753,4538 L 1325,4538"/>
 <path fill="none" stroke="rgb(179,179,179)" stroke-linejoin="round" d="M 8753,4100 L 1325,4100"/>
 <path fill="none" stroke="rgb(179,179,179)" stroke-linejoin="round" d="M 8753,3663 L 1325,3663"/>
 <path fill="none" stroke="rgb(179,179,179)" stroke-linejoin="round" d="M 8753,3226 L 1325,3226"/>
 <path fill="none" stroke="rgb(179,179,179)" stroke-linejoin="round" d="M 8753,2790 L 1325,2790"/>
 <path fill="none" stroke="rgb(179,179,179)" stroke-linejoin="round" d="M 8753,2353 L 1325,2353"/>
 <path fill="none" stroke="rgb(179,179,179)" stroke-linejoin="round" d="M 8753,1916 L 1325,1916"/>
 <path fill="none" stroke="rgb(179,179,179)" stroke-linejoin="round" d="M 8753,1479 L 1325,1479"/>
 <path fill="none" stroke="rgb(179,179,179)" stroke-linejoin="round" d="M 8753,1042 L 1325,1042"/>
 <path fill="none" stroke="rgb(179,179,179)" stroke-linejoin="round" d="M 8753,605 L 1325,605"/>
 <path fill="none" stroke="rgb(179,179,179)" stroke-linejoin="round" d="M 8753,168 L 1325,168"/>
 <path fill="none" stroke="rgb(179,179,179)" stroke-linejoin="round" d="M 1325,4688 L 1325,4538"/>
 <path fill="none" stroke="rgb(179,179,179)" stroke-linejoin="round" d="M 1325,4688 L 1325,4538"/>
 <path fill="none" stroke="rgb(179,179,179)" stroke-linejoin="round" d="M 2067,4688 L 2067,4538"/>
 <path fill="none" stroke="rgb(179,179,179)" stroke-linejoin="round" d="M 2067,4688 L 2067,4538"/>
 <path fill="none" stroke="rgb(179,179,179)" stroke-linejoin="round" d="M 2810,4688 L 2810,4538"/>
 <path fill="none" stroke="rgb(179,179,179)" stroke-linejoin="round" d="M 2810,4688 L 2810,4538"/>
 <path fill="none" stroke="rgb(179,179,179)" stroke-linejoin="round" d="M 3553,4688 L 3553,4538"/>
 <path fill="none" stroke="rgb(179,179,179)" stroke-linejoin="round" d="M 3553,4688 L 3553,4538"/>
 <path fill="none" stroke="rgb(179,179,179)" stroke-linejoin="round" d="M 4296,4688 L 4296,4538"/>
 <path fill="none" stroke="rgb(179,179,179)" stroke-linejoin="round" d="M 4296,4688 L 4296,4538"/>
 <path fill="none" stroke="rgb(179,179,179)" stroke-linejoin="round" d="M 5038,4688 L 5038,4538"/>
 <path fill="none" stroke="rgb(179,179,179)" stroke-linejoin="round" d="M 5038,4688 L 5038,4538"/>
 <path fill="none" stroke="rgb(179,179,179)" stroke-linejoin="round" d="M 5781,4688 L 5781,4538"/>
 <path fill="none" stroke="rgb(179,179,179)" stroke-linejoin="round" d="M 5781,4688 L 5781,4538"/>
 <path fill="none" stroke="rgb(179,179,179)" stroke-linejoin="round" d="M 6524,4688 L 6524,4538"/>
 <path fill="none" stroke="rgb(179,179,179)" stroke-linejoin="round" d="M 6524,4688 L 6524,4538"/>
 <path fill="none" stroke="rgb(179,179,179)" stroke-linejoin="round" d="M 7267,4688 L 7267,4538"/>
 <path fill="none" stroke="rgb(179,179,179)" stroke-linejoin="round" d="M 7267,4688 L 7267,4538"/>
 <path fill="none" stroke="rgb(179,179,179)" stroke-linejoin="round" d="M 8010,4688 L 8010,4538"/>
 <path fill="none" stroke="rgb(179,179,179)" stroke-linejoin="round" d="M 8010,4688 L 8010,4538"/>
 <path fill="none" stroke="rgb(179,179,179)" stroke-linejoin="round" d="M 8753,4688 L 8753,4538"/>
 <path fill="none" stroke="rgb(179,179,179)" stroke-linejoin="round" d="M 8753,4688 L 8753,4538"/>
 <path fill="none" stroke="rgb(179,179,179)" stroke-linejoin="round" d="M 1325,4538 L 8753,4538"/>
 <path fill="none" stroke="rgb(179,179,179)" stroke-linejoin="round" d="M 1175,4538 L 1325,4538"/>
 <path fill="none" stroke="rgb(179,179,179)" stroke-linejoin="round" d="M 1175,4538 L 1325,4538"/>
 <path fill="none" stroke="rgb(179,179,179)" stroke-linejoin="round" d="M 1175,4100 L 1325,4100"/>
 <path fill="none" stroke="rgb(179,179,179)" stroke-linejoin="round" d="M 1175,4100 L 1325,4100"/>
 <path fill="none" stroke="rgb(179,179,179)" stroke-linejoin="round" d="M 1175,3663 L 1325,3663"/>
 <path fill="none" stroke="rgb(179,179,179)" stroke-linejoin="round" d="M 1175,3663 L 1325,3663"/>
 <path fill="none" stroke="rgb(179,179,179)" stroke-linejoin="round" d="M 1175,3226 L 1325,3226"/>
 <path fill="none" stroke="rgb(179,179,179)" stroke-linejoin="round" d="M 1175,3226 L 1325,3226"/>
 <path fill="none" stroke="rgb(179,179,179)" stroke-linejoin="round" d="M 1175,2790 L 1325,2790"/>
 <path fill="none" stroke="rgb(179,179,179)" stroke-linejoin="round" d="M 1175,2790 L 1325,2790"/>
 <path fill="none" stroke="rgb(179,179,179)" stroke-linejoin="round" d="M 1175,2353 L 1325,2353"/>
 <path fill="none" stroke="rgb(179,179,179)" stroke-linejoin="round" d="M 1175,2353 L 1325,2353"/>
 <path fill="none" stroke="rgb(179,179,179)" stroke-linejoin="round" d="M 1175,1916 L 1325,1916"/>
 <path fill="none" stroke="rgb(179,179,179)" stroke-linejoin="round" d="M 1175,1916 L 1325,1916"/>
 <path fill="none" stroke="rgb(179,179,179)" stroke-linejoin="round" d="M 1175,1479 L 1325,1479"/>
 <path fill="none" stroke="rgb(179,179,179)" stroke-linejoin="round" d="M 1175,1479 L 1325,1479"/>
 <path fill="none" stroke="rgb(179,179,179)" stroke-linejoin="round" d="M 1175,1042 L 1325,1042"/>
 <path fill="none" stroke="rgb(179,179,179)" stroke-linejoin="round" d="M 1175,1042 L 1325,1042"/>
 <path fill="none" stroke="rgb(179,179,179)" stroke-linejoin="round" d="M 1175,605 L 1325,605"/>
 <path fill="none" stroke="rgb(179,179,179)" stroke-linejoin="round" d="M 1175,605 L 1325,605"/>
 <path fill="none" stroke="rgb(179,179,179)" stroke-linejoin="round" d="M 1175,168 L 1325,168"/>
 <path fill="none" stroke="rgb(179,179,179)" stroke-linejoin="round" d="M 1175,168 L 1325,168"/>
 <path fill="none" stroke="rgb(179,179,179)" stroke-linejoin="round" d="M 1325,4538 L 1325,168"/>
 <path fill="none" stroke="rgb(0,69,134)" stroke-width="51" stroke-linejoin="round" d="M 1339,577 L 1354,611 1369,656 1384,726 1399,793 1414,935 1429,1123 1443,1239 1458,1254 1473,1517 1488,1170 1503,1223 1518,1329 1533,1436 1547,1515 1562,1287 1577,1199 1592,1344 1607,1592 1622,1208 1637,1351 1651,1545 1666,1435 1681,1450 1696,1230 1711,1441 1726,1485 1741,1390 1755,1315 1770,1206 1785,1463 1800,1477 1815,1278 1830,1662 1845,1436 1859,1505 1874,1405 1889,1552 1904,1318 1919,1608 1934,1225 1949,1417 1963,1292 1978,1623 1993,1726 2008,1391 2023,1448 2038,1404 2053,1189 2067,1273 2082,1305 2097,1360 2112,1582 2127,1380 2142,1315 2157,1484 2171,1434 2186,1034 2201,1675 2216,1378 2231,1283 2246,1226 2261,1278 2275,1428 2290,1207 2305,1540 2320,1269 2335,1409 2350,1247 2365,1379 2379,1464 2394,1566 2409,1788 2424,1597 2439,1443 2454,1567 2469,1294 2483,1381 2498,1397 2513,1575 2528,1602 2543,1525 2558,1487 2573,1398 2587,1487 2602,1670 2617,1410 2632,1536 2647,1337 2662,1392 2677,1397 2691,1441 2706,1559 2721,1445 2736,1700 2751,1498 2766,1717 2781,1813 2795,1571 2810,1343 2825,1596 2840,1556 2855,1810 2870,1566 2885,1538 2899,1372 2914,1590 2929,1417 2944,1545 2959,1584 2974,1965 2989,1345 3003,1571 3018,1337 3033,1292 3048,1565 3063,1429 3078,1546 3093,1520 3107,1660 3122,1661 3137,1679 3152,1526 3167,1514 3182,1565 3197,1681 3211,1456 3226,1690 3241,1811 3256,1711 3271,1428 3286,1610 3301,1533 3315,1479 3330,1685 3345,1896 3360,1706 3375,1595 3390,1554 3405,1425 3419,1512 3434,1804 3449,1262 3464,1442 3479,1489 3494,1371 3509,1879 3523,1666 3538,1498 3553,1410 3568,1599 3583,1798 3598,1788 3613,1586 3627,1603 3642,1885 3657,1632 3672,1543 3687,1513 3702,1552 3717,1654 3731,1745 3746,1819 3761,1728 3776,1482 3791,1891 3806,1553 3821,1807 3836,1475 3850,1645 3865,1618 3880,1628 3895,1505 3910,1505 3925,1664 3940,1602 3954,1739 3969,1475 3984,1739 3999,1742 4014,1849 4029,1751 4044,2091 4058,1523 4073,1513 4088,1440 4103,1651 4118,1721 4133,1646 4148,1842 4162,1674 4177,1763 4192,1639 4207,1808 4222,1712 4237,1630 4252,1584 4266,1917 4281,1832 4296,1805 4311,1613 4326,1568 4341,1807 4356,1326 4370,1441 4385,1747 4400,1656 4415,1606 4430,1833 4445,1819 4460,1516 4474,1439 4489,1583 4504,1584 4519,1669 4533,1873 4548,1690 4563,1670 4577,1815 4592,1755 4607,1703 4622,1665 4637,1582 4652,1628 4667,1934 4681,1634 4696,1780 4711,1788 4726,1874 4741,1401 4756,1774 4771,1700 4785,1604 4800,1645 4815,1440 4830,2004 4845,1355 4860,1787 4875,1666 4889,1639 4904,1775 4919,1808 4934,1750 4949,1516 4964,1566 4979,1674 4993,2010 5008,1703 5023,1621 5038,1579 5053,1487 5068,1729 5083,2028 5097,1618 5112,1717 5127,1516 5142,1791 5157,1813 5172,1608 5187,1390 5201,1776 5216,1988 5231,1861 5246,1725 5261,1708 5276,2006 5291,2000 5305,1658 5320,1711 5335,1594 5350,1934 5365,1863 5380,1811 5395,1622 5409,1909 5424,1966 5439,1478 5454,1466 5469,1759 5484,1937 5499,1847 5513,1727 5528,1974 5543,1468 5558,1679 5573,2081 5588,1643 5603,1617 5617,1882 5632,1899 5647,1737 5662,1772 5677,1859 5692,1676 5707,1792 5721,1621 5736,1947 5751,1847 5766,1811 5781,1687 5796,2012 5811,1823 5825,1738 5840,1645 5855,1474 5870,1750 5885,1525 5900,1570 5915,2043 5929,1815 5944,1843 5959,1936 5974,1786 5989,1560 6004,1786 6019,1710 6033,1882 6048,1733 6063,1795 6078,1953 6093,1880 6108,2213 6123,1797 6137,1835 6152,1622 6167,1904 6182,1691 6197,1520 6212,1662 6227,1614 6241,1727 6256,1724 6271,1776 6286,1953 6301,1700 6316,1788 6331,1673 6346,1774 6360,1631 6375,2130 6390,2036 6405,2105 6420,1845 6435,1792 6450,1655 6464,2383 6479,2061 6494,1928 6509,1849 6524,1748 6539,2054 6554,1514 6568,1518 6583,2031 6598,1616 6613,1651 6628,1873 6643,1997 6658,1641 6672,1729 6687,1925 6702,1656 6717,1618 6732,1635 6747,2006 6762,1984 6776,1756 6791,1647 6806,1897 6821,2262 6836,1906 6851,1834 6866,2013 6880,1437 6895,1751 6910,1294 6925,1868 6940,2119 6955,1707 6970,1727 6984,1649 6999,1607 7014,1534 7029,1491 7044,1569 7059,1783 7074,2129 7088,1668 7103,1657 7118,1791 7133,1670 7148,1927 7163,1713 7178,1525 7192,1485 7207,1645 7222,1741 7237,2062 7252,1900 7267,2135 7282,1755 7296,1812 7311,1961 7326,1815 7341,1798 7356,1999 7371,2451 7386,1950 7400,1536 7415,1622 7430,1687 7445,2080 7460,1702 7475,1917 7490,2035 7504,1806 7519,1760 7534,1653 7549,1807 7564,1764 7579,2052 7594,1936 7608,2233 7623,1745 7638,1955 7653,2035 7668,1646 7683,1647 7698,2014 7712,1901 7727,1960 7742,1697 7757,1646 7772,1864 7787,1872 7802,2005 7816,2054 7831,1844 7846,1788 7861,1877 7876,1890 7891,1721 7906,2013 7920,2154 7935,1939 7950,1592 7965,1835 7980,2005 7995,1532 8010,1744 8024,1918 8039,1988 8054,1661 8069,1864 8084,1475 8099,1692 8114,1958 8128,2118 8143,1804 8158,1577 8173,1657 8188,1570 8203,2024 8218,1750 8232,1669 8247,1725 8262,1867 8277,1809 8292,2083 8307,2076 8322,1636 8336,1824 8351,1775 8366,1870 8381,1789 8396,1815 8411,1940 8426,2024 8440,1818 8455,2041 8470,1866 8485,1850 8500,1927 8515,1890 8530,1761 8544,1754 8559,1773 8574,1763 8589,2316 8604,1696 8619,1941 8634,1977 8648,1777 8663,1787 8678,1649 8693,1976 8708,1861 8723,1714 8738,1652 8753,1777"/>
 <path fill="none" stroke="rgb(129,212,26)" stroke-width="51" stroke-linejoin="round" d="M 1339,1393 L 8753,1948"/>
 <text class="TextShape"><tspan class="TextParagraph" font-family="Liberation Sans, sans-serif" font-size="282px" font-weight="400"><tspan class="TextPosition" x="1245" y="5053"><tspan fill="rgb(0,0,0)" stroke="none">0</tspan></tspan></tspan></text>
 <text class="TextShape"><tspan class="TextParagraph" font-family="Liberation Sans, sans-serif" font-size="282px" font-weight="400"><tspan class="TextPosition" x="1908" y="5053"><tspan fill="rgb(0,0,0)" stroke="none">50</tspan></tspan></tspan></text>
 <text class="TextShape"><tspan class="TextParagraph" font-family="Liberation Sans, sans-serif" font-size="282px" font-weight="400"><tspan class="TextPosition" x="2572" y="5053"><tspan fill="rgb(0,0,0)" stroke="none">100</tspan></tspan></tspan></text>
 <text class="TextShape"><tspan class="TextParagraph" font-family="Liberation Sans, sans-serif" font-size="282px" font-weight="400"><tspan class="TextPosition" x="3315" y="5053"><tspan fill="rgb(0,0,0)" stroke="none">150</tspan></tspan></tspan></text>
 <text class="TextShape"><tspan class="TextParagraph" font-family="Liberation Sans, sans-serif" font-size="282px" font-weight="400"><tspan class="TextPosition" x="4058" y="5053"><tspan fill="rgb(0,0,0)" stroke="none">200</tspan></tspan></tspan></text>
 <text class="TextShape"><tspan class="TextParagraph" font-family="Liberation Sans, sans-serif" font-size="282px" font-weight="400"><tspan class="TextPosition" x="4801" y="5053"><tspan fill="rgb(0,0,0)" stroke="none">250</tspan></tspan></tspan></text>
 <text class="TextShape"><tspan class="TextParagraph" font-family="Liberation Sans, sans-serif" font-size="282px" font-weight="400"><tspan class="TextPosition" x="5544" y="5053"><tspan fill="rgb(0,0,0)" stroke="none">300</tspan></tspan></tspan></text>
 <text class="TextShape"><tspan class="TextParagraph" font-family="Liberation Sans, sans-serif" font-size="282px" font-weight="400"><tspan class="TextPosition" x="6287" y="5053"><tspan fill="rgb(0,0,0)" stroke="none">350</tspan></tspan></tspan></text>
 <text class="TextShape"><tspan class="TextParagraph" font-family="Liberation Sans, sans-serif" font-size="282px" font-weight="400"><tspan class="TextPosition" x="7030" y="5053"><tspan fill="rgb(0,0,0)" stroke="none">400</tspan></tspan></tspan></text>
 <text class="TextShape"><tspan class="TextParagraph" font-family="Liberation Sans, sans-serif" font-size="282px" font-weight="400"><tspan class="TextPosition" x="7773" y="5053"><tspan fill="rgb(0,0,0)" stroke="none">450</tspan></tspan></tspan></text>
 <text class="TextShape"><tspan class="TextParagraph" font-family="Liberation Sans, sans-serif" font-size="282px" font-weight="400"><tspan class="TextPosition" x="8516" y="5053"><tspan fill="rgb(0,0,0)" stroke="none">500</tspan></tspan></tspan></text>
 <text class="TextShape"><tspan class="TextParagraph" font-family="Liberation Sans, sans-serif" font-size="282px" font-weight="400"><tspan class="TextPosition" x="757" y="4645"><tspan fill="rgb(0,0,0)" stroke="none">20</tspan></tspan></tspan></text>
 <text class="TextShape"><tspan class="TextParagraph" font-family="Liberation Sans, sans-serif" font-size="282px" font-weight="400"><tspan class="TextPosition" x="757" y="4207"><tspan fill="rgb(0,0,0)" stroke="none">30</tspan></tspan></tspan></text>
 <text class="TextShape"><tspan class="TextParagraph" font-family="Liberation Sans, sans-serif" font-size="282px" font-weight="400"><tspan class="TextPosition" x="757" y="3770"><tspan fill="rgb(0,0,0)" stroke="none">40</tspan></tspan></tspan></text>
 <text class="TextShape"><tspan class="TextParagraph" font-family="Liberation Sans, sans-serif" font-size="282px" font-weight="400"><tspan class="TextPosition" x="757" y="3333"><tspan fill="rgb(0,0,0)" stroke="none">50</tspan></tspan></tspan></text>
 <text class="TextShape"><tspan class="TextParagraph" font-family="Liberation Sans, sans-serif" font-size="282px" font-weight="400"><tspan class="TextPosition" x="757" y="2896"><tspan fill="rgb(0,0,0)" stroke="none">60</tspan></tspan></tspan></text>
 <text class="TextShape"><tspan class="TextParagraph" font-family="Liberation Sans, sans-serif" font-size="282px" font-weight="400"><tspan class="TextPosition" x="757" y="2459"><tspan fill="rgb(0,0,0)" stroke="none">70</tspan></tspan></tspan></text>
 <text class="TextShape"><tspan class="TextParagraph" font-family="Liberation Sans, sans-serif" font-size="282px" font-weight="400"><tspan class="TextPosition" x="757" y="2022"><tspan fill="rgb(0,0,0)" stroke="none">80</tspan></tspan></tspan></text>
 <text class="TextShape"><tspan class="TextParagraph" font-family="Liberation Sans, sans-serif" font-size="282px" font-weight="400"><tspan class="TextPosition" x="757" y="1585"><tspan fill="rgb(0,0,0)" stroke="none">90</tspan></tspan></tspan></text>
 <text class="TextShape"><tspan class="TextParagraph" font-family="Liberation Sans, sans-serif" font-size="282px" font-weight="400"><tspan class="TextPosition" x="599" y="1148"><tspan fill="rgb(0,0,0)" stroke="none">100</tspan></tspan></tspan></text>
 <text class="TextShape"><tspan class="TextParagraph" font-family="Liberation Sans, sans-serif" font-size="282px" font-weight="400"><tspan class="TextPosition" x="599" y="711"><tspan fill="rgb(0,0,0)" stroke="none">110</tspan></tspan></tspan></text>
 <text class="TextShape"><tspan class="TextParagraph" font-family="Liberation Sans, sans-serif" font-size="282px" font-weight="400"><tspan class="TextPosition" x="599" y="274"><tspan fill="rgb(0,0,0)" stroke="none">120</tspan></tspan></tspan></text>
 <text class="TextShape"><tspan class="TextParagraph" font-family="Liberation Sans, sans-serif" font-size="353px" font-weight="400"><tspan class="TextPosition" x="3342" y="5587"><tspan fill="rgb(0,0,0)" stroke="none">Training Sequence</tspan></tspan></tspan></text>
 <text class="TextShape" transform="rotate(-90 425 2928)"><tspan class="TextParagraph" font-family="Liberation Sans, sans-serif" font-size="353px" font-weight="400"><tspan class="TextPosition" x="425" y="2928"><tspan fill="rgb(0,0,0)" stroke="none">Loss</tspan></tspan></tspan></text>
</svg>