<?xml version="1.0" encoding="UTF-8"?>
<!DOCTYPE svg PUBLIC "-//W3C//DTD SVG 1.1//EN" "http://www.w3.org/Graphics/SVG/1.1/DTD/svg11.dtd">
<svg width="91mm" height="58mm" viewBox="0 0 9100 5800" version="1.1" xmlns="http://www.w3.org/2000/svg" xmlns:xlink="http://www.w3.org/1999/xlink" stroke-width="28.222" stroke-linejoin="round" xml:space="preserve">
 <path fill="rgb(255,255,255)" stroke="none" d="M 4530,5817 L 0,5817 0,0 9059,0 9059,5817 4530,5817 Z"/>
 <path fill="none" stroke="rgb(179,179,179)" stroke-linejoin="round" d="M 5039,4539 L 1325,4539 1325,169 8753,169 8753,4539 5039,4539 Z"/>
 <path fill="none" stroke="rgb(179,179,179)" stroke-linejoin="round" d="M 8753,4538 L 1325,4538"/>
 <path fill="none" stroke="rgb(179,179,179)" stroke-linejoin="round" d="M 8753,4100 L 1325,4100"/>
 <path fill="none" stroke="rgb(179,179,179)" stroke-linejoin="round" d="M 8753,3663 L 1325,3663"/>
 <path fill="none" stroke="rgb(179,179,179)" stroke-linejoin="round" d="M 8753,3226 L 1325,3226"/>
 <path fill="none" stroke="rgb(179,179,179)" stroke-linejoin="round" d="M 8753,2790 L 1325,2790"/>
 <path fill="none" stroke="rgb(179,179,179)" stroke-linejoin="round" d="M 8753,2353 L 1325,2353"/>
 <path fill="none" stroke="rgb(179,179,179)" stroke-linejoin="round" d="M 8753,1916 L 1325,1916"/>
 <path fill="none" stroke="rgb(179,179,179)" stroke-linejoin="round" d="M 8753,1479 L 1325,1479"/>
 <path fill="none" stroke="rgb(179,179,179)" stroke-linejoin="round" d="M 8753,1042 L 1325,1042"/>
 <path fill="none" stroke="rgb(179,179,179)" stroke-linejoin="round" d="M 8753,605 L 1325,605"/>
 <path fill="none" stroke="rgb(179,179,179)" stroke-linejoin="round" d="M 8753,168 L 1325,168"/>
 <path fill="none" stroke="rgb(179,179,179)" stroke-linejoin="round" d="M 1325,4688 L 1325,4538"/>
 <path fill="none" stroke="rgb(179,179,179)" stroke-linejoin="round" d="M 1325,4688 L 1325,4538"/>
 <path fill="none" stroke="rgb(179,179,179)" stroke-linejoin="round" d="M 2067,4688 L 2067,4538"/>
 <path fill="none" stroke="rgb(179,179,179)" stroke-linejoin="round" d="M 2067,4688 L 2067,4538"/>
 <path fill="none" stroke="rgb(179,179,179)" stroke-linejoin="round" d="M 2810,4688 L 2810,4538"/>
 <path fill="none" stroke="rgb(179,179,179)" stroke-linejoin="round" d="M 2810,4688 L 2810,4538"/>
 <path fill="none" stroke="rgb(179,179,179)" stroke-linejoin="round" d="M 3553,4688 L 3553,4538"/>
 <path fill="none" stroke="rgb(179,179,179)" stroke-linejoin="round" d="M 3553,4688 L 3553,4538"/>
 <path fill="none" stroke="rgb(179,179,179)" stroke-linejoin="round" d="M 4296,4688 L 4296,4538"/>
 <path fill="none" stroke="rgb(179,179,179)" stroke-linejoin="round" d="M 4296,4688 L 4296,4538"/>
 <path fill="none" stroke="rgb(179,179,179)" stroke-linejoin="round" d="M 5038,4688 L 5038,4538"/>
 <path fill="none" stroke="rgb(179,179,179)" stroke-linejoin="round" d="M 5038,4688 L 5038,4538"/>
 <path fill="none" stroke="rgb(179,179,179)" stroke-linejoin="round" d="M 5781,4688 L 5781,4538"/>
 <path fill="none" stroke="rgb(179,179,179)" stroke-linejoin="round" d="M 5781,4688 L 5781,4538"/>
 <path fill="none" stroke="rgb(179,179,179)" stroke-linejoin="round" d="M 6524,4688 L 6524,4538"/>
 <path fill="none" stroke="rgb(179,179,179)" stroke-linejoin="round" d="M 6524,4688 L 6524,4538"/>
 <path fill="none" stroke="rgb(179,179,179)" stroke-linejoin="round" d="M 7267,4688 L 7267,4538"/>
 <path fill="none" stroke="rgb(179,179,179)" stroke-linejoin="round" d="M 7267,4688 L 7267,4538"/>
 <path fill="none" stroke="rgb(179,179,179)" stroke-linejoin="round" d="M 8010,4688 L 8010,4538"/>
 <path fill="none" stroke="rgb(179,179,179)" stroke-linejoin="round" d="M 8010,4688 L 8010,4538"/>
 <path fill="none" stroke="rgb(179,179,179)" stroke-linejoin="round" d="M 8753,4688 L 8753,4538"/>
 <path fill="none" stroke="rgb(179,179,179)" stroke-linejoin="round" d="M 8753,4688 L 8753,4538"/>
 <path fill="none" stroke="rgb(179,179,179)" stroke-linejoin="round" d="M 1325,4538 L 8753,4538"/>
 <path fill="none" stroke="rgb(179,179,179)" stroke-linejoin="round" d="M 1175,4538 L 1325,4538"/>
 <path fill="none" stroke="rgb(179,179,179)" stroke-linejoin="round" d="M 1175,4538 L 1325,4538"/>
 <path fill="none" stroke="rgb(179,179,179)" stroke-linejoin="round" d="M 1175,4100 L 1325,4100"/>
 <path fill="none" stroke="rgb(179,179,179)" stroke-linejoin="round" d="M 1175,4100 L 1325,4100"/>
 <path fill="none" stroke="rgb(179,179,179)" stroke-linejoin="round" d="M 1175,3663 L 1325,3663"/>
 <path fill="none" stroke="rgb(179,179,179)" stroke-linejoin="round" d="M 1175,3663 L 1325,3663"/>
 <path fill="none" stroke="rgb(179,179,179)" stroke-linejoin="round" d="M 1175,3226 L 1325,3226"/>
 <path fill="none" stroke="rgb(179,179,179)" stroke-linejoin="round" d="M 1175,3226 L 1325,3226"/>
 <path fill="none" stroke="rgb(179,179,179)" stroke-linejoin="round" d="M 1175,2790 L 1325,2790"/>
 <path fill="none" stroke="rgb(179,179,179)" stroke-linejoin="round" d="M 1175,2790 L 1325,2790"/>
 <path fill="none" stroke="rgb(179,179,179)" stroke-linejoin="round" d="M 1175,2353 L 1325,2353"/>
 <path fill="none" stroke="rgb(179,179,179)" stroke-linejoin="round" d="M 1175,2353 L 1325,2353"/>
 <path fill="none" stroke="rgb(179,179,179)" stroke-linejoin="round" d="M 1175,1916 L 1325,1916"/>
 <path fill="none" stroke="rgb(179,179,179)" stroke-linejoin="round" d="M 1175,1916 L 1325,1916"/>
 <path fill="none" stroke="rgb(179,179,179)" stroke-linejoin="round" d="M 1175,1479 L 1325,1479"/>
 <path fill="none" stroke="rgb(179,179,179)" stroke-linejoin="round" d="M 1175,1479 L 1325,1479"/>
 <path fill="none" stroke="rgb(179,179,179)" stroke-linejoin="round" d="M 1175,1042 L 1325,1042"/>
 <path fill="none" stroke="rgb(179,179,179)" stroke-linejoin="round" d="M 1175,1042 L 1325,1042"/>
 <path fill="none" stroke="rgb(179,179,179)" stroke-linejoin="round" d="M 1175,605 L 1325,605"/>
 <path fill="none" stroke="rgb(179,179,179)" stroke-linejoin="round" d="M 1175,605 L 1325,605"/>
 <path fill="none" stroke="rgb(179,179,179)" stroke-linejoin="round" d="M 1175,168 L 1325,168"/>
 <path fill="none" stroke="rgb(179,179,179)" stroke-linejoin="round" d="M 1175,168 L 1325,168"/>
 <path fill="none" stroke="rgb(179,179,179)" stroke-linejoin="round" d="M 1325,4538 L 1325,168"/>
 <path fill="none" stroke="rgb(0,69,134)" stroke-width="51" stroke-linejoin="round" d="M 1339,576 L 1354,601 1369,627 1384,653 1399,726 1414,773 1429,932 1443,998 1458,1366 1473,1109 1488,1096 1503,1379 1518,1550 1533,1300 1547,1254 1562,1134 1577,1438 1592,1159 1607,1402 1622,1236 1637,1434 1651,1450 1666,1374 1681,1597 1696,1322 1711,1496 1726,1390 1741,1360 1755,1340 1770,1338 1785,1600 1800,1119 1815,1357 1830,1260 1845,1340 1859,1451 1874,1508 1889,1512 1904,1418 1919,1457 1934,1297 1949,1295 1963,1459 1978,1509 1993,1449 2008,1286 2023,1537 2038,1456 2053,1385 2067,1394 2082,1399 2097,1485 2112,1313 2127,1188 2142,1314 2157,1264 2171,1360 2186,1393 2201,1411 2216,1702 2231,1254 2246,1613 2261,1344 2275,1337 2290,1249 2305,1271 2320,1123 2335,1449 2350,1591 2365,1537 2379,1332 2394,1483 2409,1551 2424,1360 2439,1265 2454,1571 2469,1444 2483,1619 2498,1388 2513,1647 2528,1676 2543,1452 2558,1423 2573,1677 2587,1284 2602,1340 2617,1601 2632,1409 2647,1327 2662,1319 2677,1652 2691,1438 2706,1316 2721,1479 2736,1723 2751,1633 2766,1763 2781,1513 2795,1331 2810,1609 2825,1452 2840,1366 2855,1324 2870,1272 2885,1399 2899,1533 2914,1352 2929,1579 2944,1431 2959,1465 2974,1674 2989,1693 3003,1470 3018,1347 3033,1497 3048,1495 3063,1685 3078,1379 3093,1595 3107,1437 3122,1271 3137,1496 3152,1700 3167,1655 3182,1534 3197,1542 3211,1339 3226,1714 3241,1330 3256,1459 3271,1490 3286,1639 3301,1515 3315,1266 3330,1593 3345,1634 3360,1756 3375,1742 3390,1507 3405,1956 3419,1203 3434,1783 3449,1360 3464,1546 3479,1678 3494,1507 3509,1575 3523,1386 3538,1516 3553,1580 3568,1564 3583,1570 3598,1640 3613,1486 3627,1451 3642,1281 3657,1670 3672,1678 3687,1591 3702,1490 3717,1452 3731,1390 3746,1584 3761,1661 3776,1576 3791,1694 3806,1571 3821,1477 3836,1393 3850,1730 3865,1679 3880,1693 3895,1710 3910,1732 3925,1726 3940,1479 3954,1999 3969,1237 3984,1535 3999,1659 4014,1609 4029,1508 4044,1469 4058,1413 4073,1460 4088,1899 4103,1783 4118,1555 4133,1526 4148,1323 4162,1649 4177,1645 4192,1695 4207,1322 4222,1691 4237,1441 4252,1328 4266,1915 4281,1628 4296,1562 4311,1415 4326,1801 4341,1331 4356,1773 4370,1787 4385,1724 4400,1767 4415,1689 4430,1414 4445,1469 4460,1660 4474,1502 4489,1885 4504,1626 4519,1490 4533,1527 4548,2116 4563,1588 4577,1659 4592,1469 4607,1671 4622,1601 4637,1607 4652,1401 4667,1881 4681,1493 4696,1664 4711,1538 4726,1725 4741,1843 4756,1738 4771,1862 4785,1584 4800,2023 4815,1558 4830,1477 4845,1545 4860,1567 4875,1773 4889,1734 4904,1588 4919,1875 4934,1571 4949,1645 4964,1572 4979,1793 4993,1856 5008,1894 5023,1612 5038,1589 5053,1449 5068,1850 5083,1573 5097,1876 5112,1304 5127,1648 5142,1499 5157,1663 5172,1582 5187,1640 5201,1383 5216,1701 5231,1755 5246,1807 5261,2138 5276,1802 5291,1466 5305,1786 5320,1751 5335,1559 5350,1786 5365,1741 5380,1690 5395,1742 5409,1985 5424,1596 5439,1730 5454,1889 5469,1574 5484,1540 5499,1462 5513,1657 5528,1873 5543,1693 5558,1974 5573,1492 5588,1966 5603,1840 5617,1621 5632,1716 5647,1750 5662,1723 5677,1521 5692,1734 5707,1772 5721,1519 5736,1894 5751,1650 5766,1586 5781,1736 5796,1544 5811,1427 5825,1785 5840,1287 5855,1972 5870,1759 5885,1760 5900,1452 5915,1588 5929,1652 5944,1614 5959,1994 5974,1553 5989,1927 6004,1656 6019,1732 6033,1813 6048,1615 6063,1572 6078,1703 6093,1994 6108,1665 6123,1739 6137,1422 6152,1540 6167,1584 6182,1675 6197,1650 6212,1574 6227,1579 6241,1735 6256,1480 6271,1484 6286,1539 6301,1661 6316,1871 6331,1742 6346,1632 6360,1902 6375,2006 6390,1970 6405,1815 6420,1794 6435,1690 6450,1571 6464,1952 6479,1759 6494,1892 6509,1748 6524,2065 6539,1735 6554,1418 6568,1638 6583,1704 6598,1733 6613,1548 6628,1529 6643,1520 6658,1814 6672,2040 6687,1911 6702,1782 6717,1659 6732,1902 6747,1802 6762,1551 6776,1558 6791,1241 6806,1737 6821,1557 6836,1657 6851,1720 6866,1600 6880,1788 6895,1597 6910,1807 6925,1808 6940,1692 6955,1790 6970,1694 6984,1617 6999,1544 7014,1887 7029,1621 7044,1811 7059,1895 7074,1772 7088,1759 7103,2036 7118,1702 7133,1853 7148,1528 7163,1632 7178,1618 7192,1700 7207,1565 7222,1540 7237,1697 7252,1898 7267,1817 7282,1817 7296,1534 7311,1549 7326,1621 7341,1709 7356,1983 7371,1813 7386,1892 7400,1775 7415,1851 7430,1616 7445,1952 7460,1991 7475,1663 7490,1760 7504,2068 7519,1669 7534,1927 7549,2104 7564,2164 7579,1881 7594,1736 7608,1788 7623,1857 7638,1954 7653,1839 7668,2369 7683,1918 7698,1821 7712,1856 7727,1853 7742,1578 7757,1546 7772,1589 7787,2280 7802,1776 7816,1766 7831,1664 7846,1597 7861,1653 7876,1523 7891,1611 7906,1632 7920,1675 7935,1703 7950,1857 7965,2072 7980,1882 7995,1728 8010,1528 8024,1739 8039,1686 8054,1722 8069,2054 8084,1680 8099,1866 8114,1930 8128,1705 8143,1680 8158,1944 8173,1653 8188,1865 8203,1991 8218,1976 8232,1824 8247,1721 8262,1874 8277,1985 8292,1619 8307,1861 8322,1651 8336,1773 8351,1981 8366,1675 8381,1988 8396,1980 8411,1890 8426,1948 8440,1918 8455,1736 8470,1951 8485,1863 8500,1700 8515,1485 8530,2050 8544,1704 8559,1694 8574,2029 8589,1609 8604,2021 8619,1865 8634,1630 8648,1784 8663,1690 8678,2180 8693,1529 8708,1761 8723,1865 8738,1833 8753,1596"/>
 <path fill="none" stroke="rgb(129,212,26)" stroke-width="51" stroke-linejoin="round" d="M 1339,1349 L 8753,1886"/>
 <text class="TextShape"><tspan class="TextParagraph" font-family="Liberation Sans, sans-serif" font-size="282px" font-weight="400"><tspan class="TextPosition" x="1245" y="5053"><tspan fill="rgb(0,0,0)" stroke="none">0</tspan></tspan></tspan></text>
 <text class="TextShape"><tspan class="TextParagraph" font-family="Liberation Sans, sans-serif" font-size="282px" font-weight="400"><tspan class="TextPosition" x="1908" y="5053"><tspan fill="rgb(0,0,0)" stroke="none">50</tspan></tspan></tspan></text>
 <text class="TextShape"><tspan class="TextParagraph" font-family="Liberation Sans, sans-serif" font-size="282px" font-weight="400"><tspan class="TextPosition" x="2572" y="5053"><tspan fill="rgb(0,0,0)" stroke="none">100</tspan></tspan></tspan></text>
 <text class="TextShape"><tspan class="TextParagraph" font-family="Liberation Sans, sans-serif" font-size="282px" font-weight="400"><tspan class="TextPosition" x="3315" y="5053"><tspan fill="rgb(0,0,0)" stroke="none">150</tspan></tspan></tspan></text>
 <text class="TextShape"><tspan class="TextParagraph" font-family="Liberation Sans, sans-serif" font-size="282px" font-weight="400"><tspan class="TextPosition" x="4058" y="5053"><tspan fill="rgb(0,0,0)" stroke="none">200</tspan></tspan></tspan></text>
 <text class="TextShape"><tspan class="TextParagraph" font-family="Liberation Sans, sans-serif" font-size="282px" font-weight="400"><tspan class="TextPosition" x="4801" y="5053"><tspan fill="rgb(0,0,0)" stroke="none">250</tspan></tspan></tspan></text>
 <text class="TextShape"><tspan class="TextParagraph" font-family="Liberation Sans, sans-serif" font-size="282px" font-weight="400"><tspan class="TextPosition" x="5544" y="5053"><tspan fill="rgb(0,0,0)" stroke="none">300</tspan></tspan></tspan></text>
 <text class="TextShape"><tspan class="TextParagraph" font-family="Liberation Sans, sans-serif" font-size="282px" font-weight="400"><tspan class="TextPosition" x="6287" y="5053"><tspan fill="rgb(0,0,0)" stroke="none">350</tspan></tspan></tspan></text>
 <text class="TextShape"><tspan class="TextParagraph" font-family="Liberation Sans, sans-serif" font-size="282px" font-weight="400"><tspan class="TextPosition" x="7030" y="5053"><tspan fill="rgb(0,0,0)" stroke="none">400</tspan></tspan></tspan></text>
 <text class="TextShape"><tspan class="TextParagraph" font-family="Liberation Sans, sans-serif" font-size="282px" font-weight="400"><tspan class="TextPosition" x="7773" y="5053"><tspan fill="rgb(0,0,0)" stroke="none">450</tspan></tspan></tspan></text>
 <text class="TextShape"><tspan class="TextParagraph" font-family="Liberation Sans, sans-serif" font-size="282px" font-weight="400"><tspan class="TextPosition" x="8516" y="5053"><tspan fill="rgb(0,0,0)" stroke="none">500</tspan></tspan></tspan></text>
 <text class="TextShape"><tspan class="TextParagraph" font-family="Liberation Sans, sans-serif" font-size="282px" font-weight="400"><tspan class="TextPosition" x="757" y="4645"><tspan fill="rgb(0,0,0)" stroke="none">20</tspan></tspan></tspan></text>
 <text class="TextShape"><tspan class="TextParagraph" font-family="Liberation Sans, sans-serif" font-size="282px" font-weight="400"><tspan class="TextPosition" x="757" y="4207"><tspan fill="rgb(0,0,0)" stroke="none">30</tspan></tspan></tspan></text>
 <text class="TextShape"><tspan class="TextParagraph" font-family="Liberation Sans, sans-serif" font-size="282px" font-weight="400"><tspan class="TextPosition" x="757" y="3770"><tspan fill="rgb(0,0,0)" stroke="none">40</tspan></tspan></tspan></text>
 <text class="TextShape"><tspan class="TextParagraph" font-family="Liberation Sans, sans-serif" font-size="282px" font-weight="400"><tspan class="TextPosition" x="757" y="3333"><tspan fill="rgb(0,0,0)" stroke="none">50</tspan></tspan></tspan></text>
 <text class="TextShape"><tspan class="TextParagraph" font-family="Liberation Sans, sans-serif" font-size="282px" font-weight="400"><tspan class="TextPosition" x="757" y="2896"><tspan fill="rgb(0,0,0)" stroke="none">60</tspan></tspan></tspan></text>
 <text class="TextShape"><tspan class="TextParagraph" font-family="Liberation Sans, sans-serif" font-size="282px" font-weight="400"><tspan class="TextPosition" x="757" y="2459"><tspan fill="rgb(0,0,0)" stroke="none">70</tspan></tspan></tspan></text>
 <text class="TextShape"><tspan class="TextParagraph" font-family="Liberation Sans, sans-serif" font-size="282px" font-weight="400"><tspan class="TextPosition" x="757" y="2022"><tspan fill="rgb(0,0,0)" stroke="none">80</tspan></tspan></tspan></text>
 <text class="TextShape"><tspan class="TextParagraph" font-family="Liberation Sans, sans-serif" font-size="282px" font-weight="400"><tspan class="TextPosition" x="757" y="1585"><tspan fill="rgb(0,0,0)" stroke="none">90</tspan></tspan></tspan></text>
 <text class="TextShape"><tspan class="TextParagraph" font-family="Liberation Sans, sans-serif" font-size="282px" font-weight="400"><tspan class="TextPosition" x="599" y="1148"><tspan fill="rgb(0,0,0)" stroke="none">100</tspan></tspan></tspan></text>
 <text class="TextShape"><tspan class="TextParagraph" font-family="Liberation Sans, sans-serif" font-size="282px" font-weight="400"><tspan class="TextPosition" x="599" y="711"><tspan fill="rgb(0,0,0)" stroke="none">110</tspan></tspan></tspan></text>
 <text class="TextShape"><tspan class="TextParagraph" font-family="Liberation Sans, sans-serif" font-size="282px" font-weight="400"><tspan class="TextPosition" x="599" y="274"><tspan fill="rgb(0,0,0)" stroke="none">120</tspan></tspan></tspan></text>
 <text class="TextShape"><tspan class="TextParagraph" font-family="Liberation Sans, sans-serif" font-size="353px" font-weight="400"><tspan class="TextPosition" x="3342" y="5587"><tspan fill="rgb(0,0,0)" stroke="none">Training Sequence</tspan></tspan></tspan></text>
 <text class="TextShape" transform="rotate(-90 425 2928)"><tspan class="TextParagraph" font-family="Liberation Sans, sans-serif" font-size="353px" font-weight="400"><tspan class="TextPosition" x="425" y="2928"><tspan fill="rgb(0,0,0)" stroke="none">Loss</tspan></tspan></tspan></text>
</svg>