<?xml version="1.0" encoding="UTF-8"?>
<!DOCTYPE svg PUBLIC "-//W3C//DTD SVG 1.1//EN" "http://www.w3.org/Graphics/SVG/1.1/DTD/svg11.dtd">
<svg width="91mm" height="58mm" viewBox="0 0 9100 5800" version="1.1" xmlns="http://www.w3.org/2000/svg" xmlns:xlink="http://www.w3.org/1999/xlink" stroke-width="28.222" stroke-linejoin="round" xml:space="preserve">
 <path fill="rgb(255,255,255)" stroke="none" d="M 4530,5817 L 0,5817 0,0 9059,0 9059,5817 4530,5817 Z"/>
 <path fill="none" stroke="rgb(179,179,179)" stroke-linejoin="round" d="M 5039,4539 L 1325,4539 1325,169 8753,169 8753,4539 5039,4539 Z"/>
 <path fill="none" stroke="rgb(179,179,179)" stroke-linejoin="round" d="M 8753,4538 L 1325,4538"/>
 <path fill="none" stroke="rgb(179,179,179)" stroke-linejoin="round" d="M 8753,4100 L 1325,4100"/>
 <path fill="none" stroke="rgb(179,179,179)" stroke-linejoin="round" d="M 8753,3663 L 1325,3663"/>
 <path fill="none" stroke="rgb(179,179,179)" stroke-linejoin="round" d="M 8753,3226 L 1325,3226"/>
 <path fill="none" stroke="rgb(179,179,179)" stroke-linejoin="round" d="M 8753,2790 L 1325,2790"/>
 <path fill="none" stroke="rgb(179,179,179)" stroke-linejoin="round" d="M 8753,2353 L 1325,2353"/>
 <path fill="none" stroke="rgb(179,179,179)" stroke-linejoin="round" d="M 8753,1916 L 1325,1916"/>
 <path fill="none" stroke="rgb(179,179,179)" stroke-linejoin="round" d="M 8753,1479 L 1325,1479"/>
 <path fill="none" stroke="rgb(179,179,179)" stroke-linejoin="round" d="M 8753,1042 L 1325,1042"/>
 <path fill="none" stroke="rgb(179,179,179)" stroke-linejoin="round" d="M 8753,605 L 1325,605"/>
 <path fill="none" stroke="rgb(179,179,179)" stroke-linejoin="round" d="M 8753,168 L 1325,168"/>
 <path fill="none" stroke="rgb(179,179,179)" stroke-linejoin="round" d="M 1325,4688 L 1325,4538"/>
 <path fill="none" stroke="rgb(179,179,179)" stroke-linejoin="round" d="M 1325,4688 L 1325,4538"/>
 <path fill="none" stroke="rgb(179,179,179)" stroke-linejoin="round" d="M 2067,4688 L 2067,4538"/>
 <path fill="none" stroke="rgb(179,179,179)" stroke-linejoin="round" d="M 2067,4688 L 2067,4538"/>
 <path fill="none" stroke="rgb(179,179,179)" stroke-linejoin="round" d="M 2810,4688 L 2810,4538"/>
 <path fill="none" stroke="rgb(179,179,179)" stroke-linejoin="round" d="M 2810,4688 L 2810,4538"/>
 <path fill="none" stroke="rgb(179,179,179)" stroke-linejoin="round" d="M 3553,4688 L 3553,4538"/>
 <path fill="none" stroke="rgb(179,179,179)" stroke-linejoin="round" d="M 3553,4688 L 3553,4538"/>
 <path fill="none" stroke="rgb(179,179,179)" stroke-linejoin="round" d="M 4296,4688 L 4296,4538"/>
 <path fill="none" stroke="rgb(179,179,179)" stroke-linejoin="round" d="M 4296,4688 L 4296,4538"/>
 <path fill="none" stroke="rgb(179,179,179)" stroke-linejoin="round" d="M 5038,4688 L 5038,4538"/>
 <path fill="none" stroke="rgb(179,179,179)" stroke-linejoin="round" d="M 5038,4688 L 5038,4538"/>
 <path fill="none" stroke="rgb(179,179,179)" stroke-linejoin="round" d="M 5781,4688 L 5781,4538"/>
 <path fill="none" stroke="rgb(179,179,179)" stroke-linejoin="round" d="M 5781,4688 L 5781,4538"/>
 <path fill="none" stroke="rgb(179,179,179)" stroke-linejoin="round" d="M 6524,4688 L 6524,4538"/>
 <path fill="none" stroke="rgb(179,179,179)" stroke-linejoin="round" d="M 6524,4688 L 6524,4538"/>
 <path fill="none" stroke="rgb(179,179,179)" stroke-linejoin="round" d="M 7267,4688 L 7267,4538"/>
 <path fill="none" stroke="rgb(179,179,179)" stroke-linejoin="round" d="M 7267,4688 L 7267,4538"/>
 <path fill="none" stroke="rgb(179,179,179)" stroke-linejoin="round" d="M 8010,4688 L 8010,4538"/>
 <path fill="none" stroke="rgb(179,179,179)" stroke-linejoin="round" d="M 8010,4688 L 8010,4538"/>
 <path fill="none" stroke="rgb(179,179,179)" stroke-linejoin="round" d="M 8753,4688 L 8753,4538"/>
 <path fill="none" stroke="rgb(179,179,179)" stroke-linejoin="round" d="M 8753,4688 L 8753,4538"/>
 <path fill="none" stroke="rgb(179,179,179)" stroke-linejoin="round" d="M 1325,4538 L 8753,4538"/>
 <path fill="none" stroke="rgb(179,179,179)" stroke-linejoin="round" d="M 1175,4538 L 1325,4538"/>
 <path fill="none" stroke="rgb(179,179,179)" stroke-linejoin="round" d="M 1175,4538 L 1325,4538"/>
 <path fill="none" stroke="rgb(179,179,179)" stroke-linejoin="round" d="M 1175,4100 L 1325,4100"/>
 <path fill="none" stroke="rgb(179,179,179)" stroke-linejoin="round" d="M 1175,4100 L 1325,4100"/>
 <path fill="none" stroke="rgb(179,179,179)" stroke-linejoin="round" d="M 1175,3663 L 1325,3663"/>
 <path fill="none" stroke="rgb(179,179,179)" stroke-linejoin="round" d="M 1175,3663 L 1325,3663"/>
 <path fill="none" stroke="rgb(179,179,179)" stroke-linejoin="round" d="M 1175,3226 L 1325,3226"/>
 <path fill="none" stroke="rgb(179,179,179)" stroke-linejoin="round" d="M 1175,3226 L 1325,3226"/>
 <path fill="none" stroke="rgb(179,179,179)" stroke-linejoin="round" d="M 1175,2790 L 1325,2790"/>
 <path fill="none" stroke="rgb(179,179,179)" stroke-linejoin="round" d="M 1175,2790 L 1325,2790"/>
 <path fill="none" stroke="rgb(179,179,179)" stroke-linejoin="round" d="M 1175,2353 L 1325,2353"/>
 <path fill="none" stroke="rgb(179,179,179)" stroke-linejoin="round" d="M 1175,2353 L 1325,2353"/>
 <path fill="none" stroke="rgb(179,179,179)" stroke-linejoin="round" d="M 1175,1916 L 1325,1916"/>
 <path fill="none" stroke="rgb(179,179,179)" stroke-linejoin="round" d="M 1175,1916 L 1325,1916"/>
 <path fill="none" stroke="rgb(179,179,179)" stroke-linejoin="round" d="M 1175,1479 L 1325,1479"/>
 <path fill="none" stroke="rgb(179,179,179)" stroke-linejoin="round" d="M 1175,1479 L 1325,1479"/>
 <path fill="none" stroke="rgb(179,179,179)" stroke-linejoin="round" d="M 1175,1042 L 1325,1042"/>
 <path fill="none" stroke="rgb(179,179,179)" stroke-linejoin="round" d="M 1175,1042 L 1325,1042"/>
 <path fill="none" stroke="rgb(179,179,179)" stroke-linejoin="round" d="M 1175,605 L 1325,605"/>
 <path fill="none" stroke="rgb(179,179,179)" stroke-linejoin="round" d="M 1175,605 L 1325,605"/>
 <path fill="none" stroke="rgb(179,179,179)" stroke-linejoin="round" d="M 1175,168 L 1325,168"/>
 <path fill="none" stroke="rgb(179,179,179)" stroke-linejoin="round" d="M 1175,168 L 1325,168"/>
 <path fill="none" stroke="rgb(179,179,179)" stroke-linejoin="round" d="M 1325,4538 L 1325,168"/>
 <path fill="none" stroke="rgb(0,69,134)" stroke-width="51" stroke-linejoin="round" d="M 1339,547 L 1354,574 1369,597 1384,621 1399,661 1414,711 1429,738 1443,814 1458,964 1473,1040 1488,1200 1503,1356 1518,1333 1533,1330 1547,1463 1562,1206 1577,1564 1592,1305 1607,1470 1622,1544 1637,1380 1651,1380 1666,1334 1681,1326 1696,1326 1711,1371 1726,1314 1741,1242 1755,1543 1770,1170 1785,1421 1800,1436 1815,1401 1830,1260 1845,1400 1859,1287 1874,1324 1889,1507 1904,1290 1919,1237 1934,1627 1949,1273 1963,1137 1978,1536 1993,1559 2008,1201 2023,1422 2038,1427 2053,1391 2067,1404 2082,1447 2097,1595 2112,1380 2127,1602 2142,1451 2157,1590 2171,1272 2186,1539 2201,1355 2216,1176 2231,1421 2246,1412 2261,1253 2275,1546 2290,1526 2305,1448 2320,1241 2335,1420 2350,1413 2365,1345 2379,1584 2394,1359 2409,1450 2424,1412 2439,1133 2454,1216 2469,1454 2483,1205 2498,1336 2513,1428 2528,1302 2543,1336 2558,1493 2573,1431 2587,1536 2602,1276 2617,1238 2632,1353 2647,1431 2662,1489 2677,1517 2691,1438 2706,1297 2721,1408 2736,1491 2751,1769 2766,1640 2781,1274 2795,1845 2810,1752 2825,1620 2840,1431 2855,1624 2870,1378 2885,1205 2899,1432 2914,1441 2929,1660 2944,1378 2959,1483 2974,1599 2989,1478 3003,1840 3018,1505 3033,1454 3048,1164 3063,1638 3078,1663 3093,1465 3107,1344 3122,1611 3137,1973 3152,1422 3167,1522 3182,1431 3197,1577 3211,1559 3226,1450 3241,1356 3256,1608 3271,1468 3286,1580 3301,1713 3315,1481 3330,1378 3345,1552 3360,1656 3375,1513 3390,1588 3405,1825 3419,1399 3434,1642 3449,1619 3464,1432 3479,1632 3494,1606 3509,1498 3523,1673 3538,1714 3553,1688 3568,1705 3583,1576 3598,1799 3613,1438 3627,1635 3642,1474 3657,1659 3672,1775 3687,1681 3702,1555 3717,1582 3731,1590 3746,1710 3761,1578 3776,1532 3791,1564 3806,1537 3821,1778 3836,1444 3850,1836 3865,1756 3880,1615 3895,1635 3910,1801 3925,1573 3940,1564 3954,1666 3969,1452 3984,1621 3999,1458 4014,1611 4029,1791 4044,1597 4058,1870 4073,1301 4088,1371 4103,1620 4118,1826 4133,1538 4148,1609 4162,1979 4177,1625 4192,1860 4207,1508 4222,1952 4237,1571 4252,1704 4266,1668 4281,1663 4296,1737 4311,1704 4326,1768 4341,1772 4356,1600 4370,1445 4385,1324 4400,1763 4415,2034 4430,1774 4445,1686 4460,1700 4474,1960 4489,1495 4504,1534 4519,1447 4533,1649 4548,1957 4563,1818 4577,1889 4592,1486 4607,1756 4622,1716 4637,1583 4652,1796 4667,1450 4681,1741 4696,1723 4711,1566 4726,1745 4741,1585 4756,1988 4771,1643 4785,1740 4800,1395 4815,1591 4830,1446 4845,1830 4860,1511 4875,1706 4889,1689 4904,1785 4919,1744 4934,1750 4949,1525 4964,1560 4979,1722 4993,1589 5008,1713 5023,1667 5038,1788 5053,1956 5068,1855 5083,1768 5097,1387 5112,1737 5127,1571 5142,1605 5157,1569 5172,1689 5187,1582 5201,1448 5216,1684 5231,1999 5246,1464 5261,2105 5276,1676 5291,1881 5305,1630 5320,1645 5335,1793 5350,1626 5365,1685 5380,1612 5395,1542 5409,1559 5424,1741 5439,1548 5454,1635 5469,1437 5484,1634 5499,1772 5513,1758 5528,1900 5543,1633 5558,1640 5573,1730 5588,1901 5603,1607 5617,1824 5632,1722 5647,1711 5662,1614 5677,1904 5692,1713 5707,1504 5721,1631 5736,1793 5751,1754 5766,1766 5781,1614 5796,1685 5811,1945 5825,1501 5840,1622 5855,1886 5870,1971 5885,1950 5900,1543 5915,1545 5929,1693 5944,1855 5959,1621 5974,1929 5989,1581 6004,1670 6019,2167 6033,1811 6048,1526 6063,1878 6078,1761 6093,1886 6108,1889 6123,1677 6137,1460 6152,1647 6167,1772 6182,1672 6197,1709 6212,1646 6227,1746 6241,1671 6256,1452 6271,1825 6286,1790 6301,1865 6316,1585 6331,1794 6346,1778 6360,1609 6375,1755 6390,1963 6405,1509 6420,1976 6435,1773 6450,1497 6464,1570 6479,1995 6494,2011 6509,1807 6524,1721 6539,1515 6554,1577 6568,1499 6583,1552 6598,2007 6613,1759 6628,1789 6643,1484 6658,1684 6672,1505 6687,1696 6702,1712 6717,1586 6732,2140 6747,1815 6762,1802 6776,1361 6791,1538 6806,1711 6821,1453 6836,1683 6851,1550 6866,1994 6880,1622 6895,1658 6910,2004 6925,1595 6940,1722 6955,1643 6970,1616 6984,1719 6999,1804 7014,1520 7029,2008 7044,1882 7059,1784 7074,1807 7088,1491 7103,1745 7118,2045 7133,1577 7148,1652 7163,1835 7178,1785 7192,1665 7207,1662 7222,1697 7237,1640 7252,1930 7267,1541 7282,1637 7296,1866 7311,1671 7326,1423 7341,1848 7356,1442 7371,1667 7386,1662 7400,1744 7415,1771 7430,1956 7445,1875 7460,1780 7475,1687 7490,1677 7504,1680 7519,1645 7534,1877 7549,1569 7564,2058 7579,2071 7594,1641 7608,2221 7623,1801 7638,1916 7653,1594 7668,1542 7683,1589 7698,1946 7712,1528 7727,1578 7742,1509 7757,1888 7772,1589 7787,1789 7802,1266 7816,1579 7831,2035 7846,1661 7861,1970 7876,1601 7891,1845 7906,1804 7920,1804 7935,1731 7950,1893 7965,1628 7980,1947 7995,1989 8010,1704 8024,1982 8039,1438 8054,1503 8069,1654 8084,1743 8099,1523 8114,1778 8128,1924 8143,1734 8158,1784 8173,1870 8188,1972 8203,1856 8218,1744 8232,1804 8247,1633 8262,1760 8277,1570 8292,1427 8307,1773 8322,1590 8336,1753 8351,1802 8366,2023 8381,1839 8396,1501 8411,1812 8426,1578 8440,1963 8455,1763 8470,1630 8485,1982 8500,1780 8515,1925 8530,1725 8544,1788 8559,1827 8574,1698 8589,1988 8604,1935 8619,2052 8634,1800 8648,1772 8663,1775 8678,1850 8693,1727 8708,1669 8723,1443 8738,1788 8753,1577"/>
 <path fill="none" stroke="rgb(129,212,26)" stroke-width="51" stroke-linejoin="round" d="M 1339,1370 L 8753,1862"/>
 <text class="TextShape"><tspan class="TextParagraph" font-family="Liberation Sans, sans-serif" font-size="282px" font-weight="400"><tspan class="TextPosition" x="1245" y="5053"><tspan fill="rgb(0,0,0)" stroke="none">0</tspan></tspan></tspan></text>
 <text class="TextShape"><tspan class="TextParagraph" font-family="Liberation Sans, sans-serif" font-size="282px" font-weight="400"><tspan class="TextPosition" x="1908" y="5053"><tspan fill="rgb(0,0,0)" stroke="none">50</tspan></tspan></tspan></text>
 <text class="TextShape"><tspan class="TextParagraph" font-family="Liberation Sans, sans-serif" font-size="282px" font-weight="400"><tspan class="TextPosition" x="2572" y="5053"><tspan fill="rgb(0,0,0)" stroke="none">100</tspan></tspan></tspan></text>
 <text class="TextShape"><tspan class="TextParagraph" font-family="Liberation Sans, sans-serif" font-size="282px" font-weight="400"><tspan class="TextPosition" x="3315" y="5053"><tspan fill="rgb(0,0,0)" stroke="none">150</tspan></tspan></tspan></text>
 <text class="TextShape"><tspan class="TextParagraph" font-family="Liberation Sans, sans-serif" font-size="282px" font-weight="400"><tspan class="TextPosition" x="4058" y="5053"><tspan fill="rgb(0,0,0)" stroke="none">200</tspan></tspan></tspan></text>
 <text class="TextShape"><tspan class="TextParagraph" font-family="Liberation Sans, sans-serif" font-size="282px" font-weight="400"><tspan class="TextPosition" x="4801" y="5053"><tspan fill="rgb(0,0,0)" stroke="none">250</tspan></tspan></tspan></text>
 <text class="TextShape"><tspan class="TextParagraph" font-family="Liberation Sans, sans-serif" font-size="282px" font-weight="400"><tspan class="TextPosition" x="5544" y="5053"><tspan fill="rgb(0,0,0)" stroke="none">300</tspan></tspan></tspan></text>
 <text class="TextShape"><tspan class="TextParagraph" font-family="Liberation Sans, sans-serif" font-size="282px" font-weight="400"><tspan class="TextPosition" x="6287" y="5053"><tspan fill="rgb(0,0,0)" stroke="none">350</tspan></tspan></tspan></text>
 <text class="TextShape"><tspan class="TextParagraph" font-family="Liberation Sans, sans-serif" font-size="282px" font-weight="400"><tspan class="TextPosition" x="7030" y="5053"><tspan fill="rgb(0,0,0)" stroke="none">400</tspan></tspan></tspan></text>
 <text class="TextShape"><tspan class="TextParagraph" font-family="Liberation Sans, sans-serif" font-size="282px" font-weight="400"><tspan class="TextPosition" x="7773" y="5053"><tspan fill="rgb(0,0,0)" stroke="none">450</tspan></tspan></tspan></text>
 <text class="TextShape"><tspan class="TextParagraph" font-family="Liberation Sans, sans-serif" font-size="282px" font-weight="400"><tspan class="TextPosition" x="8516" y="5053"><tspan fill="rgb(0,0,0)" stroke="none">500</tspan></tspan></tspan></text>
 <text class="TextShape"><tspan class="TextParagraph" font-family="Liberation Sans, sans-serif" font-size="282px" font-weight="400"><tspan class="TextPosition" x="757" y="4645"><tspan fill="rgb(0,0,0)" stroke="none">20</tspan></tspan></tspan></text>
 <text class="TextShape"><tspan class="TextParagraph" font-family="Liberation Sans, sans-serif" font-size="282px" font-weight="400"><tspan class="TextPosition" x="757" y="4207"><tspan fill="rgb(0,0,0)" stroke="none">30</tspan></tspan></tspan></text>
 <text class="TextShape"><tspan class="TextParagraph" font-family="Liberation Sans, sans-serif" font-size="282px" font-weight="400"><tspan class="TextPosition" x="757" y="3770"><tspan fill="rgb(0,0,0)" stroke="none">40</tspan></tspan></tspan></text>
 <text class="TextShape"><tspan class="TextParagraph" font-family="Liberation Sans, sans-serif" font-size="282px" font-weight="400"><tspan class="TextPosition" x="757" y="3333"><tspan fill="rgb(0,0,0)" stroke="none">50</tspan></tspan></tspan></text>
 <text class="TextShape"><tspan class="TextParagraph" font-family="Liberation Sans, sans-serif" font-size="282px" font-weight="400"><tspan class="TextPosition" x="757" y="2896"><tspan fill="rgb(0,0,0)" stroke="none">60</tspan></tspan></tspan></text>
 <text class="TextShape"><tspan class="TextParagraph" font-family="Liberation Sans, sans-serif" font-size="282px" font-weight="400"><tspan class="TextPosition" x="757" y="2459"><tspan fill="rgb(0,0,0)" stroke="none">70</tspan></tspan></tspan></text>
 <text class="TextShape"><tspan class="TextParagraph" font-family="Liberation Sans, sans-serif" font-size="282px" font-weight="400"><tspan class="TextPosition" x="757" y="2022"><tspan fill="rgb(0,0,0)" stroke="none">80</tspan></tspan></tspan></text>
 <text class="TextShape"><tspan class="TextParagraph" font-family="Liberation Sans, sans-serif" font-size="282px" font-weight="400"><tspan class="TextPosition" x="757" y="1585"><tspan fill="rgb(0,0,0)" stroke="none">90</tspan></tspan></tspan></text>
 <text class="TextShape"><tspan class="TextParagraph" font-family="Liberation Sans, sans-serif" font-size="282px" font-weight="400"><tspan class="TextPosition" x="599" y="1148"><tspan fill="rgb(0,0,0)" stroke="none">100</tspan></tspan></tspan></text>
 <text class="TextShape"><tspan class="TextParagraph" font-family="Liberation Sans, sans-serif" font-size="282px" font-weight="400"><tspan class="TextPosition" x="599" y="711"><tspan fill="rgb(0,0,0)" stroke="none">110</tspan></tspan></tspan></text>
 <text class="TextShape"><tspan class="TextParagraph" font-family="Liberation Sans, sans-serif" font-size="282px" font-weight="400"><tspan class="TextPosition" x="599" y="274"><tspan fill="rgb(0,0,0)" stroke="none">120</tspan></tspan></tspan></text>
 <text class="TextShape"><tspan class="TextParagraph" font-family="Liberation Sans, sans-serif" font-size="353px" font-weight="400"><tspan class="TextPosition" x="3342" y="5587"><tspan fill="rgb(0,0,0)" stroke="none">Training Sequence</tspan></tspan></tspan></text>
 <text class="TextShape" transform="rotate(-90 425 2928)"><tspan class="TextParagraph" font-family="Liberation Sans, sans-serif" font-size="353px" font-weight="400"><tspan class="TextPosition" x="425" y="2928"><tspan fill="rgb(0,0,0)" stroke="none">Loss</tspan></tspan></tspan></text>
</svg>