<?xml version="1.0" encoding="UTF-8"?>
<!DOCTYPE svg PUBLIC "-//W3C//DTD SVG 1.1//EN" "http://www.w3.org/Graphics/SVG/1.1/DTD/svg11.dtd">
<svg width="91mm" height="58mm" viewBox="0 0 9100 5800" version="1.1" xmlns="http://www.w3.org/2000/svg" xmlns:xlink="http://www.w3.org/1999/xlink" stroke-width="28.222" stroke-linejoin="round" xml:space="preserve">
 <path fill="rgb(255,255,255)" stroke="none" d="M 4530,5817 L 0,5817 0,0 9059,0 9059,5817 4530,5817 Z"/>
 <path fill="none" stroke="rgb(179,179,179)" stroke-linejoin="round" d="M 5039,4539 L 1325,4539 1325,169 8753,169 8753,4539 5039,4539 Z"/>
 <path fill="none" stroke="rgb(179,179,179)" stroke-linejoin="round" d="M 8753,4538 L 1325,4538"/>
 <path fill="none" stroke="rgb(179,179,179)" stroke-linejoin="round" d="M 8753,4100 L 1325,4100"/>
 <path fill="none" stroke="rgb(179,179,179)" stroke-linejoin="round" d="M 8753,3663 L 1325,3663"/>
 <path fill="none" stroke="rgb(179,179,179)" stroke-linejoin="round" d="M 8753,3226 L 1325,3226"/>
 <path fill="none" stroke="rgb(179,179,179)" stroke-linejoin="round" d="M 8753,2790 L 1325,2790"/>
 <path fill="none" stroke="rgb(179,179,179)" stroke-linejoin="round" d="M 8753,2353 L 1325,2353"/>
 <path fill="none" stroke="rgb(179,179,179)" stroke-linejoin="round" d="M 8753,1916 L 1325,1916"/>
 <path fill="none" stroke="rgb(179,179,179)" stroke-linejoin="round" d="M 8753,1479 L 1325,1479"/>
 <path fill="none" stroke="rgb(179,179,179)" stroke-linejoin="round" d="M 8753,1042 L 1325,1042"/>
 <path fill="none" stroke="rgb(179,179,179)" stroke-linejoin="round" d="M 8753,605 L 1325,605"/>
 <path fill="none" stroke="rgb(179,179,179)" stroke-linejoin="round" d="M 8753,168 L 1325,168"/>
 <path fill="none" stroke="rgb(179,179,179)" stroke-linejoin="round" d="M 1325,4688 L 1325,4538"/>
 <path fill="none" stroke="rgb(179,179,179)" stroke-linejoin="round" d="M 1325,4688 L 1325,4538"/>
 <path fill="none" stroke="rgb(179,179,179)" stroke-linejoin="round" d="M 2067,4688 L 2067,4538"/>
 <path fill="none" stroke="rgb(179,179,179)" stroke-linejoin="round" d="M 2067,4688 L 2067,4538"/>
 <path fill="none" stroke="rgb(179,179,179)" stroke-linejoin="round" d="M 2810,4688 L 2810,4538"/>
 <path fill="none" stroke="rgb(179,179,179)" stroke-linejoin="round" d="M 2810,4688 L 2810,4538"/>
 <path fill="none" stroke="rgb(179,179,179)" stroke-linejoin="round" d="M 3553,4688 L 3553,4538"/>
 <path fill="none" stroke="rgb(179,179,179)" stroke-linejoin="round" d="M 3553,4688 L 3553,4538"/>
 <path fill="none" stroke="rgb(179,179,179)" stroke-linejoin="round" d="M 4296,4688 L 4296,4538"/>
 <path fill="none" stroke="rgb(179,179,179)" stroke-linejoin="round" d="M 4296,4688 L 4296,4538"/>
 <path fill="none" stroke="rgb(179,179,179)" stroke-linejoin="round" d="M 5038,4688 L 5038,4538"/>
 <path fill="none" stroke="rgb(179,179,179)" stroke-linejoin="round" d="M 5038,4688 L 5038,4538"/>
 <path fill="none" stroke="rgb(179,179,179)" stroke-linejoin="round" d="M 5781,4688 L 5781,4538"/>
 <path fill="none" stroke="rgb(179,179,179)" stroke-linejoin="round" d="M 5781,4688 L 5781,4538"/>
 <path fill="none" stroke="rgb(179,179,179)" stroke-linejoin="round" d="M 6524,4688 L 6524,4538"/>
 <path fill="none" stroke="rgb(179,179,179)" stroke-linejoin="round" d="M 6524,4688 L 6524,4538"/>
 <path fill="none" stroke="rgb(179,179,179)" stroke-linejoin="round" d="M 7267,4688 L 7267,4538"/>
 <path fill="none" stroke="rgb(179,179,179)" stroke-linejoin="round" d="M 7267,4688 L 7267,4538"/>
 <path fill="none" stroke="rgb(179,179,179)" stroke-linejoin="round" d="M 8010,4688 L 8010,4538"/>
 <path fill="none" stroke="rgb(179,179,179)" stroke-linejoin="round" d="M 8010,4688 L 8010,4538"/>
 <path fill="none" stroke="rgb(179,179,179)" stroke-linejoin="round" d="M 8753,4688 L 8753,4538"/>
 <path fill="none" stroke="rgb(179,179,179)" stroke-linejoin="round" d="M 8753,4688 L 8753,4538"/>
 <path fill="none" stroke="rgb(179,179,179)" stroke-linejoin="round" d="M 1325,4538 L 8753,4538"/>
 <path fill="none" stroke="rgb(179,179,179)" stroke-linejoin="round" d="M 1175,4538 L 1325,4538"/>
 <path fill="none" stroke="rgb(179,179,179)" stroke-linejoin="round" d="M 1175,4538 L 1325,4538"/>
 <path fill="none" stroke="rgb(179,179,179)" stroke-linejoin="round" d="M 1175,4100 L 1325,4100"/>
 <path fill="none" stroke="rgb(179,179,179)" stroke-linejoin="round" d="M 1175,4100 L 1325,4100"/>
 <path fill="none" stroke="rgb(179,179,179)" stroke-linejoin="round" d="M 1175,3663 L 1325,3663"/>
 <path fill="none" stroke="rgb(179,179,179)" stroke-linejoin="round" d="M 1175,3663 L 1325,3663"/>
 <path fill="none" stroke="rgb(179,179,179)" stroke-linejoin="round" d="M 1175,3226 L 1325,3226"/>
 <path fill="none" stroke="rgb(179,179,179)" stroke-linejoin="round" d="M 1175,3226 L 1325,3226"/>
 <path fill="none" stroke="rgb(179,179,179)" stroke-linejoin="round" d="M 1175,2790 L 1325,2790"/>
 <path fill="none" stroke="rgb(179,179,179)" stroke-linejoin="round" d="M 1175,2790 L 1325,2790"/>
 <path fill="none" stroke="rgb(179,179,179)" stroke-linejoin="round" d="M 1175,2353 L 1325,2353"/>
 <path fill="none" stroke="rgb(179,179,179)" stroke-linejoin="round" d="M 1175,2353 L 1325,2353"/>
 <path fill="none" stroke="rgb(179,179,179)" stroke-linejoin="round" d="M 1175,1916 L 1325,1916"/>
 <path fill="none" stroke="rgb(179,179,179)" stroke-linejoin="round" d="M 1175,1916 L 1325,1916"/>
 <path fill="none" stroke="rgb(179,179,179)" stroke-linejoin="round" d="M 1175,1479 L 1325,1479"/>
 <path fill="none" stroke="rgb(179,179,179)" stroke-linejoin="round" d="M 1175,1479 L 1325,1479"/>
 <path fill="none" stroke="rgb(179,179,179)" stroke-linejoin="round" d="M 1175,1042 L 1325,1042"/>
 <path fill="none" stroke="rgb(179,179,179)" stroke-linejoin="round" d="M 1175,1042 L 1325,1042"/>
 <path fill="none" stroke="rgb(179,179,179)" stroke-linejoin="round" d="M 1175,605 L 1325,605"/>
 <path fill="none" stroke="rgb(179,179,179)" stroke-linejoin="round" d="M 1175,605 L 1325,605"/>
 <path fill="none" stroke="rgb(179,179,179)" stroke-linejoin="round" d="M 1175,168 L 1325,168"/>
 <path fill="none" stroke="rgb(179,179,179)" stroke-linejoin="round" d="M 1175,168 L 1325,168"/>
 <path fill="none" stroke="rgb(179,179,179)" stroke-linejoin="round" d="M 1325,4538 L 1325,168"/>
 <path fill="none" stroke="rgb(0,69,134)" stroke-width="51" stroke-linejoin="round" d="M 1339,558 L 1354,673 1369,1175 1384,1212 1399,1336 1414,1365 1429,1292 1443,1232 1458,1212 1473,1213 1488,1186 1503,1347 1518,1496 1533,1441 1547,1106 1562,1305 1577,1046 1592,1290 1607,1467 1622,1548 1637,1370 1651,1263 1666,1278 1681,1486 1696,1500 1711,1195 1726,1267 1741,1540 1755,1394 1770,1424 1785,1252 1800,1461 1815,1521 1830,1311 1845,1328 1859,1414 1874,1121 1889,1195 1904,1279 1919,1507 1934,1480 1949,1447 1963,1297 1978,1242 1993,1285 2008,1571 2023,1278 2038,1336 2053,1213 2067,1448 2082,1448 2097,1579 2112,1265 2127,1566 2142,1468 2157,1498 2171,1256 2186,1410 2201,1458 2216,1458 2231,1650 2246,1641 2261,1524 2275,1637 2290,1385 2305,1456 2320,1306 2335,1441 2350,1597 2365,1382 2379,1286 2394,1372 2409,1349 2424,1511 2439,1516 2454,1405 2469,1592 2483,1515 2498,1678 2513,1364 2528,1639 2543,1458 2558,1214 2573,1558 2587,1751 2602,1578 2617,1611 2632,1377 2647,1336 2662,1394 2677,1449 2691,1615 2706,1372 2721,1543 2736,1423 2751,1664 2766,1298 2781,1916 2795,1566 2810,1512 2825,1578 2840,1306 2855,1580 2870,1288 2885,1328 2899,1660 2914,1478 2929,1434 2944,1917 2959,1287 2974,1518 2989,1848 3003,1433 3018,1511 3033,1471 3048,1423 3063,1577 3078,1337 3093,1530 3107,1348 3122,1592 3137,1620 3152,2070 3167,1587 3182,1560 3197,1788 3211,1383 3226,1601 3241,1535 3256,1692 3271,1653 3286,1723 3301,1595 3315,1831 3330,1742 3345,1463 3360,1661 3375,1640 3390,1584 3405,1718 3419,1659 3434,1613 3449,1871 3464,1670 3479,1562 3494,1686 3509,1705 3523,1888 3538,1837 3553,1420 3568,1499 3583,1966 3598,1725 3613,1461 3627,1859 3642,1742 3657,1635 3672,2233 3687,1808 3702,2210 3717,1744 3731,1760 3746,1772 3761,1980 3776,2002 3791,1790 3806,1820 3821,1894 3836,1715 3850,1653 3865,1793 3880,1883 3895,1820 3910,1983 3925,1707 3940,1852 3954,1692 3969,1704 3984,1635 3999,1610 4014,1962 4029,1788 4044,1858 4058,2225 4073,2214 4088,1861 4103,1972 4118,1632 4133,2071 4148,1844 4162,1803 4177,2066 4192,2019 4207,2232 4222,1691 4237,2108 4252,1771 4266,1806 4281,2231 4296,1905 4311,1804 4326,2028 4341,1716 4356,1723 4370,2129 4385,1659 4400,1954 4415,1885 4430,2358 4445,2046 4460,2043 4474,1784 4489,1674 4504,2114 4519,1735 4533,1661 4548,1703 4563,1879 4577,1773 4592,1878 4607,1657 4622,2012 4637,1704 4652,2139 4667,1868 4681,1798 4696,1793 4711,2276 4726,2107 4741,1930 4756,2049 4771,2326 4785,1760 4800,2104 4815,1988 4830,1926 4845,2467 4860,2421 4875,1965 4889,2127 4904,1696 4919,1858 4934,1622 4949,1902 4964,1963 4979,1825 4993,2344 5008,1988 5023,1756 5038,1634 5053,1887 5068,1971 5083,1944 5097,2210 5112,1974 5127,2010 5142,2059 5157,1969 5172,2101 5187,2215 5201,1718 5216,2219 5231,1920 5246,2048 5261,1996 5276,2018 5291,2031 5305,2175 5320,2260 5335,2351 5350,1814 5365,1599 5380,1840 5395,2392 5409,2201 5424,1744 5439,2083 5454,2135 5469,2027 5484,1993 5499,2076 5513,2216 5528,2279 5543,2461 5558,2637 5573,2044 5588,2127 5603,2490 5617,2142 5632,2159 5647,2116 5662,2219 5677,2253 5692,1908 5707,2123 5721,2594 5736,2417 5751,2307 5766,2087 5781,1907 5796,1978 5811,2463 5825,2171 5840,1969 5855,1969 5870,2278 5885,2403 5900,2347 5915,1957 5929,2314 5944,2354 5959,1982 5974,2249 5989,2054 6004,2461 6019,2021 6033,1978 6048,2302 6063,2224 6078,2559 6093,2168 6108,2116 6123,2600 6137,2382 6152,2139 6167,2434 6182,2446 6197,2336 6212,2286 6227,2525 6241,2018 6256,2551 6271,2806 6286,2490 6301,2395 6316,2197 6331,2255 6346,2172 6360,2153 6375,2167 6390,2271 6405,1969 6420,2409 6435,2118 6450,2350 6464,2452 6479,1930 6494,2479 6509,2353 6524,2309 6539,2419 6554,2233 6568,2357 6583,2069 6598,2287 6613,2362 6628,2716 6643,2788 6658,2351 6672,2451 6687,2237 6702,2469 6717,2158 6732,2494 6747,2254 6762,2171 6776,2106 6791,2294 6806,2037 6821,2446 6836,2630 6851,2392 6866,2668 6880,2384 6895,2187 6910,2590 6925,2183 6940,2528 6955,2478 6970,2328 6984,2510 6999,2412 7014,2273 7029,2561 7044,2357 7059,2351 7074,2568 7088,2697 7103,2492 7118,2057 7133,2633 7148,2561 7163,2217 7178,2838 7192,2421 7207,2506 7222,2482 7237,2409 7252,2477 7267,2492 7282,2657 7296,2260 7311,2586 7326,2401 7341,2377 7356,2754 7371,2418 7386,2647 7400,2674 7415,2390 7430,2756 7445,2436 7460,2821 7475,2900 7490,3104 7504,2524 7519,2223 7534,2710 7549,2382 7564,2602 7579,2668 7594,2599 7608,2413 7623,2539 7638,2604 7653,3085 7668,2504 7683,3029 7698,2409 7712,2404 7727,2579 7742,2616 7757,2797 7772,2984 7787,2728 7802,2738 7816,2589 7831,3113 7846,2587 7861,2687 7876,2576 7891,2804 7906,2697 7920,2830 7935,3094 7950,2821 7965,3189 7980,2723 7995,2464 8010,2466 8024,2848 8039,2902 8054,3310 8069,2950 8084,2905 8099,2971 8114,2957 8128,3074 8143,3177 8158,3223 8173,2940 8188,2906 8203,3371 8218,3154 8232,3140 8247,3618 8262,3311 8277,3159 8292,3402 8307,2948 8322,3058 8336,3221 8351,3683 8366,3236 8381,3440 8396,3480 8411,2969 8426,3361 8440,3128 8455,3158 8470,3353 8485,3297 8500,3117 8515,3350 8530,3351 8544,3392 8559,3183 8574,3210 8589,3181 8604,3164 8619,3424 8634,3417 8648,3337 8663,3482 8678,3469 8693,3197 8708,3632 8723,3565 8738,3422 8753,3400"/>
 <path fill="none" stroke="rgb(129,212,26)" stroke-width="51" stroke-linejoin="round" d="M 1339,1144 L 8753,3027"/>
 <text class="TextShape"><tspan class="TextParagraph" font-family="Liberation Sans, sans-serif" font-size="282px" font-weight="400"><tspan class="TextPosition" x="1245" y="5053"><tspan fill="rgb(0,0,0)" stroke="none">0</tspan></tspan></tspan></text>
 <text class="TextShape"><tspan class="TextParagraph" font-family="Liberation Sans, sans-serif" font-size="282px" font-weight="400"><tspan class="TextPosition" x="1908" y="5053"><tspan fill="rgb(0,0,0)" stroke="none">50</tspan></tspan></tspan></text>
 <text class="TextShape"><tspan class="TextParagraph" font-family="Liberation Sans, sans-serif" font-size="282px" font-weight="400"><tspan class="TextPosition" x="2572" y="5053"><tspan fill="rgb(0,0,0)" stroke="none">100</tspan></tspan></tspan></text>
 <text class="TextShape"><tspan class="TextParagraph" font-family="Liberation Sans, sans-serif" font-size="282px" font-weight="400"><tspan class="TextPosition" x="3315" y="5053"><tspan fill="rgb(0,0,0)" stroke="none">150</tspan></tspan></tspan></text>
 <text class="TextShape"><tspan class="TextParagraph" font-family="Liberation Sans, sans-serif" font-size="282px" font-weight="400"><tspan class="TextPosition" x="4058" y="5053"><tspan fill="rgb(0,0,0)" stroke="none">200</tspan></tspan></tspan></text>
 <text class="TextShape"><tspan class="TextParagraph" font-family="Liberation Sans, sans-serif" font-size="282px" font-weight="400"><tspan class="TextPosition" x="4801" y="5053"><tspan fill="rgb(0,0,0)" stroke="none">250</tspan></tspan></tspan></text>
 <text class="TextShape"><tspan class="TextParagraph" font-family="Liberation Sans, sans-serif" font-size="282px" font-weight="400"><tspan class="TextPosition" x="5544" y="5053"><tspan fill="rgb(0,0,0)" stroke="none">300</tspan></tspan></tspan></text>
 <text class="TextShape"><tspan class="TextParagraph" font-family="Liberation Sans, sans-serif" font-size="282px" font-weight="400"><tspan class="TextPosition" x="6287" y="5053"><tspan fill="rgb(0,0,0)" stroke="none">350</tspan></tspan></tspan></text>
 <text class="TextShape"><tspan class="TextParagraph" font-family="Liberation Sans, sans-serif" font-size="282px" font-weight="400"><tspan class="TextPosition" x="7030" y="5053"><tspan fill="rgb(0,0,0)" stroke="none">400</tspan></tspan></tspan></text>
 <text class="TextShape"><tspan class="TextParagraph" font-family="Liberation Sans, sans-serif" font-size="282px" font-weight="400"><tspan class="TextPosition" x="7773" y="5053"><tspan fill="rgb(0,0,0)" stroke="none">450</tspan></tspan></tspan></text>
 <text class="TextShape"><tspan class="TextParagraph" font-family="Liberation Sans, sans-serif" font-size="282px" font-weight="400"><tspan class="TextPosition" x="8516" y="5053"><tspan fill="rgb(0,0,0)" stroke="none">500</tspan></tspan></tspan></text>
 <text class="TextShape"><tspan class="TextParagraph" font-family="Liberation Sans, sans-serif" font-size="282px" font-weight="400"><tspan class="TextPosition" x="757" y="4645"><tspan fill="rgb(0,0,0)" stroke="none">20</tspan></tspan></tspan></text>
 <text class="TextShape"><tspan class="TextParagraph" font-family="Liberation Sans, sans-serif" font-size="282px" font-weight="400"><tspan class="TextPosition" x="757" y="4207"><tspan fill="rgb(0,0,0)" stroke="none">30</tspan></tspan></tspan></text>
 <text class="TextShape"><tspan class="TextParagraph" font-family="Liberation Sans, sans-serif" font-size="282px" font-weight="400"><tspan class="TextPosition" x="757" y="3770"><tspan fill="rgb(0,0,0)" stroke="none">40</tspan></tspan></tspan></text>
 <text class="TextShape"><tspan class="TextParagraph" font-family="Liberation Sans, sans-serif" font-size="282px" font-weight="400"><tspan class="TextPosition" x="757" y="3333"><tspan fill="rgb(0,0,0)" stroke="none">50</tspan></tspan></tspan></text>
 <text class="TextShape"><tspan class="TextParagraph" font-family="Liberation Sans, sans-serif" font-size="282px" font-weight="400"><tspan class="TextPosition" x="757" y="2896"><tspan fill="rgb(0,0,0)" stroke="none">60</tspan></tspan></tspan></text>
 <text class="TextShape"><tspan class="TextParagraph" font-family="Liberation Sans, sans-serif" font-size="282px" font-weight="400"><tspan class="TextPosition" x="757" y="2459"><tspan fill="rgb(0,0,0)" stroke="none">70</tspan></tspan></tspan></text>
 <text class="TextShape"><tspan class="TextParagraph" font-family="Liberation Sans, sans-serif" font-size="282px" font-weight="400"><tspan class="TextPosition" x="757" y="2022"><tspan fill="rgb(0,0,0)" stroke="none">80</tspan></tspan></tspan></text>
 <text class="TextShape"><tspan class="TextParagraph" font-family="Liberation Sans, sans-serif" font-size="282px" font-weight="400"><tspan class="TextPosition" x="757" y="1585"><tspan fill="rgb(0,0,0)" stroke="none">90</tspan></tspan></tspan></text>
 <text class="TextShape"><tspan class="TextParagraph" font-family="Liberation Sans, sans-serif" font-size="282px" font-weight="400"><tspan class="TextPosition" x="599" y="1148"><tspan fill="rgb(0,0,0)" stroke="none">100</tspan></tspan></tspan></text>
 <text class="TextShape"><tspan class="TextParagraph" font-family="Liberation Sans, sans-serif" font-size="282px" font-weight="400"><tspan class="TextPosition" x="599" y="711"><tspan fill="rgb(0,0,0)" stroke="none">110</tspan></tspan></tspan></text>
 <text class="TextShape"><tspan class="TextParagraph" font-family="Liberation Sans, sans-serif" font-size="282px" font-weight="400"><tspan class="TextPosition" x="599" y="274"><tspan fill="rgb(0,0,0)" stroke="none">120</tspan></tspan></tspan></text>
 <text class="TextShape"><tspan class="TextParagraph" font-family="Liberation Sans, sans-serif" font-size="353px" font-weight="400"><tspan class="TextPosition" x="3342" y="5587"><tspan fill="rgb(0,0,0)" stroke="none">Training Sequence</tspan></tspan></tspan></text>
 <text class="TextShape" transform="rotate(-90 425 2928)"><tspan class="TextParagraph" font-family="Liberation Sans, sans-serif" font-size="353px" font-weight="400"><tspan class="TextPosition" x="425" y="2928"><tspan fill="rgb(0,0,0)" stroke="none">Loss</tspan></tspan></tspan></text>
</svg>