<?xml version="1.0" encoding="UTF-8"?>
<!DOCTYPE svg PUBLIC "-//W3C//DTD SVG 1.1//EN" "http://www.w3.org/Graphics/SVG/1.1/DTD/svg11.dtd">
<svg width="91mm" height="58mm" viewBox="0 0 9100 5800" version="1.1" xmlns="http://www.w3.org/2000/svg" xmlns:xlink="http://www.w3.org/1999/xlink" stroke-width="28.222" stroke-linejoin="round" xml:space="preserve">
 <path fill="rgb(255,255,255)" stroke="none" d="M 4530,5817 L 0,5817 0,0 9059,0 9059,5817 4530,5817 Z"/>
 <path fill="none" stroke="rgb(179,179,179)" stroke-linejoin="round" d="M 5039,4539 L 1325,4539 1325,169 8753,169 8753,4539 5039,4539 Z"/>
 <path fill="none" stroke="rgb(179,179,179)" stroke-linejoin="round" d="M 8753,4538 L 1325,4538"/>
 <path fill="none" stroke="rgb(179,179,179)" stroke-linejoin="round" d="M 8753,4100 L 1325,4100"/>
 <path fill="none" stroke="rgb(179,179,179)" stroke-linejoin="round" d="M 8753,3663 L 1325,3663"/>
 <path fill="none" stroke="rgb(179,179,179)" stroke-linejoin="round" d="M 8753,3226 L 1325,3226"/>
 <path fill="none" stroke="rgb(179,179,179)" stroke-linejoin="round" d="M 8753,2790 L 1325,2790"/>
 <path fill="none" stroke="rgb(179,179,179)" stroke-linejoin="round" d="M 8753,2353 L 1325,2353"/>
 <path fill="none" stroke="rgb(179,179,179)" stroke-linejoin="round" d="M 8753,1916 L 1325,1916"/>
 <path fill="none" stroke="rgb(179,179,179)" stroke-linejoin="round" d="M 8753,1479 L 1325,1479"/>
 <path fill="none" stroke="rgb(179,179,179)" stroke-linejoin="round" d="M 8753,1042 L 1325,1042"/>
 <path fill="none" stroke="rgb(179,179,179)" stroke-linejoin="round" d="M 8753,605 L 1325,605"/>
 <path fill="none" stroke="rgb(179,179,179)" stroke-linejoin="round" d="M 8753,168 L 1325,168"/>
 <path fill="none" stroke="rgb(179,179,179)" stroke-linejoin="round" d="M 1325,4688 L 1325,4538"/>
 <path fill="none" stroke="rgb(179,179,179)" stroke-linejoin="round" d="M 1325,4688 L 1325,4538"/>
 <path fill="none" stroke="rgb(179,179,179)" stroke-linejoin="round" d="M 2067,4688 L 2067,4538"/>
 <path fill="none" stroke="rgb(179,179,179)" stroke-linejoin="round" d="M 2067,4688 L 2067,4538"/>
 <path fill="none" stroke="rgb(179,179,179)" stroke-linejoin="round" d="M 2810,4688 L 2810,4538"/>
 <path fill="none" stroke="rgb(179,179,179)" stroke-linejoin="round" d="M 2810,4688 L 2810,4538"/>
 <path fill="none" stroke="rgb(179,179,179)" stroke-linejoin="round" d="M 3553,4688 L 3553,4538"/>
 <path fill="none" stroke="rgb(179,179,179)" stroke-linejoin="round" d="M 3553,4688 L 3553,4538"/>
 <path fill="none" stroke="rgb(179,179,179)" stroke-linejoin="round" d="M 4296,4688 L 4296,4538"/>
 <path fill="none" stroke="rgb(179,179,179)" stroke-linejoin="round" d="M 4296,4688 L 4296,4538"/>
 <path fill="none" stroke="rgb(179,179,179)" stroke-linejoin="round" d="M 5038,4688 L 5038,4538"/>
 <path fill="none" stroke="rgb(179,179,179)" stroke-linejoin="round" d="M 5038,4688 L 5038,4538"/>
 <path fill="none" stroke="rgb(179,179,179)" stroke-linejoin="round" d="M 5781,4688 L 5781,4538"/>
 <path fill="none" stroke="rgb(179,179,179)" stroke-linejoin="round" d="M 5781,4688 L 5781,4538"/>
 <path fill="none" stroke="rgb(179,179,179)" stroke-linejoin="round" d="M 6524,4688 L 6524,4538"/>
 <path fill="none" stroke="rgb(179,179,179)" stroke-linejoin="round" d="M 6524,4688 L 6524,4538"/>
 <path fill="none" stroke="rgb(179,179,179)" stroke-linejoin="round" d="M 7267,4688 L 7267,4538"/>
 <path fill="none" stroke="rgb(179,179,179)" stroke-linejoin="round" d="M 7267,4688 L 7267,4538"/>
 <path fill="none" stroke="rgb(179,179,179)" stroke-linejoin="round" d="M 8010,4688 L 8010,4538"/>
 <path fill="none" stroke="rgb(179,179,179)" stroke-linejoin="round" d="M 8010,4688 L 8010,4538"/>
 <path fill="none" stroke="rgb(179,179,179)" stroke-linejoin="round" d="M 8753,4688 L 8753,4538"/>
 <path fill="none" stroke="rgb(179,179,179)" stroke-linejoin="round" d="M 8753,4688 L 8753,4538"/>
 <path fill="none" stroke="rgb(179,179,179)" stroke-linejoin="round" d="M 1325,4538 L 8753,4538"/>
 <path fill="none" stroke="rgb(179,179,179)" stroke-linejoin="round" d="M 1175,4538 L 1325,4538"/>
 <path fill="none" stroke="rgb(179,179,179)" stroke-linejoin="round" d="M 1175,4538 L 1325,4538"/>
 <path fill="none" stroke="rgb(179,179,179)" stroke-linejoin="round" d="M 1175,4100 L 1325,4100"/>
 <path fill="none" stroke="rgb(179,179,179)" stroke-linejoin="round" d="M 1175,4100 L 1325,4100"/>
 <path fill="none" stroke="rgb(179,179,179)" stroke-linejoin="round" d="M 1175,3663 L 1325,3663"/>
 <path fill="none" stroke="rgb(179,179,179)" stroke-linejoin="round" d="M 1175,3663 L 1325,3663"/>
 <path fill="none" stroke="rgb(179,179,179)" stroke-linejoin="round" d="M 1175,3226 L 1325,3226"/>
 <path fill="none" stroke="rgb(179,179,179)" stroke-linejoin="round" d="M 1175,3226 L 1325,3226"/>
 <path fill="none" stroke="rgb(179,179,179)" stroke-linejoin="round" d="M 1175,2790 L 1325,2790"/>
 <path fill="none" stroke="rgb(179,179,179)" stroke-linejoin="round" d="M 1175,2790 L 1325,2790"/>
 <path fill="none" stroke="rgb(179,179,179)" stroke-linejoin="round" d="M 1175,2353 L 1325,2353"/>
 <path fill="none" stroke="rgb(179,179,179)" stroke-linejoin="round" d="M 1175,2353 L 1325,2353"/>
 <path fill="none" stroke="rgb(179,179,179)" stroke-linejoin="round" d="M 1175,1916 L 1325,1916"/>
 <path fill="none" stroke="rgb(179,179,179)" stroke-linejoin="round" d="M 1175,1916 L 1325,1916"/>
 <path fill="none" stroke="rgb(179,179,179)" stroke-linejoin="round" d="M 1175,1479 L 1325,1479"/>
 <path fill="none" stroke="rgb(179,179,179)" stroke-linejoin="round" d="M 1175,1479 L 1325,1479"/>
 <path fill="none" stroke="rgb(179,179,179)" stroke-linejoin="round" d="M 1175,1042 L 1325,1042"/>
 <path fill="none" stroke="rgb(179,179,179)" stroke-linejoin="round" d="M 1175,1042 L 1325,1042"/>
 <path fill="none" stroke="rgb(179,179,179)" stroke-linejoin="round" d="M 1175,605 L 1325,605"/>
 <path fill="none" stroke="rgb(179,179,179)" stroke-linejoin="round" d="M 1175,605 L 1325,605"/>
 <path fill="none" stroke="rgb(179,179,179)" stroke-linejoin="round" d="M 1175,168 L 1325,168"/>
 <path fill="none" stroke="rgb(179,179,179)" stroke-linejoin="round" d="M 1175,168 L 1325,168"/>
 <path fill="none" stroke="rgb(179,179,179)" stroke-linejoin="round" d="M 1325,4538 L 1325,168"/>
 <path fill="none" stroke="rgb(0,69,134)" stroke-width="51" stroke-linejoin="round" d="M 1339,2988 L 1354,3003 1369,3017 1384,3034 1399,3062 1414,3089 1429,3130 1443,3201 1458,3274 1473,3436 1488,3471 1503,3370 1518,3552 1533,3616 1547,3646 1562,3497 1577,3635 1592,3533 1607,3500 1622,3597 1637,3523 1651,3568 1666,3514 1681,3616 1696,3500 1711,3641 1726,3596 1741,3508 1755,3481 1770,3662 1785,3532 1800,3672 1815,3558 1830,3652 1845,3491 1859,3577 1874,3680 1889,3481 1904,3486 1919,3665 1934,3494 1949,3739 1963,3685 1978,3397 1993,3578 2008,3609 2023,3601 2038,3535 2053,3562 2067,3537 2082,3643 2097,3565 2112,3574 2127,3565 2142,3470 2157,3617 2171,3611 2186,3563 2201,3527 2216,3687 2231,3589 2246,3721 2261,3540 2275,3457 2290,3604 2305,3642 2320,3614 2335,3452 2350,3476 2365,3547 2379,3516 2394,3489 2409,3450 2424,3591 2439,3614 2454,3523 2469,3475 2483,3611 2498,3631 2513,3597 2528,3470 2543,3728 2558,3557 2573,3579 2587,3591 2602,3583 2617,3558 2632,3393 2647,3515 2662,3578 2677,3566 2691,3663 2706,3642 2721,3689 2736,3601 2751,3630 2766,3516 2781,3512 2795,3531 2810,3636 2825,3523 2840,3626 2855,3617 2870,3587 2885,3564 2899,3554 2914,3660 2929,3594 2944,3591 2959,3544 2974,3637 2989,3661 3003,3655 3018,3670 3033,3571 3048,3519 3063,3586 3078,3643 3093,3637 3107,3550 3122,3544 3137,3619 3152,3655 3167,3585 3182,3617 3197,3634 3211,3656 3226,3593 3241,3633 3256,3607 3271,3605 3286,3693 3301,3655 3315,3520 3330,3640 3345,3581 3360,3633 3375,3632 3390,3564 3405,3596 3419,3496 3434,3669 3449,3520 3464,3588 3479,3635 3494,3600 3509,3603 3523,3562 3538,3688 3553,3651 3568,3613 3583,3615 3598,3706 3613,3547 3627,3576 3642,3578 3657,3601 3672,3702 3687,3594 3702,3762 3717,3607 3731,3695 3746,3586 3761,3600 3776,3720 3791,3556 3806,3675 3821,3765 3836,3570 3850,3585 3865,3561 3880,3716 3895,3740 3910,3534 3925,3741 3940,3685 3954,3638 3969,3505 3984,3493 3999,3533 4014,3621 4029,3705 4044,3664 4058,3460 4073,3535 4088,3769 4103,3566 4118,3548 4133,3723 4148,3608 4162,3535 4177,3571 4192,3643 4207,3636 4222,3537 4237,3600 4252,3589 4266,3721 4281,3647 4296,3704 4311,3606 4326,3616 4341,3449 4356,3532 4370,3566 4385,3628 4400,3585 4415,3686 4430,3798 4445,3591 4460,3725 4474,3589 4489,3815 4504,3721 4519,3629 4533,3812 4548,3617 4563,3804 4577,3538 4592,3731 4607,3608 4622,3593 4637,3623 4652,3710 4667,3583 4681,3555 4696,3689 4711,3730 4726,3626 4741,3666 4756,3693 4771,3692 4785,3615 4800,3609 4815,3665 4830,3613 4845,3699 4860,3696 4875,3638 4889,3773 4904,3777 4919,3620 4934,3709 4949,3599 4964,3714 4979,3659 4993,3715 5008,3600 5023,3652 5038,3656 5053,3674 5068,3790 5083,3740 5097,3715 5112,3603 5127,3829 5142,3730 5157,3694 5172,3597 5187,3579 5201,3634 5216,3640 5231,3514 5246,3711 5261,3656 5276,3666 5291,3647 5305,3815 5320,3770 5335,3756 5350,3762 5365,3631 5380,3615 5395,3609 5409,3773 5424,3797 5439,3730 5454,3697 5469,3682 5484,3830 5499,3626 5513,3728 5528,3676 5543,3609 5558,3614 5573,3675 5588,3686 5603,3606 5617,3771 5632,3718 5647,3707 5662,3610 5677,3625 5692,3601 5707,3683 5721,3652 5736,3662 5751,3779 5766,3589 5781,3690 5796,3586 5811,3801 5825,3688 5840,3645 5855,3541 5870,3791 5885,3759 5900,3753 5915,3639 5929,3816 5944,3748 5959,3850 5974,3636 5989,3695 6004,3578 6019,3714 6033,3606 6048,3747 6063,3813 6078,3736 6093,3770 6108,3801 6123,3756 6137,3656 6152,3523 6167,3747 6182,3859 6197,3683 6212,3761 6227,3643 6241,3749 6256,3716 6271,3833 6286,3813 6301,3624 6316,3805 6331,3783 6346,3687 6360,3778 6375,3928 6390,3637 6405,3768 6420,3704 6435,3753 6450,3741 6464,3840 6479,3751 6494,3701 6509,3691 6524,3669 6539,3719 6554,3760 6568,3772 6583,3729 6598,3750 6613,3745 6628,3762 6643,3816 6658,3723 6672,3762 6687,3759 6702,3733 6717,3678 6732,3757 6747,3713 6762,3750 6776,3672 6791,3685 6806,3809 6821,3582 6836,3706 6851,3696 6866,3711 6880,3623 6895,3789 6910,3609 6925,3700 6940,3732 6955,3685 6970,3733 6984,3744 6999,3822 7014,3741 7029,3680 7044,3726 7059,3866 7074,3847 7088,3650 7103,3858 7118,3739 7133,3997 7148,3960 7163,3582 7178,3811 7192,3566 7207,3795 7222,3708 7237,3708 7252,3707 7267,3817 7282,3772 7296,3776 7311,3742 7326,3648 7341,3672 7356,3872 7371,3813 7386,3748 7400,3554 7415,3627 7430,3710 7445,3795 7460,3798 7475,3760 7490,3755 7504,3658 7519,3742 7534,3713 7549,3691 7564,3692 7579,3631 7594,3775 7608,3667 7623,3746 7638,3710 7653,3930 7668,3771 7683,3743 7698,3823 7712,3794 7727,3805 7742,3905 7757,3783 7772,3688 7787,3772 7802,3664 7816,3679 7831,3737 7846,3665 7861,3793 7876,3797 7891,3778 7906,3818 7920,3839 7935,3821 7950,3743 7965,3790 7980,3758 7995,3729 8010,3700 8024,3722 8039,4019 8054,3779 8069,3829 8084,3667 8099,3883 8114,3767 8128,3721 8143,3739 8158,3893 8173,3694 8188,3780 8203,3853 8218,3801 8232,3774 8247,3708 8262,3753 8277,4100 8292,3829 8307,3835 8322,3750 8336,3807 8351,3776 8366,3785 8381,3735 8396,3952 8411,3908 8426,3864 8440,3655 8455,3783 8470,3776 8485,3631 8500,3707 8515,3694 8530,3910 8544,3673 8559,3608 8574,3887 8589,3731 8604,3780 8619,3672 8634,3874 8648,3785 8663,3847 8678,3632 8693,3757 8708,3870 8723,3964 8738,3750 8753,3841"/>
 <path fill="none" stroke="rgb(129,212,26)" stroke-width="51" stroke-linejoin="round" d="M 1339,3507 L 8753,3817"/>
 <text class="TextShape"><tspan class="TextParagraph" font-family="Liberation Sans, sans-serif" font-size="282px" font-weight="400"><tspan class="TextPosition" x="1245" y="5053"><tspan fill="rgb(0,0,0)" stroke="none">0</tspan></tspan></tspan></text>
 <text class="TextShape"><tspan class="TextParagraph" font-family="Liberation Sans, sans-serif" font-size="282px" font-weight="400"><tspan class="TextPosition" x="1908" y="5053"><tspan fill="rgb(0,0,0)" stroke="none">50</tspan></tspan></tspan></text>
 <text class="TextShape"><tspan class="TextParagraph" font-family="Liberation Sans, sans-serif" font-size="282px" font-weight="400"><tspan class="TextPosition" x="2572" y="5053"><tspan fill="rgb(0,0,0)" stroke="none">100</tspan></tspan></tspan></text>
 <text class="TextShape"><tspan class="TextParagraph" font-family="Liberation Sans, sans-serif" font-size="282px" font-weight="400"><tspan class="TextPosition" x="3315" y="5053"><tspan fill="rgb(0,0,0)" stroke="none">150</tspan></tspan></tspan></text>
 <text class="TextShape"><tspan class="TextParagraph" font-family="Liberation Sans, sans-serif" font-size="282px" font-weight="400"><tspan class="TextPosition" x="4058" y="5053"><tspan fill="rgb(0,0,0)" stroke="none">200</tspan></tspan></tspan></text>
 <text class="TextShape"><tspan class="TextParagraph" font-family="Liberation Sans, sans-serif" font-size="282px" font-weight="400"><tspan class="TextPosition" x="4801" y="5053"><tspan fill="rgb(0,0,0)" stroke="none">250</tspan></tspan></tspan></text>
 <text class="TextShape"><tspan class="TextParagraph" font-family="Liberation Sans, sans-serif" font-size="282px" font-weight="400"><tspan class="TextPosition" x="5544" y="5053"><tspan fill="rgb(0,0,0)" stroke="none">300</tspan></tspan></tspan></text>
 <text class="TextShape"><tspan class="TextParagraph" font-family="Liberation Sans, sans-serif" font-size="282px" font-weight="400"><tspan class="TextPosition" x="6287" y="5053"><tspan fill="rgb(0,0,0)" stroke="none">350</tspan></tspan></tspan></text>
 <text class="TextShape"><tspan class="TextParagraph" font-family="Liberation Sans, sans-serif" font-size="282px" font-weight="400"><tspan class="TextPosition" x="7030" y="5053"><tspan fill="rgb(0,0,0)" stroke="none">400</tspan></tspan></tspan></text>
 <text class="TextShape"><tspan class="TextParagraph" font-family="Liberation Sans, sans-serif" font-size="282px" font-weight="400"><tspan class="TextPosition" x="7773" y="5053"><tspan fill="rgb(0,0,0)" stroke="none">450</tspan></tspan></tspan></text>
 <text class="TextShape"><tspan class="TextParagraph" font-family="Liberation Sans, sans-serif" font-size="282px" font-weight="400"><tspan class="TextPosition" x="8516" y="5053"><tspan fill="rgb(0,0,0)" stroke="none">500</tspan></tspan></tspan></text>
 <text class="TextShape"><tspan class="TextParagraph" font-family="Liberation Sans, sans-serif" font-size="282px" font-weight="400"><tspan class="TextPosition" x="757" y="4645"><tspan fill="rgb(0,0,0)" stroke="none">20</tspan></tspan></tspan></text>
 <text class="TextShape"><tspan class="TextParagraph" font-family="Liberation Sans, sans-serif" font-size="282px" font-weight="400"><tspan class="TextPosition" x="757" y="4207"><tspan fill="rgb(0,0,0)" stroke="none">30</tspan></tspan></tspan></text>
 <text class="TextShape"><tspan class="TextParagraph" font-family="Liberation Sans, sans-serif" font-size="282px" font-weight="400"><tspan class="TextPosition" x="757" y="3770"><tspan fill="rgb(0,0,0)" stroke="none">40</tspan></tspan></tspan></text>
 <text class="TextShape"><tspan class="TextParagraph" font-family="Liberation Sans, sans-serif" font-size="282px" font-weight="400"><tspan class="TextPosition" x="757" y="3333"><tspan fill="rgb(0,0,0)" stroke="none">50</tspan></tspan></tspan></text>
 <text class="TextShape"><tspan class="TextParagraph" font-family="Liberation Sans, sans-serif" font-size="282px" font-weight="400"><tspan class="TextPosition" x="757" y="2896"><tspan fill="rgb(0,0,0)" stroke="none">60</tspan></tspan></tspan></text>
 <text class="TextShape"><tspan class="TextParagraph" font-family="Liberation Sans, sans-serif" font-size="282px" font-weight="400"><tspan class="TextPosition" x="757" y="2459"><tspan fill="rgb(0,0,0)" stroke="none">70</tspan></tspan></tspan></text>
 <text class="TextShape"><tspan class="TextParagraph" font-family="Liberation Sans, sans-serif" font-size="282px" font-weight="400"><tspan class="TextPosition" x="757" y="2022"><tspan fill="rgb(0,0,0)" stroke="none">80</tspan></tspan></tspan></text>
 <text class="TextShape"><tspan class="TextParagraph" font-family="Liberation Sans, sans-serif" font-size="282px" font-weight="400"><tspan class="TextPosition" x="757" y="1585"><tspan fill="rgb(0,0,0)" stroke="none">90</tspan></tspan></tspan></text>
 <text class="TextShape"><tspan class="TextParagraph" font-family="Liberation Sans, sans-serif" font-size="282px" font-weight="400"><tspan class="TextPosition" x="599" y="1148"><tspan fill="rgb(0,0,0)" stroke="none">100</tspan></tspan></tspan></text>
 <text class="TextShape"><tspan class="TextParagraph" font-family="Liberation Sans, sans-serif" font-size="282px" font-weight="400"><tspan class="TextPosition" x="599" y="711"><tspan fill="rgb(0,0,0)" stroke="none">110</tspan></tspan></tspan></text>
 <text class="TextShape"><tspan class="TextParagraph" font-family="Liberation Sans, sans-serif" font-size="282px" font-weight="400"><tspan class="TextPosition" x="599" y="274"><tspan fill="rgb(0,0,0)" stroke="none">120</tspan></tspan></tspan></text>
 <text class="TextShape"><tspan class="TextParagraph" font-family="Liberation Sans, sans-serif" font-size="353px" font-weight="400"><tspan class="TextPosition" x="3344" y="5589"><tspan fill="rgb(0,0,0)" stroke="none">Training Sequence</tspan></tspan></tspan></text>
 <text class="TextShape" transform="rotate(-90 425 2928)"><tspan class="TextParagraph" font-family="Liberation Sans, sans-serif" font-size="353px" font-weight="400"><tspan class="TextPosition" x="425" y="2928"><tspan fill="rgb(0,0,0)" stroke="none">Loss</tspan></tspan></tspan></text>
</svg>