<?xml version="1.0" encoding="UTF-8"?>
<!DOCTYPE svg PUBLIC "-//W3C//DTD SVG 1.1//EN" "http://www.w3.org/Graphics/SVG/1.1/DTD/svg11.dtd">
<svg width="101mm" height="60mm" viewBox="0 0 10100 6000" version="1.1" xmlns="http://www.w3.org/2000/svg" xmlns:xlink="http://www.w3.org/1999/xlink" stroke-width="28.222" stroke-linejoin="round" xml:space="preserve">
 <path fill="rgb(255,255,255)" stroke="none" d="M 5063,6027 L 0,6027 0,0 10126,0 10126,6027 5063,6027 Z"/>
 <path fill="none" stroke="rgb(179,179,179)" stroke-linejoin="round" d="M 5482,4832 L 1181,4832 1181,317 9783,317 9783,4832 5482,4832 Z"/>
 <path fill="none" stroke="rgb(179,179,179)" stroke-linejoin="round" d="M 9783,4831 L 1181,4831"/>
 <path fill="none" stroke="rgb(179,179,179)" stroke-linejoin="round" d="M 9783,4380 L 1181,4380"/>
 <path fill="none" stroke="rgb(179,179,179)" stroke-linejoin="round" d="M 9783,3928 L 1181,3928"/>
 <path fill="none" stroke="rgb(179,179,179)" stroke-linejoin="round" d="M 9783,3476 L 1181,3476"/>
 <path fill="none" stroke="rgb(179,179,179)" stroke-linejoin="round" d="M 9783,3025 L 1181,3025"/>
 <path fill="none" stroke="rgb(179,179,179)" stroke-linejoin="round" d="M 9783,2573 L 1181,2573"/>
 <path fill="none" stroke="rgb(179,179,179)" stroke-linejoin="round" d="M 9783,2121 L 1181,2121"/>
 <path fill="none" stroke="rgb(179,179,179)" stroke-linejoin="round" d="M 9783,1670 L 1181,1670"/>
 <path fill="none" stroke="rgb(179,179,179)" stroke-linejoin="round" d="M 9783,1219 L 1181,1219"/>
 <path fill="none" stroke="rgb(179,179,179)" stroke-linejoin="round" d="M 9783,767 L 1181,767"/>
 <path fill="none" stroke="rgb(179,179,179)" stroke-linejoin="round" d="M 9783,316 L 1181,316"/>
 <path fill="none" stroke="rgb(179,179,179)" stroke-linejoin="round" d="M 1181,4981 L 1181,4831"/>
 <path fill="none" stroke="rgb(179,179,179)" stroke-linejoin="round" d="M 1181,4981 L 1181,4831"/>
 <path fill="none" stroke="rgb(179,179,179)" stroke-linejoin="round" d="M 2041,4981 L 2041,4831"/>
 <path fill="none" stroke="rgb(179,179,179)" stroke-linejoin="round" d="M 2041,4981 L 2041,4831"/>
 <path fill="none" stroke="rgb(179,179,179)" stroke-linejoin="round" d="M 2901,4981 L 2901,4831"/>
 <path fill="none" stroke="rgb(179,179,179)" stroke-linejoin="round" d="M 2901,4981 L 2901,4831"/>
 <path fill="none" stroke="rgb(179,179,179)" stroke-linejoin="round" d="M 3761,4981 L 3761,4831"/>
 <path fill="none" stroke="rgb(179,179,179)" stroke-linejoin="round" d="M 3761,4981 L 3761,4831"/>
 <path fill="none" stroke="rgb(179,179,179)" stroke-linejoin="round" d="M 4622,4981 L 4622,4831"/>
 <path fill="none" stroke="rgb(179,179,179)" stroke-linejoin="round" d="M 4622,4981 L 4622,4831"/>
 <path fill="none" stroke="rgb(179,179,179)" stroke-linejoin="round" d="M 5481,4981 L 5481,4831"/>
 <path fill="none" stroke="rgb(179,179,179)" stroke-linejoin="round" d="M 5481,4981 L 5481,4831"/>
 <path fill="none" stroke="rgb(179,179,179)" stroke-linejoin="round" d="M 6341,4981 L 6341,4831"/>
 <path fill="none" stroke="rgb(179,179,179)" stroke-linejoin="round" d="M 6341,4981 L 6341,4831"/>
 <path fill="none" stroke="rgb(179,179,179)" stroke-linejoin="round" d="M 7202,4981 L 7202,4831"/>
 <path fill="none" stroke="rgb(179,179,179)" stroke-linejoin="round" d="M 7202,4981 L 7202,4831"/>
 <path fill="none" stroke="rgb(179,179,179)" stroke-linejoin="round" d="M 8062,4981 L 8062,4831"/>
 <path fill="none" stroke="rgb(179,179,179)" stroke-linejoin="round" d="M 8062,4981 L 8062,4831"/>
 <path fill="none" stroke="rgb(179,179,179)" stroke-linejoin="round" d="M 8922,4981 L 8922,4831"/>
 <path fill="none" stroke="rgb(179,179,179)" stroke-linejoin="round" d="M 8922,4981 L 8922,4831"/>
 <path fill="none" stroke="rgb(179,179,179)" stroke-linejoin="round" d="M 9783,4981 L 9783,4831"/>
 <path fill="none" stroke="rgb(179,179,179)" stroke-linejoin="round" d="M 9783,4981 L 9783,4831"/>
 <path fill="none" stroke="rgb(179,179,179)" stroke-linejoin="round" d="M 1181,4831 L 9783,4831"/>
 <path fill="none" stroke="rgb(179,179,179)" stroke-linejoin="round" d="M 1031,4831 L 1181,4831"/>
 <path fill="none" stroke="rgb(179,179,179)" stroke-linejoin="round" d="M 1031,4831 L 1181,4831"/>
 <path fill="none" stroke="rgb(179,179,179)" stroke-linejoin="round" d="M 1031,4380 L 1181,4380"/>
 <path fill="none" stroke="rgb(179,179,179)" stroke-linejoin="round" d="M 1031,4380 L 1181,4380"/>
 <path fill="none" stroke="rgb(179,179,179)" stroke-linejoin="round" d="M 1031,3928 L 1181,3928"/>
 <path fill="none" stroke="rgb(179,179,179)" stroke-linejoin="round" d="M 1031,3928 L 1181,3928"/>
 <path fill="none" stroke="rgb(179,179,179)" stroke-linejoin="round" d="M 1031,3476 L 1181,3476"/>
 <path fill="none" stroke="rgb(179,179,179)" stroke-linejoin="round" d="M 1031,3476 L 1181,3476"/>
 <path fill="none" stroke="rgb(179,179,179)" stroke-linejoin="round" d="M 1031,3025 L 1181,3025"/>
 <path fill="none" stroke="rgb(179,179,179)" stroke-linejoin="round" d="M 1031,3025 L 1181,3025"/>
 <path fill="none" stroke="rgb(179,179,179)" stroke-linejoin="round" d="M 1031,2573 L 1181,2573"/>
 <path fill="none" stroke="rgb(179,179,179)" stroke-linejoin="round" d="M 1031,2573 L 1181,2573"/>
 <path fill="none" stroke="rgb(179,179,179)" stroke-linejoin="round" d="M 1031,2121 L 1181,2121"/>
 <path fill="none" stroke="rgb(179,179,179)" stroke-linejoin="round" d="M 1031,2121 L 1181,2121"/>
 <path fill="none" stroke="rgb(179,179,179)" stroke-linejoin="round" d="M 1031,1670 L 1181,1670"/>
 <path fill="none" stroke="rgb(179,179,179)" stroke-linejoin="round" d="M 1031,1670 L 1181,1670"/>
 <path fill="none" stroke="rgb(179,179,179)" stroke-linejoin="round" d="M 1031,1219 L 1181,1219"/>
 <path fill="none" stroke="rgb(179,179,179)" stroke-linejoin="round" d="M 1031,1219 L 1181,1219"/>
 <path fill="none" stroke="rgb(179,179,179)" stroke-linejoin="round" d="M 1031,767 L 1181,767"/>
 <path fill="none" stroke="rgb(179,179,179)" stroke-linejoin="round" d="M 1031,767 L 1181,767"/>
 <path fill="none" stroke="rgb(179,179,179)" stroke-linejoin="round" d="M 1031,316 L 1181,316"/>
 <path fill="none" stroke="rgb(179,179,179)" stroke-linejoin="round" d="M 1031,316 L 1181,316"/>
 <path fill="none" stroke="rgb(179,179,179)" stroke-linejoin="round" d="M 1181,4831 L 1181,316"/>
 <path fill="none" stroke="rgb(255,66,14)" stroke-width="80" stroke-linejoin="round" d="M 1181,2499 L 2041,2843 2901,2901 3761,3019 4622,2984 5481,3084 6341,3023 7202,3118 8062,3101 8922,3210 9783,3243"/>
 <path fill="none" stroke="rgb(0,69,134)" stroke-width="80" stroke-linejoin="round" d="M 1181,2470 L 2041,2918 2901,2826 3761,2821 4622,2932 5481,2794 6341,2784 7202,2821 8062,2896 8922,3062 9783,3025"/>
 <text class="TextShape"><tspan class="TextParagraph" font-family="Liberation Sans, sans-serif" font-size="282px" font-weight="400"><tspan class="TextPosition" x="1101" y="5346"><tspan fill="rgb(0,0,0)" stroke="none">0</tspan></tspan></tspan></text>
 <text class="TextShape"><tspan class="TextParagraph" font-family="Liberation Sans, sans-serif" font-size="282px" font-weight="400"><tspan class="TextPosition" x="1882" y="5346"><tspan fill="rgb(0,0,0)" stroke="none">50</tspan></tspan></tspan></text>
 <text class="TextShape"><tspan class="TextParagraph" font-family="Liberation Sans, sans-serif" font-size="282px" font-weight="400"><tspan class="TextPosition" x="2663" y="5346"><tspan fill="rgb(0,0,0)" stroke="none">100</tspan></tspan></tspan></text>
 <text class="TextShape"><tspan class="TextParagraph" font-family="Liberation Sans, sans-serif" font-size="282px" font-weight="400"><tspan class="TextPosition" x="3523" y="5346"><tspan fill="rgb(0,0,0)" stroke="none">150</tspan></tspan></tspan></text>
 <text class="TextShape"><tspan class="TextParagraph" font-family="Liberation Sans, sans-serif" font-size="282px" font-weight="400"><tspan class="TextPosition" x="4384" y="5346"><tspan fill="rgb(0,0,0)" stroke="none">200</tspan></tspan></tspan></text>
 <text class="TextShape"><tspan class="TextParagraph" font-family="Liberation Sans, sans-serif" font-size="282px" font-weight="400"><tspan class="TextPosition" x="5244" y="5346"><tspan fill="rgb(0,0,0)" stroke="none">250</tspan></tspan></tspan></text>
 <text class="TextShape"><tspan class="TextParagraph" font-family="Liberation Sans, sans-serif" font-size="282px" font-weight="400"><tspan class="TextPosition" x="6104" y="5346"><tspan fill="rgb(0,0,0)" stroke="none">300</tspan></tspan></tspan></text>
 <text class="TextShape"><tspan class="TextParagraph" font-family="Liberation Sans, sans-serif" font-size="282px" font-weight="400"><tspan class="TextPosition" x="6965" y="5346"><tspan fill="rgb(0,0,0)" stroke="none">350</tspan></tspan></tspan></text>
 <text class="TextShape"><tspan class="TextParagraph" font-family="Liberation Sans, sans-serif" font-size="282px" font-weight="400"><tspan class="TextPosition" x="7825" y="5346"><tspan fill="rgb(0,0,0)" stroke="none">400</tspan></tspan></tspan></text>
 <text class="TextShape"><tspan class="TextParagraph" font-family="Liberation Sans, sans-serif" font-size="282px" font-weight="400"><tspan class="TextPosition" x="8685" y="5346"><tspan fill="rgb(0,0,0)" stroke="none">450</tspan></tspan></tspan></text>
 <text class="TextShape"><tspan class="TextParagraph" font-family="Liberation Sans, sans-serif" font-size="282px" font-weight="400"><tspan class="TextPosition" x="9546" y="5346"><tspan fill="rgb(0,0,0)" stroke="none">500</tspan></tspan></tspan></text>
 <text class="TextShape"><tspan class="TextParagraph" font-family="Liberation Sans, sans-serif" font-size="282px" font-weight="400"><tspan class="TextPosition" x="772" y="4938"><tspan fill="rgb(0,0,0)" stroke="none">0</tspan></tspan></tspan></text>
 <text class="TextShape"><tspan class="TextParagraph" font-family="Liberation Sans, sans-serif" font-size="282px" font-weight="400"><tspan class="TextPosition" x="613" y="4486"><tspan fill="rgb(0,0,0)" stroke="none">10</tspan></tspan></tspan></text>
 <text class="TextShape"><tspan class="TextParagraph" font-family="Liberation Sans, sans-serif" font-size="282px" font-weight="400"><tspan class="TextPosition" x="613" y="4034"><tspan fill="rgb(0,0,0)" stroke="none">20</tspan></tspan></tspan></text>
 <text class="TextShape"><tspan class="TextParagraph" font-family="Liberation Sans, sans-serif" font-size="282px" font-weight="400"><tspan class="TextPosition" x="613" y="3582"><tspan fill="rgb(0,0,0)" stroke="none">30</tspan></tspan></tspan></text>
 <text class="TextShape"><tspan class="TextParagraph" font-family="Liberation Sans, sans-serif" font-size="282px" font-weight="400"><tspan class="TextPosition" x="613" y="3131"><tspan fill="rgb(0,0,0)" stroke="none">40</tspan></tspan></tspan></text>
 <text class="TextShape"><tspan class="TextParagraph" font-family="Liberation Sans, sans-serif" font-size="282px" font-weight="400"><tspan class="TextPosition" x="613" y="2680"><tspan fill="rgb(0,0,0)" stroke="none">50</tspan></tspan></tspan></text>
 <text class="TextShape"><tspan class="TextParagraph" font-family="Liberation Sans, sans-serif" font-size="282px" font-weight="400"><tspan class="TextPosition" x="613" y="2228"><tspan fill="rgb(0,0,0)" stroke="none">60</tspan></tspan></tspan></text>
 <text class="TextShape"><tspan class="TextParagraph" font-family="Liberation Sans, sans-serif" font-size="282px" font-weight="400"><tspan class="TextPosition" x="613" y="1777"><tspan fill="rgb(0,0,0)" stroke="none">70</tspan></tspan></tspan></text>
 <text class="TextShape"><tspan class="TextParagraph" font-family="Liberation Sans, sans-serif" font-size="282px" font-weight="400"><tspan class="TextPosition" x="613" y="1325"><tspan fill="rgb(0,0,0)" stroke="none">80</tspan></tspan></tspan></text>
 <text class="TextShape"><tspan class="TextParagraph" font-family="Liberation Sans, sans-serif" font-size="282px" font-weight="400"><tspan class="TextPosition" x="613" y="873"><tspan fill="rgb(0,0,0)" stroke="none">90</tspan></tspan></tspan></text>
 <text class="TextShape"><tspan class="TextParagraph" font-family="Liberation Sans, sans-serif" font-size="282px" font-weight="400"><tspan class="TextPosition" x="455" y="422"><tspan fill="rgb(0,0,0)" stroke="none">100</tspan></tspan></tspan></text>
 <path fill="rgb(238,238,238)" stroke="none" d="M 2923,1343 L 1346,1343 1346,455 4501,455 4501,1343 2923,1343 Z"/>
 <path fill="none" stroke="rgb(0,69,134)" stroke-width="80" stroke-linejoin="round" d="M 1507,688 L 2307,688"/>
 <path fill="none" stroke="rgb(255,66,14)" stroke-width="80" stroke-linejoin="round" d="M 1507,1107 L 2307,1107"/>
 <text class="TextShape"><tspan class="TextParagraph" font-family="Liberation Sans, sans-serif" font-size="318px" font-weight="400"><tspan class="TextPosition" x="2407" y="794"><tspan fill="rgb(0,0,0)" stroke="none">Different Size</tspan></tspan></tspan></text>
 <text class="TextShape"><tspan class="TextParagraph" font-family="Liberation Sans, sans-serif" font-size="318px" font-weight="400"><tspan class="TextPosition" x="2407" y="1213"><tspan fill="rgb(0,0,0)" stroke="none">Same Size</tspan></tspan></tspan></text>
 <text class="TextShape"><tspan class="TextParagraph" font-family="Liberation Sans, sans-serif" font-size="353px" font-weight="400"><tspan class="TextPosition" x="4471" y="5843"><tspan fill="rgb(0,0,0)" stroke="none">Sequence</tspan></tspan></tspan></text>
 <text class="TextShape" transform="rotate(-90 425 3148)"><tspan class="TextParagraph" font-family="Liberation Sans, sans-serif" font-size="353px" font-weight="400"><tspan class="TextPosition" x="425" y="3148"><tspan fill="rgb(0,0,0)" stroke="none">Loss</tspan></tspan></tspan></text>
</svg>