<?xml version="1.0" encoding="UTF-8"?>
<!DOCTYPE svg PUBLIC "-//W3C//DTD SVG 1.1//EN" "http://www.w3.org/Graphics/SVG/1.1/DTD/svg11.dtd">
<svg width="90mm" height="50mm" viewBox="0 0 9000 5000" version="1.1" xmlns="http://www.w3.org/2000/svg" xmlns:xlink="http://www.w3.org/1999/xlink" stroke-width="28.222" stroke-linejoin="round" xml:space="preserve">
 <path fill="rgb(255,255,255)" stroke="none" d="M 4476,5034 L 0,5034 0,0 8952,0 8952,5034 4476,5034 Z"/>
 <path fill="none" stroke="rgb(179,179,179)" stroke-linejoin="round" d="M 4785,3866 L 799,3866 799,285 8771,285 8771,3866 4785,3866 Z"/>
 <path fill="none" stroke="rgb(179,179,179)" stroke-linejoin="round" d="M 8771,3865 L 799,3865"/>
 <path fill="none" stroke="rgb(179,179,179)" stroke-linejoin="round" d="M 8771,3418 L 799,3418"/>
 <path fill="none" stroke="rgb(179,179,179)" stroke-linejoin="round" d="M 8771,2970 L 799,2970"/>
 <path fill="none" stroke="rgb(179,179,179)" stroke-linejoin="round" d="M 8771,2522 L 799,2522"/>
 <path fill="none" stroke="rgb(179,179,179)" stroke-linejoin="round" d="M 8771,2074 L 799,2074"/>
 <path fill="none" stroke="rgb(179,179,179)" stroke-linejoin="round" d="M 8771,1626 L 799,1626"/>
 <path fill="none" stroke="rgb(179,179,179)" stroke-linejoin="round" d="M 8771,1179 L 799,1179"/>
 <path fill="none" stroke="rgb(179,179,179)" stroke-linejoin="round" d="M 8771,731 L 799,731"/>
 <path fill="none" stroke="rgb(179,179,179)" stroke-linejoin="round" d="M 8771,284 L 799,284"/>
 <path fill="none" stroke="rgb(179,179,179)" stroke-linejoin="round" d="M 799,4015 L 799,3865"/>
 <path fill="none" stroke="rgb(179,179,179)" stroke-linejoin="round" d="M 799,4015 L 799,3865"/>
 <path fill="none" stroke="rgb(179,179,179)" stroke-linejoin="round" d="M 1523,4015 L 1523,3865"/>
 <path fill="none" stroke="rgb(179,179,179)" stroke-linejoin="round" d="M 1523,4015 L 1523,3865"/>
 <path fill="none" stroke="rgb(179,179,179)" stroke-linejoin="round" d="M 2248,4015 L 2248,3865"/>
 <path fill="none" stroke="rgb(179,179,179)" stroke-linejoin="round" d="M 2248,4015 L 2248,3865"/>
 <path fill="none" stroke="rgb(179,179,179)" stroke-linejoin="round" d="M 2973,4015 L 2973,3865"/>
 <path fill="none" stroke="rgb(179,179,179)" stroke-linejoin="round" d="M 2973,4015 L 2973,3865"/>
 <path fill="none" stroke="rgb(179,179,179)" stroke-linejoin="round" d="M 3698,4015 L 3698,3865"/>
 <path fill="none" stroke="rgb(179,179,179)" stroke-linejoin="round" d="M 3698,4015 L 3698,3865"/>
 <path fill="none" stroke="rgb(179,179,179)" stroke-linejoin="round" d="M 4423,4015 L 4423,3865"/>
 <path fill="none" stroke="rgb(179,179,179)" stroke-linejoin="round" d="M 4423,4015 L 4423,3865"/>
 <path fill="none" stroke="rgb(179,179,179)" stroke-linejoin="round" d="M 5146,4015 L 5146,3865"/>
 <path fill="none" stroke="rgb(179,179,179)" stroke-linejoin="round" d="M 5146,4015 L 5146,3865"/>
 <path fill="none" stroke="rgb(179,179,179)" stroke-linejoin="round" d="M 5871,4015 L 5871,3865"/>
 <path fill="none" stroke="rgb(179,179,179)" stroke-linejoin="round" d="M 5871,4015 L 5871,3865"/>
 <path fill="none" stroke="rgb(179,179,179)" stroke-linejoin="round" d="M 6596,4015 L 6596,3865"/>
 <path fill="none" stroke="rgb(179,179,179)" stroke-linejoin="round" d="M 6596,4015 L 6596,3865"/>
 <path fill="none" stroke="rgb(179,179,179)" stroke-linejoin="round" d="M 7321,4015 L 7321,3865"/>
 <path fill="none" stroke="rgb(179,179,179)" stroke-linejoin="round" d="M 7321,4015 L 7321,3865"/>
 <path fill="none" stroke="rgb(179,179,179)" stroke-linejoin="round" d="M 8046,4015 L 8046,3865"/>
 <path fill="none" stroke="rgb(179,179,179)" stroke-linejoin="round" d="M 8046,4015 L 8046,3865"/>
 <path fill="none" stroke="rgb(179,179,179)" stroke-linejoin="round" d="M 8771,4015 L 8771,3865"/>
 <path fill="none" stroke="rgb(179,179,179)" stroke-linejoin="round" d="M 8771,4015 L 8771,3865"/>
 <path fill="none" stroke="rgb(179,179,179)" stroke-linejoin="round" d="M 799,3865 L 8771,3865"/>
 <path fill="none" stroke="rgb(179,179,179)" stroke-linejoin="round" d="M 649,3865 L 799,3865"/>
 <path fill="none" stroke="rgb(179,179,179)" stroke-linejoin="round" d="M 649,3865 L 799,3865"/>
 <path fill="none" stroke="rgb(179,179,179)" stroke-linejoin="round" d="M 649,3418 L 799,3418"/>
 <path fill="none" stroke="rgb(179,179,179)" stroke-linejoin="round" d="M 649,3418 L 799,3418"/>
 <path fill="none" stroke="rgb(179,179,179)" stroke-linejoin="round" d="M 649,2970 L 799,2970"/>
 <path fill="none" stroke="rgb(179,179,179)" stroke-linejoin="round" d="M 649,2970 L 799,2970"/>
 <path fill="none" stroke="rgb(179,179,179)" stroke-linejoin="round" d="M 649,2522 L 799,2522"/>
 <path fill="none" stroke="rgb(179,179,179)" stroke-linejoin="round" d="M 649,2522 L 799,2522"/>
 <path fill="none" stroke="rgb(179,179,179)" stroke-linejoin="round" d="M 649,2074 L 799,2074"/>
 <path fill="none" stroke="rgb(179,179,179)" stroke-linejoin="round" d="M 649,2074 L 799,2074"/>
 <path fill="none" stroke="rgb(179,179,179)" stroke-linejoin="round" d="M 649,1626 L 799,1626"/>
 <path fill="none" stroke="rgb(179,179,179)" stroke-linejoin="round" d="M 649,1626 L 799,1626"/>
 <path fill="none" stroke="rgb(179,179,179)" stroke-linejoin="round" d="M 649,1179 L 799,1179"/>
 <path fill="none" stroke="rgb(179,179,179)" stroke-linejoin="round" d="M 649,1179 L 799,1179"/>
 <path fill="none" stroke="rgb(179,179,179)" stroke-linejoin="round" d="M 649,731 L 799,731"/>
 <path fill="none" stroke="rgb(179,179,179)" stroke-linejoin="round" d="M 649,731 L 799,731"/>
 <path fill="none" stroke="rgb(179,179,179)" stroke-linejoin="round" d="M 649,284 L 799,284"/>
 <path fill="none" stroke="rgb(179,179,179)" stroke-linejoin="round" d="M 649,284 L 799,284"/>
 <path fill="none" stroke="rgb(179,179,179)" stroke-linejoin="round" d="M 799,3865 L 799,284"/>
 <path fill="rgb(0,69,134)" stroke="none" d="M 8046,3865 L 8771,3865 8771,3507 8046,3507 8046,3865 Z"/>
 <path fill="rgb(0,69,134)" stroke="none" d="M 7321,3865 L 8046,3865 8046,3597 7321,3597 7321,3865 Z"/>
 <path fill="rgb(0,69,134)" stroke="none" d="M 6596,3865 L 7321,3865 7321,3776 6596,3776 6596,3865 Z"/>
 <path fill="rgb(0,69,134)" stroke="none" d="M 5871,3865 L 6596,3865 6596,3776 5871,3776 5871,3865 Z"/>
 <path fill="rgb(0,69,134)" stroke="none" d="M 5146,3865 L 5871,3865 5871,3507 5146,3507 5146,3865 Z"/>
 <path fill="rgb(0,69,134)" stroke="none" d="M 4423,3865 L 5146,3865 5146,2791 4423,2791 4423,3865 Z"/>
 <path fill="rgb(0,69,134)" stroke="none" d="M 3698,3865 L 4423,3865 4423,642 3698,642 3698,3865 Z"/>
 <path fill="rgb(0,69,134)" stroke="none" d="M 2973,3865 L 3698,3865 3698,1626 2973,1626 2973,3865 Z"/>
 <path fill="rgb(0,69,134)" stroke="none" d="M 2248,3865 L 2973,3865 2973,2970 2248,2970 2248,3865 Z"/>
 <path fill="rgb(0,69,134)" stroke="none" d="M 1523,3865 L 2248,3865 2248,3597 1523,3597 1523,3865 Z"/>
 <path fill="rgb(0,69,134)" stroke="none" d="M 799,3865 L 1523,3865 1523,3776 799,3776 799,3865 Z"/>
 <text class="TextShape"><tspan class="TextParagraph" font-family="Liberation Sans, sans-serif" font-size="318px" font-weight="400"><tspan class="TextPosition" x="976" y="4406"><tspan fill="rgb(0,0,0)" stroke="none">83</tspan></tspan></tspan></text>
 <text class="TextShape"><tspan class="TextParagraph" font-family="Liberation Sans, sans-serif" font-size="318px" font-weight="400"><tspan class="TextPosition" x="1701" y="4406"><tspan fill="rgb(0,0,0)" stroke="none">85</tspan></tspan></tspan></text>
 <text class="TextShape"><tspan class="TextParagraph" font-family="Liberation Sans, sans-serif" font-size="318px" font-weight="400"><tspan class="TextPosition" x="2426" y="4406"><tspan fill="rgb(0,0,0)" stroke="none">88</tspan></tspan></tspan></text>
 <text class="TextShape"><tspan class="TextParagraph" font-family="Liberation Sans, sans-serif" font-size="318px" font-weight="400"><tspan class="TextPosition" x="3150" y="4406"><tspan fill="rgb(0,0,0)" stroke="none">91</tspan></tspan></tspan></text>
 <text class="TextShape"><tspan class="TextParagraph" font-family="Liberation Sans, sans-serif" font-size="318px" font-weight="400"><tspan class="TextPosition" x="3875" y="4406"><tspan fill="rgb(0,0,0)" stroke="none">94</tspan></tspan></tspan></text>
 <text class="TextShape"><tspan class="TextParagraph" font-family="Liberation Sans, sans-serif" font-size="318px" font-weight="400"><tspan class="TextPosition" x="4600" y="4406"><tspan fill="rgb(0,0,0)" stroke="none">97</tspan></tspan></tspan></text>
 <text class="TextShape"><tspan class="TextParagraph" font-family="Liberation Sans, sans-serif" font-size="318px" font-weight="400"><tspan class="TextPosition" x="5232" y="4406"><tspan fill="rgb(0,0,0)" stroke="none">100</tspan></tspan></tspan></text>
 <text class="TextShape"><tspan class="TextParagraph" font-family="Liberation Sans, sans-serif" font-size="318px" font-weight="400"><tspan class="TextPosition" x="5957" y="4406"><tspan fill="rgb(0,0,0)" stroke="none">103</tspan></tspan></tspan></text>
 <text class="TextShape"><tspan class="TextParagraph" font-family="Liberation Sans, sans-serif" font-size="318px" font-weight="400"><tspan class="TextPosition" x="6681" y="4406"><tspan fill="rgb(0,0,0)" stroke="none">105</tspan></tspan></tspan></text>
 <text class="TextShape"><tspan class="TextParagraph" font-family="Liberation Sans, sans-serif" font-size="318px" font-weight="400"><tspan class="TextPosition" x="7406" y="4406"><tspan fill="rgb(0,0,0)" stroke="none">108</tspan></tspan></tspan></text>
 <text class="TextShape"><tspan class="TextParagraph" font-family="Liberation Sans, sans-serif" font-size="318px" font-weight="400"><tspan class="TextPosition" x="8131" y="4406"><tspan fill="rgb(0,0,0)" stroke="none">111</tspan></tspan></tspan></text>
 <text class="TextShape"><tspan class="TextParagraph" font-family="Liberation Sans, sans-serif" font-size="318px" font-weight="400"><tspan class="TextPosition" x="364" y="3972"><tspan fill="rgb(0,0,0)" stroke="none">0</tspan></tspan></tspan></text>
 <text class="TextShape"><tspan class="TextParagraph" font-family="Liberation Sans, sans-serif" font-size="318px" font-weight="400"><tspan class="TextPosition" x="364" y="3524"><tspan fill="rgb(0,0,0)" stroke="none">5</tspan></tspan></tspan></text>
 <text class="TextShape"><tspan class="TextParagraph" font-family="Liberation Sans, sans-serif" font-size="318px" font-weight="400"><tspan class="TextPosition" x="179" y="3076"><tspan fill="rgb(0,0,0)" stroke="none">10</tspan></tspan></tspan></text>
 <text class="TextShape"><tspan class="TextParagraph" font-family="Liberation Sans, sans-serif" font-size="318px" font-weight="400"><tspan class="TextPosition" x="179" y="2628"><tspan fill="rgb(0,0,0)" stroke="none">15</tspan></tspan></tspan></text>
 <text class="TextShape"><tspan class="TextParagraph" font-family="Liberation Sans, sans-serif" font-size="318px" font-weight="400"><tspan class="TextPosition" x="179" y="2181"><tspan fill="rgb(0,0,0)" stroke="none">20</tspan></tspan></tspan></text>
 <text class="TextShape"><tspan class="TextParagraph" font-family="Liberation Sans, sans-serif" font-size="318px" font-weight="400"><tspan class="TextPosition" x="179" y="1733"><tspan fill="rgb(0,0,0)" stroke="none">25</tspan></tspan></tspan></text>
 <text class="TextShape"><tspan class="TextParagraph" font-family="Liberation Sans, sans-serif" font-size="318px" font-weight="400"><tspan class="TextPosition" x="179" y="1285"><tspan fill="rgb(0,0,0)" stroke="none">30</tspan></tspan></tspan></text>
 <text class="TextShape"><tspan class="TextParagraph" font-family="Liberation Sans, sans-serif" font-size="318px" font-weight="400"><tspan class="TextPosition" x="179" y="837"><tspan fill="rgb(0,0,0)" stroke="none">35</tspan></tspan></tspan></text>
 <text class="TextShape"><tspan class="TextParagraph" font-family="Liberation Sans, sans-serif" font-size="318px" font-weight="400"><tspan class="TextPosition" x="179" y="390"><tspan fill="rgb(0,0,0)" stroke="none">40</tspan></tspan></tspan></text>
 <text class="TextShape"><tspan class="TextParagraph" font-family="Liberation Sans, sans-serif" font-size="282px" font-weight="400"><tspan class="TextPosition" x="4157" y="4897"><tspan fill="rgb(0,0,0)" stroke="none">Loss</tspan></tspan></tspan></text>
</svg>