<?xml version="1.0" encoding="UTF-8"?>
<!DOCTYPE svg PUBLIC "-//W3C//DTD SVG 1.1//EN" "http://www.w3.org/Graphics/SVG/1.1/DTD/svg11.dtd">
<svg width="90mm" height="50mm" viewBox="0 0 9000 5000" version="1.1" xmlns="http://www.w3.org/2000/svg" xmlns:xlink="http://www.w3.org/1999/xlink" stroke-width="28.222" stroke-linejoin="round" xml:space="preserve">
 <path fill="rgb(255,255,255)" stroke="none" d="M 4476,5034 L 0,5034 0,0 8952,0 8952,5034 4476,5034 Z"/>
 <path fill="none" stroke="rgb(179,179,179)" stroke-linejoin="round" d="M 4785,3866 L 799,3866 799,285 8771,285 8771,3866 4785,3866 Z"/>
 <path fill="none" stroke="rgb(179,179,179)" stroke-linejoin="round" d="M 8771,3865 L 799,3865"/>
 <path fill="none" stroke="rgb(179,179,179)" stroke-linejoin="round" d="M 8771,3149 L 799,3149"/>
 <path fill="none" stroke="rgb(179,179,179)" stroke-linejoin="round" d="M 8771,2432 L 799,2432"/>
 <path fill="none" stroke="rgb(179,179,179)" stroke-linejoin="round" d="M 8771,1716 L 799,1716"/>
 <path fill="none" stroke="rgb(179,179,179)" stroke-linejoin="round" d="M 8771,1000 L 799,1000"/>
 <path fill="none" stroke="rgb(179,179,179)" stroke-linejoin="round" d="M 8771,284 L 799,284"/>
 <path fill="none" stroke="rgb(179,179,179)" stroke-linejoin="round" d="M 799,4015 L 799,3865"/>
 <path fill="none" stroke="rgb(179,179,179)" stroke-linejoin="round" d="M 799,4015 L 799,3865"/>
 <path fill="none" stroke="rgb(179,179,179)" stroke-linejoin="round" d="M 1523,4015 L 1523,3865"/>
 <path fill="none" stroke="rgb(179,179,179)" stroke-linejoin="round" d="M 1523,4015 L 1523,3865"/>
 <path fill="none" stroke="rgb(179,179,179)" stroke-linejoin="round" d="M 2248,4015 L 2248,3865"/>
 <path fill="none" stroke="rgb(179,179,179)" stroke-linejoin="round" d="M 2248,4015 L 2248,3865"/>
 <path fill="none" stroke="rgb(179,179,179)" stroke-linejoin="round" d="M 2973,4015 L 2973,3865"/>
 <path fill="none" stroke="rgb(179,179,179)" stroke-linejoin="round" d="M 2973,4015 L 2973,3865"/>
 <path fill="none" stroke="rgb(179,179,179)" stroke-linejoin="round" d="M 3698,4015 L 3698,3865"/>
 <path fill="none" stroke="rgb(179,179,179)" stroke-linejoin="round" d="M 3698,4015 L 3698,3865"/>
 <path fill="none" stroke="rgb(179,179,179)" stroke-linejoin="round" d="M 4423,4015 L 4423,3865"/>
 <path fill="none" stroke="rgb(179,179,179)" stroke-linejoin="round" d="M 4423,4015 L 4423,3865"/>
 <path fill="none" stroke="rgb(179,179,179)" stroke-linejoin="round" d="M 5146,4015 L 5146,3865"/>
 <path fill="none" stroke="rgb(179,179,179)" stroke-linejoin="round" d="M 5146,4015 L 5146,3865"/>
 <path fill="none" stroke="rgb(179,179,179)" stroke-linejoin="round" d="M 5871,4015 L 5871,3865"/>
 <path fill="none" stroke="rgb(179,179,179)" stroke-linejoin="round" d="M 5871,4015 L 5871,3865"/>
 <path fill="none" stroke="rgb(179,179,179)" stroke-linejoin="round" d="M 6596,4015 L 6596,3865"/>
 <path fill="none" stroke="rgb(179,179,179)" stroke-linejoin="round" d="M 6596,4015 L 6596,3865"/>
 <path fill="none" stroke="rgb(179,179,179)" stroke-linejoin="round" d="M 7321,4015 L 7321,3865"/>
 <path fill="none" stroke="rgb(179,179,179)" stroke-linejoin="round" d="M 7321,4015 L 7321,3865"/>
 <path fill="none" stroke="rgb(179,179,179)" stroke-linejoin="round" d="M 8046,4015 L 8046,3865"/>
 <path fill="none" stroke="rgb(179,179,179)" stroke-linejoin="round" d="M 8046,4015 L 8046,3865"/>
 <path fill="none" stroke="rgb(179,179,179)" stroke-linejoin="round" d="M 8771,4015 L 8771,3865"/>
 <path fill="none" stroke="rgb(179,179,179)" stroke-linejoin="round" d="M 8771,4015 L 8771,3865"/>
 <path fill="none" stroke="rgb(179,179,179)" stroke-linejoin="round" d="M 799,3865 L 8771,3865"/>
 <path fill="none" stroke="rgb(179,179,179)" stroke-linejoin="round" d="M 649,3865 L 799,3865"/>
 <path fill="none" stroke="rgb(179,179,179)" stroke-linejoin="round" d="M 649,3865 L 799,3865"/>
 <path fill="none" stroke="rgb(179,179,179)" stroke-linejoin="round" d="M 649,3149 L 799,3149"/>
 <path fill="none" stroke="rgb(179,179,179)" stroke-linejoin="round" d="M 649,3149 L 799,3149"/>
 <path fill="none" stroke="rgb(179,179,179)" stroke-linejoin="round" d="M 649,2432 L 799,2432"/>
 <path fill="none" stroke="rgb(179,179,179)" stroke-linejoin="round" d="M 649,2432 L 799,2432"/>
 <path fill="none" stroke="rgb(179,179,179)" stroke-linejoin="round" d="M 649,1716 L 799,1716"/>
 <path fill="none" stroke="rgb(179,179,179)" stroke-linejoin="round" d="M 649,1716 L 799,1716"/>
 <path fill="none" stroke="rgb(179,179,179)" stroke-linejoin="round" d="M 649,1000 L 799,1000"/>
 <path fill="none" stroke="rgb(179,179,179)" stroke-linejoin="round" d="M 649,1000 L 799,1000"/>
 <path fill="none" stroke="rgb(179,179,179)" stroke-linejoin="round" d="M 649,284 L 799,284"/>
 <path fill="none" stroke="rgb(179,179,179)" stroke-linejoin="round" d="M 649,284 L 799,284"/>
 <path fill="none" stroke="rgb(179,179,179)" stroke-linejoin="round" d="M 799,3865 L 799,284"/>
 <path fill="rgb(0,69,134)" stroke="none" d="M 8046,3865 L 8771,3865 8771,3579 8046,3579 8046,3865 Z"/>
 <path fill="rgb(0,69,134)" stroke="none" d="M 7321,3865 L 8046,3865 8046,3722 7321,3722 7321,3865 Z"/>
 <path fill="rgb(0,69,134)" stroke="none" d="M 6596,3865 L 7321,3865 7321,3793 6596,3793 6596,3865 Z"/>
 <path fill="rgb(0,69,134)" stroke="none" d="M 5871,3865 L 6596,3865 6596,3793 5871,3793 5871,3865 Z"/>
 <path fill="rgb(0,69,134)" stroke="none" d="M 5146,3865 L 5871,3865 5871,3793 5146,3793 5146,3865 Z"/>
 <path fill="rgb(0,69,134)" stroke="none" d="M 4423,3865 L 5146,3865 5146,3436 4423,3436 4423,3865 Z"/>
 <path fill="rgb(0,69,134)" stroke="none" d="M 3698,3865 L 4423,3865 4423,2576 3698,2576 3698,3865 Z"/>
 <path fill="rgb(0,69,134)" stroke="none" d="M 2973,3865 L 3698,3865 3698,713 2973,713 2973,3865 Z"/>
 <path fill="rgb(0,69,134)" stroke="none" d="M 2248,3865 L 2973,3865 2973,3221 2248,3221 2248,3865 Z"/>
 <path fill="rgb(0,69,134)" stroke="none" d="M 1523,3865 L 2248,3865 2248,3006 1523,3006 1523,3865 Z"/>
 <path fill="rgb(0,69,134)" stroke="none" d="M 799,3865 L 1523,3865 1523,3793 799,3793 799,3865 Z"/>
 <text class="TextShape"><tspan class="TextParagraph" font-family="Liberation Sans, sans-serif" font-size="318px" font-weight="400"><tspan class="TextPosition" x="976" y="4406"><tspan fill="rgb(0,0,0)" stroke="none">38</tspan></tspan></tspan></text>
 <text class="TextShape"><tspan class="TextParagraph" font-family="Liberation Sans, sans-serif" font-size="318px" font-weight="400"><tspan class="TextPosition" x="1701" y="4406"><tspan fill="rgb(0,0,0)" stroke="none">39</tspan></tspan></tspan></text>
 <text class="TextShape"><tspan class="TextParagraph" font-family="Liberation Sans, sans-serif" font-size="318px" font-weight="400"><tspan class="TextPosition" x="2426" y="4406"><tspan fill="rgb(0,0,0)" stroke="none">41</tspan></tspan></tspan></text>
 <text class="TextShape"><tspan class="TextParagraph" font-family="Liberation Sans, sans-serif" font-size="318px" font-weight="400"><tspan class="TextPosition" x="3150" y="4406"><tspan fill="rgb(0,0,0)" stroke="none">43</tspan></tspan></tspan></text>
 <text class="TextShape"><tspan class="TextParagraph" font-family="Liberation Sans, sans-serif" font-size="318px" font-weight="400"><tspan class="TextPosition" x="3875" y="4406"><tspan fill="rgb(0,0,0)" stroke="none">45</tspan></tspan></tspan></text>
 <text class="TextShape"><tspan class="TextParagraph" font-family="Liberation Sans, sans-serif" font-size="318px" font-weight="400"><tspan class="TextPosition" x="4600" y="4406"><tspan fill="rgb(0,0,0)" stroke="none">47</tspan></tspan></tspan></text>
 <text class="TextShape"><tspan class="TextParagraph" font-family="Liberation Sans, sans-serif" font-size="318px" font-weight="400"><tspan class="TextPosition" x="5325" y="4406"><tspan fill="rgb(0,0,0)" stroke="none">48</tspan></tspan></tspan></text>
 <text class="TextShape"><tspan class="TextParagraph" font-family="Liberation Sans, sans-serif" font-size="318px" font-weight="400"><tspan class="TextPosition" x="6050" y="4406"><tspan fill="rgb(0,0,0)" stroke="none">50</tspan></tspan></tspan></text>
 <text class="TextShape"><tspan class="TextParagraph" font-family="Liberation Sans, sans-serif" font-size="318px" font-weight="400"><tspan class="TextPosition" x="6774" y="4406"><tspan fill="rgb(0,0,0)" stroke="none">52</tspan></tspan></tspan></text>
 <text class="TextShape"><tspan class="TextParagraph" font-family="Liberation Sans, sans-serif" font-size="318px" font-weight="400"><tspan class="TextPosition" x="7499" y="4406"><tspan fill="rgb(0,0,0)" stroke="none">54</tspan></tspan></tspan></text>
 <text class="TextShape"><tspan class="TextParagraph" font-family="Liberation Sans, sans-serif" font-size="318px" font-weight="400"><tspan class="TextPosition" x="8224" y="4406"><tspan fill="rgb(0,0,0)" stroke="none">55</tspan></tspan></tspan></text>
 <text class="TextShape"><tspan class="TextParagraph" font-family="Liberation Sans, sans-serif" font-size="318px" font-weight="400"><tspan class="TextPosition" x="364" y="3972"><tspan fill="rgb(0,0,0)" stroke="none">0</tspan></tspan></tspan></text>
 <text class="TextShape"><tspan class="TextParagraph" font-family="Liberation Sans, sans-serif" font-size="318px" font-weight="400"><tspan class="TextPosition" x="179" y="3255"><tspan fill="rgb(0,0,0)" stroke="none">10</tspan></tspan></tspan></text>
 <text class="TextShape"><tspan class="TextParagraph" font-family="Liberation Sans, sans-serif" font-size="318px" font-weight="400"><tspan class="TextPosition" x="179" y="2538"><tspan fill="rgb(0,0,0)" stroke="none">20</tspan></tspan></tspan></text>
 <text class="TextShape"><tspan class="TextParagraph" font-family="Liberation Sans, sans-serif" font-size="318px" font-weight="400"><tspan class="TextPosition" x="179" y="1823"><tspan fill="rgb(0,0,0)" stroke="none">30</tspan></tspan></tspan></text>
 <text class="TextShape"><tspan class="TextParagraph" font-family="Liberation Sans, sans-serif" font-size="318px" font-weight="400"><tspan class="TextPosition" x="179" y="1106"><tspan fill="rgb(0,0,0)" stroke="none">40</tspan></tspan></tspan></text>
 <text class="TextShape"><tspan class="TextParagraph" font-family="Liberation Sans, sans-serif" font-size="318px" font-weight="400"><tspan class="TextPosition" x="179" y="390"><tspan fill="rgb(0,0,0)" stroke="none">50</tspan></tspan></tspan></text>
 <text class="TextShape"><tspan class="TextParagraph" font-family="Liberation Sans, sans-serif" font-size="282px" font-weight="400"><tspan class="TextPosition" x="4157" y="4897"><tspan fill="rgb(0,0,0)" stroke="none">Loss</tspan></tspan></tspan></text>
</svg>