<?xml version="1.0" encoding="UTF-8"?>
<!DOCTYPE svg PUBLIC "-//W3C//DTD SVG 1.1//EN" "http://www.w3.org/Graphics/SVG/1.1/DTD/svg11.dtd">
<svg width="90mm" height="50mm" viewBox="0 0 9000 5000" version="1.1" xmlns="http://www.w3.org/2000/svg" xmlns:xlink="http://www.w3.org/1999/xlink" stroke-width="28.222" stroke-linejoin="round" xml:space="preserve">
 <path fill="rgb(255,255,255)" stroke="none" d="M 4477,5034 L 1,5034 1,0 8953,0 8953,5034 4477,5034 Z"/>
 <path fill="none" stroke="rgb(179,179,179)" stroke-linejoin="round" d="M 4786,3866 L 800,3866 800,285 8772,285 8772,3866 4786,3866 Z"/>
 <path fill="none" stroke="rgb(179,179,179)" stroke-linejoin="round" d="M 8772,3865 L 800,3865"/>
 <path fill="none" stroke="rgb(179,179,179)" stroke-linejoin="round" d="M 8772,3418 L 800,3418"/>
 <path fill="none" stroke="rgb(179,179,179)" stroke-linejoin="round" d="M 8772,2970 L 800,2970"/>
 <path fill="none" stroke="rgb(179,179,179)" stroke-linejoin="round" d="M 8772,2522 L 800,2522"/>
 <path fill="none" stroke="rgb(179,179,179)" stroke-linejoin="round" d="M 8772,2074 L 800,2074"/>
 <path fill="none" stroke="rgb(179,179,179)" stroke-linejoin="round" d="M 8772,1626 L 800,1626"/>
 <path fill="none" stroke="rgb(179,179,179)" stroke-linejoin="round" d="M 8772,1179 L 800,1179"/>
 <path fill="none" stroke="rgb(179,179,179)" stroke-linejoin="round" d="M 8772,731 L 800,731"/>
 <path fill="none" stroke="rgb(179,179,179)" stroke-linejoin="round" d="M 8772,284 L 800,284"/>
 <path fill="none" stroke="rgb(179,179,179)" stroke-linejoin="round" d="M 800,4015 L 800,3865"/>
 <path fill="none" stroke="rgb(179,179,179)" stroke-linejoin="round" d="M 800,4015 L 800,3865"/>
 <path fill="none" stroke="rgb(179,179,179)" stroke-linejoin="round" d="M 1524,4015 L 1524,3865"/>
 <path fill="none" stroke="rgb(179,179,179)" stroke-linejoin="round" d="M 1524,4015 L 1524,3865"/>
 <path fill="none" stroke="rgb(179,179,179)" stroke-linejoin="round" d="M 2249,4015 L 2249,3865"/>
 <path fill="none" stroke="rgb(179,179,179)" stroke-linejoin="round" d="M 2249,4015 L 2249,3865"/>
 <path fill="none" stroke="rgb(179,179,179)" stroke-linejoin="round" d="M 2974,4015 L 2974,3865"/>
 <path fill="none" stroke="rgb(179,179,179)" stroke-linejoin="round" d="M 2974,4015 L 2974,3865"/>
 <path fill="none" stroke="rgb(179,179,179)" stroke-linejoin="round" d="M 3699,4015 L 3699,3865"/>
 <path fill="none" stroke="rgb(179,179,179)" stroke-linejoin="round" d="M 3699,4015 L 3699,3865"/>
 <path fill="none" stroke="rgb(179,179,179)" stroke-linejoin="round" d="M 4424,4015 L 4424,3865"/>
 <path fill="none" stroke="rgb(179,179,179)" stroke-linejoin="round" d="M 4424,4015 L 4424,3865"/>
 <path fill="none" stroke="rgb(179,179,179)" stroke-linejoin="round" d="M 5147,4015 L 5147,3865"/>
 <path fill="none" stroke="rgb(179,179,179)" stroke-linejoin="round" d="M 5147,4015 L 5147,3865"/>
 <path fill="none" stroke="rgb(179,179,179)" stroke-linejoin="round" d="M 5872,4015 L 5872,3865"/>
 <path fill="none" stroke="rgb(179,179,179)" stroke-linejoin="round" d="M 5872,4015 L 5872,3865"/>
 <path fill="none" stroke="rgb(179,179,179)" stroke-linejoin="round" d="M 6597,4015 L 6597,3865"/>
 <path fill="none" stroke="rgb(179,179,179)" stroke-linejoin="round" d="M 6597,4015 L 6597,3865"/>
 <path fill="none" stroke="rgb(179,179,179)" stroke-linejoin="round" d="M 7322,4015 L 7322,3865"/>
 <path fill="none" stroke="rgb(179,179,179)" stroke-linejoin="round" d="M 7322,4015 L 7322,3865"/>
 <path fill="none" stroke="rgb(179,179,179)" stroke-linejoin="round" d="M 8047,4015 L 8047,3865"/>
 <path fill="none" stroke="rgb(179,179,179)" stroke-linejoin="round" d="M 8047,4015 L 8047,3865"/>
 <path fill="none" stroke="rgb(179,179,179)" stroke-linejoin="round" d="M 8772,4015 L 8772,3865"/>
 <path fill="none" stroke="rgb(179,179,179)" stroke-linejoin="round" d="M 8772,4015 L 8772,3865"/>
 <path fill="none" stroke="rgb(179,179,179)" stroke-linejoin="round" d="M 800,3865 L 8772,3865"/>
 <path fill="none" stroke="rgb(179,179,179)" stroke-linejoin="round" d="M 650,3865 L 800,3865"/>
 <path fill="none" stroke="rgb(179,179,179)" stroke-linejoin="round" d="M 650,3865 L 800,3865"/>
 <path fill="none" stroke="rgb(179,179,179)" stroke-linejoin="round" d="M 650,3418 L 800,3418"/>
 <path fill="none" stroke="rgb(179,179,179)" stroke-linejoin="round" d="M 650,3418 L 800,3418"/>
 <path fill="none" stroke="rgb(179,179,179)" stroke-linejoin="round" d="M 650,2970 L 800,2970"/>
 <path fill="none" stroke="rgb(179,179,179)" stroke-linejoin="round" d="M 650,2970 L 800,2970"/>
 <path fill="none" stroke="rgb(179,179,179)" stroke-linejoin="round" d="M 650,2522 L 800,2522"/>
 <path fill="none" stroke="rgb(179,179,179)" stroke-linejoin="round" d="M 650,2522 L 800,2522"/>
 <path fill="none" stroke="rgb(179,179,179)" stroke-linejoin="round" d="M 650,2074 L 800,2074"/>
 <path fill="none" stroke="rgb(179,179,179)" stroke-linejoin="round" d="M 650,2074 L 800,2074"/>
 <path fill="none" stroke="rgb(179,179,179)" stroke-linejoin="round" d="M 650,1626 L 800,1626"/>
 <path fill="none" stroke="rgb(179,179,179)" stroke-linejoin="round" d="M 650,1626 L 800,1626"/>
 <path fill="none" stroke="rgb(179,179,179)" stroke-linejoin="round" d="M 650,1179 L 800,1179"/>
 <path fill="none" stroke="rgb(179,179,179)" stroke-linejoin="round" d="M 650,1179 L 800,1179"/>
 <path fill="none" stroke="rgb(179,179,179)" stroke-linejoin="round" d="M 650,731 L 800,731"/>
 <path fill="none" stroke="rgb(179,179,179)" stroke-linejoin="round" d="M 650,731 L 800,731"/>
 <path fill="none" stroke="rgb(179,179,179)" stroke-linejoin="round" d="M 650,284 L 800,284"/>
 <path fill="none" stroke="rgb(179,179,179)" stroke-linejoin="round" d="M 650,284 L 800,284"/>
 <path fill="none" stroke="rgb(179,179,179)" stroke-linejoin="round" d="M 800,3865 L 800,284"/>
 <path fill="rgb(0,69,134)" stroke="none" d="M 8047,3865 L 8772,3865 8772,3597 8047,3597 8047,3865 Z"/>
 <path fill="rgb(0,69,134)" stroke="none" d="M 7322,3865 L 8047,3865 8047,3776 7322,3776 7322,3865 Z"/>
 <path fill="rgb(0,69,134)" stroke="none" d="M 6597,3865 L 7322,3865 7322,3686 6597,3686 6597,3865 Z"/>
 <path fill="rgb(0,69,134)" stroke="none" d="M 5147,3865 L 5872,3865 5872,3597 5147,3597 5147,3865 Z"/>
 <path fill="rgb(0,69,134)" stroke="none" d="M 4424,3865 L 5147,3865 5147,3149 4424,3149 4424,3865 Z"/>
 <path fill="rgb(0,69,134)" stroke="none" d="M 3699,3865 L 4424,3865 4424,642 3699,642 3699,3865 Z"/>
 <path fill="rgb(0,69,134)" stroke="none" d="M 2974,3865 L 3699,3865 3699,1626 2974,1626 2974,3865 Z"/>
 <path fill="rgb(0,69,134)" stroke="none" d="M 2249,3865 L 2974,3865 2974,2164 2249,2164 2249,3865 Z"/>
 <path fill="rgb(0,69,134)" stroke="none" d="M 1524,3865 L 2249,3865 2249,3686 1524,3686 1524,3865 Z"/>
 <path fill="rgb(0,69,134)" stroke="none" d="M 800,3865 L 1524,3865 1524,3776 800,3776 800,3865 Z"/>
 <text class="TextShape"><tspan class="TextParagraph" font-family="Liberation Sans, sans-serif" font-size="318px" font-weight="400"><tspan class="TextPosition" x="977" y="4406"><tspan fill="rgb(0,0,0)" stroke="none">85</tspan></tspan></tspan></text>
 <text class="TextShape"><tspan class="TextParagraph" font-family="Liberation Sans, sans-serif" font-size="318px" font-weight="400"><tspan class="TextPosition" x="1702" y="4406"><tspan fill="rgb(0,0,0)" stroke="none">88</tspan></tspan></tspan></text>
 <text class="TextShape"><tspan class="TextParagraph" font-family="Liberation Sans, sans-serif" font-size="318px" font-weight="400"><tspan class="TextPosition" x="2427" y="4406"><tspan fill="rgb(0,0,0)" stroke="none">90</tspan></tspan></tspan></text>
 <text class="TextShape"><tspan class="TextParagraph" font-family="Liberation Sans, sans-serif" font-size="318px" font-weight="400"><tspan class="TextPosition" x="3151" y="4406"><tspan fill="rgb(0,0,0)" stroke="none">93</tspan></tspan></tspan></text>
 <text class="TextShape"><tspan class="TextParagraph" font-family="Liberation Sans, sans-serif" font-size="318px" font-weight="400"><tspan class="TextPosition" x="3876" y="4406"><tspan fill="rgb(0,0,0)" stroke="none">95</tspan></tspan></tspan></text>
 <text class="TextShape"><tspan class="TextParagraph" font-family="Liberation Sans, sans-serif" font-size="318px" font-weight="400"><tspan class="TextPosition" x="4601" y="4406"><tspan fill="rgb(0,0,0)" stroke="none">98</tspan></tspan></tspan></text>
 <text class="TextShape"><tspan class="TextParagraph" font-family="Liberation Sans, sans-serif" font-size="318px" font-weight="400"><tspan class="TextPosition" x="5233" y="4406"><tspan fill="rgb(0,0,0)" stroke="none">101</tspan></tspan></tspan></text>
 <text class="TextShape"><tspan class="TextParagraph" font-family="Liberation Sans, sans-serif" font-size="318px" font-weight="400"><tspan class="TextPosition" x="5958" y="4406"><tspan fill="rgb(0,0,0)" stroke="none">103</tspan></tspan></tspan></text>
 <text class="TextShape"><tspan class="TextParagraph" font-family="Liberation Sans, sans-serif" font-size="318px" font-weight="400"><tspan class="TextPosition" x="6682" y="4406"><tspan fill="rgb(0,0,0)" stroke="none">106</tspan></tspan></tspan></text>
 <text class="TextShape"><tspan class="TextParagraph" font-family="Liberation Sans, sans-serif" font-size="318px" font-weight="400"><tspan class="TextPosition" x="7407" y="4406"><tspan fill="rgb(0,0,0)" stroke="none">108</tspan></tspan></tspan></text>
 <text class="TextShape"><tspan class="TextParagraph" font-family="Liberation Sans, sans-serif" font-size="318px" font-weight="400"><tspan class="TextPosition" x="8132" y="4406"><tspan fill="rgb(0,0,0)" stroke="none">111</tspan></tspan></tspan></text>
 <text class="TextShape"><tspan class="TextParagraph" font-family="Liberation Sans, sans-serif" font-size="318px" font-weight="400"><tspan class="TextPosition" x="365" y="3972"><tspan fill="rgb(0,0,0)" stroke="none">0</tspan></tspan></tspan></text>
 <text class="TextShape"><tspan class="TextParagraph" font-family="Liberation Sans, sans-serif" font-size="318px" font-weight="400"><tspan class="TextPosition" x="365" y="3524"><tspan fill="rgb(0,0,0)" stroke="none">5</tspan></tspan></tspan></text>
 <text class="TextShape"><tspan class="TextParagraph" font-family="Liberation Sans, sans-serif" font-size="318px" font-weight="400"><tspan class="TextPosition" x="180" y="3076"><tspan fill="rgb(0,0,0)" stroke="none">10</tspan></tspan></tspan></text>
 <text class="TextShape"><tspan class="TextParagraph" font-family="Liberation Sans, sans-serif" font-size="318px" font-weight="400"><tspan class="TextPosition" x="180" y="2628"><tspan fill="rgb(0,0,0)" stroke="none">15</tspan></tspan></tspan></text>
 <text class="TextShape"><tspan class="TextParagraph" font-family="Liberation Sans, sans-serif" font-size="318px" font-weight="400"><tspan class="TextPosition" x="180" y="2181"><tspan fill="rgb(0,0,0)" stroke="none">20</tspan></tspan></tspan></text>
 <text class="TextShape"><tspan class="TextParagraph" font-family="Liberation Sans, sans-serif" font-size="318px" font-weight="400"><tspan class="TextPosition" x="180" y="1733"><tspan fill="rgb(0,0,0)" stroke="none">25</tspan></tspan></tspan></text>
 <text class="TextShape"><tspan class="TextParagraph" font-family="Liberation Sans, sans-serif" font-size="318px" font-weight="400"><tspan class="TextPosition" x="180" y="1285"><tspan fill="rgb(0,0,0)" stroke="none">30</tspan></tspan></tspan></text>
 <text class="TextShape"><tspan class="TextParagraph" font-family="Liberation Sans, sans-serif" font-size="318px" font-weight="400"><tspan class="TextPosition" x="180" y="837"><tspan fill="rgb(0,0,0)" stroke="none">35</tspan></tspan></tspan></text>
 <text class="TextShape"><tspan class="TextParagraph" font-family="Liberation Sans, sans-serif" font-size="318px" font-weight="400"><tspan class="TextPosition" x="180" y="390"><tspan fill="rgb(0,0,0)" stroke="none">40</tspan></tspan></tspan></text>
 <text class="TextShape"><tspan class="TextParagraph" font-family="Liberation Sans, sans-serif" font-size="282px" font-weight="400"><tspan class="TextPosition" x="4158" y="4897"><tspan fill="rgb(0,0,0)" stroke="none">Loss</tspan></tspan></tspan></text>
</svg>