<?xml version="1.0" encoding="UTF-8"?>
<!DOCTYPE svg PUBLIC "-//W3C//DTD SVG 1.1//EN" "http://www.w3.org/Graphics/SVG/1.1/DTD/svg11.dtd">
<svg width="90mm" height="50mm" viewBox="0 0 9000 5000" version="1.1" xmlns="http://www.w3.org/2000/svg" xmlns:xlink="http://www.w3.org/1999/xlink" stroke-width="28.222" stroke-linejoin="round" xml:space="preserve">
 <path fill="rgb(255,255,255)" stroke="none" d="M 4477,5035 L 1,5035 1,1 8953,1 8953,5035 4477,5035 Z"/>
 <path fill="none" stroke="rgb(179,179,179)" stroke-linejoin="round" d="M 4786,3867 L 800,3867 800,286 8772,286 8772,3867 4786,3867 Z"/>
 <path fill="none" stroke="rgb(179,179,179)" stroke-linejoin="round" d="M 8772,3866 L 800,3866"/>
 <path fill="none" stroke="rgb(179,179,179)" stroke-linejoin="round" d="M 8772,3355 L 800,3355"/>
 <path fill="none" stroke="rgb(179,179,179)" stroke-linejoin="round" d="M 8772,2843 L 800,2843"/>
 <path fill="none" stroke="rgb(179,179,179)" stroke-linejoin="round" d="M 8772,2331 L 800,2331"/>
 <path fill="none" stroke="rgb(179,179,179)" stroke-linejoin="round" d="M 8772,1819 L 800,1819"/>
 <path fill="none" stroke="rgb(179,179,179)" stroke-linejoin="round" d="M 8772,1307 L 800,1307"/>
 <path fill="none" stroke="rgb(179,179,179)" stroke-linejoin="round" d="M 8772,796 L 800,796"/>
 <path fill="none" stroke="rgb(179,179,179)" stroke-linejoin="round" d="M 8772,284 L 800,284"/>
 <path fill="none" stroke="rgb(179,179,179)" stroke-linejoin="round" d="M 800,4016 L 800,3866"/>
 <path fill="none" stroke="rgb(179,179,179)" stroke-linejoin="round" d="M 800,4016 L 800,3866"/>
 <path fill="none" stroke="rgb(179,179,179)" stroke-linejoin="round" d="M 1524,4016 L 1524,3866"/>
 <path fill="none" stroke="rgb(179,179,179)" stroke-linejoin="round" d="M 1524,4016 L 1524,3866"/>
 <path fill="none" stroke="rgb(179,179,179)" stroke-linejoin="round" d="M 2249,4016 L 2249,3866"/>
 <path fill="none" stroke="rgb(179,179,179)" stroke-linejoin="round" d="M 2249,4016 L 2249,3866"/>
 <path fill="none" stroke="rgb(179,179,179)" stroke-linejoin="round" d="M 2974,4016 L 2974,3866"/>
 <path fill="none" stroke="rgb(179,179,179)" stroke-linejoin="round" d="M 2974,4016 L 2974,3866"/>
 <path fill="none" stroke="rgb(179,179,179)" stroke-linejoin="round" d="M 3699,4016 L 3699,3866"/>
 <path fill="none" stroke="rgb(179,179,179)" stroke-linejoin="round" d="M 3699,4016 L 3699,3866"/>
 <path fill="none" stroke="rgb(179,179,179)" stroke-linejoin="round" d="M 4424,4016 L 4424,3866"/>
 <path fill="none" stroke="rgb(179,179,179)" stroke-linejoin="round" d="M 4424,4016 L 4424,3866"/>
 <path fill="none" stroke="rgb(179,179,179)" stroke-linejoin="round" d="M 5147,4016 L 5147,3866"/>
 <path fill="none" stroke="rgb(179,179,179)" stroke-linejoin="round" d="M 5147,4016 L 5147,3866"/>
 <path fill="none" stroke="rgb(179,179,179)" stroke-linejoin="round" d="M 5872,4016 L 5872,3866"/>
 <path fill="none" stroke="rgb(179,179,179)" stroke-linejoin="round" d="M 5872,4016 L 5872,3866"/>
 <path fill="none" stroke="rgb(179,179,179)" stroke-linejoin="round" d="M 6597,4016 L 6597,3866"/>
 <path fill="none" stroke="rgb(179,179,179)" stroke-linejoin="round" d="M 6597,4016 L 6597,3866"/>
 <path fill="none" stroke="rgb(179,179,179)" stroke-linejoin="round" d="M 7322,4016 L 7322,3866"/>
 <path fill="none" stroke="rgb(179,179,179)" stroke-linejoin="round" d="M 7322,4016 L 7322,3866"/>
 <path fill="none" stroke="rgb(179,179,179)" stroke-linejoin="round" d="M 8047,4016 L 8047,3866"/>
 <path fill="none" stroke="rgb(179,179,179)" stroke-linejoin="round" d="M 8047,4016 L 8047,3866"/>
 <path fill="none" stroke="rgb(179,179,179)" stroke-linejoin="round" d="M 8772,4016 L 8772,3866"/>
 <path fill="none" stroke="rgb(179,179,179)" stroke-linejoin="round" d="M 8772,4016 L 8772,3866"/>
 <path fill="none" stroke="rgb(179,179,179)" stroke-linejoin="round" d="M 800,3866 L 8772,3866"/>
 <path fill="none" stroke="rgb(179,179,179)" stroke-linejoin="round" d="M 650,3866 L 800,3866"/>
 <path fill="none" stroke="rgb(179,179,179)" stroke-linejoin="round" d="M 650,3866 L 800,3866"/>
 <path fill="none" stroke="rgb(179,179,179)" stroke-linejoin="round" d="M 650,3355 L 800,3355"/>
 <path fill="none" stroke="rgb(179,179,179)" stroke-linejoin="round" d="M 650,3355 L 800,3355"/>
 <path fill="none" stroke="rgb(179,179,179)" stroke-linejoin="round" d="M 650,2843 L 800,2843"/>
 <path fill="none" stroke="rgb(179,179,179)" stroke-linejoin="round" d="M 650,2843 L 800,2843"/>
 <path fill="none" stroke="rgb(179,179,179)" stroke-linejoin="round" d="M 650,2331 L 800,2331"/>
 <path fill="none" stroke="rgb(179,179,179)" stroke-linejoin="round" d="M 650,2331 L 800,2331"/>
 <path fill="none" stroke="rgb(179,179,179)" stroke-linejoin="round" d="M 650,1819 L 800,1819"/>
 <path fill="none" stroke="rgb(179,179,179)" stroke-linejoin="round" d="M 650,1819 L 800,1819"/>
 <path fill="none" stroke="rgb(179,179,179)" stroke-linejoin="round" d="M 650,1307 L 800,1307"/>
 <path fill="none" stroke="rgb(179,179,179)" stroke-linejoin="round" d="M 650,1307 L 800,1307"/>
 <path fill="none" stroke="rgb(179,179,179)" stroke-linejoin="round" d="M 650,796 L 800,796"/>
 <path fill="none" stroke="rgb(179,179,179)" stroke-linejoin="round" d="M 650,796 L 800,796"/>
 <path fill="none" stroke="rgb(179,179,179)" stroke-linejoin="round" d="M 650,284 L 800,284"/>
 <path fill="none" stroke="rgb(179,179,179)" stroke-linejoin="round" d="M 650,284 L 800,284"/>
 <path fill="none" stroke="rgb(179,179,179)" stroke-linejoin="round" d="M 800,3866 L 800,284"/>
 <path fill="rgb(0,69,134)" stroke="none" d="M 5872,3866 L 6597,3866 6597,2945 5872,2945 5872,3866 Z"/>
 <path fill="rgb(0,69,134)" stroke="none" d="M 5147,3866 L 5872,3866 5872,2331 5147,2331 5147,3866 Z"/>
 <path fill="rgb(0,69,134)" stroke="none" d="M 4424,3866 L 5147,3866 5147,2229 4424,2229 4424,3866 Z"/>
 <path fill="rgb(0,69,134)" stroke="none" d="M 3699,3866 L 4424,3866 4424,489 3699,489 3699,3866 Z"/>
 <path fill="rgb(0,69,134)" stroke="none" d="M 2974,3866 L 3699,3866 3699,1614 2974,1614 2974,3866 Z"/>
 <path fill="rgb(0,69,134)" stroke="none" d="M 2249,3866 L 2974,3866 2974,3457 2249,3457 2249,3866 Z"/>
 <path fill="rgb(0,69,134)" stroke="none" d="M 800,3866 L 1524,3866 1524,3764 800,3764 800,3866 Z"/>
 <text class="TextShape"><tspan class="TextParagraph" font-family="Liberation Sans, sans-serif" font-size="318px" font-weight="400"><tspan class="TextPosition" x="977" y="4407"><tspan fill="rgb(0,0,0)" stroke="none">39</tspan></tspan></tspan></text>
 <text class="TextShape"><tspan class="TextParagraph" font-family="Liberation Sans, sans-serif" font-size="318px" font-weight="400"><tspan class="TextPosition" x="1702" y="4407"><tspan fill="rgb(0,0,0)" stroke="none">40</tspan></tspan></tspan></text>
 <text class="TextShape"><tspan class="TextParagraph" font-family="Liberation Sans, sans-serif" font-size="318px" font-weight="400"><tspan class="TextPosition" x="2427" y="4407"><tspan fill="rgb(0,0,0)" stroke="none">41</tspan></tspan></tspan></text>
 <text class="TextShape"><tspan class="TextParagraph" font-family="Liberation Sans, sans-serif" font-size="318px" font-weight="400"><tspan class="TextPosition" x="3151" y="4407"><tspan fill="rgb(0,0,0)" stroke="none">42</tspan></tspan></tspan></text>
 <text class="TextShape"><tspan class="TextParagraph" font-family="Liberation Sans, sans-serif" font-size="318px" font-weight="400"><tspan class="TextPosition" x="3876" y="4407"><tspan fill="rgb(0,0,0)" stroke="none">42</tspan></tspan></tspan></text>
 <text class="TextShape"><tspan class="TextParagraph" font-family="Liberation Sans, sans-serif" font-size="318px" font-weight="400"><tspan class="TextPosition" x="4601" y="4407"><tspan fill="rgb(0,0,0)" stroke="none">43</tspan></tspan></tspan></text>
 <text class="TextShape"><tspan class="TextParagraph" font-family="Liberation Sans, sans-serif" font-size="318px" font-weight="400"><tspan class="TextPosition" x="5326" y="4407"><tspan fill="rgb(0,0,0)" stroke="none">44</tspan></tspan></tspan></text>
 <text class="TextShape"><tspan class="TextParagraph" font-family="Liberation Sans, sans-serif" font-size="318px" font-weight="400"><tspan class="TextPosition" x="6051" y="4407"><tspan fill="rgb(0,0,0)" stroke="none">45</tspan></tspan></tspan></text>
 <text class="TextShape"><tspan class="TextParagraph" font-family="Liberation Sans, sans-serif" font-size="318px" font-weight="400"><tspan class="TextPosition" x="6775" y="4407"><tspan fill="rgb(0,0,0)" stroke="none">46</tspan></tspan></tspan></text>
 <text class="TextShape"><tspan class="TextParagraph" font-family="Liberation Sans, sans-serif" font-size="318px" font-weight="400"><tspan class="TextPosition" x="7500" y="4407"><tspan fill="rgb(0,0,0)" stroke="none">47</tspan></tspan></tspan></text>
 <text class="TextShape"><tspan class="TextParagraph" font-family="Liberation Sans, sans-serif" font-size="318px" font-weight="400"><tspan class="TextPosition" x="8225" y="4407"><tspan fill="rgb(0,0,0)" stroke="none">48</tspan></tspan></tspan></text>
 <text class="TextShape"><tspan class="TextParagraph" font-family="Liberation Sans, sans-serif" font-size="318px" font-weight="400"><tspan class="TextPosition" x="365" y="3973"><tspan fill="rgb(0,0,0)" stroke="none">0</tspan></tspan></tspan></text>
 <text class="TextShape"><tspan class="TextParagraph" font-family="Liberation Sans, sans-serif" font-size="318px" font-weight="400"><tspan class="TextPosition" x="365" y="3461"><tspan fill="rgb(0,0,0)" stroke="none">5</tspan></tspan></tspan></text>
 <text class="TextShape"><tspan class="TextParagraph" font-family="Liberation Sans, sans-serif" font-size="318px" font-weight="400"><tspan class="TextPosition" x="180" y="2949"><tspan fill="rgb(0,0,0)" stroke="none">10</tspan></tspan></tspan></text>
 <text class="TextShape"><tspan class="TextParagraph" font-family="Liberation Sans, sans-serif" font-size="318px" font-weight="400"><tspan class="TextPosition" x="180" y="2438"><tspan fill="rgb(0,0,0)" stroke="none">15</tspan></tspan></tspan></text>
 <text class="TextShape"><tspan class="TextParagraph" font-family="Liberation Sans, sans-serif" font-size="318px" font-weight="400"><tspan class="TextPosition" x="180" y="1926"><tspan fill="rgb(0,0,0)" stroke="none">20</tspan></tspan></tspan></text>
 <text class="TextShape"><tspan class="TextParagraph" font-family="Liberation Sans, sans-serif" font-size="318px" font-weight="400"><tspan class="TextPosition" x="180" y="1414"><tspan fill="rgb(0,0,0)" stroke="none">25</tspan></tspan></tspan></text>
 <text class="TextShape"><tspan class="TextParagraph" font-family="Liberation Sans, sans-serif" font-size="318px" font-weight="400"><tspan class="TextPosition" x="180" y="902"><tspan fill="rgb(0,0,0)" stroke="none">30</tspan></tspan></tspan></text>
 <text class="TextShape"><tspan class="TextParagraph" font-family="Liberation Sans, sans-serif" font-size="318px" font-weight="400"><tspan class="TextPosition" x="180" y="390"><tspan fill="rgb(0,0,0)" stroke="none">35</tspan></tspan></tspan></text>
 <text class="TextShape"><tspan class="TextParagraph" font-family="Liberation Sans, sans-serif" font-size="282px" font-weight="400"><tspan class="TextPosition" x="4158" y="4898"><tspan fill="rgb(0,0,0)" stroke="none">Loss</tspan></tspan></tspan></text>
</svg>