<?xml version="1.0" encoding="utf-8" standalone="no"?>
<!DOCTYPE svg PUBLIC "-//W3C//DTD SVG 1.1//EN"
  "http://www.w3.org/Graphics/SVG/1.1/DTD/svg11.dtd">
<!-- Created with matplotlib (https://matplotlib.org/) -->
<svg height="557.28pt" version="1.1" viewBox="0 0 952.56 557.28" width="952.56pt" xmlns="http://www.w3.org/2000/svg" xmlns:xlink="http://www.w3.org/1999/xlink">
 <defs>
  <style type="text/css">
*{stroke-linecap:butt;stroke-linejoin:round;}
  </style>
 </defs>
 <g id="figure_1">
  <g id="patch_1">
   <path d="M 0 557.28 
L 952.56 557.28 
L 952.56 0 
L 0 0 
z
" style="fill:#ffffff;"/>
  </g>
  <g id="axes_1">
   <g id="patch_2">
    <path d="M 119.07 495.9792 
L 857.304 495.9792 
L 857.304 66.8736 
L 119.07 66.8736 
z
" style="fill:#ffffff;"/>
   </g>
   <g id="patch_3">
    <path clip-path="url(#pf3b0e4e9ad)" d="M 152.626091 495.9792 
L 159.405099 495.9792 
L 159.405099 479.63232 
L 152.626091 479.63232 
z
" style="fill:#1f77b4;opacity:0.7;"/>
   </g>
   <g id="patch_4">
    <path clip-path="url(#pf3b0e4e9ad)" d="M 159.405099 495.9792 
L 166.184107 495.9792 
L 166.184107 430.59168 
L 159.405099 430.59168 
z
" style="fill:#1f77b4;opacity:0.7;"/>
   </g>
   <g id="patch_5">
    <path clip-path="url(#pf3b0e4e9ad)" d="M 166.184107 495.9792 
L 172.963116 495.9792 
L 172.963116 267.12288 
L 166.184107 267.12288 
z
" style="fill:#1f77b4;opacity:0.7;"/>
   </g>
   <g id="patch_6">
    <path clip-path="url(#pf3b0e4e9ad)" d="M 172.963116 495.9792 
L 179.742124 495.9792 
L 179.742124 87.3072 
L 172.963116 87.3072 
z
" style="fill:#1f77b4;opacity:0.7;"/>
   </g>
   <g id="patch_7">
    <path clip-path="url(#pf3b0e4e9ad)" d="M 179.742124 495.9792 
L 186.521132 495.9792 
L 186.521132 218.08224 
L 179.742124 218.08224 
z
" style="fill:#1f77b4;opacity:0.7;"/>
   </g>
   <g id="patch_8">
    <path clip-path="url(#pf3b0e4e9ad)" d="M 186.521132 495.9792 
L 193.30014 495.9792 
L 193.30014 169.0416 
L 186.521132 169.0416 
z
" style="fill:#1f77b4;opacity:0.7;"/>
   </g>
   <g id="patch_9">
    <path clip-path="url(#pf3b0e4e9ad)" d="M 193.30014 495.9792 
L 200.079149 495.9792 
L 200.079149 283.46976 
L 193.30014 283.46976 
z
" style="fill:#1f77b4;opacity:0.7;"/>
   </g>
   <g id="patch_10">
    <path clip-path="url(#pf3b0e4e9ad)" d="M 200.079149 495.9792 
L 206.858157 495.9792 
L 206.858157 430.59168 
L 200.079149 430.59168 
z
" style="fill:#1f77b4;opacity:0.7;"/>
   </g>
   <g id="patch_11">
    <path clip-path="url(#pf3b0e4e9ad)" d="M 206.858157 495.9792 
L 213.637165 495.9792 
L 213.637165 479.63232 
L 206.858157 479.63232 
z
" style="fill:#1f77b4;opacity:0.7;"/>
   </g>
   <g id="patch_12">
    <path clip-path="url(#pf3b0e4e9ad)" d="M 213.637165 495.9792 
L 220.416174 495.9792 
L 220.416174 479.63232 
L 213.637165 479.63232 
z
" style="fill:#1f77b4;opacity:0.7;"/>
   </g>
   <g id="patch_13">
    <path clip-path="url(#pf3b0e4e9ad)" d="M 220.416174 495.9792 
L 227.195182 495.9792 
L 227.195182 495.9792 
L 220.416174 495.9792 
z
" style="fill:#1f77b4;opacity:0.7;"/>
   </g>
   <g id="patch_14">
    <path clip-path="url(#pf3b0e4e9ad)" d="M 227.195182 495.9792 
L 233.97419 495.9792 
L 233.97419 495.9792 
L 227.195182 495.9792 
z
" style="fill:#1f77b4;opacity:0.7;"/>
   </g>
   <g id="patch_15">
    <path clip-path="url(#pf3b0e4e9ad)" d="M 233.97419 495.9792 
L 240.753198 495.9792 
L 240.753198 495.9792 
L 233.97419 495.9792 
z
" style="fill:#1f77b4;opacity:0.7;"/>
   </g>
   <g id="patch_16">
    <path clip-path="url(#pf3b0e4e9ad)" d="M 240.753198 495.9792 
L 247.532207 495.9792 
L 247.532207 495.9792 
L 240.753198 495.9792 
z
" style="fill:#1f77b4;opacity:0.7;"/>
   </g>
   <g id="patch_17">
    <path clip-path="url(#pf3b0e4e9ad)" d="M 247.532207 495.9792 
L 254.311215 495.9792 
L 254.311215 495.9792 
L 247.532207 495.9792 
z
" style="fill:#1f77b4;opacity:0.7;"/>
   </g>
   <g id="patch_18">
    <path clip-path="url(#pf3b0e4e9ad)" d="M 254.311215 495.9792 
L 261.090223 495.9792 
L 261.090223 495.9792 
L 254.311215 495.9792 
z
" style="fill:#1f77b4;opacity:0.7;"/>
   </g>
   <g id="patch_19">
    <path clip-path="url(#pf3b0e4e9ad)" d="M 261.090223 495.9792 
L 267.869231 495.9792 
L 267.869231 495.9792 
L 261.090223 495.9792 
z
" style="fill:#1f77b4;opacity:0.7;"/>
   </g>
   <g id="patch_20">
    <path clip-path="url(#pf3b0e4e9ad)" d="M 267.869231 495.9792 
L 274.64824 495.9792 
L 274.64824 495.9792 
L 267.869231 495.9792 
z
" style="fill:#1f77b4;opacity:0.7;"/>
   </g>
   <g id="patch_21">
    <path clip-path="url(#pf3b0e4e9ad)" d="M 274.64824 495.9792 
L 281.427248 495.9792 
L 281.427248 495.9792 
L 274.64824 495.9792 
z
" style="fill:#1f77b4;opacity:0.7;"/>
   </g>
   <g id="patch_22">
    <path clip-path="url(#pf3b0e4e9ad)" d="M 281.427248 495.9792 
L 288.206256 495.9792 
L 288.206256 495.9792 
L 281.427248 495.9792 
z
" style="fill:#1f77b4;opacity:0.7;"/>
   </g>
   <g id="patch_23">
    <path clip-path="url(#pf3b0e4e9ad)" d="M 288.206256 495.9792 
L 294.985264 495.9792 
L 294.985264 495.9792 
L 288.206256 495.9792 
z
" style="fill:#1f77b4;opacity:0.7;"/>
   </g>
   <g id="patch_24">
    <path clip-path="url(#pf3b0e4e9ad)" d="M 294.985264 495.9792 
L 301.764273 495.9792 
L 301.764273 495.9792 
L 294.985264 495.9792 
z
" style="fill:#1f77b4;opacity:0.7;"/>
   </g>
   <g id="patch_25">
    <path clip-path="url(#pf3b0e4e9ad)" d="M 301.764273 495.9792 
L 308.543281 495.9792 
L 308.543281 495.9792 
L 301.764273 495.9792 
z
" style="fill:#1f77b4;opacity:0.7;"/>
   </g>
   <g id="patch_26">
    <path clip-path="url(#pf3b0e4e9ad)" d="M 308.543281 495.9792 
L 315.322289 495.9792 
L 315.322289 495.9792 
L 308.543281 495.9792 
z
" style="fill:#1f77b4;opacity:0.7;"/>
   </g>
   <g id="patch_27">
    <path clip-path="url(#pf3b0e4e9ad)" d="M 315.322289 495.9792 
L 322.101298 495.9792 
L 322.101298 495.9792 
L 315.322289 495.9792 
z
" style="fill:#1f77b4;opacity:0.7;"/>
   </g>
   <g id="patch_28">
    <path clip-path="url(#pf3b0e4e9ad)" d="M 322.101298 495.9792 
L 328.880306 495.9792 
L 328.880306 495.9792 
L 322.101298 495.9792 
z
" style="fill:#1f77b4;opacity:0.7;"/>
   </g>
   <g id="patch_29">
    <path clip-path="url(#pf3b0e4e9ad)" d="M 328.880306 495.9792 
L 335.659314 495.9792 
L 335.659314 495.9792 
L 328.880306 495.9792 
z
" style="fill:#1f77b4;opacity:0.7;"/>
   </g>
   <g id="patch_30">
    <path clip-path="url(#pf3b0e4e9ad)" d="M 335.659314 495.9792 
L 342.438322 495.9792 
L 342.438322 495.9792 
L 335.659314 495.9792 
z
" style="fill:#1f77b4;opacity:0.7;"/>
   </g>
   <g id="patch_31">
    <path clip-path="url(#pf3b0e4e9ad)" d="M 342.438322 495.9792 
L 349.217331 495.9792 
L 349.217331 495.9792 
L 342.438322 495.9792 
z
" style="fill:#1f77b4;opacity:0.7;"/>
   </g>
   <g id="patch_32">
    <path clip-path="url(#pf3b0e4e9ad)" d="M 349.217331 495.9792 
L 355.996339 495.9792 
L 355.996339 495.9792 
L 349.217331 495.9792 
z
" style="fill:#1f77b4;opacity:0.7;"/>
   </g>
   <g id="patch_33">
    <path clip-path="url(#pf3b0e4e9ad)" d="M 355.996339 495.9792 
L 362.775347 495.9792 
L 362.775347 495.9792 
L 355.996339 495.9792 
z
" style="fill:#1f77b4;opacity:0.7;"/>
   </g>
   <g id="patch_34">
    <path clip-path="url(#pf3b0e4e9ad)" d="M 362.775347 495.9792 
L 369.554355 495.9792 
L 369.554355 495.9792 
L 362.775347 495.9792 
z
" style="fill:#1f77b4;opacity:0.7;"/>
   </g>
   <g id="patch_35">
    <path clip-path="url(#pf3b0e4e9ad)" d="M 369.554355 495.9792 
L 376.333364 495.9792 
L 376.333364 495.9792 
L 369.554355 495.9792 
z
" style="fill:#1f77b4;opacity:0.7;"/>
   </g>
   <g id="patch_36">
    <path clip-path="url(#pf3b0e4e9ad)" d="M 376.333364 495.9792 
L 383.112372 495.9792 
L 383.112372 495.9792 
L 376.333364 495.9792 
z
" style="fill:#1f77b4;opacity:0.7;"/>
   </g>
   <g id="patch_37">
    <path clip-path="url(#pf3b0e4e9ad)" d="M 383.112372 495.9792 
L 389.89138 495.9792 
L 389.89138 495.9792 
L 383.112372 495.9792 
z
" style="fill:#1f77b4;opacity:0.7;"/>
   </g>
   <g id="patch_38">
    <path clip-path="url(#pf3b0e4e9ad)" d="M 389.89138 495.9792 
L 396.670388 495.9792 
L 396.670388 495.9792 
L 389.89138 495.9792 
z
" style="fill:#1f77b4;opacity:0.7;"/>
   </g>
   <g id="patch_39">
    <path clip-path="url(#pf3b0e4e9ad)" d="M 396.670388 495.9792 
L 403.449397 495.9792 
L 403.449397 495.9792 
L 396.670388 495.9792 
z
" style="fill:#1f77b4;opacity:0.7;"/>
   </g>
   <g id="patch_40">
    <path clip-path="url(#pf3b0e4e9ad)" d="M 403.449397 495.9792 
L 410.228405 495.9792 
L 410.228405 495.9792 
L 403.449397 495.9792 
z
" style="fill:#1f77b4;opacity:0.7;"/>
   </g>
   <g id="patch_41">
    <path clip-path="url(#pf3b0e4e9ad)" d="M 410.228405 495.9792 
L 417.007413 495.9792 
L 417.007413 495.9792 
L 410.228405 495.9792 
z
" style="fill:#1f77b4;opacity:0.7;"/>
   </g>
   <g id="patch_42">
    <path clip-path="url(#pf3b0e4e9ad)" d="M 417.007413 495.9792 
L 423.786421 495.9792 
L 423.786421 495.9792 
L 417.007413 495.9792 
z
" style="fill:#1f77b4;opacity:0.7;"/>
   </g>
   <g id="patch_43">
    <path clip-path="url(#pf3b0e4e9ad)" d="M 423.786421 495.9792 
L 430.56543 495.9792 
L 430.56543 495.9792 
L 423.786421 495.9792 
z
" style="fill:#1f77b4;opacity:0.7;"/>
   </g>
   <g id="patch_44">
    <path clip-path="url(#pf3b0e4e9ad)" d="M 430.56543 495.9792 
L 437.344438 495.9792 
L 437.344438 495.9792 
L 430.56543 495.9792 
z
" style="fill:#1f77b4;opacity:0.7;"/>
   </g>
   <g id="patch_45">
    <path clip-path="url(#pf3b0e4e9ad)" d="M 437.344438 495.9792 
L 444.123446 495.9792 
L 444.123446 495.9792 
L 437.344438 495.9792 
z
" style="fill:#1f77b4;opacity:0.7;"/>
   </g>
   <g id="patch_46">
    <path clip-path="url(#pf3b0e4e9ad)" d="M 444.123446 495.9792 
L 450.902455 495.9792 
L 450.902455 495.9792 
L 444.123446 495.9792 
z
" style="fill:#1f77b4;opacity:0.7;"/>
   </g>
   <g id="patch_47">
    <path clip-path="url(#pf3b0e4e9ad)" d="M 450.902455 495.9792 
L 457.681463 495.9792 
L 457.681463 495.9792 
L 450.902455 495.9792 
z
" style="fill:#1f77b4;opacity:0.7;"/>
   </g>
   <g id="patch_48">
    <path clip-path="url(#pf3b0e4e9ad)" d="M 457.681463 495.9792 
L 464.460471 495.9792 
L 464.460471 495.9792 
L 457.681463 495.9792 
z
" style="fill:#1f77b4;opacity:0.7;"/>
   </g>
   <g id="patch_49">
    <path clip-path="url(#pf3b0e4e9ad)" d="M 464.460471 495.9792 
L 471.239479 495.9792 
L 471.239479 495.9792 
L 464.460471 495.9792 
z
" style="fill:#1f77b4;opacity:0.7;"/>
   </g>
   <g id="patch_50">
    <path clip-path="url(#pf3b0e4e9ad)" d="M 471.239479 495.9792 
L 478.018488 495.9792 
L 478.018488 495.9792 
L 471.239479 495.9792 
z
" style="fill:#1f77b4;opacity:0.7;"/>
   </g>
   <g id="patch_51">
    <path clip-path="url(#pf3b0e4e9ad)" d="M 478.018488 495.9792 
L 484.797496 495.9792 
L 484.797496 495.9792 
L 478.018488 495.9792 
z
" style="fill:#1f77b4;opacity:0.7;"/>
   </g>
   <g id="patch_52">
    <path clip-path="url(#pf3b0e4e9ad)" d="M 484.797496 495.9792 
L 491.576504 495.9792 
L 491.576504 495.9792 
L 484.797496 495.9792 
z
" style="fill:#1f77b4;opacity:0.7;"/>
   </g>
   <g id="patch_53">
    <path clip-path="url(#pf3b0e4e9ad)" d="M 491.576504 495.9792 
L 498.355512 495.9792 
L 498.355512 495.9792 
L 491.576504 495.9792 
z
" style="fill:#1f77b4;opacity:0.7;"/>
   </g>
   <g id="patch_54">
    <path clip-path="url(#pf3b0e4e9ad)" d="M 498.355512 495.9792 
L 505.134521 495.9792 
L 505.134521 495.9792 
L 498.355512 495.9792 
z
" style="fill:#1f77b4;opacity:0.7;"/>
   </g>
   <g id="patch_55">
    <path clip-path="url(#pf3b0e4e9ad)" d="M 505.134521 495.9792 
L 511.913529 495.9792 
L 511.913529 495.9792 
L 505.134521 495.9792 
z
" style="fill:#1f77b4;opacity:0.7;"/>
   </g>
   <g id="patch_56">
    <path clip-path="url(#pf3b0e4e9ad)" d="M 511.913529 495.9792 
L 518.692537 495.9792 
L 518.692537 495.9792 
L 511.913529 495.9792 
z
" style="fill:#1f77b4;opacity:0.7;"/>
   </g>
   <g id="patch_57">
    <path clip-path="url(#pf3b0e4e9ad)" d="M 518.692537 495.9792 
L 525.471545 495.9792 
L 525.471545 495.9792 
L 518.692537 495.9792 
z
" style="fill:#1f77b4;opacity:0.7;"/>
   </g>
   <g id="patch_58">
    <path clip-path="url(#pf3b0e4e9ad)" d="M 525.471545 495.9792 
L 532.250554 495.9792 
L 532.250554 495.9792 
L 525.471545 495.9792 
z
" style="fill:#1f77b4;opacity:0.7;"/>
   </g>
   <g id="patch_59">
    <path clip-path="url(#pf3b0e4e9ad)" d="M 532.250554 495.9792 
L 539.029562 495.9792 
L 539.029562 495.9792 
L 532.250554 495.9792 
z
" style="fill:#1f77b4;opacity:0.7;"/>
   </g>
   <g id="patch_60">
    <path clip-path="url(#pf3b0e4e9ad)" d="M 539.029562 495.9792 
L 545.80857 495.9792 
L 545.80857 495.9792 
L 539.029562 495.9792 
z
" style="fill:#1f77b4;opacity:0.7;"/>
   </g>
   <g id="patch_61">
    <path clip-path="url(#pf3b0e4e9ad)" d="M 545.80857 495.9792 
L 552.587579 495.9792 
L 552.587579 495.9792 
L 545.80857 495.9792 
z
" style="fill:#1f77b4;opacity:0.7;"/>
   </g>
   <g id="patch_62">
    <path clip-path="url(#pf3b0e4e9ad)" d="M 552.587579 495.9792 
L 559.366587 495.9792 
L 559.366587 495.9792 
L 552.587579 495.9792 
z
" style="fill:#1f77b4;opacity:0.7;"/>
   </g>
   <g id="patch_63">
    <path clip-path="url(#pf3b0e4e9ad)" d="M 559.366587 495.9792 
L 566.145595 495.9792 
L 566.145595 495.9792 
L 559.366587 495.9792 
z
" style="fill:#1f77b4;opacity:0.7;"/>
   </g>
   <g id="patch_64">
    <path clip-path="url(#pf3b0e4e9ad)" d="M 566.145595 495.9792 
L 572.924603 495.9792 
L 572.924603 495.9792 
L 566.145595 495.9792 
z
" style="fill:#1f77b4;opacity:0.7;"/>
   </g>
   <g id="patch_65">
    <path clip-path="url(#pf3b0e4e9ad)" d="M 572.924603 495.9792 
L 579.703612 495.9792 
L 579.703612 495.9792 
L 572.924603 495.9792 
z
" style="fill:#1f77b4;opacity:0.7;"/>
   </g>
   <g id="patch_66">
    <path clip-path="url(#pf3b0e4e9ad)" d="M 579.703612 495.9792 
L 586.48262 495.9792 
L 586.48262 495.9792 
L 579.703612 495.9792 
z
" style="fill:#1f77b4;opacity:0.7;"/>
   </g>
   <g id="patch_67">
    <path clip-path="url(#pf3b0e4e9ad)" d="M 586.48262 495.9792 
L 593.261628 495.9792 
L 593.261628 495.9792 
L 586.48262 495.9792 
z
" style="fill:#1f77b4;opacity:0.7;"/>
   </g>
   <g id="patch_68">
    <path clip-path="url(#pf3b0e4e9ad)" d="M 593.261628 495.9792 
L 600.040636 495.9792 
L 600.040636 495.9792 
L 593.261628 495.9792 
z
" style="fill:#1f77b4;opacity:0.7;"/>
   </g>
   <g id="patch_69">
    <path clip-path="url(#pf3b0e4e9ad)" d="M 600.040636 495.9792 
L 606.819645 495.9792 
L 606.819645 495.9792 
L 600.040636 495.9792 
z
" style="fill:#1f77b4;opacity:0.7;"/>
   </g>
   <g id="patch_70">
    <path clip-path="url(#pf3b0e4e9ad)" d="M 606.819645 495.9792 
L 613.598653 495.9792 
L 613.598653 495.9792 
L 606.819645 495.9792 
z
" style="fill:#1f77b4;opacity:0.7;"/>
   </g>
   <g id="patch_71">
    <path clip-path="url(#pf3b0e4e9ad)" d="M 613.598653 495.9792 
L 620.377661 495.9792 
L 620.377661 495.9792 
L 613.598653 495.9792 
z
" style="fill:#1f77b4;opacity:0.7;"/>
   </g>
   <g id="patch_72">
    <path clip-path="url(#pf3b0e4e9ad)" d="M 620.377661 495.9792 
L 627.156669 495.9792 
L 627.156669 495.9792 
L 620.377661 495.9792 
z
" style="fill:#1f77b4;opacity:0.7;"/>
   </g>
   <g id="patch_73">
    <path clip-path="url(#pf3b0e4e9ad)" d="M 627.156669 495.9792 
L 633.935678 495.9792 
L 633.935678 495.9792 
L 627.156669 495.9792 
z
" style="fill:#1f77b4;opacity:0.7;"/>
   </g>
   <g id="patch_74">
    <path clip-path="url(#pf3b0e4e9ad)" d="M 633.935678 495.9792 
L 640.714686 495.9792 
L 640.714686 495.9792 
L 633.935678 495.9792 
z
" style="fill:#1f77b4;opacity:0.7;"/>
   </g>
   <g id="patch_75">
    <path clip-path="url(#pf3b0e4e9ad)" d="M 640.714686 495.9792 
L 647.493694 495.9792 
L 647.493694 495.9792 
L 640.714686 495.9792 
z
" style="fill:#1f77b4;opacity:0.7;"/>
   </g>
   <g id="patch_76">
    <path clip-path="url(#pf3b0e4e9ad)" d="M 647.493694 495.9792 
L 654.272702 495.9792 
L 654.272702 495.9792 
L 647.493694 495.9792 
z
" style="fill:#1f77b4;opacity:0.7;"/>
   </g>
   <g id="patch_77">
    <path clip-path="url(#pf3b0e4e9ad)" d="M 654.272702 495.9792 
L 661.051711 495.9792 
L 661.051711 495.9792 
L 654.272702 495.9792 
z
" style="fill:#1f77b4;opacity:0.7;"/>
   </g>
   <g id="patch_78">
    <path clip-path="url(#pf3b0e4e9ad)" d="M 661.051711 495.9792 
L 667.830719 495.9792 
L 667.830719 495.9792 
L 661.051711 495.9792 
z
" style="fill:#1f77b4;opacity:0.7;"/>
   </g>
   <g id="patch_79">
    <path clip-path="url(#pf3b0e4e9ad)" d="M 667.830719 495.9792 
L 674.609727 495.9792 
L 674.609727 495.9792 
L 667.830719 495.9792 
z
" style="fill:#1f77b4;opacity:0.7;"/>
   </g>
   <g id="patch_80">
    <path clip-path="url(#pf3b0e4e9ad)" d="M 674.609727 495.9792 
L 681.388736 495.9792 
L 681.388736 495.9792 
L 674.609727 495.9792 
z
" style="fill:#1f77b4;opacity:0.7;"/>
   </g>
   <g id="patch_81">
    <path clip-path="url(#pf3b0e4e9ad)" d="M 681.388736 495.9792 
L 688.167744 495.9792 
L 688.167744 495.9792 
L 681.388736 495.9792 
z
" style="fill:#1f77b4;opacity:0.7;"/>
   </g>
   <g id="patch_82">
    <path clip-path="url(#pf3b0e4e9ad)" d="M 688.167744 495.9792 
L 694.946752 495.9792 
L 694.946752 495.9792 
L 688.167744 495.9792 
z
" style="fill:#1f77b4;opacity:0.7;"/>
   </g>
   <g id="patch_83">
    <path clip-path="url(#pf3b0e4e9ad)" d="M 694.946752 495.9792 
L 701.72576 495.9792 
L 701.72576 495.9792 
L 694.946752 495.9792 
z
" style="fill:#1f77b4;opacity:0.7;"/>
   </g>
   <g id="patch_84">
    <path clip-path="url(#pf3b0e4e9ad)" d="M 701.72576 495.9792 
L 708.504769 495.9792 
L 708.504769 495.9792 
L 701.72576 495.9792 
z
" style="fill:#1f77b4;opacity:0.7;"/>
   </g>
   <g id="patch_85">
    <path clip-path="url(#pf3b0e4e9ad)" d="M 708.504769 495.9792 
L 715.283777 495.9792 
L 715.283777 495.9792 
L 708.504769 495.9792 
z
" style="fill:#1f77b4;opacity:0.7;"/>
   </g>
   <g id="patch_86">
    <path clip-path="url(#pf3b0e4e9ad)" d="M 715.283777 495.9792 
L 722.062785 495.9792 
L 722.062785 495.9792 
L 715.283777 495.9792 
z
" style="fill:#1f77b4;opacity:0.7;"/>
   </g>
   <g id="patch_87">
    <path clip-path="url(#pf3b0e4e9ad)" d="M 722.062785 495.9792 
L 728.841793 495.9792 
L 728.841793 495.9792 
L 722.062785 495.9792 
z
" style="fill:#1f77b4;opacity:0.7;"/>
   </g>
   <g id="patch_88">
    <path clip-path="url(#pf3b0e4e9ad)" d="M 728.841793 495.9792 
L 735.620802 495.9792 
L 735.620802 495.9792 
L 728.841793 495.9792 
z
" style="fill:#1f77b4;opacity:0.7;"/>
   </g>
   <g id="patch_89">
    <path clip-path="url(#pf3b0e4e9ad)" d="M 735.620802 495.9792 
L 742.39981 495.9792 
L 742.39981 495.9792 
L 735.620802 495.9792 
z
" style="fill:#1f77b4;opacity:0.7;"/>
   </g>
   <g id="patch_90">
    <path clip-path="url(#pf3b0e4e9ad)" d="M 742.39981 495.9792 
L 749.178818 495.9792 
L 749.178818 495.9792 
L 742.39981 495.9792 
z
" style="fill:#1f77b4;opacity:0.7;"/>
   </g>
   <g id="patch_91">
    <path clip-path="url(#pf3b0e4e9ad)" d="M 749.178818 495.9792 
L 755.957826 495.9792 
L 755.957826 495.9792 
L 749.178818 495.9792 
z
" style="fill:#1f77b4;opacity:0.7;"/>
   </g>
   <g id="patch_92">
    <path clip-path="url(#pf3b0e4e9ad)" d="M 755.957826 495.9792 
L 762.736835 495.9792 
L 762.736835 495.9792 
L 755.957826 495.9792 
z
" style="fill:#1f77b4;opacity:0.7;"/>
   </g>
   <g id="patch_93">
    <path clip-path="url(#pf3b0e4e9ad)" d="M 762.736835 495.9792 
L 769.515843 495.9792 
L 769.515843 495.9792 
L 762.736835 495.9792 
z
" style="fill:#1f77b4;opacity:0.7;"/>
   </g>
   <g id="patch_94">
    <path clip-path="url(#pf3b0e4e9ad)" d="M 769.515843 495.9792 
L 776.294851 495.9792 
L 776.294851 495.9792 
L 769.515843 495.9792 
z
" style="fill:#1f77b4;opacity:0.7;"/>
   </g>
   <g id="patch_95">
    <path clip-path="url(#pf3b0e4e9ad)" d="M 776.294851 495.9792 
L 783.07386 495.9792 
L 783.07386 495.9792 
L 776.294851 495.9792 
z
" style="fill:#1f77b4;opacity:0.7;"/>
   </g>
   <g id="patch_96">
    <path clip-path="url(#pf3b0e4e9ad)" d="M 783.07386 495.9792 
L 789.852868 495.9792 
L 789.852868 495.9792 
L 783.07386 495.9792 
z
" style="fill:#1f77b4;opacity:0.7;"/>
   </g>
   <g id="patch_97">
    <path clip-path="url(#pf3b0e4e9ad)" d="M 789.852868 495.9792 
L 796.631876 495.9792 
L 796.631876 495.9792 
L 789.852868 495.9792 
z
" style="fill:#1f77b4;opacity:0.7;"/>
   </g>
   <g id="patch_98">
    <path clip-path="url(#pf3b0e4e9ad)" d="M 796.631876 495.9792 
L 803.410884 495.9792 
L 803.410884 495.9792 
L 796.631876 495.9792 
z
" style="fill:#1f77b4;opacity:0.7;"/>
   </g>
   <g id="patch_99">
    <path clip-path="url(#pf3b0e4e9ad)" d="M 803.410884 495.9792 
L 810.189893 495.9792 
L 810.189893 495.9792 
L 803.410884 495.9792 
z
" style="fill:#1f77b4;opacity:0.7;"/>
   </g>
   <g id="patch_100">
    <path clip-path="url(#pf3b0e4e9ad)" d="M 810.189893 495.9792 
L 816.968901 495.9792 
L 816.968901 495.9792 
L 810.189893 495.9792 
z
" style="fill:#1f77b4;opacity:0.7;"/>
   </g>
   <g id="patch_101">
    <path clip-path="url(#pf3b0e4e9ad)" d="M 816.968901 495.9792 
L 823.747909 495.9792 
L 823.747909 495.9792 
L 816.968901 495.9792 
z
" style="fill:#1f77b4;opacity:0.7;"/>
   </g>
   <g id="patch_102">
    <path clip-path="url(#pf3b0e4e9ad)" d="M 152.626091 495.9792 
L 159.405099 495.9792 
L 159.405099 495.9792 
L 152.626091 495.9792 
z
" style="fill:#ff7f0e;opacity:0.7;"/>
   </g>
   <g id="patch_103">
    <path clip-path="url(#pf3b0e4e9ad)" d="M 159.405099 495.9792 
L 166.184107 495.9792 
L 166.184107 495.9792 
L 159.405099 495.9792 
z
" style="fill:#ff7f0e;opacity:0.7;"/>
   </g>
   <g id="patch_104">
    <path clip-path="url(#pf3b0e4e9ad)" d="M 166.184107 495.9792 
L 172.963116 495.9792 
L 172.963116 495.9792 
L 166.184107 495.9792 
z
" style="fill:#ff7f0e;opacity:0.7;"/>
   </g>
   <g id="patch_105">
    <path clip-path="url(#pf3b0e4e9ad)" d="M 172.963116 495.9792 
L 179.742124 495.9792 
L 179.742124 495.9792 
L 172.963116 495.9792 
z
" style="fill:#ff7f0e;opacity:0.7;"/>
   </g>
   <g id="patch_106">
    <path clip-path="url(#pf3b0e4e9ad)" d="M 179.742124 495.9792 
L 186.521132 495.9792 
L 186.521132 495.9792 
L 179.742124 495.9792 
z
" style="fill:#ff7f0e;opacity:0.7;"/>
   </g>
   <g id="patch_107">
    <path clip-path="url(#pf3b0e4e9ad)" d="M 186.521132 495.9792 
L 193.30014 495.9792 
L 193.30014 495.9792 
L 186.521132 495.9792 
z
" style="fill:#ff7f0e;opacity:0.7;"/>
   </g>
   <g id="patch_108">
    <path clip-path="url(#pf3b0e4e9ad)" d="M 193.30014 495.9792 
L 200.079149 495.9792 
L 200.079149 495.9792 
L 193.30014 495.9792 
z
" style="fill:#ff7f0e;opacity:0.7;"/>
   </g>
   <g id="patch_109">
    <path clip-path="url(#pf3b0e4e9ad)" d="M 200.079149 495.9792 
L 206.858157 495.9792 
L 206.858157 495.9792 
L 200.079149 495.9792 
z
" style="fill:#ff7f0e;opacity:0.7;"/>
   </g>
   <g id="patch_110">
    <path clip-path="url(#pf3b0e4e9ad)" d="M 206.858157 495.9792 
L 213.637165 495.9792 
L 213.637165 495.9792 
L 206.858157 495.9792 
z
" style="fill:#ff7f0e;opacity:0.7;"/>
   </g>
   <g id="patch_111">
    <path clip-path="url(#pf3b0e4e9ad)" d="M 213.637165 495.9792 
L 220.416174 495.9792 
L 220.416174 495.9792 
L 213.637165 495.9792 
z
" style="fill:#ff7f0e;opacity:0.7;"/>
   </g>
   <g id="patch_112">
    <path clip-path="url(#pf3b0e4e9ad)" d="M 220.416174 495.9792 
L 227.195182 495.9792 
L 227.195182 495.9792 
L 220.416174 495.9792 
z
" style="fill:#ff7f0e;opacity:0.7;"/>
   </g>
   <g id="patch_113">
    <path clip-path="url(#pf3b0e4e9ad)" d="M 227.195182 495.9792 
L 233.97419 495.9792 
L 233.97419 495.9792 
L 227.195182 495.9792 
z
" style="fill:#ff7f0e;opacity:0.7;"/>
   </g>
   <g id="patch_114">
    <path clip-path="url(#pf3b0e4e9ad)" d="M 233.97419 495.9792 
L 240.753198 495.9792 
L 240.753198 495.9792 
L 233.97419 495.9792 
z
" style="fill:#ff7f0e;opacity:0.7;"/>
   </g>
   <g id="patch_115">
    <path clip-path="url(#pf3b0e4e9ad)" d="M 240.753198 495.9792 
L 247.532207 495.9792 
L 247.532207 495.9792 
L 240.753198 495.9792 
z
" style="fill:#ff7f0e;opacity:0.7;"/>
   </g>
   <g id="patch_116">
    <path clip-path="url(#pf3b0e4e9ad)" d="M 247.532207 495.9792 
L 254.311215 495.9792 
L 254.311215 495.9792 
L 247.532207 495.9792 
z
" style="fill:#ff7f0e;opacity:0.7;"/>
   </g>
   <g id="patch_117">
    <path clip-path="url(#pf3b0e4e9ad)" d="M 254.311215 495.9792 
L 261.090223 495.9792 
L 261.090223 495.9792 
L 254.311215 495.9792 
z
" style="fill:#ff7f0e;opacity:0.7;"/>
   </g>
   <g id="patch_118">
    <path clip-path="url(#pf3b0e4e9ad)" d="M 261.090223 495.9792 
L 267.869231 495.9792 
L 267.869231 495.9792 
L 261.090223 495.9792 
z
" style="fill:#ff7f0e;opacity:0.7;"/>
   </g>
   <g id="patch_119">
    <path clip-path="url(#pf3b0e4e9ad)" d="M 267.869231 495.9792 
L 274.64824 495.9792 
L 274.64824 495.9792 
L 267.869231 495.9792 
z
" style="fill:#ff7f0e;opacity:0.7;"/>
   </g>
   <g id="patch_120">
    <path clip-path="url(#pf3b0e4e9ad)" d="M 274.64824 495.9792 
L 281.427248 495.9792 
L 281.427248 495.9792 
L 274.64824 495.9792 
z
" style="fill:#ff7f0e;opacity:0.7;"/>
   </g>
   <g id="patch_121">
    <path clip-path="url(#pf3b0e4e9ad)" d="M 281.427248 495.9792 
L 288.206256 495.9792 
L 288.206256 495.9792 
L 281.427248 495.9792 
z
" style="fill:#ff7f0e;opacity:0.7;"/>
   </g>
   <g id="patch_122">
    <path clip-path="url(#pf3b0e4e9ad)" d="M 288.206256 495.9792 
L 294.985264 495.9792 
L 294.985264 495.9792 
L 288.206256 495.9792 
z
" style="fill:#ff7f0e;opacity:0.7;"/>
   </g>
   <g id="patch_123">
    <path clip-path="url(#pf3b0e4e9ad)" d="M 294.985264 495.9792 
L 301.764273 495.9792 
L 301.764273 495.9792 
L 294.985264 495.9792 
z
" style="fill:#ff7f0e;opacity:0.7;"/>
   </g>
   <g id="patch_124">
    <path clip-path="url(#pf3b0e4e9ad)" d="M 301.764273 495.9792 
L 308.543281 495.9792 
L 308.543281 495.9792 
L 301.764273 495.9792 
z
" style="fill:#ff7f0e;opacity:0.7;"/>
   </g>
   <g id="patch_125">
    <path clip-path="url(#pf3b0e4e9ad)" d="M 308.543281 495.9792 
L 315.322289 495.9792 
L 315.322289 495.9792 
L 308.543281 495.9792 
z
" style="fill:#ff7f0e;opacity:0.7;"/>
   </g>
   <g id="patch_126">
    <path clip-path="url(#pf3b0e4e9ad)" d="M 315.322289 495.9792 
L 322.101298 495.9792 
L 322.101298 495.9792 
L 315.322289 495.9792 
z
" style="fill:#ff7f0e;opacity:0.7;"/>
   </g>
   <g id="patch_127">
    <path clip-path="url(#pf3b0e4e9ad)" d="M 322.101298 495.9792 
L 328.880306 495.9792 
L 328.880306 495.9792 
L 322.101298 495.9792 
z
" style="fill:#ff7f0e;opacity:0.7;"/>
   </g>
   <g id="patch_128">
    <path clip-path="url(#pf3b0e4e9ad)" d="M 328.880306 495.9792 
L 335.659314 495.9792 
L 335.659314 495.9792 
L 328.880306 495.9792 
z
" style="fill:#ff7f0e;opacity:0.7;"/>
   </g>
   <g id="patch_129">
    <path clip-path="url(#pf3b0e4e9ad)" d="M 335.659314 495.9792 
L 342.438322 495.9792 
L 342.438322 495.9792 
L 335.659314 495.9792 
z
" style="fill:#ff7f0e;opacity:0.7;"/>
   </g>
   <g id="patch_130">
    <path clip-path="url(#pf3b0e4e9ad)" d="M 342.438322 495.9792 
L 349.217331 495.9792 
L 349.217331 495.9792 
L 342.438322 495.9792 
z
" style="fill:#ff7f0e;opacity:0.7;"/>
   </g>
   <g id="patch_131">
    <path clip-path="url(#pf3b0e4e9ad)" d="M 349.217331 495.9792 
L 355.996339 495.9792 
L 355.996339 495.9792 
L 349.217331 495.9792 
z
" style="fill:#ff7f0e;opacity:0.7;"/>
   </g>
   <g id="patch_132">
    <path clip-path="url(#pf3b0e4e9ad)" d="M 355.996339 495.9792 
L 362.775347 495.9792 
L 362.775347 495.9792 
L 355.996339 495.9792 
z
" style="fill:#ff7f0e;opacity:0.7;"/>
   </g>
   <g id="patch_133">
    <path clip-path="url(#pf3b0e4e9ad)" d="M 362.775347 495.9792 
L 369.554355 495.9792 
L 369.554355 495.9792 
L 362.775347 495.9792 
z
" style="fill:#ff7f0e;opacity:0.7;"/>
   </g>
   <g id="patch_134">
    <path clip-path="url(#pf3b0e4e9ad)" d="M 369.554355 495.9792 
L 376.333364 495.9792 
L 376.333364 495.9792 
L 369.554355 495.9792 
z
" style="fill:#ff7f0e;opacity:0.7;"/>
   </g>
   <g id="patch_135">
    <path clip-path="url(#pf3b0e4e9ad)" d="M 376.333364 495.9792 
L 383.112372 495.9792 
L 383.112372 495.9792 
L 376.333364 495.9792 
z
" style="fill:#ff7f0e;opacity:0.7;"/>
   </g>
   <g id="patch_136">
    <path clip-path="url(#pf3b0e4e9ad)" d="M 383.112372 495.9792 
L 389.89138 495.9792 
L 389.89138 495.9792 
L 383.112372 495.9792 
z
" style="fill:#ff7f0e;opacity:0.7;"/>
   </g>
   <g id="patch_137">
    <path clip-path="url(#pf3b0e4e9ad)" d="M 389.89138 495.9792 
L 396.670388 495.9792 
L 396.670388 495.9792 
L 389.89138 495.9792 
z
" style="fill:#ff7f0e;opacity:0.7;"/>
   </g>
   <g id="patch_138">
    <path clip-path="url(#pf3b0e4e9ad)" d="M 396.670388 495.9792 
L 403.449397 495.9792 
L 403.449397 495.9792 
L 396.670388 495.9792 
z
" style="fill:#ff7f0e;opacity:0.7;"/>
   </g>
   <g id="patch_139">
    <path clip-path="url(#pf3b0e4e9ad)" d="M 403.449397 495.9792 
L 410.228405 495.9792 
L 410.228405 495.9792 
L 403.449397 495.9792 
z
" style="fill:#ff7f0e;opacity:0.7;"/>
   </g>
   <g id="patch_140">
    <path clip-path="url(#pf3b0e4e9ad)" d="M 410.228405 495.9792 
L 417.007413 495.9792 
L 417.007413 495.9792 
L 410.228405 495.9792 
z
" style="fill:#ff7f0e;opacity:0.7;"/>
   </g>
   <g id="patch_141">
    <path clip-path="url(#pf3b0e4e9ad)" d="M 417.007413 495.9792 
L 423.786421 495.9792 
L 423.786421 495.9792 
L 417.007413 495.9792 
z
" style="fill:#ff7f0e;opacity:0.7;"/>
   </g>
   <g id="patch_142">
    <path clip-path="url(#pf3b0e4e9ad)" d="M 423.786421 495.9792 
L 430.56543 495.9792 
L 430.56543 495.9792 
L 423.786421 495.9792 
z
" style="fill:#ff7f0e;opacity:0.7;"/>
   </g>
   <g id="patch_143">
    <path clip-path="url(#pf3b0e4e9ad)" d="M 430.56543 495.9792 
L 437.344438 495.9792 
L 437.344438 495.9792 
L 430.56543 495.9792 
z
" style="fill:#ff7f0e;opacity:0.7;"/>
   </g>
   <g id="patch_144">
    <path clip-path="url(#pf3b0e4e9ad)" d="M 437.344438 495.9792 
L 444.123446 495.9792 
L 444.123446 495.9792 
L 437.344438 495.9792 
z
" style="fill:#ff7f0e;opacity:0.7;"/>
   </g>
   <g id="patch_145">
    <path clip-path="url(#pf3b0e4e9ad)" d="M 444.123446 495.9792 
L 450.902455 495.9792 
L 450.902455 495.9792 
L 444.123446 495.9792 
z
" style="fill:#ff7f0e;opacity:0.7;"/>
   </g>
   <g id="patch_146">
    <path clip-path="url(#pf3b0e4e9ad)" d="M 450.902455 495.9792 
L 457.681463 495.9792 
L 457.681463 495.9792 
L 450.902455 495.9792 
z
" style="fill:#ff7f0e;opacity:0.7;"/>
   </g>
   <g id="patch_147">
    <path clip-path="url(#pf3b0e4e9ad)" d="M 457.681463 495.9792 
L 464.460471 495.9792 
L 464.460471 495.9792 
L 457.681463 495.9792 
z
" style="fill:#ff7f0e;opacity:0.7;"/>
   </g>
   <g id="patch_148">
    <path clip-path="url(#pf3b0e4e9ad)" d="M 464.460471 495.9792 
L 471.239479 495.9792 
L 471.239479 495.9792 
L 464.460471 495.9792 
z
" style="fill:#ff7f0e;opacity:0.7;"/>
   </g>
   <g id="patch_149">
    <path clip-path="url(#pf3b0e4e9ad)" d="M 471.239479 495.9792 
L 478.018488 495.9792 
L 478.018488 495.9792 
L 471.239479 495.9792 
z
" style="fill:#ff7f0e;opacity:0.7;"/>
   </g>
   <g id="patch_150">
    <path clip-path="url(#pf3b0e4e9ad)" d="M 478.018488 495.9792 
L 484.797496 495.9792 
L 484.797496 495.9792 
L 478.018488 495.9792 
z
" style="fill:#ff7f0e;opacity:0.7;"/>
   </g>
   <g id="patch_151">
    <path clip-path="url(#pf3b0e4e9ad)" d="M 484.797496 495.9792 
L 491.576504 495.9792 
L 491.576504 495.9792 
L 484.797496 495.9792 
z
" style="fill:#ff7f0e;opacity:0.7;"/>
   </g>
   <g id="patch_152">
    <path clip-path="url(#pf3b0e4e9ad)" d="M 491.576504 495.9792 
L 498.355512 495.9792 
L 498.355512 495.9792 
L 491.576504 495.9792 
z
" style="fill:#ff7f0e;opacity:0.7;"/>
   </g>
   <g id="patch_153">
    <path clip-path="url(#pf3b0e4e9ad)" d="M 498.355512 495.9792 
L 505.134521 495.9792 
L 505.134521 495.9792 
L 498.355512 495.9792 
z
" style="fill:#ff7f0e;opacity:0.7;"/>
   </g>
   <g id="patch_154">
    <path clip-path="url(#pf3b0e4e9ad)" d="M 505.134521 495.9792 
L 511.913529 495.9792 
L 511.913529 495.9792 
L 505.134521 495.9792 
z
" style="fill:#ff7f0e;opacity:0.7;"/>
   </g>
   <g id="patch_155">
    <path clip-path="url(#pf3b0e4e9ad)" d="M 511.913529 495.9792 
L 518.692537 495.9792 
L 518.692537 495.9792 
L 511.913529 495.9792 
z
" style="fill:#ff7f0e;opacity:0.7;"/>
   </g>
   <g id="patch_156">
    <path clip-path="url(#pf3b0e4e9ad)" d="M 518.692537 495.9792 
L 525.471545 495.9792 
L 525.471545 495.9792 
L 518.692537 495.9792 
z
" style="fill:#ff7f0e;opacity:0.7;"/>
   </g>
   <g id="patch_157">
    <path clip-path="url(#pf3b0e4e9ad)" d="M 525.471545 495.9792 
L 532.250554 495.9792 
L 532.250554 495.9792 
L 525.471545 495.9792 
z
" style="fill:#ff7f0e;opacity:0.7;"/>
   </g>
   <g id="patch_158">
    <path clip-path="url(#pf3b0e4e9ad)" d="M 532.250554 495.9792 
L 539.029562 495.9792 
L 539.029562 495.9792 
L 532.250554 495.9792 
z
" style="fill:#ff7f0e;opacity:0.7;"/>
   </g>
   <g id="patch_159">
    <path clip-path="url(#pf3b0e4e9ad)" d="M 539.029562 495.9792 
L 545.80857 495.9792 
L 545.80857 495.9792 
L 539.029562 495.9792 
z
" style="fill:#ff7f0e;opacity:0.7;"/>
   </g>
   <g id="patch_160">
    <path clip-path="url(#pf3b0e4e9ad)" d="M 545.80857 495.9792 
L 552.587579 495.9792 
L 552.587579 495.9792 
L 545.80857 495.9792 
z
" style="fill:#ff7f0e;opacity:0.7;"/>
   </g>
   <g id="patch_161">
    <path clip-path="url(#pf3b0e4e9ad)" d="M 552.587579 495.9792 
L 559.366587 495.9792 
L 559.366587 495.9792 
L 552.587579 495.9792 
z
" style="fill:#ff7f0e;opacity:0.7;"/>
   </g>
   <g id="patch_162">
    <path clip-path="url(#pf3b0e4e9ad)" d="M 559.366587 495.9792 
L 566.145595 495.9792 
L 566.145595 495.9792 
L 559.366587 495.9792 
z
" style="fill:#ff7f0e;opacity:0.7;"/>
   </g>
   <g id="patch_163">
    <path clip-path="url(#pf3b0e4e9ad)" d="M 566.145595 495.9792 
L 572.924603 495.9792 
L 572.924603 495.9792 
L 566.145595 495.9792 
z
" style="fill:#ff7f0e;opacity:0.7;"/>
   </g>
   <g id="patch_164">
    <path clip-path="url(#pf3b0e4e9ad)" d="M 572.924603 495.9792 
L 579.703612 495.9792 
L 579.703612 495.9792 
L 572.924603 495.9792 
z
" style="fill:#ff7f0e;opacity:0.7;"/>
   </g>
   <g id="patch_165">
    <path clip-path="url(#pf3b0e4e9ad)" d="M 579.703612 495.9792 
L 586.48262 495.9792 
L 586.48262 495.9792 
L 579.703612 495.9792 
z
" style="fill:#ff7f0e;opacity:0.7;"/>
   </g>
   <g id="patch_166">
    <path clip-path="url(#pf3b0e4e9ad)" d="M 586.48262 495.9792 
L 593.261628 495.9792 
L 593.261628 479.63232 
L 586.48262 479.63232 
z
" style="fill:#ff7f0e;opacity:0.7;"/>
   </g>
   <g id="patch_167">
    <path clip-path="url(#pf3b0e4e9ad)" d="M 593.261628 495.9792 
L 600.040636 495.9792 
L 600.040636 495.9792 
L 593.261628 495.9792 
z
" style="fill:#ff7f0e;opacity:0.7;"/>
   </g>
   <g id="patch_168">
    <path clip-path="url(#pf3b0e4e9ad)" d="M 600.040636 495.9792 
L 606.819645 495.9792 
L 606.819645 495.9792 
L 600.040636 495.9792 
z
" style="fill:#ff7f0e;opacity:0.7;"/>
   </g>
   <g id="patch_169">
    <path clip-path="url(#pf3b0e4e9ad)" d="M 606.819645 495.9792 
L 613.598653 495.9792 
L 613.598653 495.9792 
L 606.819645 495.9792 
z
" style="fill:#ff7f0e;opacity:0.7;"/>
   </g>
   <g id="patch_170">
    <path clip-path="url(#pf3b0e4e9ad)" d="M 613.598653 495.9792 
L 620.377661 495.9792 
L 620.377661 446.93856 
L 613.598653 446.93856 
z
" style="fill:#ff7f0e;opacity:0.7;"/>
   </g>
   <g id="patch_171">
    <path clip-path="url(#pf3b0e4e9ad)" d="M 620.377661 495.9792 
L 627.156669 495.9792 
L 627.156669 446.93856 
L 620.377661 446.93856 
z
" style="fill:#ff7f0e;opacity:0.7;"/>
   </g>
   <g id="patch_172">
    <path clip-path="url(#pf3b0e4e9ad)" d="M 627.156669 495.9792 
L 633.935678 495.9792 
L 633.935678 414.2448 
L 627.156669 414.2448 
z
" style="fill:#ff7f0e;opacity:0.7;"/>
   </g>
   <g id="patch_173">
    <path clip-path="url(#pf3b0e4e9ad)" d="M 633.935678 495.9792 
L 640.714686 495.9792 
L 640.714686 414.2448 
L 633.935678 414.2448 
z
" style="fill:#ff7f0e;opacity:0.7;"/>
   </g>
   <g id="patch_174">
    <path clip-path="url(#pf3b0e4e9ad)" d="M 640.714686 495.9792 
L 647.493694 495.9792 
L 647.493694 250.776 
L 640.714686 250.776 
z
" style="fill:#ff7f0e;opacity:0.7;"/>
   </g>
   <g id="patch_175">
    <path clip-path="url(#pf3b0e4e9ad)" d="M 647.493694 495.9792 
L 654.272702 495.9792 
L 654.272702 414.2448 
L 647.493694 414.2448 
z
" style="fill:#ff7f0e;opacity:0.7;"/>
   </g>
   <g id="patch_176">
    <path clip-path="url(#pf3b0e4e9ad)" d="M 654.272702 495.9792 
L 661.051711 495.9792 
L 661.051711 365.20416 
L 654.272702 365.20416 
z
" style="fill:#ff7f0e;opacity:0.7;"/>
   </g>
   <g id="patch_177">
    <path clip-path="url(#pf3b0e4e9ad)" d="M 661.051711 495.9792 
L 667.830719 495.9792 
L 667.830719 316.16352 
L 661.051711 316.16352 
z
" style="fill:#ff7f0e;opacity:0.7;"/>
   </g>
   <g id="patch_178">
    <path clip-path="url(#pf3b0e4e9ad)" d="M 667.830719 495.9792 
L 674.609727 495.9792 
L 674.609727 414.2448 
L 667.830719 414.2448 
z
" style="fill:#ff7f0e;opacity:0.7;"/>
   </g>
   <g id="patch_179">
    <path clip-path="url(#pf3b0e4e9ad)" d="M 674.609727 495.9792 
L 681.388736 495.9792 
L 681.388736 365.20416 
L 674.609727 365.20416 
z
" style="fill:#ff7f0e;opacity:0.7;"/>
   </g>
   <g id="patch_180">
    <path clip-path="url(#pf3b0e4e9ad)" d="M 681.388736 495.9792 
L 688.167744 495.9792 
L 688.167744 365.20416 
L 681.388736 365.20416 
z
" style="fill:#ff7f0e;opacity:0.7;"/>
   </g>
   <g id="patch_181">
    <path clip-path="url(#pf3b0e4e9ad)" d="M 688.167744 495.9792 
L 694.946752 495.9792 
L 694.946752 397.89792 
L 688.167744 397.89792 
z
" style="fill:#ff7f0e;opacity:0.7;"/>
   </g>
   <g id="patch_182">
    <path clip-path="url(#pf3b0e4e9ad)" d="M 694.946752 495.9792 
L 701.72576 495.9792 
L 701.72576 446.93856 
L 694.946752 446.93856 
z
" style="fill:#ff7f0e;opacity:0.7;"/>
   </g>
   <g id="patch_183">
    <path clip-path="url(#pf3b0e4e9ad)" d="M 701.72576 495.9792 
L 708.504769 495.9792 
L 708.504769 463.28544 
L 701.72576 463.28544 
z
" style="fill:#ff7f0e;opacity:0.7;"/>
   </g>
   <g id="patch_184">
    <path clip-path="url(#pf3b0e4e9ad)" d="M 708.504769 495.9792 
L 715.283777 495.9792 
L 715.283777 479.63232 
L 708.504769 479.63232 
z
" style="fill:#ff7f0e;opacity:0.7;"/>
   </g>
   <g id="patch_185">
    <path clip-path="url(#pf3b0e4e9ad)" d="M 715.283777 495.9792 
L 722.062785 495.9792 
L 722.062785 479.63232 
L 715.283777 479.63232 
z
" style="fill:#ff7f0e;opacity:0.7;"/>
   </g>
   <g id="patch_186">
    <path clip-path="url(#pf3b0e4e9ad)" d="M 722.062785 495.9792 
L 728.841793 495.9792 
L 728.841793 479.63232 
L 722.062785 479.63232 
z
" style="fill:#ff7f0e;opacity:0.7;"/>
   </g>
   <g id="patch_187">
    <path clip-path="url(#pf3b0e4e9ad)" d="M 728.841793 495.9792 
L 735.620802 495.9792 
L 735.620802 479.63232 
L 728.841793 479.63232 
z
" style="fill:#ff7f0e;opacity:0.7;"/>
   </g>
   <g id="patch_188">
    <path clip-path="url(#pf3b0e4e9ad)" d="M 735.620802 495.9792 
L 742.39981 495.9792 
L 742.39981 495.9792 
L 735.620802 495.9792 
z
" style="fill:#ff7f0e;opacity:0.7;"/>
   </g>
   <g id="patch_189">
    <path clip-path="url(#pf3b0e4e9ad)" d="M 742.39981 495.9792 
L 749.178818 495.9792 
L 749.178818 495.9792 
L 742.39981 495.9792 
z
" style="fill:#ff7f0e;opacity:0.7;"/>
   </g>
   <g id="patch_190">
    <path clip-path="url(#pf3b0e4e9ad)" d="M 749.178818 495.9792 
L 755.957826 495.9792 
L 755.957826 495.9792 
L 749.178818 495.9792 
z
" style="fill:#ff7f0e;opacity:0.7;"/>
   </g>
   <g id="patch_191">
    <path clip-path="url(#pf3b0e4e9ad)" d="M 755.957826 495.9792 
L 762.736835 495.9792 
L 762.736835 495.9792 
L 755.957826 495.9792 
z
" style="fill:#ff7f0e;opacity:0.7;"/>
   </g>
   <g id="patch_192">
    <path clip-path="url(#pf3b0e4e9ad)" d="M 762.736835 495.9792 
L 769.515843 495.9792 
L 769.515843 479.63232 
L 762.736835 479.63232 
z
" style="fill:#ff7f0e;opacity:0.7;"/>
   </g>
   <g id="patch_193">
    <path clip-path="url(#pf3b0e4e9ad)" d="M 769.515843 495.9792 
L 776.294851 495.9792 
L 776.294851 495.9792 
L 769.515843 495.9792 
z
" style="fill:#ff7f0e;opacity:0.7;"/>
   </g>
   <g id="patch_194">
    <path clip-path="url(#pf3b0e4e9ad)" d="M 776.294851 495.9792 
L 783.07386 495.9792 
L 783.07386 495.9792 
L 776.294851 495.9792 
z
" style="fill:#ff7f0e;opacity:0.7;"/>
   </g>
   <g id="patch_195">
    <path clip-path="url(#pf3b0e4e9ad)" d="M 783.07386 495.9792 
L 789.852868 495.9792 
L 789.852868 479.63232 
L 783.07386 479.63232 
z
" style="fill:#ff7f0e;opacity:0.7;"/>
   </g>
   <g id="patch_196">
    <path clip-path="url(#pf3b0e4e9ad)" d="M 789.852868 495.9792 
L 796.631876 495.9792 
L 796.631876 495.9792 
L 789.852868 495.9792 
z
" style="fill:#ff7f0e;opacity:0.7;"/>
   </g>
   <g id="patch_197">
    <path clip-path="url(#pf3b0e4e9ad)" d="M 796.631876 495.9792 
L 803.410884 495.9792 
L 803.410884 479.63232 
L 796.631876 479.63232 
z
" style="fill:#ff7f0e;opacity:0.7;"/>
   </g>
   <g id="patch_198">
    <path clip-path="url(#pf3b0e4e9ad)" d="M 803.410884 495.9792 
L 810.189893 495.9792 
L 810.189893 495.9792 
L 803.410884 495.9792 
z
" style="fill:#ff7f0e;opacity:0.7;"/>
   </g>
   <g id="patch_199">
    <path clip-path="url(#pf3b0e4e9ad)" d="M 810.189893 495.9792 
L 816.968901 495.9792 
L 816.968901 463.28544 
L 810.189893 463.28544 
z
" style="fill:#ff7f0e;opacity:0.7;"/>
   </g>
   <g id="patch_200">
    <path clip-path="url(#pf3b0e4e9ad)" d="M 816.968901 495.9792 
L 823.747909 495.9792 
L 823.747909 479.63232 
L 816.968901 479.63232 
z
" style="fill:#ff7f0e;opacity:0.7;"/>
   </g>
   <g id="patch_201">
    <path clip-path="url(#pf3b0e4e9ad)" d="M 152.626091 495.9792 
L 159.405099 495.9792 
L 159.405099 479.63232 
L 152.626091 479.63232 
z
" style="fill:#2ca02c;opacity:0.7;"/>
   </g>
   <g id="patch_202">
    <path clip-path="url(#pf3b0e4e9ad)" d="M 159.405099 495.9792 
L 166.184107 495.9792 
L 166.184107 495.9792 
L 159.405099 495.9792 
z
" style="fill:#2ca02c;opacity:0.7;"/>
   </g>
   <g id="patch_203">
    <path clip-path="url(#pf3b0e4e9ad)" d="M 166.184107 495.9792 
L 172.963116 495.9792 
L 172.963116 381.55104 
L 166.184107 381.55104 
z
" style="fill:#2ca02c;opacity:0.7;"/>
   </g>
   <g id="patch_204">
    <path clip-path="url(#pf3b0e4e9ad)" d="M 172.963116 495.9792 
L 179.742124 495.9792 
L 179.742124 414.2448 
L 172.963116 414.2448 
z
" style="fill:#2ca02c;opacity:0.7;"/>
   </g>
   <g id="patch_205">
    <path clip-path="url(#pf3b0e4e9ad)" d="M 179.742124 495.9792 
L 186.521132 495.9792 
L 186.521132 87.3072 
L 179.742124 87.3072 
z
" style="fill:#2ca02c;opacity:0.7;"/>
   </g>
   <g id="patch_206">
    <path clip-path="url(#pf3b0e4e9ad)" d="M 186.521132 495.9792 
L 193.30014 495.9792 
L 193.30014 185.38848 
L 186.521132 185.38848 
z
" style="fill:#2ca02c;opacity:0.7;"/>
   </g>
   <g id="patch_207">
    <path clip-path="url(#pf3b0e4e9ad)" d="M 193.30014 495.9792 
L 200.079149 495.9792 
L 200.079149 234.42912 
L 193.30014 234.42912 
z
" style="fill:#2ca02c;opacity:0.7;"/>
   </g>
   <g id="patch_208">
    <path clip-path="url(#pf3b0e4e9ad)" d="M 200.079149 495.9792 
L 206.858157 495.9792 
L 206.858157 250.776 
L 200.079149 250.776 
z
" style="fill:#2ca02c;opacity:0.7;"/>
   </g>
   <g id="patch_209">
    <path clip-path="url(#pf3b0e4e9ad)" d="M 206.858157 495.9792 
L 213.637165 495.9792 
L 213.637165 348.85728 
L 206.858157 348.85728 
z
" style="fill:#2ca02c;opacity:0.7;"/>
   </g>
   <g id="patch_210">
    <path clip-path="url(#pf3b0e4e9ad)" d="M 213.637165 495.9792 
L 220.416174 495.9792 
L 220.416174 463.28544 
L 213.637165 463.28544 
z
" style="fill:#2ca02c;opacity:0.7;"/>
   </g>
   <g id="patch_211">
    <path clip-path="url(#pf3b0e4e9ad)" d="M 220.416174 495.9792 
L 227.195182 495.9792 
L 227.195182 479.63232 
L 220.416174 479.63232 
z
" style="fill:#2ca02c;opacity:0.7;"/>
   </g>
   <g id="patch_212">
    <path clip-path="url(#pf3b0e4e9ad)" d="M 227.195182 495.9792 
L 233.97419 495.9792 
L 233.97419 495.9792 
L 227.195182 495.9792 
z
" style="fill:#2ca02c;opacity:0.7;"/>
   </g>
   <g id="patch_213">
    <path clip-path="url(#pf3b0e4e9ad)" d="M 233.97419 495.9792 
L 240.753198 495.9792 
L 240.753198 495.9792 
L 233.97419 495.9792 
z
" style="fill:#2ca02c;opacity:0.7;"/>
   </g>
   <g id="patch_214">
    <path clip-path="url(#pf3b0e4e9ad)" d="M 240.753198 495.9792 
L 247.532207 495.9792 
L 247.532207 495.9792 
L 240.753198 495.9792 
z
" style="fill:#2ca02c;opacity:0.7;"/>
   </g>
   <g id="patch_215">
    <path clip-path="url(#pf3b0e4e9ad)" d="M 247.532207 495.9792 
L 254.311215 495.9792 
L 254.311215 495.9792 
L 247.532207 495.9792 
z
" style="fill:#2ca02c;opacity:0.7;"/>
   </g>
   <g id="patch_216">
    <path clip-path="url(#pf3b0e4e9ad)" d="M 254.311215 495.9792 
L 261.090223 495.9792 
L 261.090223 495.9792 
L 254.311215 495.9792 
z
" style="fill:#2ca02c;opacity:0.7;"/>
   </g>
   <g id="patch_217">
    <path clip-path="url(#pf3b0e4e9ad)" d="M 261.090223 495.9792 
L 267.869231 495.9792 
L 267.869231 495.9792 
L 261.090223 495.9792 
z
" style="fill:#2ca02c;opacity:0.7;"/>
   </g>
   <g id="patch_218">
    <path clip-path="url(#pf3b0e4e9ad)" d="M 267.869231 495.9792 
L 274.64824 495.9792 
L 274.64824 495.9792 
L 267.869231 495.9792 
z
" style="fill:#2ca02c;opacity:0.7;"/>
   </g>
   <g id="patch_219">
    <path clip-path="url(#pf3b0e4e9ad)" d="M 274.64824 495.9792 
L 281.427248 495.9792 
L 281.427248 495.9792 
L 274.64824 495.9792 
z
" style="fill:#2ca02c;opacity:0.7;"/>
   </g>
   <g id="patch_220">
    <path clip-path="url(#pf3b0e4e9ad)" d="M 281.427248 495.9792 
L 288.206256 495.9792 
L 288.206256 495.9792 
L 281.427248 495.9792 
z
" style="fill:#2ca02c;opacity:0.7;"/>
   </g>
   <g id="patch_221">
    <path clip-path="url(#pf3b0e4e9ad)" d="M 288.206256 495.9792 
L 294.985264 495.9792 
L 294.985264 495.9792 
L 288.206256 495.9792 
z
" style="fill:#2ca02c;opacity:0.7;"/>
   </g>
   <g id="patch_222">
    <path clip-path="url(#pf3b0e4e9ad)" d="M 294.985264 495.9792 
L 301.764273 495.9792 
L 301.764273 495.9792 
L 294.985264 495.9792 
z
" style="fill:#2ca02c;opacity:0.7;"/>
   </g>
   <g id="patch_223">
    <path clip-path="url(#pf3b0e4e9ad)" d="M 301.764273 495.9792 
L 308.543281 495.9792 
L 308.543281 495.9792 
L 301.764273 495.9792 
z
" style="fill:#2ca02c;opacity:0.7;"/>
   </g>
   <g id="patch_224">
    <path clip-path="url(#pf3b0e4e9ad)" d="M 308.543281 495.9792 
L 315.322289 495.9792 
L 315.322289 495.9792 
L 308.543281 495.9792 
z
" style="fill:#2ca02c;opacity:0.7;"/>
   </g>
   <g id="patch_225">
    <path clip-path="url(#pf3b0e4e9ad)" d="M 315.322289 495.9792 
L 322.101298 495.9792 
L 322.101298 495.9792 
L 315.322289 495.9792 
z
" style="fill:#2ca02c;opacity:0.7;"/>
   </g>
   <g id="patch_226">
    <path clip-path="url(#pf3b0e4e9ad)" d="M 322.101298 495.9792 
L 328.880306 495.9792 
L 328.880306 495.9792 
L 322.101298 495.9792 
z
" style="fill:#2ca02c;opacity:0.7;"/>
   </g>
   <g id="patch_227">
    <path clip-path="url(#pf3b0e4e9ad)" d="M 328.880306 495.9792 
L 335.659314 495.9792 
L 335.659314 495.9792 
L 328.880306 495.9792 
z
" style="fill:#2ca02c;opacity:0.7;"/>
   </g>
   <g id="patch_228">
    <path clip-path="url(#pf3b0e4e9ad)" d="M 335.659314 495.9792 
L 342.438322 495.9792 
L 342.438322 495.9792 
L 335.659314 495.9792 
z
" style="fill:#2ca02c;opacity:0.7;"/>
   </g>
   <g id="patch_229">
    <path clip-path="url(#pf3b0e4e9ad)" d="M 342.438322 495.9792 
L 349.217331 495.9792 
L 349.217331 495.9792 
L 342.438322 495.9792 
z
" style="fill:#2ca02c;opacity:0.7;"/>
   </g>
   <g id="patch_230">
    <path clip-path="url(#pf3b0e4e9ad)" d="M 349.217331 495.9792 
L 355.996339 495.9792 
L 355.996339 495.9792 
L 349.217331 495.9792 
z
" style="fill:#2ca02c;opacity:0.7;"/>
   </g>
   <g id="patch_231">
    <path clip-path="url(#pf3b0e4e9ad)" d="M 355.996339 495.9792 
L 362.775347 495.9792 
L 362.775347 495.9792 
L 355.996339 495.9792 
z
" style="fill:#2ca02c;opacity:0.7;"/>
   </g>
   <g id="patch_232">
    <path clip-path="url(#pf3b0e4e9ad)" d="M 362.775347 495.9792 
L 369.554355 495.9792 
L 369.554355 495.9792 
L 362.775347 495.9792 
z
" style="fill:#2ca02c;opacity:0.7;"/>
   </g>
   <g id="patch_233">
    <path clip-path="url(#pf3b0e4e9ad)" d="M 369.554355 495.9792 
L 376.333364 495.9792 
L 376.333364 495.9792 
L 369.554355 495.9792 
z
" style="fill:#2ca02c;opacity:0.7;"/>
   </g>
   <g id="patch_234">
    <path clip-path="url(#pf3b0e4e9ad)" d="M 376.333364 495.9792 
L 383.112372 495.9792 
L 383.112372 495.9792 
L 376.333364 495.9792 
z
" style="fill:#2ca02c;opacity:0.7;"/>
   </g>
   <g id="patch_235">
    <path clip-path="url(#pf3b0e4e9ad)" d="M 383.112372 495.9792 
L 389.89138 495.9792 
L 389.89138 495.9792 
L 383.112372 495.9792 
z
" style="fill:#2ca02c;opacity:0.7;"/>
   </g>
   <g id="patch_236">
    <path clip-path="url(#pf3b0e4e9ad)" d="M 389.89138 495.9792 
L 396.670388 495.9792 
L 396.670388 495.9792 
L 389.89138 495.9792 
z
" style="fill:#2ca02c;opacity:0.7;"/>
   </g>
   <g id="patch_237">
    <path clip-path="url(#pf3b0e4e9ad)" d="M 396.670388 495.9792 
L 403.449397 495.9792 
L 403.449397 495.9792 
L 396.670388 495.9792 
z
" style="fill:#2ca02c;opacity:0.7;"/>
   </g>
   <g id="patch_238">
    <path clip-path="url(#pf3b0e4e9ad)" d="M 403.449397 495.9792 
L 410.228405 495.9792 
L 410.228405 495.9792 
L 403.449397 495.9792 
z
" style="fill:#2ca02c;opacity:0.7;"/>
   </g>
   <g id="patch_239">
    <path clip-path="url(#pf3b0e4e9ad)" d="M 410.228405 495.9792 
L 417.007413 495.9792 
L 417.007413 495.9792 
L 410.228405 495.9792 
z
" style="fill:#2ca02c;opacity:0.7;"/>
   </g>
   <g id="patch_240">
    <path clip-path="url(#pf3b0e4e9ad)" d="M 417.007413 495.9792 
L 423.786421 495.9792 
L 423.786421 495.9792 
L 417.007413 495.9792 
z
" style="fill:#2ca02c;opacity:0.7;"/>
   </g>
   <g id="patch_241">
    <path clip-path="url(#pf3b0e4e9ad)" d="M 423.786421 495.9792 
L 430.56543 495.9792 
L 430.56543 495.9792 
L 423.786421 495.9792 
z
" style="fill:#2ca02c;opacity:0.7;"/>
   </g>
   <g id="patch_242">
    <path clip-path="url(#pf3b0e4e9ad)" d="M 430.56543 495.9792 
L 437.344438 495.9792 
L 437.344438 495.9792 
L 430.56543 495.9792 
z
" style="fill:#2ca02c;opacity:0.7;"/>
   </g>
   <g id="patch_243">
    <path clip-path="url(#pf3b0e4e9ad)" d="M 437.344438 495.9792 
L 444.123446 495.9792 
L 444.123446 495.9792 
L 437.344438 495.9792 
z
" style="fill:#2ca02c;opacity:0.7;"/>
   </g>
   <g id="patch_244">
    <path clip-path="url(#pf3b0e4e9ad)" d="M 444.123446 495.9792 
L 450.902455 495.9792 
L 450.902455 495.9792 
L 444.123446 495.9792 
z
" style="fill:#2ca02c;opacity:0.7;"/>
   </g>
   <g id="patch_245">
    <path clip-path="url(#pf3b0e4e9ad)" d="M 450.902455 495.9792 
L 457.681463 495.9792 
L 457.681463 495.9792 
L 450.902455 495.9792 
z
" style="fill:#2ca02c;opacity:0.7;"/>
   </g>
   <g id="patch_246">
    <path clip-path="url(#pf3b0e4e9ad)" d="M 457.681463 495.9792 
L 464.460471 495.9792 
L 464.460471 495.9792 
L 457.681463 495.9792 
z
" style="fill:#2ca02c;opacity:0.7;"/>
   </g>
   <g id="patch_247">
    <path clip-path="url(#pf3b0e4e9ad)" d="M 464.460471 495.9792 
L 471.239479 495.9792 
L 471.239479 495.9792 
L 464.460471 495.9792 
z
" style="fill:#2ca02c;opacity:0.7;"/>
   </g>
   <g id="patch_248">
    <path clip-path="url(#pf3b0e4e9ad)" d="M 471.239479 495.9792 
L 478.018488 495.9792 
L 478.018488 495.9792 
L 471.239479 495.9792 
z
" style="fill:#2ca02c;opacity:0.7;"/>
   </g>
   <g id="patch_249">
    <path clip-path="url(#pf3b0e4e9ad)" d="M 478.018488 495.9792 
L 484.797496 495.9792 
L 484.797496 495.9792 
L 478.018488 495.9792 
z
" style="fill:#2ca02c;opacity:0.7;"/>
   </g>
   <g id="patch_250">
    <path clip-path="url(#pf3b0e4e9ad)" d="M 484.797496 495.9792 
L 491.576504 495.9792 
L 491.576504 495.9792 
L 484.797496 495.9792 
z
" style="fill:#2ca02c;opacity:0.7;"/>
   </g>
   <g id="patch_251">
    <path clip-path="url(#pf3b0e4e9ad)" d="M 491.576504 495.9792 
L 498.355512 495.9792 
L 498.355512 495.9792 
L 491.576504 495.9792 
z
" style="fill:#2ca02c;opacity:0.7;"/>
   </g>
   <g id="patch_252">
    <path clip-path="url(#pf3b0e4e9ad)" d="M 498.355512 495.9792 
L 505.134521 495.9792 
L 505.134521 495.9792 
L 498.355512 495.9792 
z
" style="fill:#2ca02c;opacity:0.7;"/>
   </g>
   <g id="patch_253">
    <path clip-path="url(#pf3b0e4e9ad)" d="M 505.134521 495.9792 
L 511.913529 495.9792 
L 511.913529 495.9792 
L 505.134521 495.9792 
z
" style="fill:#2ca02c;opacity:0.7;"/>
   </g>
   <g id="patch_254">
    <path clip-path="url(#pf3b0e4e9ad)" d="M 511.913529 495.9792 
L 518.692537 495.9792 
L 518.692537 495.9792 
L 511.913529 495.9792 
z
" style="fill:#2ca02c;opacity:0.7;"/>
   </g>
   <g id="patch_255">
    <path clip-path="url(#pf3b0e4e9ad)" d="M 518.692537 495.9792 
L 525.471545 495.9792 
L 525.471545 495.9792 
L 518.692537 495.9792 
z
" style="fill:#2ca02c;opacity:0.7;"/>
   </g>
   <g id="patch_256">
    <path clip-path="url(#pf3b0e4e9ad)" d="M 525.471545 495.9792 
L 532.250554 495.9792 
L 532.250554 495.9792 
L 525.471545 495.9792 
z
" style="fill:#2ca02c;opacity:0.7;"/>
   </g>
   <g id="patch_257">
    <path clip-path="url(#pf3b0e4e9ad)" d="M 532.250554 495.9792 
L 539.029562 495.9792 
L 539.029562 495.9792 
L 532.250554 495.9792 
z
" style="fill:#2ca02c;opacity:0.7;"/>
   </g>
   <g id="patch_258">
    <path clip-path="url(#pf3b0e4e9ad)" d="M 539.029562 495.9792 
L 545.80857 495.9792 
L 545.80857 495.9792 
L 539.029562 495.9792 
z
" style="fill:#2ca02c;opacity:0.7;"/>
   </g>
   <g id="patch_259">
    <path clip-path="url(#pf3b0e4e9ad)" d="M 545.80857 495.9792 
L 552.587579 495.9792 
L 552.587579 495.9792 
L 545.80857 495.9792 
z
" style="fill:#2ca02c;opacity:0.7;"/>
   </g>
   <g id="patch_260">
    <path clip-path="url(#pf3b0e4e9ad)" d="M 552.587579 495.9792 
L 559.366587 495.9792 
L 559.366587 495.9792 
L 552.587579 495.9792 
z
" style="fill:#2ca02c;opacity:0.7;"/>
   </g>
   <g id="patch_261">
    <path clip-path="url(#pf3b0e4e9ad)" d="M 559.366587 495.9792 
L 566.145595 495.9792 
L 566.145595 495.9792 
L 559.366587 495.9792 
z
" style="fill:#2ca02c;opacity:0.7;"/>
   </g>
   <g id="patch_262">
    <path clip-path="url(#pf3b0e4e9ad)" d="M 566.145595 495.9792 
L 572.924603 495.9792 
L 572.924603 495.9792 
L 566.145595 495.9792 
z
" style="fill:#2ca02c;opacity:0.7;"/>
   </g>
   <g id="patch_263">
    <path clip-path="url(#pf3b0e4e9ad)" d="M 572.924603 495.9792 
L 579.703612 495.9792 
L 579.703612 495.9792 
L 572.924603 495.9792 
z
" style="fill:#2ca02c;opacity:0.7;"/>
   </g>
   <g id="patch_264">
    <path clip-path="url(#pf3b0e4e9ad)" d="M 579.703612 495.9792 
L 586.48262 495.9792 
L 586.48262 495.9792 
L 579.703612 495.9792 
z
" style="fill:#2ca02c;opacity:0.7;"/>
   </g>
   <g id="patch_265">
    <path clip-path="url(#pf3b0e4e9ad)" d="M 586.48262 495.9792 
L 593.261628 495.9792 
L 593.261628 495.9792 
L 586.48262 495.9792 
z
" style="fill:#2ca02c;opacity:0.7;"/>
   </g>
   <g id="patch_266">
    <path clip-path="url(#pf3b0e4e9ad)" d="M 593.261628 495.9792 
L 600.040636 495.9792 
L 600.040636 495.9792 
L 593.261628 495.9792 
z
" style="fill:#2ca02c;opacity:0.7;"/>
   </g>
   <g id="patch_267">
    <path clip-path="url(#pf3b0e4e9ad)" d="M 600.040636 495.9792 
L 606.819645 495.9792 
L 606.819645 495.9792 
L 600.040636 495.9792 
z
" style="fill:#2ca02c;opacity:0.7;"/>
   </g>
   <g id="patch_268">
    <path clip-path="url(#pf3b0e4e9ad)" d="M 606.819645 495.9792 
L 613.598653 495.9792 
L 613.598653 495.9792 
L 606.819645 495.9792 
z
" style="fill:#2ca02c;opacity:0.7;"/>
   </g>
   <g id="patch_269">
    <path clip-path="url(#pf3b0e4e9ad)" d="M 613.598653 495.9792 
L 620.377661 495.9792 
L 620.377661 495.9792 
L 613.598653 495.9792 
z
" style="fill:#2ca02c;opacity:0.7;"/>
   </g>
   <g id="patch_270">
    <path clip-path="url(#pf3b0e4e9ad)" d="M 620.377661 495.9792 
L 627.156669 495.9792 
L 627.156669 495.9792 
L 620.377661 495.9792 
z
" style="fill:#2ca02c;opacity:0.7;"/>
   </g>
   <g id="patch_271">
    <path clip-path="url(#pf3b0e4e9ad)" d="M 627.156669 495.9792 
L 633.935678 495.9792 
L 633.935678 495.9792 
L 627.156669 495.9792 
z
" style="fill:#2ca02c;opacity:0.7;"/>
   </g>
   <g id="patch_272">
    <path clip-path="url(#pf3b0e4e9ad)" d="M 633.935678 495.9792 
L 640.714686 495.9792 
L 640.714686 495.9792 
L 633.935678 495.9792 
z
" style="fill:#2ca02c;opacity:0.7;"/>
   </g>
   <g id="patch_273">
    <path clip-path="url(#pf3b0e4e9ad)" d="M 640.714686 495.9792 
L 647.493694 495.9792 
L 647.493694 495.9792 
L 640.714686 495.9792 
z
" style="fill:#2ca02c;opacity:0.7;"/>
   </g>
   <g id="patch_274">
    <path clip-path="url(#pf3b0e4e9ad)" d="M 647.493694 495.9792 
L 654.272702 495.9792 
L 654.272702 495.9792 
L 647.493694 495.9792 
z
" style="fill:#2ca02c;opacity:0.7;"/>
   </g>
   <g id="patch_275">
    <path clip-path="url(#pf3b0e4e9ad)" d="M 654.272702 495.9792 
L 661.051711 495.9792 
L 661.051711 495.9792 
L 654.272702 495.9792 
z
" style="fill:#2ca02c;opacity:0.7;"/>
   </g>
   <g id="patch_276">
    <path clip-path="url(#pf3b0e4e9ad)" d="M 661.051711 495.9792 
L 667.830719 495.9792 
L 667.830719 495.9792 
L 661.051711 495.9792 
z
" style="fill:#2ca02c;opacity:0.7;"/>
   </g>
   <g id="patch_277">
    <path clip-path="url(#pf3b0e4e9ad)" d="M 667.830719 495.9792 
L 674.609727 495.9792 
L 674.609727 495.9792 
L 667.830719 495.9792 
z
" style="fill:#2ca02c;opacity:0.7;"/>
   </g>
   <g id="patch_278">
    <path clip-path="url(#pf3b0e4e9ad)" d="M 674.609727 495.9792 
L 681.388736 495.9792 
L 681.388736 495.9792 
L 674.609727 495.9792 
z
" style="fill:#2ca02c;opacity:0.7;"/>
   </g>
   <g id="patch_279">
    <path clip-path="url(#pf3b0e4e9ad)" d="M 681.388736 495.9792 
L 688.167744 495.9792 
L 688.167744 495.9792 
L 681.388736 495.9792 
z
" style="fill:#2ca02c;opacity:0.7;"/>
   </g>
   <g id="patch_280">
    <path clip-path="url(#pf3b0e4e9ad)" d="M 688.167744 495.9792 
L 694.946752 495.9792 
L 694.946752 495.9792 
L 688.167744 495.9792 
z
" style="fill:#2ca02c;opacity:0.7;"/>
   </g>
   <g id="patch_281">
    <path clip-path="url(#pf3b0e4e9ad)" d="M 694.946752 495.9792 
L 701.72576 495.9792 
L 701.72576 495.9792 
L 694.946752 495.9792 
z
" style="fill:#2ca02c;opacity:0.7;"/>
   </g>
   <g id="patch_282">
    <path clip-path="url(#pf3b0e4e9ad)" d="M 701.72576 495.9792 
L 708.504769 495.9792 
L 708.504769 495.9792 
L 701.72576 495.9792 
z
" style="fill:#2ca02c;opacity:0.7;"/>
   </g>
   <g id="patch_283">
    <path clip-path="url(#pf3b0e4e9ad)" d="M 708.504769 495.9792 
L 715.283777 495.9792 
L 715.283777 495.9792 
L 708.504769 495.9792 
z
" style="fill:#2ca02c;opacity:0.7;"/>
   </g>
   <g id="patch_284">
    <path clip-path="url(#pf3b0e4e9ad)" d="M 715.283777 495.9792 
L 722.062785 495.9792 
L 722.062785 495.9792 
L 715.283777 495.9792 
z
" style="fill:#2ca02c;opacity:0.7;"/>
   </g>
   <g id="patch_285">
    <path clip-path="url(#pf3b0e4e9ad)" d="M 722.062785 495.9792 
L 728.841793 495.9792 
L 728.841793 495.9792 
L 722.062785 495.9792 
z
" style="fill:#2ca02c;opacity:0.7;"/>
   </g>
   <g id="patch_286">
    <path clip-path="url(#pf3b0e4e9ad)" d="M 728.841793 495.9792 
L 735.620802 495.9792 
L 735.620802 495.9792 
L 728.841793 495.9792 
z
" style="fill:#2ca02c;opacity:0.7;"/>
   </g>
   <g id="patch_287">
    <path clip-path="url(#pf3b0e4e9ad)" d="M 735.620802 495.9792 
L 742.39981 495.9792 
L 742.39981 495.9792 
L 735.620802 495.9792 
z
" style="fill:#2ca02c;opacity:0.7;"/>
   </g>
   <g id="patch_288">
    <path clip-path="url(#pf3b0e4e9ad)" d="M 742.39981 495.9792 
L 749.178818 495.9792 
L 749.178818 495.9792 
L 742.39981 495.9792 
z
" style="fill:#2ca02c;opacity:0.7;"/>
   </g>
   <g id="patch_289">
    <path clip-path="url(#pf3b0e4e9ad)" d="M 749.178818 495.9792 
L 755.957826 495.9792 
L 755.957826 495.9792 
L 749.178818 495.9792 
z
" style="fill:#2ca02c;opacity:0.7;"/>
   </g>
   <g id="patch_290">
    <path clip-path="url(#pf3b0e4e9ad)" d="M 755.957826 495.9792 
L 762.736835 495.9792 
L 762.736835 495.9792 
L 755.957826 495.9792 
z
" style="fill:#2ca02c;opacity:0.7;"/>
   </g>
   <g id="patch_291">
    <path clip-path="url(#pf3b0e4e9ad)" d="M 762.736835 495.9792 
L 769.515843 495.9792 
L 769.515843 495.9792 
L 762.736835 495.9792 
z
" style="fill:#2ca02c;opacity:0.7;"/>
   </g>
   <g id="patch_292">
    <path clip-path="url(#pf3b0e4e9ad)" d="M 769.515843 495.9792 
L 776.294851 495.9792 
L 776.294851 495.9792 
L 769.515843 495.9792 
z
" style="fill:#2ca02c;opacity:0.7;"/>
   </g>
   <g id="patch_293">
    <path clip-path="url(#pf3b0e4e9ad)" d="M 776.294851 495.9792 
L 783.07386 495.9792 
L 783.07386 495.9792 
L 776.294851 495.9792 
z
" style="fill:#2ca02c;opacity:0.7;"/>
   </g>
   <g id="patch_294">
    <path clip-path="url(#pf3b0e4e9ad)" d="M 783.07386 495.9792 
L 789.852868 495.9792 
L 789.852868 495.9792 
L 783.07386 495.9792 
z
" style="fill:#2ca02c;opacity:0.7;"/>
   </g>
   <g id="patch_295">
    <path clip-path="url(#pf3b0e4e9ad)" d="M 789.852868 495.9792 
L 796.631876 495.9792 
L 796.631876 495.9792 
L 789.852868 495.9792 
z
" style="fill:#2ca02c;opacity:0.7;"/>
   </g>
   <g id="patch_296">
    <path clip-path="url(#pf3b0e4e9ad)" d="M 796.631876 495.9792 
L 803.410884 495.9792 
L 803.410884 495.9792 
L 796.631876 495.9792 
z
" style="fill:#2ca02c;opacity:0.7;"/>
   </g>
   <g id="patch_297">
    <path clip-path="url(#pf3b0e4e9ad)" d="M 803.410884 495.9792 
L 810.189893 495.9792 
L 810.189893 495.9792 
L 803.410884 495.9792 
z
" style="fill:#2ca02c;opacity:0.7;"/>
   </g>
   <g id="patch_298">
    <path clip-path="url(#pf3b0e4e9ad)" d="M 810.189893 495.9792 
L 816.968901 495.9792 
L 816.968901 495.9792 
L 810.189893 495.9792 
z
" style="fill:#2ca02c;opacity:0.7;"/>
   </g>
   <g id="patch_299">
    <path clip-path="url(#pf3b0e4e9ad)" d="M 816.968901 495.9792 
L 823.747909 495.9792 
L 823.747909 495.9792 
L 816.968901 495.9792 
z
" style="fill:#2ca02c;opacity:0.7;"/>
   </g>
   <g id="matplotlib.axis_1">
    <g id="xtick_1">
     <g id="line2d_1">
      <defs>
       <path d="M 0 0 
L 0 3.5 
" id="m7a01935c42" style="stroke:#000000;stroke-width:0.8;"/>
      </defs>
      <g>
       <use style="stroke:#000000;stroke-width:0.8;" x="152.626091" xlink:href="#m7a01935c42" y="495.9792"/>
      </g>
     </g>
     <g id="text_1">
      <!-- 40 -->
      <defs>
       <path d="M 37.796875 64.3125 
L 12.890625 25.390625 
L 37.796875 25.390625 
z
M 35.203125 72.90625 
L 47.609375 72.90625 
L 47.609375 25.390625 
L 58.015625 25.390625 
L 58.015625 17.1875 
L 47.609375 17.1875 
L 47.609375 0 
L 37.796875 0 
L 37.796875 17.1875 
L 4.890625 17.1875 
L 4.890625 26.703125 
z
" id="DejaVuSans-52"/>
       <path d="M 31.78125 66.40625 
Q 24.171875 66.40625 20.328125 58.90625 
Q 16.5 51.421875 16.5 36.375 
Q 16.5 21.390625 20.328125 13.890625 
Q 24.171875 6.390625 31.78125 6.390625 
Q 39.453125 6.390625 43.28125 13.890625 
Q 47.125 21.390625 47.125 36.375 
Q 47.125 51.421875 43.28125 58.90625 
Q 39.453125 66.40625 31.78125 66.40625 
z
M 31.78125 74.21875 
Q 44.046875 74.21875 50.515625 64.515625 
Q 56.984375 54.828125 56.984375 36.375 
Q 56.984375 17.96875 50.515625 8.265625 
Q 44.046875 -1.421875 31.78125 -1.421875 
Q 19.53125 -1.421875 13.0625 8.265625 
Q 6.59375 17.96875 6.59375 36.375 
Q 6.59375 54.828125 13.0625 64.515625 
Q 19.53125 74.21875 31.78125 74.21875 
z
" id="DejaVuSans-48"/>
      </defs>
      <g transform="translate(136.719841 521.975294)scale(0.25 -0.25)">
       <use xlink:href="#DejaVuSans-52"/>
       <use x="63.623047" xlink:href="#DejaVuSans-48"/>
      </g>
     </g>
    </g>
    <g id="xtick_2">
     <g id="line2d_2">
      <g>
       <use style="stroke:#000000;stroke-width:0.8;" x="248.500636" xlink:href="#m7a01935c42" y="495.9792"/>
      </g>
     </g>
     <g id="text_2">
      <!-- 50 -->
      <defs>
       <path d="M 10.796875 72.90625 
L 49.515625 72.90625 
L 49.515625 64.59375 
L 19.828125 64.59375 
L 19.828125 46.734375 
Q 21.96875 47.46875 24.109375 47.828125 
Q 26.265625 48.1875 28.421875 48.1875 
Q 40.625 48.1875 47.75 41.5 
Q 54.890625 34.8125 54.890625 23.390625 
Q 54.890625 11.625 47.5625 5.09375 
Q 40.234375 -1.421875 26.90625 -1.421875 
Q 22.3125 -1.421875 17.546875 -0.640625 
Q 12.796875 0.140625 7.71875 1.703125 
L 7.71875 11.625 
Q 12.109375 9.234375 16.796875 8.0625 
Q 21.484375 6.890625 26.703125 6.890625 
Q 35.15625 6.890625 40.078125 11.328125 
Q 45.015625 15.765625 45.015625 23.390625 
Q 45.015625 31 40.078125 35.4375 
Q 35.15625 39.890625 26.703125 39.890625 
Q 22.75 39.890625 18.8125 39.015625 
Q 14.890625 38.140625 10.796875 36.28125 
z
" id="DejaVuSans-53"/>
      </defs>
      <g transform="translate(232.594386 521.975294)scale(0.25 -0.25)">
       <use xlink:href="#DejaVuSans-53"/>
       <use x="63.623047" xlink:href="#DejaVuSans-48"/>
      </g>
     </g>
    </g>
    <g id="xtick_3">
     <g id="line2d_3">
      <g>
       <use style="stroke:#000000;stroke-width:0.8;" x="344.375182" xlink:href="#m7a01935c42" y="495.9792"/>
      </g>
     </g>
     <g id="text_3">
      <!-- 60 -->
      <defs>
       <path d="M 33.015625 40.375 
Q 26.375 40.375 22.484375 35.828125 
Q 18.609375 31.296875 18.609375 23.390625 
Q 18.609375 15.53125 22.484375 10.953125 
Q 26.375 6.390625 33.015625 6.390625 
Q 39.65625 6.390625 43.53125 10.953125 
Q 47.40625 15.53125 47.40625 23.390625 
Q 47.40625 31.296875 43.53125 35.828125 
Q 39.65625 40.375 33.015625 40.375 
z
M 52.59375 71.296875 
L 52.59375 62.3125 
Q 48.875 64.0625 45.09375 64.984375 
Q 41.3125 65.921875 37.59375 65.921875 
Q 27.828125 65.921875 22.671875 59.328125 
Q 17.53125 52.734375 16.796875 39.40625 
Q 19.671875 43.65625 24.015625 45.921875 
Q 28.375 48.1875 33.59375 48.1875 
Q 44.578125 48.1875 50.953125 41.515625 
Q 57.328125 34.859375 57.328125 23.390625 
Q 57.328125 12.15625 50.6875 5.359375 
Q 44.046875 -1.421875 33.015625 -1.421875 
Q 20.359375 -1.421875 13.671875 8.265625 
Q 6.984375 17.96875 6.984375 36.375 
Q 6.984375 53.65625 15.1875 63.9375 
Q 23.390625 74.21875 37.203125 74.21875 
Q 40.921875 74.21875 44.703125 73.484375 
Q 48.484375 72.75 52.59375 71.296875 
z
" id="DejaVuSans-54"/>
      </defs>
      <g transform="translate(328.468932 521.975294)scale(0.25 -0.25)">
       <use xlink:href="#DejaVuSans-54"/>
       <use x="63.623047" xlink:href="#DejaVuSans-48"/>
      </g>
     </g>
    </g>
    <g id="xtick_4">
     <g id="line2d_4">
      <g>
       <use style="stroke:#000000;stroke-width:0.8;" x="440.249727" xlink:href="#m7a01935c42" y="495.9792"/>
      </g>
     </g>
     <g id="text_4">
      <!-- 70 -->
      <defs>
       <path d="M 8.203125 72.90625 
L 55.078125 72.90625 
L 55.078125 68.703125 
L 28.609375 0 
L 18.3125 0 
L 43.21875 64.59375 
L 8.203125 64.59375 
z
" id="DejaVuSans-55"/>
      </defs>
      <g transform="translate(424.343477 521.975294)scale(0.25 -0.25)">
       <use xlink:href="#DejaVuSans-55"/>
       <use x="63.623047" xlink:href="#DejaVuSans-48"/>
      </g>
     </g>
    </g>
    <g id="xtick_5">
     <g id="line2d_5">
      <g>
       <use style="stroke:#000000;stroke-width:0.8;" x="536.124273" xlink:href="#m7a01935c42" y="495.9792"/>
      </g>
     </g>
     <g id="text_5">
      <!-- 80 -->
      <defs>
       <path d="M 31.78125 34.625 
Q 24.75 34.625 20.71875 30.859375 
Q 16.703125 27.09375 16.703125 20.515625 
Q 16.703125 13.921875 20.71875 10.15625 
Q 24.75 6.390625 31.78125 6.390625 
Q 38.8125 6.390625 42.859375 10.171875 
Q 46.921875 13.96875 46.921875 20.515625 
Q 46.921875 27.09375 42.890625 30.859375 
Q 38.875 34.625 31.78125 34.625 
z
M 21.921875 38.8125 
Q 15.578125 40.375 12.03125 44.71875 
Q 8.5 49.078125 8.5 55.328125 
Q 8.5 64.0625 14.71875 69.140625 
Q 20.953125 74.21875 31.78125 74.21875 
Q 42.671875 74.21875 48.875 69.140625 
Q 55.078125 64.0625 55.078125 55.328125 
Q 55.078125 49.078125 51.53125 44.71875 
Q 48 40.375 41.703125 38.8125 
Q 48.828125 37.15625 52.796875 32.3125 
Q 56.78125 27.484375 56.78125 20.515625 
Q 56.78125 9.90625 50.3125 4.234375 
Q 43.84375 -1.421875 31.78125 -1.421875 
Q 19.734375 -1.421875 13.25 4.234375 
Q 6.78125 9.90625 6.78125 20.515625 
Q 6.78125 27.484375 10.78125 32.3125 
Q 14.796875 37.15625 21.921875 38.8125 
z
M 18.3125 54.390625 
Q 18.3125 48.734375 21.84375 45.5625 
Q 25.390625 42.390625 31.78125 42.390625 
Q 38.140625 42.390625 41.71875 45.5625 
Q 45.3125 48.734375 45.3125 54.390625 
Q 45.3125 60.0625 41.71875 63.234375 
Q 38.140625 66.40625 31.78125 66.40625 
Q 25.390625 66.40625 21.84375 63.234375 
Q 18.3125 60.0625 18.3125 54.390625 
z
" id="DejaVuSans-56"/>
      </defs>
      <g transform="translate(520.218023 521.975294)scale(0.25 -0.25)">
       <use xlink:href="#DejaVuSans-56"/>
       <use x="63.623047" xlink:href="#DejaVuSans-48"/>
      </g>
     </g>
    </g>
    <g id="xtick_6">
     <g id="line2d_6">
      <g>
       <use style="stroke:#000000;stroke-width:0.8;" x="631.998818" xlink:href="#m7a01935c42" y="495.9792"/>
      </g>
     </g>
     <g id="text_6">
      <!-- 90 -->
      <defs>
       <path d="M 10.984375 1.515625 
L 10.984375 10.5 
Q 14.703125 8.734375 18.5 7.8125 
Q 22.3125 6.890625 25.984375 6.890625 
Q 35.75 6.890625 40.890625 13.453125 
Q 46.046875 20.015625 46.78125 33.40625 
Q 43.953125 29.203125 39.59375 26.953125 
Q 35.25 24.703125 29.984375 24.703125 
Q 19.046875 24.703125 12.671875 31.3125 
Q 6.296875 37.9375 6.296875 49.421875 
Q 6.296875 60.640625 12.9375 67.421875 
Q 19.578125 74.21875 30.609375 74.21875 
Q 43.265625 74.21875 49.921875 64.515625 
Q 56.59375 54.828125 56.59375 36.375 
Q 56.59375 19.140625 48.40625 8.859375 
Q 40.234375 -1.421875 26.421875 -1.421875 
Q 22.703125 -1.421875 18.890625 -0.6875 
Q 15.09375 0.046875 10.984375 1.515625 
z
M 30.609375 32.421875 
Q 37.25 32.421875 41.125 36.953125 
Q 45.015625 41.5 45.015625 49.421875 
Q 45.015625 57.28125 41.125 61.84375 
Q 37.25 66.40625 30.609375 66.40625 
Q 23.96875 66.40625 20.09375 61.84375 
Q 16.21875 57.28125 16.21875 49.421875 
Q 16.21875 41.5 20.09375 36.953125 
Q 23.96875 32.421875 30.609375 32.421875 
z
" id="DejaVuSans-57"/>
      </defs>
      <g transform="translate(616.092568 521.975294)scale(0.25 -0.25)">
       <use xlink:href="#DejaVuSans-57"/>
       <use x="63.623047" xlink:href="#DejaVuSans-48"/>
      </g>
     </g>
    </g>
    <g id="xtick_7">
     <g id="line2d_7">
      <g>
       <use style="stroke:#000000;stroke-width:0.8;" x="727.873364" xlink:href="#m7a01935c42" y="495.9792"/>
      </g>
     </g>
     <g id="text_7">
      <!-- 100 -->
      <defs>
       <path d="M 12.40625 8.296875 
L 28.515625 8.296875 
L 28.515625 63.921875 
L 10.984375 60.40625 
L 10.984375 69.390625 
L 28.421875 72.90625 
L 38.28125 72.90625 
L 38.28125 8.296875 
L 54.390625 8.296875 
L 54.390625 0 
L 12.40625 0 
z
" id="DejaVuSans-49"/>
      </defs>
      <g transform="translate(704.013989 521.975294)scale(0.25 -0.25)">
       <use xlink:href="#DejaVuSans-49"/>
       <use x="63.623047" xlink:href="#DejaVuSans-48"/>
       <use x="127.246094" xlink:href="#DejaVuSans-48"/>
      </g>
     </g>
    </g>
    <g id="xtick_8">
     <g id="line2d_8">
      <g>
       <use style="stroke:#000000;stroke-width:0.8;" x="823.747909" xlink:href="#m7a01935c42" y="495.9792"/>
      </g>
     </g>
     <g id="text_8">
      <!-- 110 -->
      <g transform="translate(799.888534 521.975294)scale(0.25 -0.25)">
       <use xlink:href="#DejaVuSans-49"/>
       <use x="63.623047" xlink:href="#DejaVuSans-49"/>
       <use x="127.246094" xlink:href="#DejaVuSans-48"/>
      </g>
     </g>
    </g>
    <g id="text_9">
     <!-- Loss -->
     <defs>
      <path d="M 9.8125 72.90625 
L 19.671875 72.90625 
L 19.671875 8.296875 
L 55.171875 8.296875 
L 55.171875 0 
L 9.8125 0 
z
" id="DejaVuSans-76"/>
      <path d="M 30.609375 48.390625 
Q 23.390625 48.390625 19.1875 42.75 
Q 14.984375 37.109375 14.984375 27.296875 
Q 14.984375 17.484375 19.15625 11.84375 
Q 23.34375 6.203125 30.609375 6.203125 
Q 37.796875 6.203125 41.984375 11.859375 
Q 46.1875 17.53125 46.1875 27.296875 
Q 46.1875 37.015625 41.984375 42.703125 
Q 37.796875 48.390625 30.609375 48.390625 
z
M 30.609375 56 
Q 42.328125 56 49.015625 48.375 
Q 55.71875 40.765625 55.71875 27.296875 
Q 55.71875 13.875 49.015625 6.21875 
Q 42.328125 -1.421875 30.609375 -1.421875 
Q 18.84375 -1.421875 12.171875 6.21875 
Q 5.515625 13.875 5.515625 27.296875 
Q 5.515625 40.765625 12.171875 48.375 
Q 18.84375 56 30.609375 56 
z
" id="DejaVuSans-111"/>
      <path d="M 44.28125 53.078125 
L 44.28125 44.578125 
Q 40.484375 46.53125 36.375 47.5 
Q 32.28125 48.484375 27.875 48.484375 
Q 21.1875 48.484375 17.84375 46.4375 
Q 14.5 44.390625 14.5 40.28125 
Q 14.5 37.15625 16.890625 35.375 
Q 19.28125 33.59375 26.515625 31.984375 
L 29.59375 31.296875 
Q 39.15625 29.25 43.1875 25.515625 
Q 47.21875 21.78125 47.21875 15.09375 
Q 47.21875 7.46875 41.1875 3.015625 
Q 35.15625 -1.421875 24.609375 -1.421875 
Q 20.21875 -1.421875 15.453125 -0.5625 
Q 10.6875 0.296875 5.421875 2 
L 5.421875 11.28125 
Q 10.40625 8.6875 15.234375 7.390625 
Q 20.0625 6.109375 24.8125 6.109375 
Q 31.15625 6.109375 34.5625 8.28125 
Q 37.984375 10.453125 37.984375 14.40625 
Q 37.984375 18.0625 35.515625 20.015625 
Q 33.0625 21.96875 24.703125 23.78125 
L 21.578125 24.515625 
Q 13.234375 26.265625 9.515625 29.90625 
Q 5.8125 33.546875 5.8125 39.890625 
Q 5.8125 47.609375 11.28125 51.796875 
Q 16.75 56 26.8125 56 
Q 31.78125 56 36.171875 55.265625 
Q 40.578125 54.546875 44.28125 53.078125 
z
" id="DejaVuSans-115"/>
     </defs>
     <g transform="translate(460.552234 550.170606)scale(0.25 -0.25)">
      <use xlink:href="#DejaVuSans-76"/>
      <use x="55.697266" xlink:href="#DejaVuSans-111"/>
      <use x="116.878906" xlink:href="#DejaVuSans-115"/>
      <use x="168.978516" xlink:href="#DejaVuSans-115"/>
     </g>
    </g>
   </g>
   <g id="matplotlib.axis_2">
    <g id="ytick_1">
     <g id="line2d_9">
      <defs>
       <path d="M 0 0 
L -3.5 0 
" id="m3a2a9dba08" style="stroke:#000000;stroke-width:0.8;"/>
      </defs>
      <g>
       <use style="stroke:#000000;stroke-width:0.8;" x="119.07" xlink:href="#m3a2a9dba08" y="495.9792"/>
      </g>
     </g>
     <g id="text_10">
      <!-- 0 -->
      <g transform="translate(96.16375 505.477247)scale(0.25 -0.25)">
       <use xlink:href="#DejaVuSans-48"/>
      </g>
     </g>
    </g>
    <g id="ytick_2">
     <g id="line2d_10">
      <g>
       <use style="stroke:#000000;stroke-width:0.8;" x="119.07" xlink:href="#m3a2a9dba08" y="414.2448"/>
      </g>
     </g>
     <g id="text_11">
      <!-- 5 -->
      <g transform="translate(96.16375 423.742847)scale(0.25 -0.25)">
       <use xlink:href="#DejaVuSans-53"/>
      </g>
     </g>
    </g>
    <g id="ytick_3">
     <g id="line2d_11">
      <g>
       <use style="stroke:#000000;stroke-width:0.8;" x="119.07" xlink:href="#m3a2a9dba08" y="332.5104"/>
      </g>
     </g>
     <g id="text_12">
      <!-- 10 -->
      <g transform="translate(80.2575 342.008447)scale(0.25 -0.25)">
       <use xlink:href="#DejaVuSans-49"/>
       <use x="63.623047" xlink:href="#DejaVuSans-48"/>
      </g>
     </g>
    </g>
    <g id="ytick_4">
     <g id="line2d_12">
      <g>
       <use style="stroke:#000000;stroke-width:0.8;" x="119.07" xlink:href="#m3a2a9dba08" y="250.776"/>
      </g>
     </g>
     <g id="text_13">
      <!-- 15 -->
      <g transform="translate(80.2575 260.274047)scale(0.25 -0.25)">
       <use xlink:href="#DejaVuSans-49"/>
       <use x="63.623047" xlink:href="#DejaVuSans-53"/>
      </g>
     </g>
    </g>
    <g id="ytick_5">
     <g id="line2d_13">
      <g>
       <use style="stroke:#000000;stroke-width:0.8;" x="119.07" xlink:href="#m3a2a9dba08" y="169.0416"/>
      </g>
     </g>
     <g id="text_14">
      <!-- 20 -->
      <defs>
       <path d="M 19.1875 8.296875 
L 53.609375 8.296875 
L 53.609375 0 
L 7.328125 0 
L 7.328125 8.296875 
Q 12.9375 14.109375 22.625 23.890625 
Q 32.328125 33.6875 34.8125 36.53125 
Q 39.546875 41.84375 41.421875 45.53125 
Q 43.3125 49.21875 43.3125 52.78125 
Q 43.3125 58.59375 39.234375 62.25 
Q 35.15625 65.921875 28.609375 65.921875 
Q 23.96875 65.921875 18.8125 64.3125 
Q 13.671875 62.703125 7.8125 59.421875 
L 7.8125 69.390625 
Q 13.765625 71.78125 18.9375 73 
Q 24.125 74.21875 28.421875 74.21875 
Q 39.75 74.21875 46.484375 68.546875 
Q 53.21875 62.890625 53.21875 53.421875 
Q 53.21875 48.921875 51.53125 44.890625 
Q 49.859375 40.875 45.40625 35.40625 
Q 44.1875 33.984375 37.640625 27.21875 
Q 31.109375 20.453125 19.1875 8.296875 
z
" id="DejaVuSans-50"/>
      </defs>
      <g transform="translate(80.2575 178.539647)scale(0.25 -0.25)">
       <use xlink:href="#DejaVuSans-50"/>
       <use x="63.623047" xlink:href="#DejaVuSans-48"/>
      </g>
     </g>
    </g>
    <g id="ytick_6">
     <g id="line2d_14">
      <g>
       <use style="stroke:#000000;stroke-width:0.8;" x="119.07" xlink:href="#m3a2a9dba08" y="87.3072"/>
      </g>
     </g>
     <g id="text_15">
      <!-- 25 -->
      <g transform="translate(80.2575 96.805247)scale(0.25 -0.25)">
       <use xlink:href="#DejaVuSans-50"/>
       <use x="63.623047" xlink:href="#DejaVuSans-53"/>
      </g>
     </g>
    </g>
   </g>
   <g id="patch_300">
    <path d="M 119.07 495.9792 
L 119.07 66.8736 
" style="fill:none;stroke:#000000;stroke-linecap:square;stroke-linejoin:miter;stroke-width:0.8;"/>
   </g>
   <g id="patch_301">
    <path d="M 857.304 495.9792 
L 857.304 66.8736 
" style="fill:none;stroke:#000000;stroke-linecap:square;stroke-linejoin:miter;stroke-width:0.8;"/>
   </g>
   <g id="patch_302">
    <path d="M 119.07 495.9792 
L 857.304 495.9792 
" style="fill:none;stroke:#000000;stroke-linecap:square;stroke-linejoin:miter;stroke-width:0.8;"/>
   </g>
   <g id="patch_303">
    <path d="M 119.07 66.8736 
L 857.304 66.8736 
" style="fill:none;stroke:#000000;stroke-linecap:square;stroke-linejoin:miter;stroke-width:0.8;"/>
   </g>
   <g id="legend_1">
    <g id="patch_304">
     <path d="M 429.065719 196.959538 
L 839.804 196.959538 
Q 844.804 196.959538 844.804 191.959538 
L 844.804 84.3736 
Q 844.804 79.3736 839.804 79.3736 
L 429.065719 79.3736 
Q 424.065719 79.3736 424.065719 84.3736 
L 424.065719 191.959538 
Q 424.065719 196.959538 429.065719 196.959538 
z
" style="fill:#ffffff;opacity:0.8;stroke:#cccccc;stroke-linejoin:miter;"/>
    </g>
    <g id="patch_305">
     <path d="M 434.065719 108.369694 
L 484.065719 108.369694 
L 484.065719 90.869694 
L 434.065719 90.869694 
z
" style="fill:#1f77b4;opacity:0.7;"/>
    </g>
    <g id="text_16">
     <!-- Testing with Same Size -->
     <defs>
      <path d="M -0.296875 72.90625 
L 61.375 72.90625 
L 61.375 64.59375 
L 35.5 64.59375 
L 35.5 0 
L 25.59375 0 
L 25.59375 64.59375 
L -0.296875 64.59375 
z
" id="DejaVuSans-84"/>
      <path d="M 56.203125 29.59375 
L 56.203125 25.203125 
L 14.890625 25.203125 
Q 15.484375 15.921875 20.484375 11.0625 
Q 25.484375 6.203125 34.421875 6.203125 
Q 39.59375 6.203125 44.453125 7.46875 
Q 49.3125 8.734375 54.109375 11.28125 
L 54.109375 2.78125 
Q 49.265625 0.734375 44.1875 -0.34375 
Q 39.109375 -1.421875 33.890625 -1.421875 
Q 20.796875 -1.421875 13.15625 6.1875 
Q 5.515625 13.8125 5.515625 26.8125 
Q 5.515625 40.234375 12.765625 48.109375 
Q 20.015625 56 32.328125 56 
Q 43.359375 56 49.78125 48.890625 
Q 56.203125 41.796875 56.203125 29.59375 
z
M 47.21875 32.234375 
Q 47.125 39.59375 43.09375 43.984375 
Q 39.0625 48.390625 32.421875 48.390625 
Q 24.90625 48.390625 20.390625 44.140625 
Q 15.875 39.890625 15.1875 32.171875 
z
" id="DejaVuSans-101"/>
      <path d="M 18.3125 70.21875 
L 18.3125 54.6875 
L 36.8125 54.6875 
L 36.8125 47.703125 
L 18.3125 47.703125 
L 18.3125 18.015625 
Q 18.3125 11.328125 20.140625 9.421875 
Q 21.96875 7.515625 27.59375 7.515625 
L 36.8125 7.515625 
L 36.8125 0 
L 27.59375 0 
Q 17.1875 0 13.234375 3.875 
Q 9.28125 7.765625 9.28125 18.015625 
L 9.28125 47.703125 
L 2.6875 47.703125 
L 2.6875 54.6875 
L 9.28125 54.6875 
L 9.28125 70.21875 
z
" id="DejaVuSans-116"/>
      <path d="M 9.421875 54.6875 
L 18.40625 54.6875 
L 18.40625 0 
L 9.421875 0 
z
M 9.421875 75.984375 
L 18.40625 75.984375 
L 18.40625 64.59375 
L 9.421875 64.59375 
z
" id="DejaVuSans-105"/>
      <path d="M 54.890625 33.015625 
L 54.890625 0 
L 45.90625 0 
L 45.90625 32.71875 
Q 45.90625 40.484375 42.875 44.328125 
Q 39.84375 48.1875 33.796875 48.1875 
Q 26.515625 48.1875 22.3125 43.546875 
Q 18.109375 38.921875 18.109375 30.90625 
L 18.109375 0 
L 9.078125 0 
L 9.078125 54.6875 
L 18.109375 54.6875 
L 18.109375 46.1875 
Q 21.34375 51.125 25.703125 53.5625 
Q 30.078125 56 35.796875 56 
Q 45.21875 56 50.046875 50.171875 
Q 54.890625 44.34375 54.890625 33.015625 
z
" id="DejaVuSans-110"/>
      <path d="M 45.40625 27.984375 
Q 45.40625 37.75 41.375 43.109375 
Q 37.359375 48.484375 30.078125 48.484375 
Q 22.859375 48.484375 18.828125 43.109375 
Q 14.796875 37.75 14.796875 27.984375 
Q 14.796875 18.265625 18.828125 12.890625 
Q 22.859375 7.515625 30.078125 7.515625 
Q 37.359375 7.515625 41.375 12.890625 
Q 45.40625 18.265625 45.40625 27.984375 
z
M 54.390625 6.78125 
Q 54.390625 -7.171875 48.1875 -13.984375 
Q 42 -20.796875 29.203125 -20.796875 
Q 24.46875 -20.796875 20.265625 -20.09375 
Q 16.0625 -19.390625 12.109375 -17.921875 
L 12.109375 -9.1875 
Q 16.0625 -11.328125 19.921875 -12.34375 
Q 23.78125 -13.375 27.78125 -13.375 
Q 36.625 -13.375 41.015625 -8.765625 
Q 45.40625 -4.15625 45.40625 5.171875 
L 45.40625 9.625 
Q 42.625 4.78125 38.28125 2.390625 
Q 33.9375 0 27.875 0 
Q 17.828125 0 11.671875 7.65625 
Q 5.515625 15.328125 5.515625 27.984375 
Q 5.515625 40.671875 11.671875 48.328125 
Q 17.828125 56 27.875 56 
Q 33.9375 56 38.28125 53.609375 
Q 42.625 51.21875 45.40625 46.390625 
L 45.40625 54.6875 
L 54.390625 54.6875 
z
" id="DejaVuSans-103"/>
      <path id="DejaVuSans-32"/>
      <path d="M 4.203125 54.6875 
L 13.1875 54.6875 
L 24.421875 12.015625 
L 35.59375 54.6875 
L 46.1875 54.6875 
L 57.421875 12.015625 
L 68.609375 54.6875 
L 77.59375 54.6875 
L 63.28125 0 
L 52.6875 0 
L 40.921875 44.828125 
L 29.109375 0 
L 18.5 0 
z
" id="DejaVuSans-119"/>
      <path d="M 54.890625 33.015625 
L 54.890625 0 
L 45.90625 0 
L 45.90625 32.71875 
Q 45.90625 40.484375 42.875 44.328125 
Q 39.84375 48.1875 33.796875 48.1875 
Q 26.515625 48.1875 22.3125 43.546875 
Q 18.109375 38.921875 18.109375 30.90625 
L 18.109375 0 
L 9.078125 0 
L 9.078125 75.984375 
L 18.109375 75.984375 
L 18.109375 46.1875 
Q 21.34375 51.125 25.703125 53.5625 
Q 30.078125 56 35.796875 56 
Q 45.21875 56 50.046875 50.171875 
Q 54.890625 44.34375 54.890625 33.015625 
z
" id="DejaVuSans-104"/>
      <path d="M 53.515625 70.515625 
L 53.515625 60.890625 
Q 47.90625 63.578125 42.921875 64.890625 
Q 37.9375 66.21875 33.296875 66.21875 
Q 25.25 66.21875 20.875 63.09375 
Q 16.5 59.96875 16.5 54.203125 
Q 16.5 49.359375 19.40625 46.890625 
Q 22.3125 44.4375 30.421875 42.921875 
L 36.375 41.703125 
Q 47.40625 39.59375 52.65625 34.296875 
Q 57.90625 29 57.90625 20.125 
Q 57.90625 9.515625 50.796875 4.046875 
Q 43.703125 -1.421875 29.984375 -1.421875 
Q 24.8125 -1.421875 18.96875 -0.25 
Q 13.140625 0.921875 6.890625 3.21875 
L 6.890625 13.375 
Q 12.890625 10.015625 18.65625 8.296875 
Q 24.421875 6.59375 29.984375 6.59375 
Q 38.421875 6.59375 43.015625 9.90625 
Q 47.609375 13.234375 47.609375 19.390625 
Q 47.609375 24.75 44.3125 27.78125 
Q 41.015625 30.8125 33.5 32.328125 
L 27.484375 33.5 
Q 16.453125 35.6875 11.515625 40.375 
Q 6.59375 45.0625 6.59375 53.421875 
Q 6.59375 63.09375 13.40625 68.65625 
Q 20.21875 74.21875 32.171875 74.21875 
Q 37.3125 74.21875 42.625 73.28125 
Q 47.953125 72.359375 53.515625 70.515625 
z
" id="DejaVuSans-83"/>
      <path d="M 34.28125 27.484375 
Q 23.390625 27.484375 19.1875 25 
Q 14.984375 22.515625 14.984375 16.5 
Q 14.984375 11.71875 18.140625 8.90625 
Q 21.296875 6.109375 26.703125 6.109375 
Q 34.1875 6.109375 38.703125 11.40625 
Q 43.21875 16.703125 43.21875 25.484375 
L 43.21875 27.484375 
z
M 52.203125 31.203125 
L 52.203125 0 
L 43.21875 0 
L 43.21875 8.296875 
Q 40.140625 3.328125 35.546875 0.953125 
Q 30.953125 -1.421875 24.3125 -1.421875 
Q 15.921875 -1.421875 10.953125 3.296875 
Q 6 8.015625 6 15.921875 
Q 6 25.140625 12.171875 29.828125 
Q 18.359375 34.515625 30.609375 34.515625 
L 43.21875 34.515625 
L 43.21875 35.40625 
Q 43.21875 41.609375 39.140625 45 
Q 35.0625 48.390625 27.6875 48.390625 
Q 23 48.390625 18.546875 47.265625 
Q 14.109375 46.140625 10.015625 43.890625 
L 10.015625 52.203125 
Q 14.9375 54.109375 19.578125 55.046875 
Q 24.21875 56 28.609375 56 
Q 40.484375 56 46.34375 49.84375 
Q 52.203125 43.703125 52.203125 31.203125 
z
" id="DejaVuSans-97"/>
      <path d="M 52 44.1875 
Q 55.375 50.25 60.0625 53.125 
Q 64.75 56 71.09375 56 
Q 79.640625 56 84.28125 50.015625 
Q 88.921875 44.046875 88.921875 33.015625 
L 88.921875 0 
L 79.890625 0 
L 79.890625 32.71875 
Q 79.890625 40.578125 77.09375 44.375 
Q 74.3125 48.1875 68.609375 48.1875 
Q 61.625 48.1875 57.5625 43.546875 
Q 53.515625 38.921875 53.515625 30.90625 
L 53.515625 0 
L 44.484375 0 
L 44.484375 32.71875 
Q 44.484375 40.625 41.703125 44.40625 
Q 38.921875 48.1875 33.109375 48.1875 
Q 26.21875 48.1875 22.15625 43.53125 
Q 18.109375 38.875 18.109375 30.90625 
L 18.109375 0 
L 9.078125 0 
L 9.078125 54.6875 
L 18.109375 54.6875 
L 18.109375 46.1875 
Q 21.1875 51.21875 25.484375 53.609375 
Q 29.78125 56 35.6875 56 
Q 41.65625 56 45.828125 52.96875 
Q 50 49.953125 52 44.1875 
z
" id="DejaVuSans-109"/>
      <path d="M 5.515625 54.6875 
L 48.1875 54.6875 
L 48.1875 46.484375 
L 14.40625 7.171875 
L 48.1875 7.171875 
L 48.1875 0 
L 4.296875 0 
L 4.296875 8.203125 
L 38.09375 47.515625 
L 5.515625 47.515625 
z
" id="DejaVuSans-122"/>
     </defs>
     <g transform="translate(504.065719 108.369694)scale(0.25 -0.25)">
      <use xlink:href="#DejaVuSans-84"/>
      <use x="60.818359" xlink:href="#DejaVuSans-101"/>
      <use x="122.341797" xlink:href="#DejaVuSans-115"/>
      <use x="174.441406" xlink:href="#DejaVuSans-116"/>
      <use x="213.650391" xlink:href="#DejaVuSans-105"/>
      <use x="241.433594" xlink:href="#DejaVuSans-110"/>
      <use x="304.8125" xlink:href="#DejaVuSans-103"/>
      <use x="368.289062" xlink:href="#DejaVuSans-32"/>
      <use x="400.076172" xlink:href="#DejaVuSans-119"/>
      <use x="481.863281" xlink:href="#DejaVuSans-105"/>
      <use x="509.646484" xlink:href="#DejaVuSans-116"/>
      <use x="548.855469" xlink:href="#DejaVuSans-104"/>
      <use x="612.234375" xlink:href="#DejaVuSans-32"/>
      <use x="644.021484" xlink:href="#DejaVuSans-83"/>
      <use x="707.498047" xlink:href="#DejaVuSans-97"/>
      <use x="768.777344" xlink:href="#DejaVuSans-109"/>
      <use x="866.189453" xlink:href="#DejaVuSans-101"/>
      <use x="927.712891" xlink:href="#DejaVuSans-32"/>
      <use x="959.5" xlink:href="#DejaVuSans-83"/>
      <use x="1022.976562" xlink:href="#DejaVuSans-105"/>
      <use x="1050.759766" xlink:href="#DejaVuSans-122"/>
      <use x="1103.25" xlink:href="#DejaVuSans-101"/>
     </g>
    </g>
    <g id="patch_306">
     <path d="M 434.065719 145.065006 
L 484.065719 145.065006 
L 484.065719 127.565006 
L 434.065719 127.565006 
z
" style="fill:#ff7f0e;opacity:0.7;"/>
    </g>
    <g id="text_17">
     <!-- Training -->
     <defs>
      <path d="M 41.109375 46.296875 
Q 39.59375 47.171875 37.8125 47.578125 
Q 36.03125 48 33.890625 48 
Q 26.265625 48 22.1875 43.046875 
Q 18.109375 38.09375 18.109375 28.8125 
L 18.109375 0 
L 9.078125 0 
L 9.078125 54.6875 
L 18.109375 54.6875 
L 18.109375 46.1875 
Q 20.953125 51.171875 25.484375 53.578125 
Q 30.03125 56 36.53125 56 
Q 37.453125 56 38.578125 55.875 
Q 39.703125 55.765625 41.0625 55.515625 
z
" id="DejaVuSans-114"/>
     </defs>
     <g transform="translate(504.065719 145.065006)scale(0.25 -0.25)">
      <use xlink:href="#DejaVuSans-84"/>
      <use x="60.865234" xlink:href="#DejaVuSans-114"/>
      <use x="101.978516" xlink:href="#DejaVuSans-97"/>
      <use x="163.257812" xlink:href="#DejaVuSans-105"/>
      <use x="191.041016" xlink:href="#DejaVuSans-110"/>
      <use x="254.419922" xlink:href="#DejaVuSans-105"/>
      <use x="282.203125" xlink:href="#DejaVuSans-110"/>
      <use x="345.582031" xlink:href="#DejaVuSans-103"/>
     </g>
    </g>
    <g id="patch_307">
     <path d="M 434.065719 181.760319 
L 484.065719 181.760319 
L 484.065719 164.260319 
L 434.065719 164.260319 
z
" style="fill:#2ca02c;opacity:0.7;"/>
    </g>
    <g id="text_18">
     <!-- Testing with Different Size -->
     <defs>
      <path d="M 19.671875 64.796875 
L 19.671875 8.109375 
L 31.59375 8.109375 
Q 46.6875 8.109375 53.6875 14.9375 
Q 60.6875 21.78125 60.6875 36.53125 
Q 60.6875 51.171875 53.6875 57.984375 
Q 46.6875 64.796875 31.59375 64.796875 
z
M 9.8125 72.90625 
L 30.078125 72.90625 
Q 51.265625 72.90625 61.171875 64.09375 
Q 71.09375 55.28125 71.09375 36.53125 
Q 71.09375 17.671875 61.125 8.828125 
Q 51.171875 0 30.078125 0 
L 9.8125 0 
z
" id="DejaVuSans-68"/>
      <path d="M 37.109375 75.984375 
L 37.109375 68.5 
L 28.515625 68.5 
Q 23.6875 68.5 21.796875 66.546875 
Q 19.921875 64.59375 19.921875 59.515625 
L 19.921875 54.6875 
L 34.71875 54.6875 
L 34.71875 47.703125 
L 19.921875 47.703125 
L 19.921875 0 
L 10.890625 0 
L 10.890625 47.703125 
L 2.296875 47.703125 
L 2.296875 54.6875 
L 10.890625 54.6875 
L 10.890625 58.5 
Q 10.890625 67.625 15.140625 71.796875 
Q 19.390625 75.984375 28.609375 75.984375 
z
" id="DejaVuSans-102"/>
     </defs>
     <g transform="translate(504.065719 181.760319)scale(0.25 -0.25)">
      <use xlink:href="#DejaVuSans-84"/>
      <use x="60.818359" xlink:href="#DejaVuSans-101"/>
      <use x="122.341797" xlink:href="#DejaVuSans-115"/>
      <use x="174.441406" xlink:href="#DejaVuSans-116"/>
      <use x="213.650391" xlink:href="#DejaVuSans-105"/>
      <use x="241.433594" xlink:href="#DejaVuSans-110"/>
      <use x="304.8125" xlink:href="#DejaVuSans-103"/>
      <use x="368.289062" xlink:href="#DejaVuSans-32"/>
      <use x="400.076172" xlink:href="#DejaVuSans-119"/>
      <use x="481.863281" xlink:href="#DejaVuSans-105"/>
      <use x="509.646484" xlink:href="#DejaVuSans-116"/>
      <use x="548.855469" xlink:href="#DejaVuSans-104"/>
      <use x="612.234375" xlink:href="#DejaVuSans-32"/>
      <use x="644.021484" xlink:href="#DejaVuSans-68"/>
      <use x="721.023438" xlink:href="#DejaVuSans-105"/>
      <use x="748.806641" xlink:href="#DejaVuSans-102"/>
      <use x="784.011719" xlink:href="#DejaVuSans-102"/>
      <use x="819.216797" xlink:href="#DejaVuSans-101"/>
      <use x="880.740234" xlink:href="#DejaVuSans-114"/>
      <use x="921.822266" xlink:href="#DejaVuSans-101"/>
      <use x="983.345703" xlink:href="#DejaVuSans-110"/>
      <use x="1046.724609" xlink:href="#DejaVuSans-116"/>
      <use x="1085.933594" xlink:href="#DejaVuSans-32"/>
      <use x="1117.720703" xlink:href="#DejaVuSans-83"/>
      <use x="1181.197266" xlink:href="#DejaVuSans-105"/>
      <use x="1208.980469" xlink:href="#DejaVuSans-122"/>
      <use x="1261.470703" xlink:href="#DejaVuSans-101"/>
     </g>
    </g>
   </g>
  </g>
 </g>
 <defs>
  <clipPath id="pf3b0e4e9ad">
   <rect height="429.1056" width="738.234" x="119.07" y="66.8736"/>
  </clipPath>
 </defs>
</svg>
