<?xml version="1.0" encoding="utf-8" standalone="no"?>
<!DOCTYPE svg PUBLIC "-//W3C//DTD SVG 1.1//EN"
  "http://www.w3.org/Graphics/SVG/1.1/DTD/svg11.dtd">
<!-- Created with matplotlib (https://matplotlib.org/) -->
<svg height="559.44pt" version="1.1" viewBox="0 0 943.2 559.44" width="943.2pt" xmlns="http://www.w3.org/2000/svg" xmlns:xlink="http://www.w3.org/1999/xlink">
 <defs>
  <style type="text/css">
*{stroke-linecap:butt;stroke-linejoin:round;}
  </style>
 </defs>
 <g id="figure_1">
  <g id="patch_1">
   <path d="M 0 559.44 
L 943.2 559.44 
L 943.2 0 
L 0 0 
z
" style="fill:#ffffff;"/>
  </g>
  <g id="axes_1">
   <g id="patch_2">
    <path d="M 117.9 497.9016 
L 848.88 497.9016 
L 848.88 67.1328 
L 117.9 67.1328 
z
" style="fill:#ffffff;"/>
   </g>
   <g id="patch_3">
    <path clip-path="url(#pa109ea77dc)" d="M 151.126364 497.9016 
L 157.83876 497.9016 
L 157.83876 462.227165 
L 151.126364 462.227165 
z
" style="fill:#1f77b4;opacity:0.7;"/>
   </g>
   <g id="patch_4">
    <path clip-path="url(#pa109ea77dc)" d="M 157.83876 497.9016 
L 164.551157 497.9016 
L 164.551157 426.55273 
L 157.83876 426.55273 
z
" style="fill:#1f77b4;opacity:0.7;"/>
   </g>
   <g id="patch_5">
    <path clip-path="url(#pa109ea77dc)" d="M 164.551157 497.9016 
L 171.263554 497.9016 
L 171.263554 301.692209 
L 164.551157 301.692209 
z
" style="fill:#1f77b4;opacity:0.7;"/>
   </g>
   <g id="patch_6">
    <path clip-path="url(#pa109ea77dc)" d="M 171.263554 497.9016 
L 177.97595 497.9016 
L 177.97595 158.99447 
L 171.263554 158.99447 
z
" style="fill:#1f77b4;opacity:0.7;"/>
   </g>
   <g id="patch_7">
    <path clip-path="url(#pa109ea77dc)" d="M 177.97595 497.9016 
L 184.688347 497.9016 
L 184.688347 123.320035 
L 177.97595 123.320035 
z
" style="fill:#1f77b4;opacity:0.7;"/>
   </g>
   <g id="patch_8">
    <path clip-path="url(#pa109ea77dc)" d="M 184.688347 497.9016 
L 191.400744 497.9016 
L 191.400744 141.157252 
L 184.688347 141.157252 
z
" style="fill:#1f77b4;opacity:0.7;"/>
   </g>
   <g id="patch_9">
    <path clip-path="url(#pa109ea77dc)" d="M 191.400744 497.9016 
L 198.11314 497.9016 
L 198.11314 283.854991 
L 191.400744 283.854991 
z
" style="fill:#1f77b4;opacity:0.7;"/>
   </g>
   <g id="patch_10">
    <path clip-path="url(#pa109ea77dc)" d="M 198.11314 497.9016 
L 204.825537 497.9016 
L 204.825537 373.041078 
L 198.11314 373.041078 
z
" style="fill:#1f77b4;opacity:0.7;"/>
   </g>
   <g id="patch_11">
    <path clip-path="url(#pa109ea77dc)" d="M 204.825537 497.9016 
L 211.537934 497.9016 
L 211.537934 480.064383 
L 204.825537 480.064383 
z
" style="fill:#1f77b4;opacity:0.7;"/>
   </g>
   <g id="patch_12">
    <path clip-path="url(#pa109ea77dc)" d="M 211.537934 497.9016 
L 218.250331 497.9016 
L 218.250331 480.064383 
L 211.537934 480.064383 
z
" style="fill:#1f77b4;opacity:0.7;"/>
   </g>
   <g id="patch_13">
    <path clip-path="url(#pa109ea77dc)" d="M 218.250331 497.9016 
L 224.962727 497.9016 
L 224.962727 497.9016 
L 218.250331 497.9016 
z
" style="fill:#1f77b4;opacity:0.7;"/>
   </g>
   <g id="patch_14">
    <path clip-path="url(#pa109ea77dc)" d="M 224.962727 497.9016 
L 231.675124 497.9016 
L 231.675124 497.9016 
L 224.962727 497.9016 
z
" style="fill:#1f77b4;opacity:0.7;"/>
   </g>
   <g id="patch_15">
    <path clip-path="url(#pa109ea77dc)" d="M 231.675124 497.9016 
L 238.387521 497.9016 
L 238.387521 497.9016 
L 231.675124 497.9016 
z
" style="fill:#1f77b4;opacity:0.7;"/>
   </g>
   <g id="patch_16">
    <path clip-path="url(#pa109ea77dc)" d="M 238.387521 497.9016 
L 245.099917 497.9016 
L 245.099917 497.9016 
L 238.387521 497.9016 
z
" style="fill:#1f77b4;opacity:0.7;"/>
   </g>
   <g id="patch_17">
    <path clip-path="url(#pa109ea77dc)" d="M 245.099917 497.9016 
L 251.812314 497.9016 
L 251.812314 497.9016 
L 245.099917 497.9016 
z
" style="fill:#1f77b4;opacity:0.7;"/>
   </g>
   <g id="patch_18">
    <path clip-path="url(#pa109ea77dc)" d="M 251.812314 497.9016 
L 258.524711 497.9016 
L 258.524711 497.9016 
L 251.812314 497.9016 
z
" style="fill:#1f77b4;opacity:0.7;"/>
   </g>
   <g id="patch_19">
    <path clip-path="url(#pa109ea77dc)" d="M 258.524711 497.9016 
L 265.237107 497.9016 
L 265.237107 497.9016 
L 258.524711 497.9016 
z
" style="fill:#1f77b4;opacity:0.7;"/>
   </g>
   <g id="patch_20">
    <path clip-path="url(#pa109ea77dc)" d="M 265.237107 497.9016 
L 271.949504 497.9016 
L 271.949504 497.9016 
L 265.237107 497.9016 
z
" style="fill:#1f77b4;opacity:0.7;"/>
   </g>
   <g id="patch_21">
    <path clip-path="url(#pa109ea77dc)" d="M 271.949504 497.9016 
L 278.661901 497.9016 
L 278.661901 497.9016 
L 271.949504 497.9016 
z
" style="fill:#1f77b4;opacity:0.7;"/>
   </g>
   <g id="patch_22">
    <path clip-path="url(#pa109ea77dc)" d="M 278.661901 497.9016 
L 285.374298 497.9016 
L 285.374298 497.9016 
L 278.661901 497.9016 
z
" style="fill:#1f77b4;opacity:0.7;"/>
   </g>
   <g id="patch_23">
    <path clip-path="url(#pa109ea77dc)" d="M 285.374298 497.9016 
L 292.086694 497.9016 
L 292.086694 497.9016 
L 285.374298 497.9016 
z
" style="fill:#1f77b4;opacity:0.7;"/>
   </g>
   <g id="patch_24">
    <path clip-path="url(#pa109ea77dc)" d="M 292.086694 497.9016 
L 298.799091 497.9016 
L 298.799091 497.9016 
L 292.086694 497.9016 
z
" style="fill:#1f77b4;opacity:0.7;"/>
   </g>
   <g id="patch_25">
    <path clip-path="url(#pa109ea77dc)" d="M 298.799091 497.9016 
L 305.511488 497.9016 
L 305.511488 497.9016 
L 298.799091 497.9016 
z
" style="fill:#1f77b4;opacity:0.7;"/>
   </g>
   <g id="patch_26">
    <path clip-path="url(#pa109ea77dc)" d="M 305.511488 497.9016 
L 312.223884 497.9016 
L 312.223884 497.9016 
L 305.511488 497.9016 
z
" style="fill:#1f77b4;opacity:0.7;"/>
   </g>
   <g id="patch_27">
    <path clip-path="url(#pa109ea77dc)" d="M 312.223884 497.9016 
L 318.936281 497.9016 
L 318.936281 497.9016 
L 312.223884 497.9016 
z
" style="fill:#1f77b4;opacity:0.7;"/>
   </g>
   <g id="patch_28">
    <path clip-path="url(#pa109ea77dc)" d="M 318.936281 497.9016 
L 325.648678 497.9016 
L 325.648678 497.9016 
L 318.936281 497.9016 
z
" style="fill:#1f77b4;opacity:0.7;"/>
   </g>
   <g id="patch_29">
    <path clip-path="url(#pa109ea77dc)" d="M 325.648678 497.9016 
L 332.361074 497.9016 
L 332.361074 497.9016 
L 325.648678 497.9016 
z
" style="fill:#1f77b4;opacity:0.7;"/>
   </g>
   <g id="patch_30">
    <path clip-path="url(#pa109ea77dc)" d="M 332.361074 497.9016 
L 339.073471 497.9016 
L 339.073471 497.9016 
L 332.361074 497.9016 
z
" style="fill:#1f77b4;opacity:0.7;"/>
   </g>
   <g id="patch_31">
    <path clip-path="url(#pa109ea77dc)" d="M 339.073471 497.9016 
L 345.785868 497.9016 
L 345.785868 497.9016 
L 339.073471 497.9016 
z
" style="fill:#1f77b4;opacity:0.7;"/>
   </g>
   <g id="patch_32">
    <path clip-path="url(#pa109ea77dc)" d="M 345.785868 497.9016 
L 352.498264 497.9016 
L 352.498264 497.9016 
L 345.785868 497.9016 
z
" style="fill:#1f77b4;opacity:0.7;"/>
   </g>
   <g id="patch_33">
    <path clip-path="url(#pa109ea77dc)" d="M 352.498264 497.9016 
L 359.210661 497.9016 
L 359.210661 497.9016 
L 352.498264 497.9016 
z
" style="fill:#1f77b4;opacity:0.7;"/>
   </g>
   <g id="patch_34">
    <path clip-path="url(#pa109ea77dc)" d="M 359.210661 497.9016 
L 365.923058 497.9016 
L 365.923058 497.9016 
L 359.210661 497.9016 
z
" style="fill:#1f77b4;opacity:0.7;"/>
   </g>
   <g id="patch_35">
    <path clip-path="url(#pa109ea77dc)" d="M 365.923058 497.9016 
L 372.635455 497.9016 
L 372.635455 497.9016 
L 365.923058 497.9016 
z
" style="fill:#1f77b4;opacity:0.7;"/>
   </g>
   <g id="patch_36">
    <path clip-path="url(#pa109ea77dc)" d="M 372.635455 497.9016 
L 379.347851 497.9016 
L 379.347851 497.9016 
L 372.635455 497.9016 
z
" style="fill:#1f77b4;opacity:0.7;"/>
   </g>
   <g id="patch_37">
    <path clip-path="url(#pa109ea77dc)" d="M 379.347851 497.9016 
L 386.060248 497.9016 
L 386.060248 497.9016 
L 379.347851 497.9016 
z
" style="fill:#1f77b4;opacity:0.7;"/>
   </g>
   <g id="patch_38">
    <path clip-path="url(#pa109ea77dc)" d="M 386.060248 497.9016 
L 392.772645 497.9016 
L 392.772645 497.9016 
L 386.060248 497.9016 
z
" style="fill:#1f77b4;opacity:0.7;"/>
   </g>
   <g id="patch_39">
    <path clip-path="url(#pa109ea77dc)" d="M 392.772645 497.9016 
L 399.485041 497.9016 
L 399.485041 497.9016 
L 392.772645 497.9016 
z
" style="fill:#1f77b4;opacity:0.7;"/>
   </g>
   <g id="patch_40">
    <path clip-path="url(#pa109ea77dc)" d="M 399.485041 497.9016 
L 406.197438 497.9016 
L 406.197438 497.9016 
L 399.485041 497.9016 
z
" style="fill:#1f77b4;opacity:0.7;"/>
   </g>
   <g id="patch_41">
    <path clip-path="url(#pa109ea77dc)" d="M 406.197438 497.9016 
L 412.909835 497.9016 
L 412.909835 497.9016 
L 406.197438 497.9016 
z
" style="fill:#1f77b4;opacity:0.7;"/>
   </g>
   <g id="patch_42">
    <path clip-path="url(#pa109ea77dc)" d="M 412.909835 497.9016 
L 419.622231 497.9016 
L 419.622231 497.9016 
L 412.909835 497.9016 
z
" style="fill:#1f77b4;opacity:0.7;"/>
   </g>
   <g id="patch_43">
    <path clip-path="url(#pa109ea77dc)" d="M 419.622231 497.9016 
L 426.334628 497.9016 
L 426.334628 497.9016 
L 419.622231 497.9016 
z
" style="fill:#1f77b4;opacity:0.7;"/>
   </g>
   <g id="patch_44">
    <path clip-path="url(#pa109ea77dc)" d="M 426.334628 497.9016 
L 433.047025 497.9016 
L 433.047025 497.9016 
L 426.334628 497.9016 
z
" style="fill:#1f77b4;opacity:0.7;"/>
   </g>
   <g id="patch_45">
    <path clip-path="url(#pa109ea77dc)" d="M 433.047025 497.9016 
L 439.759421 497.9016 
L 439.759421 497.9016 
L 433.047025 497.9016 
z
" style="fill:#1f77b4;opacity:0.7;"/>
   </g>
   <g id="patch_46">
    <path clip-path="url(#pa109ea77dc)" d="M 439.759421 497.9016 
L 446.471818 497.9016 
L 446.471818 497.9016 
L 439.759421 497.9016 
z
" style="fill:#1f77b4;opacity:0.7;"/>
   </g>
   <g id="patch_47">
    <path clip-path="url(#pa109ea77dc)" d="M 446.471818 497.9016 
L 453.184215 497.9016 
L 453.184215 497.9016 
L 446.471818 497.9016 
z
" style="fill:#1f77b4;opacity:0.7;"/>
   </g>
   <g id="patch_48">
    <path clip-path="url(#pa109ea77dc)" d="M 453.184215 497.9016 
L 459.896612 497.9016 
L 459.896612 497.9016 
L 453.184215 497.9016 
z
" style="fill:#1f77b4;opacity:0.7;"/>
   </g>
   <g id="patch_49">
    <path clip-path="url(#pa109ea77dc)" d="M 459.896612 497.9016 
L 466.609008 497.9016 
L 466.609008 497.9016 
L 459.896612 497.9016 
z
" style="fill:#1f77b4;opacity:0.7;"/>
   </g>
   <g id="patch_50">
    <path clip-path="url(#pa109ea77dc)" d="M 466.609008 497.9016 
L 473.321405 497.9016 
L 473.321405 497.9016 
L 466.609008 497.9016 
z
" style="fill:#1f77b4;opacity:0.7;"/>
   </g>
   <g id="patch_51">
    <path clip-path="url(#pa109ea77dc)" d="M 473.321405 497.9016 
L 480.033802 497.9016 
L 480.033802 497.9016 
L 473.321405 497.9016 
z
" style="fill:#1f77b4;opacity:0.7;"/>
   </g>
   <g id="patch_52">
    <path clip-path="url(#pa109ea77dc)" d="M 480.033802 497.9016 
L 486.746198 497.9016 
L 486.746198 497.9016 
L 480.033802 497.9016 
z
" style="fill:#1f77b4;opacity:0.7;"/>
   </g>
   <g id="patch_53">
    <path clip-path="url(#pa109ea77dc)" d="M 486.746198 497.9016 
L 493.458595 497.9016 
L 493.458595 497.9016 
L 486.746198 497.9016 
z
" style="fill:#1f77b4;opacity:0.7;"/>
   </g>
   <g id="patch_54">
    <path clip-path="url(#pa109ea77dc)" d="M 493.458595 497.9016 
L 500.170992 497.9016 
L 500.170992 497.9016 
L 493.458595 497.9016 
z
" style="fill:#1f77b4;opacity:0.7;"/>
   </g>
   <g id="patch_55">
    <path clip-path="url(#pa109ea77dc)" d="M 500.170992 497.9016 
L 506.883388 497.9016 
L 506.883388 497.9016 
L 500.170992 497.9016 
z
" style="fill:#1f77b4;opacity:0.7;"/>
   </g>
   <g id="patch_56">
    <path clip-path="url(#pa109ea77dc)" d="M 506.883388 497.9016 
L 513.595785 497.9016 
L 513.595785 497.9016 
L 506.883388 497.9016 
z
" style="fill:#1f77b4;opacity:0.7;"/>
   </g>
   <g id="patch_57">
    <path clip-path="url(#pa109ea77dc)" d="M 513.595785 497.9016 
L 520.308182 497.9016 
L 520.308182 497.9016 
L 513.595785 497.9016 
z
" style="fill:#1f77b4;opacity:0.7;"/>
   </g>
   <g id="patch_58">
    <path clip-path="url(#pa109ea77dc)" d="M 520.308182 497.9016 
L 527.020579 497.9016 
L 527.020579 497.9016 
L 520.308182 497.9016 
z
" style="fill:#1f77b4;opacity:0.7;"/>
   </g>
   <g id="patch_59">
    <path clip-path="url(#pa109ea77dc)" d="M 527.020579 497.9016 
L 533.732975 497.9016 
L 533.732975 497.9016 
L 527.020579 497.9016 
z
" style="fill:#1f77b4;opacity:0.7;"/>
   </g>
   <g id="patch_60">
    <path clip-path="url(#pa109ea77dc)" d="M 533.732975 497.9016 
L 540.445372 497.9016 
L 540.445372 497.9016 
L 533.732975 497.9016 
z
" style="fill:#1f77b4;opacity:0.7;"/>
   </g>
   <g id="patch_61">
    <path clip-path="url(#pa109ea77dc)" d="M 540.445372 497.9016 
L 547.157769 497.9016 
L 547.157769 497.9016 
L 540.445372 497.9016 
z
" style="fill:#1f77b4;opacity:0.7;"/>
   </g>
   <g id="patch_62">
    <path clip-path="url(#pa109ea77dc)" d="M 547.157769 497.9016 
L 553.870165 497.9016 
L 553.870165 497.9016 
L 547.157769 497.9016 
z
" style="fill:#1f77b4;opacity:0.7;"/>
   </g>
   <g id="patch_63">
    <path clip-path="url(#pa109ea77dc)" d="M 553.870165 497.9016 
L 560.582562 497.9016 
L 560.582562 497.9016 
L 553.870165 497.9016 
z
" style="fill:#1f77b4;opacity:0.7;"/>
   </g>
   <g id="patch_64">
    <path clip-path="url(#pa109ea77dc)" d="M 560.582562 497.9016 
L 567.294959 497.9016 
L 567.294959 497.9016 
L 560.582562 497.9016 
z
" style="fill:#1f77b4;opacity:0.7;"/>
   </g>
   <g id="patch_65">
    <path clip-path="url(#pa109ea77dc)" d="M 567.294959 497.9016 
L 574.007355 497.9016 
L 574.007355 497.9016 
L 567.294959 497.9016 
z
" style="fill:#1f77b4;opacity:0.7;"/>
   </g>
   <g id="patch_66">
    <path clip-path="url(#pa109ea77dc)" d="M 574.007355 497.9016 
L 580.719752 497.9016 
L 580.719752 497.9016 
L 574.007355 497.9016 
z
" style="fill:#1f77b4;opacity:0.7;"/>
   </g>
   <g id="patch_67">
    <path clip-path="url(#pa109ea77dc)" d="M 580.719752 497.9016 
L 587.432149 497.9016 
L 587.432149 497.9016 
L 580.719752 497.9016 
z
" style="fill:#1f77b4;opacity:0.7;"/>
   </g>
   <g id="patch_68">
    <path clip-path="url(#pa109ea77dc)" d="M 587.432149 497.9016 
L 594.144545 497.9016 
L 594.144545 497.9016 
L 587.432149 497.9016 
z
" style="fill:#1f77b4;opacity:0.7;"/>
   </g>
   <g id="patch_69">
    <path clip-path="url(#pa109ea77dc)" d="M 594.144545 497.9016 
L 600.856942 497.9016 
L 600.856942 497.9016 
L 594.144545 497.9016 
z
" style="fill:#1f77b4;opacity:0.7;"/>
   </g>
   <g id="patch_70">
    <path clip-path="url(#pa109ea77dc)" d="M 600.856942 497.9016 
L 607.569339 497.9016 
L 607.569339 497.9016 
L 600.856942 497.9016 
z
" style="fill:#1f77b4;opacity:0.7;"/>
   </g>
   <g id="patch_71">
    <path clip-path="url(#pa109ea77dc)" d="M 607.569339 497.9016 
L 614.281736 497.9016 
L 614.281736 497.9016 
L 607.569339 497.9016 
z
" style="fill:#1f77b4;opacity:0.7;"/>
   </g>
   <g id="patch_72">
    <path clip-path="url(#pa109ea77dc)" d="M 614.281736 497.9016 
L 620.994132 497.9016 
L 620.994132 497.9016 
L 614.281736 497.9016 
z
" style="fill:#1f77b4;opacity:0.7;"/>
   </g>
   <g id="patch_73">
    <path clip-path="url(#pa109ea77dc)" d="M 620.994132 497.9016 
L 627.706529 497.9016 
L 627.706529 497.9016 
L 620.994132 497.9016 
z
" style="fill:#1f77b4;opacity:0.7;"/>
   </g>
   <g id="patch_74">
    <path clip-path="url(#pa109ea77dc)" d="M 627.706529 497.9016 
L 634.418926 497.9016 
L 634.418926 497.9016 
L 627.706529 497.9016 
z
" style="fill:#1f77b4;opacity:0.7;"/>
   </g>
   <g id="patch_75">
    <path clip-path="url(#pa109ea77dc)" d="M 634.418926 497.9016 
L 641.131322 497.9016 
L 641.131322 497.9016 
L 634.418926 497.9016 
z
" style="fill:#1f77b4;opacity:0.7;"/>
   </g>
   <g id="patch_76">
    <path clip-path="url(#pa109ea77dc)" d="M 641.131322 497.9016 
L 647.843719 497.9016 
L 647.843719 497.9016 
L 641.131322 497.9016 
z
" style="fill:#1f77b4;opacity:0.7;"/>
   </g>
   <g id="patch_77">
    <path clip-path="url(#pa109ea77dc)" d="M 647.843719 497.9016 
L 654.556116 497.9016 
L 654.556116 497.9016 
L 647.843719 497.9016 
z
" style="fill:#1f77b4;opacity:0.7;"/>
   </g>
   <g id="patch_78">
    <path clip-path="url(#pa109ea77dc)" d="M 654.556116 497.9016 
L 661.268512 497.9016 
L 661.268512 497.9016 
L 654.556116 497.9016 
z
" style="fill:#1f77b4;opacity:0.7;"/>
   </g>
   <g id="patch_79">
    <path clip-path="url(#pa109ea77dc)" d="M 661.268512 497.9016 
L 667.980909 497.9016 
L 667.980909 497.9016 
L 661.268512 497.9016 
z
" style="fill:#1f77b4;opacity:0.7;"/>
   </g>
   <g id="patch_80">
    <path clip-path="url(#pa109ea77dc)" d="M 667.980909 497.9016 
L 674.693306 497.9016 
L 674.693306 497.9016 
L 667.980909 497.9016 
z
" style="fill:#1f77b4;opacity:0.7;"/>
   </g>
   <g id="patch_81">
    <path clip-path="url(#pa109ea77dc)" d="M 674.693306 497.9016 
L 681.405702 497.9016 
L 681.405702 497.9016 
L 674.693306 497.9016 
z
" style="fill:#1f77b4;opacity:0.7;"/>
   </g>
   <g id="patch_82">
    <path clip-path="url(#pa109ea77dc)" d="M 681.405702 497.9016 
L 688.118099 497.9016 
L 688.118099 497.9016 
L 681.405702 497.9016 
z
" style="fill:#1f77b4;opacity:0.7;"/>
   </g>
   <g id="patch_83">
    <path clip-path="url(#pa109ea77dc)" d="M 688.118099 497.9016 
L 694.830496 497.9016 
L 694.830496 497.9016 
L 688.118099 497.9016 
z
" style="fill:#1f77b4;opacity:0.7;"/>
   </g>
   <g id="patch_84">
    <path clip-path="url(#pa109ea77dc)" d="M 694.830496 497.9016 
L 701.542893 497.9016 
L 701.542893 497.9016 
L 694.830496 497.9016 
z
" style="fill:#1f77b4;opacity:0.7;"/>
   </g>
   <g id="patch_85">
    <path clip-path="url(#pa109ea77dc)" d="M 701.542893 497.9016 
L 708.255289 497.9016 
L 708.255289 497.9016 
L 701.542893 497.9016 
z
" style="fill:#1f77b4;opacity:0.7;"/>
   </g>
   <g id="patch_86">
    <path clip-path="url(#pa109ea77dc)" d="M 708.255289 497.9016 
L 714.967686 497.9016 
L 714.967686 497.9016 
L 708.255289 497.9016 
z
" style="fill:#1f77b4;opacity:0.7;"/>
   </g>
   <g id="patch_87">
    <path clip-path="url(#pa109ea77dc)" d="M 714.967686 497.9016 
L 721.680083 497.9016 
L 721.680083 497.9016 
L 714.967686 497.9016 
z
" style="fill:#1f77b4;opacity:0.7;"/>
   </g>
   <g id="patch_88">
    <path clip-path="url(#pa109ea77dc)" d="M 721.680083 497.9016 
L 728.392479 497.9016 
L 728.392479 497.9016 
L 721.680083 497.9016 
z
" style="fill:#1f77b4;opacity:0.7;"/>
   </g>
   <g id="patch_89">
    <path clip-path="url(#pa109ea77dc)" d="M 728.392479 497.9016 
L 735.104876 497.9016 
L 735.104876 497.9016 
L 728.392479 497.9016 
z
" style="fill:#1f77b4;opacity:0.7;"/>
   </g>
   <g id="patch_90">
    <path clip-path="url(#pa109ea77dc)" d="M 735.104876 497.9016 
L 741.817273 497.9016 
L 741.817273 497.9016 
L 735.104876 497.9016 
z
" style="fill:#1f77b4;opacity:0.7;"/>
   </g>
   <g id="patch_91">
    <path clip-path="url(#pa109ea77dc)" d="M 741.817273 497.9016 
L 748.529669 497.9016 
L 748.529669 497.9016 
L 741.817273 497.9016 
z
" style="fill:#1f77b4;opacity:0.7;"/>
   </g>
   <g id="patch_92">
    <path clip-path="url(#pa109ea77dc)" d="M 748.529669 497.9016 
L 755.242066 497.9016 
L 755.242066 497.9016 
L 748.529669 497.9016 
z
" style="fill:#1f77b4;opacity:0.7;"/>
   </g>
   <g id="patch_93">
    <path clip-path="url(#pa109ea77dc)" d="M 755.242066 497.9016 
L 761.954463 497.9016 
L 761.954463 497.9016 
L 755.242066 497.9016 
z
" style="fill:#1f77b4;opacity:0.7;"/>
   </g>
   <g id="patch_94">
    <path clip-path="url(#pa109ea77dc)" d="M 761.954463 497.9016 
L 768.66686 497.9016 
L 768.66686 497.9016 
L 761.954463 497.9016 
z
" style="fill:#1f77b4;opacity:0.7;"/>
   </g>
   <g id="patch_95">
    <path clip-path="url(#pa109ea77dc)" d="M 768.66686 497.9016 
L 775.379256 497.9016 
L 775.379256 497.9016 
L 768.66686 497.9016 
z
" style="fill:#1f77b4;opacity:0.7;"/>
   </g>
   <g id="patch_96">
    <path clip-path="url(#pa109ea77dc)" d="M 775.379256 497.9016 
L 782.091653 497.9016 
L 782.091653 497.9016 
L 775.379256 497.9016 
z
" style="fill:#1f77b4;opacity:0.7;"/>
   </g>
   <g id="patch_97">
    <path clip-path="url(#pa109ea77dc)" d="M 782.091653 497.9016 
L 788.80405 497.9016 
L 788.80405 497.9016 
L 782.091653 497.9016 
z
" style="fill:#1f77b4;opacity:0.7;"/>
   </g>
   <g id="patch_98">
    <path clip-path="url(#pa109ea77dc)" d="M 788.80405 497.9016 
L 795.516446 497.9016 
L 795.516446 497.9016 
L 788.80405 497.9016 
z
" style="fill:#1f77b4;opacity:0.7;"/>
   </g>
   <g id="patch_99">
    <path clip-path="url(#pa109ea77dc)" d="M 795.516446 497.9016 
L 802.228843 497.9016 
L 802.228843 497.9016 
L 795.516446 497.9016 
z
" style="fill:#1f77b4;opacity:0.7;"/>
   </g>
   <g id="patch_100">
    <path clip-path="url(#pa109ea77dc)" d="M 802.228843 497.9016 
L 808.94124 497.9016 
L 808.94124 497.9016 
L 802.228843 497.9016 
z
" style="fill:#1f77b4;opacity:0.7;"/>
   </g>
   <g id="patch_101">
    <path clip-path="url(#pa109ea77dc)" d="M 808.94124 497.9016 
L 815.653636 497.9016 
L 815.653636 497.9016 
L 808.94124 497.9016 
z
" style="fill:#1f77b4;opacity:0.7;"/>
   </g>
   <g id="patch_102">
    <path clip-path="url(#pa109ea77dc)" d="M 151.126364 497.9016 
L 157.83876 497.9016 
L 157.83876 497.9016 
L 151.126364 497.9016 
z
" style="fill:#ff7f0e;opacity:0.7;"/>
   </g>
   <g id="patch_103">
    <path clip-path="url(#pa109ea77dc)" d="M 157.83876 497.9016 
L 164.551157 497.9016 
L 164.551157 497.9016 
L 157.83876 497.9016 
z
" style="fill:#ff7f0e;opacity:0.7;"/>
   </g>
   <g id="patch_104">
    <path clip-path="url(#pa109ea77dc)" d="M 164.551157 497.9016 
L 171.263554 497.9016 
L 171.263554 497.9016 
L 164.551157 497.9016 
z
" style="fill:#ff7f0e;opacity:0.7;"/>
   </g>
   <g id="patch_105">
    <path clip-path="url(#pa109ea77dc)" d="M 171.263554 497.9016 
L 177.97595 497.9016 
L 177.97595 497.9016 
L 171.263554 497.9016 
z
" style="fill:#ff7f0e;opacity:0.7;"/>
   </g>
   <g id="patch_106">
    <path clip-path="url(#pa109ea77dc)" d="M 177.97595 497.9016 
L 184.688347 497.9016 
L 184.688347 497.9016 
L 177.97595 497.9016 
z
" style="fill:#ff7f0e;opacity:0.7;"/>
   </g>
   <g id="patch_107">
    <path clip-path="url(#pa109ea77dc)" d="M 184.688347 497.9016 
L 191.400744 497.9016 
L 191.400744 497.9016 
L 184.688347 497.9016 
z
" style="fill:#ff7f0e;opacity:0.7;"/>
   </g>
   <g id="patch_108">
    <path clip-path="url(#pa109ea77dc)" d="M 191.400744 497.9016 
L 198.11314 497.9016 
L 198.11314 497.9016 
L 191.400744 497.9016 
z
" style="fill:#ff7f0e;opacity:0.7;"/>
   </g>
   <g id="patch_109">
    <path clip-path="url(#pa109ea77dc)" d="M 198.11314 497.9016 
L 204.825537 497.9016 
L 204.825537 497.9016 
L 198.11314 497.9016 
z
" style="fill:#ff7f0e;opacity:0.7;"/>
   </g>
   <g id="patch_110">
    <path clip-path="url(#pa109ea77dc)" d="M 204.825537 497.9016 
L 211.537934 497.9016 
L 211.537934 497.9016 
L 204.825537 497.9016 
z
" style="fill:#ff7f0e;opacity:0.7;"/>
   </g>
   <g id="patch_111">
    <path clip-path="url(#pa109ea77dc)" d="M 211.537934 497.9016 
L 218.250331 497.9016 
L 218.250331 497.9016 
L 211.537934 497.9016 
z
" style="fill:#ff7f0e;opacity:0.7;"/>
   </g>
   <g id="patch_112">
    <path clip-path="url(#pa109ea77dc)" d="M 218.250331 497.9016 
L 224.962727 497.9016 
L 224.962727 497.9016 
L 218.250331 497.9016 
z
" style="fill:#ff7f0e;opacity:0.7;"/>
   </g>
   <g id="patch_113">
    <path clip-path="url(#pa109ea77dc)" d="M 224.962727 497.9016 
L 231.675124 497.9016 
L 231.675124 497.9016 
L 224.962727 497.9016 
z
" style="fill:#ff7f0e;opacity:0.7;"/>
   </g>
   <g id="patch_114">
    <path clip-path="url(#pa109ea77dc)" d="M 231.675124 497.9016 
L 238.387521 497.9016 
L 238.387521 497.9016 
L 231.675124 497.9016 
z
" style="fill:#ff7f0e;opacity:0.7;"/>
   </g>
   <g id="patch_115">
    <path clip-path="url(#pa109ea77dc)" d="M 238.387521 497.9016 
L 245.099917 497.9016 
L 245.099917 497.9016 
L 238.387521 497.9016 
z
" style="fill:#ff7f0e;opacity:0.7;"/>
   </g>
   <g id="patch_116">
    <path clip-path="url(#pa109ea77dc)" d="M 245.099917 497.9016 
L 251.812314 497.9016 
L 251.812314 497.9016 
L 245.099917 497.9016 
z
" style="fill:#ff7f0e;opacity:0.7;"/>
   </g>
   <g id="patch_117">
    <path clip-path="url(#pa109ea77dc)" d="M 251.812314 497.9016 
L 258.524711 497.9016 
L 258.524711 497.9016 
L 251.812314 497.9016 
z
" style="fill:#ff7f0e;opacity:0.7;"/>
   </g>
   <g id="patch_118">
    <path clip-path="url(#pa109ea77dc)" d="M 258.524711 497.9016 
L 265.237107 497.9016 
L 265.237107 497.9016 
L 258.524711 497.9016 
z
" style="fill:#ff7f0e;opacity:0.7;"/>
   </g>
   <g id="patch_119">
    <path clip-path="url(#pa109ea77dc)" d="M 265.237107 497.9016 
L 271.949504 497.9016 
L 271.949504 497.9016 
L 265.237107 497.9016 
z
" style="fill:#ff7f0e;opacity:0.7;"/>
   </g>
   <g id="patch_120">
    <path clip-path="url(#pa109ea77dc)" d="M 271.949504 497.9016 
L 278.661901 497.9016 
L 278.661901 497.9016 
L 271.949504 497.9016 
z
" style="fill:#ff7f0e;opacity:0.7;"/>
   </g>
   <g id="patch_121">
    <path clip-path="url(#pa109ea77dc)" d="M 278.661901 497.9016 
L 285.374298 497.9016 
L 285.374298 497.9016 
L 278.661901 497.9016 
z
" style="fill:#ff7f0e;opacity:0.7;"/>
   </g>
   <g id="patch_122">
    <path clip-path="url(#pa109ea77dc)" d="M 285.374298 497.9016 
L 292.086694 497.9016 
L 292.086694 497.9016 
L 285.374298 497.9016 
z
" style="fill:#ff7f0e;opacity:0.7;"/>
   </g>
   <g id="patch_123">
    <path clip-path="url(#pa109ea77dc)" d="M 292.086694 497.9016 
L 298.799091 497.9016 
L 298.799091 497.9016 
L 292.086694 497.9016 
z
" style="fill:#ff7f0e;opacity:0.7;"/>
   </g>
   <g id="patch_124">
    <path clip-path="url(#pa109ea77dc)" d="M 298.799091 497.9016 
L 305.511488 497.9016 
L 305.511488 497.9016 
L 298.799091 497.9016 
z
" style="fill:#ff7f0e;opacity:0.7;"/>
   </g>
   <g id="patch_125">
    <path clip-path="url(#pa109ea77dc)" d="M 305.511488 497.9016 
L 312.223884 497.9016 
L 312.223884 497.9016 
L 305.511488 497.9016 
z
" style="fill:#ff7f0e;opacity:0.7;"/>
   </g>
   <g id="patch_126">
    <path clip-path="url(#pa109ea77dc)" d="M 312.223884 497.9016 
L 318.936281 497.9016 
L 318.936281 497.9016 
L 312.223884 497.9016 
z
" style="fill:#ff7f0e;opacity:0.7;"/>
   </g>
   <g id="patch_127">
    <path clip-path="url(#pa109ea77dc)" d="M 318.936281 497.9016 
L 325.648678 497.9016 
L 325.648678 497.9016 
L 318.936281 497.9016 
z
" style="fill:#ff7f0e;opacity:0.7;"/>
   </g>
   <g id="patch_128">
    <path clip-path="url(#pa109ea77dc)" d="M 325.648678 497.9016 
L 332.361074 497.9016 
L 332.361074 497.9016 
L 325.648678 497.9016 
z
" style="fill:#ff7f0e;opacity:0.7;"/>
   </g>
   <g id="patch_129">
    <path clip-path="url(#pa109ea77dc)" d="M 332.361074 497.9016 
L 339.073471 497.9016 
L 339.073471 497.9016 
L 332.361074 497.9016 
z
" style="fill:#ff7f0e;opacity:0.7;"/>
   </g>
   <g id="patch_130">
    <path clip-path="url(#pa109ea77dc)" d="M 339.073471 497.9016 
L 345.785868 497.9016 
L 345.785868 497.9016 
L 339.073471 497.9016 
z
" style="fill:#ff7f0e;opacity:0.7;"/>
   </g>
   <g id="patch_131">
    <path clip-path="url(#pa109ea77dc)" d="M 345.785868 497.9016 
L 352.498264 497.9016 
L 352.498264 497.9016 
L 345.785868 497.9016 
z
" style="fill:#ff7f0e;opacity:0.7;"/>
   </g>
   <g id="patch_132">
    <path clip-path="url(#pa109ea77dc)" d="M 352.498264 497.9016 
L 359.210661 497.9016 
L 359.210661 497.9016 
L 352.498264 497.9016 
z
" style="fill:#ff7f0e;opacity:0.7;"/>
   </g>
   <g id="patch_133">
    <path clip-path="url(#pa109ea77dc)" d="M 359.210661 497.9016 
L 365.923058 497.9016 
L 365.923058 497.9016 
L 359.210661 497.9016 
z
" style="fill:#ff7f0e;opacity:0.7;"/>
   </g>
   <g id="patch_134">
    <path clip-path="url(#pa109ea77dc)" d="M 365.923058 497.9016 
L 372.635455 497.9016 
L 372.635455 497.9016 
L 365.923058 497.9016 
z
" style="fill:#ff7f0e;opacity:0.7;"/>
   </g>
   <g id="patch_135">
    <path clip-path="url(#pa109ea77dc)" d="M 372.635455 497.9016 
L 379.347851 497.9016 
L 379.347851 497.9016 
L 372.635455 497.9016 
z
" style="fill:#ff7f0e;opacity:0.7;"/>
   </g>
   <g id="patch_136">
    <path clip-path="url(#pa109ea77dc)" d="M 379.347851 497.9016 
L 386.060248 497.9016 
L 386.060248 497.9016 
L 379.347851 497.9016 
z
" style="fill:#ff7f0e;opacity:0.7;"/>
   </g>
   <g id="patch_137">
    <path clip-path="url(#pa109ea77dc)" d="M 386.060248 497.9016 
L 392.772645 497.9016 
L 392.772645 497.9016 
L 386.060248 497.9016 
z
" style="fill:#ff7f0e;opacity:0.7;"/>
   </g>
   <g id="patch_138">
    <path clip-path="url(#pa109ea77dc)" d="M 392.772645 497.9016 
L 399.485041 497.9016 
L 399.485041 497.9016 
L 392.772645 497.9016 
z
" style="fill:#ff7f0e;opacity:0.7;"/>
   </g>
   <g id="patch_139">
    <path clip-path="url(#pa109ea77dc)" d="M 399.485041 497.9016 
L 406.197438 497.9016 
L 406.197438 497.9016 
L 399.485041 497.9016 
z
" style="fill:#ff7f0e;opacity:0.7;"/>
   </g>
   <g id="patch_140">
    <path clip-path="url(#pa109ea77dc)" d="M 406.197438 497.9016 
L 412.909835 497.9016 
L 412.909835 497.9016 
L 406.197438 497.9016 
z
" style="fill:#ff7f0e;opacity:0.7;"/>
   </g>
   <g id="patch_141">
    <path clip-path="url(#pa109ea77dc)" d="M 412.909835 497.9016 
L 419.622231 497.9016 
L 419.622231 497.9016 
L 412.909835 497.9016 
z
" style="fill:#ff7f0e;opacity:0.7;"/>
   </g>
   <g id="patch_142">
    <path clip-path="url(#pa109ea77dc)" d="M 419.622231 497.9016 
L 426.334628 497.9016 
L 426.334628 497.9016 
L 419.622231 497.9016 
z
" style="fill:#ff7f0e;opacity:0.7;"/>
   </g>
   <g id="patch_143">
    <path clip-path="url(#pa109ea77dc)" d="M 426.334628 497.9016 
L 433.047025 497.9016 
L 433.047025 497.9016 
L 426.334628 497.9016 
z
" style="fill:#ff7f0e;opacity:0.7;"/>
   </g>
   <g id="patch_144">
    <path clip-path="url(#pa109ea77dc)" d="M 433.047025 497.9016 
L 439.759421 497.9016 
L 439.759421 497.9016 
L 433.047025 497.9016 
z
" style="fill:#ff7f0e;opacity:0.7;"/>
   </g>
   <g id="patch_145">
    <path clip-path="url(#pa109ea77dc)" d="M 439.759421 497.9016 
L 446.471818 497.9016 
L 446.471818 497.9016 
L 439.759421 497.9016 
z
" style="fill:#ff7f0e;opacity:0.7;"/>
   </g>
   <g id="patch_146">
    <path clip-path="url(#pa109ea77dc)" d="M 446.471818 497.9016 
L 453.184215 497.9016 
L 453.184215 497.9016 
L 446.471818 497.9016 
z
" style="fill:#ff7f0e;opacity:0.7;"/>
   </g>
   <g id="patch_147">
    <path clip-path="url(#pa109ea77dc)" d="M 453.184215 497.9016 
L 459.896612 497.9016 
L 459.896612 497.9016 
L 453.184215 497.9016 
z
" style="fill:#ff7f0e;opacity:0.7;"/>
   </g>
   <g id="patch_148">
    <path clip-path="url(#pa109ea77dc)" d="M 459.896612 497.9016 
L 466.609008 497.9016 
L 466.609008 497.9016 
L 459.896612 497.9016 
z
" style="fill:#ff7f0e;opacity:0.7;"/>
   </g>
   <g id="patch_149">
    <path clip-path="url(#pa109ea77dc)" d="M 466.609008 497.9016 
L 473.321405 497.9016 
L 473.321405 497.9016 
L 466.609008 497.9016 
z
" style="fill:#ff7f0e;opacity:0.7;"/>
   </g>
   <g id="patch_150">
    <path clip-path="url(#pa109ea77dc)" d="M 473.321405 497.9016 
L 480.033802 497.9016 
L 480.033802 497.9016 
L 473.321405 497.9016 
z
" style="fill:#ff7f0e;opacity:0.7;"/>
   </g>
   <g id="patch_151">
    <path clip-path="url(#pa109ea77dc)" d="M 480.033802 497.9016 
L 486.746198 497.9016 
L 486.746198 497.9016 
L 480.033802 497.9016 
z
" style="fill:#ff7f0e;opacity:0.7;"/>
   </g>
   <g id="patch_152">
    <path clip-path="url(#pa109ea77dc)" d="M 486.746198 497.9016 
L 493.458595 497.9016 
L 493.458595 497.9016 
L 486.746198 497.9016 
z
" style="fill:#ff7f0e;opacity:0.7;"/>
   </g>
   <g id="patch_153">
    <path clip-path="url(#pa109ea77dc)" d="M 493.458595 497.9016 
L 500.170992 497.9016 
L 500.170992 497.9016 
L 493.458595 497.9016 
z
" style="fill:#ff7f0e;opacity:0.7;"/>
   </g>
   <g id="patch_154">
    <path clip-path="url(#pa109ea77dc)" d="M 500.170992 497.9016 
L 506.883388 497.9016 
L 506.883388 497.9016 
L 500.170992 497.9016 
z
" style="fill:#ff7f0e;opacity:0.7;"/>
   </g>
   <g id="patch_155">
    <path clip-path="url(#pa109ea77dc)" d="M 506.883388 497.9016 
L 513.595785 497.9016 
L 513.595785 497.9016 
L 506.883388 497.9016 
z
" style="fill:#ff7f0e;opacity:0.7;"/>
   </g>
   <g id="patch_156">
    <path clip-path="url(#pa109ea77dc)" d="M 513.595785 497.9016 
L 520.308182 497.9016 
L 520.308182 497.9016 
L 513.595785 497.9016 
z
" style="fill:#ff7f0e;opacity:0.7;"/>
   </g>
   <g id="patch_157">
    <path clip-path="url(#pa109ea77dc)" d="M 520.308182 497.9016 
L 527.020579 497.9016 
L 527.020579 497.9016 
L 520.308182 497.9016 
z
" style="fill:#ff7f0e;opacity:0.7;"/>
   </g>
   <g id="patch_158">
    <path clip-path="url(#pa109ea77dc)" d="M 527.020579 497.9016 
L 533.732975 497.9016 
L 533.732975 497.9016 
L 527.020579 497.9016 
z
" style="fill:#ff7f0e;opacity:0.7;"/>
   </g>
   <g id="patch_159">
    <path clip-path="url(#pa109ea77dc)" d="M 533.732975 497.9016 
L 540.445372 497.9016 
L 540.445372 497.9016 
L 533.732975 497.9016 
z
" style="fill:#ff7f0e;opacity:0.7;"/>
   </g>
   <g id="patch_160">
    <path clip-path="url(#pa109ea77dc)" d="M 540.445372 497.9016 
L 547.157769 497.9016 
L 547.157769 497.9016 
L 540.445372 497.9016 
z
" style="fill:#ff7f0e;opacity:0.7;"/>
   </g>
   <g id="patch_161">
    <path clip-path="url(#pa109ea77dc)" d="M 547.157769 497.9016 
L 553.870165 497.9016 
L 553.870165 497.9016 
L 547.157769 497.9016 
z
" style="fill:#ff7f0e;opacity:0.7;"/>
   </g>
   <g id="patch_162">
    <path clip-path="url(#pa109ea77dc)" d="M 553.870165 497.9016 
L 560.582562 497.9016 
L 560.582562 497.9016 
L 553.870165 497.9016 
z
" style="fill:#ff7f0e;opacity:0.7;"/>
   </g>
   <g id="patch_163">
    <path clip-path="url(#pa109ea77dc)" d="M 560.582562 497.9016 
L 567.294959 497.9016 
L 567.294959 497.9016 
L 560.582562 497.9016 
z
" style="fill:#ff7f0e;opacity:0.7;"/>
   </g>
   <g id="patch_164">
    <path clip-path="url(#pa109ea77dc)" d="M 567.294959 497.9016 
L 574.007355 497.9016 
L 574.007355 497.9016 
L 567.294959 497.9016 
z
" style="fill:#ff7f0e;opacity:0.7;"/>
   </g>
   <g id="patch_165">
    <path clip-path="url(#pa109ea77dc)" d="M 574.007355 497.9016 
L 580.719752 497.9016 
L 580.719752 480.064383 
L 574.007355 480.064383 
z
" style="fill:#ff7f0e;opacity:0.7;"/>
   </g>
   <g id="patch_166">
    <path clip-path="url(#pa109ea77dc)" d="M 580.719752 497.9016 
L 587.432149 497.9016 
L 587.432149 497.9016 
L 580.719752 497.9016 
z
" style="fill:#ff7f0e;opacity:0.7;"/>
   </g>
   <g id="patch_167">
    <path clip-path="url(#pa109ea77dc)" d="M 587.432149 497.9016 
L 594.144545 497.9016 
L 594.144545 480.064383 
L 587.432149 480.064383 
z
" style="fill:#ff7f0e;opacity:0.7;"/>
   </g>
   <g id="patch_168">
    <path clip-path="url(#pa109ea77dc)" d="M 594.144545 497.9016 
L 600.856942 497.9016 
L 600.856942 480.064383 
L 594.144545 480.064383 
z
" style="fill:#ff7f0e;opacity:0.7;"/>
   </g>
   <g id="patch_169">
    <path clip-path="url(#pa109ea77dc)" d="M 600.856942 497.9016 
L 607.569339 497.9016 
L 607.569339 497.9016 
L 600.856942 497.9016 
z
" style="fill:#ff7f0e;opacity:0.7;"/>
   </g>
   <g id="patch_170">
    <path clip-path="url(#pa109ea77dc)" d="M 607.569339 497.9016 
L 614.281736 497.9016 
L 614.281736 408.715513 
L 607.569339 408.715513 
z
" style="fill:#ff7f0e;opacity:0.7;"/>
   </g>
   <g id="patch_171">
    <path clip-path="url(#pa109ea77dc)" d="M 614.281736 497.9016 
L 620.994132 497.9016 
L 620.994132 390.878296 
L 614.281736 390.878296 
z
" style="fill:#ff7f0e;opacity:0.7;"/>
   </g>
   <g id="patch_172">
    <path clip-path="url(#pa109ea77dc)" d="M 620.994132 497.9016 
L 627.706529 497.9016 
L 627.706529 337.366643 
L 620.994132 337.366643 
z
" style="fill:#ff7f0e;opacity:0.7;"/>
   </g>
   <g id="patch_173">
    <path clip-path="url(#pa109ea77dc)" d="M 627.706529 497.9016 
L 634.418926 497.9016 
L 634.418926 319.529426 
L 627.706529 319.529426 
z
" style="fill:#ff7f0e;opacity:0.7;"/>
   </g>
   <g id="patch_174">
    <path clip-path="url(#pa109ea77dc)" d="M 634.418926 497.9016 
L 641.131322 497.9016 
L 641.131322 462.227165 
L 634.418926 462.227165 
z
" style="fill:#ff7f0e;opacity:0.7;"/>
   </g>
   <g id="patch_175">
    <path clip-path="url(#pa109ea77dc)" d="M 641.131322 497.9016 
L 647.843719 497.9016 
L 647.843719 373.041078 
L 641.131322 373.041078 
z
" style="fill:#ff7f0e;opacity:0.7;"/>
   </g>
   <g id="patch_176">
    <path clip-path="url(#pa109ea77dc)" d="M 647.843719 497.9016 
L 654.556116 497.9016 
L 654.556116 355.203861 
L 647.843719 355.203861 
z
" style="fill:#ff7f0e;opacity:0.7;"/>
   </g>
   <g id="patch_177">
    <path clip-path="url(#pa109ea77dc)" d="M 654.556116 497.9016 
L 661.268512 497.9016 
L 661.268512 337.366643 
L 654.556116 337.366643 
z
" style="fill:#ff7f0e;opacity:0.7;"/>
   </g>
   <g id="patch_178">
    <path clip-path="url(#pa109ea77dc)" d="M 661.268512 497.9016 
L 667.980909 497.9016 
L 667.980909 283.854991 
L 661.268512 283.854991 
z
" style="fill:#ff7f0e;opacity:0.7;"/>
   </g>
   <g id="patch_179">
    <path clip-path="url(#pa109ea77dc)" d="M 667.980909 497.9016 
L 674.693306 497.9016 
L 674.693306 337.366643 
L 667.980909 337.366643 
z
" style="fill:#ff7f0e;opacity:0.7;"/>
   </g>
   <g id="patch_180">
    <path clip-path="url(#pa109ea77dc)" d="M 674.693306 497.9016 
L 681.405702 497.9016 
L 681.405702 408.715513 
L 674.693306 408.715513 
z
" style="fill:#ff7f0e;opacity:0.7;"/>
   </g>
   <g id="patch_181">
    <path clip-path="url(#pa109ea77dc)" d="M 681.405702 497.9016 
L 688.118099 497.9016 
L 688.118099 462.227165 
L 681.405702 462.227165 
z
" style="fill:#ff7f0e;opacity:0.7;"/>
   </g>
   <g id="patch_182">
    <path clip-path="url(#pa109ea77dc)" d="M 688.118099 497.9016 
L 694.830496 497.9016 
L 694.830496 444.389948 
L 688.118099 444.389948 
z
" style="fill:#ff7f0e;opacity:0.7;"/>
   </g>
   <g id="patch_183">
    <path clip-path="url(#pa109ea77dc)" d="M 694.830496 497.9016 
L 701.542893 497.9016 
L 701.542893 480.064383 
L 694.830496 480.064383 
z
" style="fill:#ff7f0e;opacity:0.7;"/>
   </g>
   <g id="patch_184">
    <path clip-path="url(#pa109ea77dc)" d="M 701.542893 497.9016 
L 708.255289 497.9016 
L 708.255289 497.9016 
L 701.542893 497.9016 
z
" style="fill:#ff7f0e;opacity:0.7;"/>
   </g>
   <g id="patch_185">
    <path clip-path="url(#pa109ea77dc)" d="M 708.255289 497.9016 
L 714.967686 497.9016 
L 714.967686 444.389948 
L 708.255289 444.389948 
z
" style="fill:#ff7f0e;opacity:0.7;"/>
   </g>
   <g id="patch_186">
    <path clip-path="url(#pa109ea77dc)" d="M 714.967686 497.9016 
L 721.680083 497.9016 
L 721.680083 497.9016 
L 714.967686 497.9016 
z
" style="fill:#ff7f0e;opacity:0.7;"/>
   </g>
   <g id="patch_187">
    <path clip-path="url(#pa109ea77dc)" d="M 721.680083 497.9016 
L 728.392479 497.9016 
L 728.392479 497.9016 
L 721.680083 497.9016 
z
" style="fill:#ff7f0e;opacity:0.7;"/>
   </g>
   <g id="patch_188">
    <path clip-path="url(#pa109ea77dc)" d="M 728.392479 497.9016 
L 735.104876 497.9016 
L 735.104876 497.9016 
L 728.392479 497.9016 
z
" style="fill:#ff7f0e;opacity:0.7;"/>
   </g>
   <g id="patch_189">
    <path clip-path="url(#pa109ea77dc)" d="M 735.104876 497.9016 
L 741.817273 497.9016 
L 741.817273 497.9016 
L 735.104876 497.9016 
z
" style="fill:#ff7f0e;opacity:0.7;"/>
   </g>
   <g id="patch_190">
    <path clip-path="url(#pa109ea77dc)" d="M 741.817273 497.9016 
L 748.529669 497.9016 
L 748.529669 497.9016 
L 741.817273 497.9016 
z
" style="fill:#ff7f0e;opacity:0.7;"/>
   </g>
   <g id="patch_191">
    <path clip-path="url(#pa109ea77dc)" d="M 748.529669 497.9016 
L 755.242066 497.9016 
L 755.242066 497.9016 
L 748.529669 497.9016 
z
" style="fill:#ff7f0e;opacity:0.7;"/>
   </g>
   <g id="patch_192">
    <path clip-path="url(#pa109ea77dc)" d="M 755.242066 497.9016 
L 761.954463 497.9016 
L 761.954463 480.064383 
L 755.242066 480.064383 
z
" style="fill:#ff7f0e;opacity:0.7;"/>
   </g>
   <g id="patch_193">
    <path clip-path="url(#pa109ea77dc)" d="M 761.954463 497.9016 
L 768.66686 497.9016 
L 768.66686 497.9016 
L 761.954463 497.9016 
z
" style="fill:#ff7f0e;opacity:0.7;"/>
   </g>
   <g id="patch_194">
    <path clip-path="url(#pa109ea77dc)" d="M 768.66686 497.9016 
L 775.379256 497.9016 
L 775.379256 480.064383 
L 768.66686 480.064383 
z
" style="fill:#ff7f0e;opacity:0.7;"/>
   </g>
   <g id="patch_195">
    <path clip-path="url(#pa109ea77dc)" d="M 775.379256 497.9016 
L 782.091653 497.9016 
L 782.091653 497.9016 
L 775.379256 497.9016 
z
" style="fill:#ff7f0e;opacity:0.7;"/>
   </g>
   <g id="patch_196">
    <path clip-path="url(#pa109ea77dc)" d="M 782.091653 497.9016 
L 788.80405 497.9016 
L 788.80405 497.9016 
L 782.091653 497.9016 
z
" style="fill:#ff7f0e;opacity:0.7;"/>
   </g>
   <g id="patch_197">
    <path clip-path="url(#pa109ea77dc)" d="M 788.80405 497.9016 
L 795.516446 497.9016 
L 795.516446 497.9016 
L 788.80405 497.9016 
z
" style="fill:#ff7f0e;opacity:0.7;"/>
   </g>
   <g id="patch_198">
    <path clip-path="url(#pa109ea77dc)" d="M 795.516446 497.9016 
L 802.228843 497.9016 
L 802.228843 480.064383 
L 795.516446 480.064383 
z
" style="fill:#ff7f0e;opacity:0.7;"/>
   </g>
   <g id="patch_199">
    <path clip-path="url(#pa109ea77dc)" d="M 802.228843 497.9016 
L 808.94124 497.9016 
L 808.94124 480.064383 
L 802.228843 480.064383 
z
" style="fill:#ff7f0e;opacity:0.7;"/>
   </g>
   <g id="patch_200">
    <path clip-path="url(#pa109ea77dc)" d="M 808.94124 497.9016 
L 815.653636 497.9016 
L 815.653636 497.9016 
L 808.94124 497.9016 
z
" style="fill:#ff7f0e;opacity:0.7;"/>
   </g>
   <g id="patch_201">
    <path clip-path="url(#pa109ea77dc)" d="M 151.126364 497.9016 
L 157.83876 497.9016 
L 157.83876 480.064383 
L 151.126364 480.064383 
z
" style="fill:#2ca02c;opacity:0.7;"/>
   </g>
   <g id="patch_202">
    <path clip-path="url(#pa109ea77dc)" d="M 157.83876 497.9016 
L 164.551157 497.9016 
L 164.551157 444.389948 
L 157.83876 444.389948 
z
" style="fill:#2ca02c;opacity:0.7;"/>
   </g>
   <g id="patch_203">
    <path clip-path="url(#pa109ea77dc)" d="M 164.551157 497.9016 
L 171.263554 497.9016 
L 171.263554 462.227165 
L 164.551157 462.227165 
z
" style="fill:#2ca02c;opacity:0.7;"/>
   </g>
   <g id="patch_204">
    <path clip-path="url(#pa109ea77dc)" d="M 171.263554 497.9016 
L 177.97595 497.9016 
L 177.97595 373.041078 
L 171.263554 373.041078 
z
" style="fill:#2ca02c;opacity:0.7;"/>
   </g>
   <g id="patch_205">
    <path clip-path="url(#pa109ea77dc)" d="M 177.97595 497.9016 
L 184.688347 497.9016 
L 184.688347 194.668904 
L 177.97595 194.668904 
z
" style="fill:#2ca02c;opacity:0.7;"/>
   </g>
   <g id="patch_206">
    <path clip-path="url(#pa109ea77dc)" d="M 184.688347 497.9016 
L 191.400744 497.9016 
L 191.400744 176.831687 
L 184.688347 176.831687 
z
" style="fill:#2ca02c;opacity:0.7;"/>
   </g>
   <g id="patch_207">
    <path clip-path="url(#pa109ea77dc)" d="M 191.400744 497.9016 
L 198.11314 497.9016 
L 198.11314 87.6456 
L 191.400744 87.6456 
z
" style="fill:#2ca02c;opacity:0.7;"/>
   </g>
   <g id="patch_208">
    <path clip-path="url(#pa109ea77dc)" d="M 198.11314 497.9016 
L 204.825537 497.9016 
L 204.825537 301.692209 
L 198.11314 301.692209 
z
" style="fill:#2ca02c;opacity:0.7;"/>
   </g>
   <g id="patch_209">
    <path clip-path="url(#pa109ea77dc)" d="M 204.825537 497.9016 
L 211.537934 497.9016 
L 211.537934 283.854991 
L 204.825537 283.854991 
z
" style="fill:#2ca02c;opacity:0.7;"/>
   </g>
   <g id="patch_210">
    <path clip-path="url(#pa109ea77dc)" d="M 211.537934 497.9016 
L 218.250331 497.9016 
L 218.250331 444.389948 
L 211.537934 444.389948 
z
" style="fill:#2ca02c;opacity:0.7;"/>
   </g>
   <g id="patch_211">
    <path clip-path="url(#pa109ea77dc)" d="M 218.250331 497.9016 
L 224.962727 497.9016 
L 224.962727 444.389948 
L 218.250331 444.389948 
z
" style="fill:#2ca02c;opacity:0.7;"/>
   </g>
   <g id="patch_212">
    <path clip-path="url(#pa109ea77dc)" d="M 224.962727 497.9016 
L 231.675124 497.9016 
L 231.675124 497.9016 
L 224.962727 497.9016 
z
" style="fill:#2ca02c;opacity:0.7;"/>
   </g>
   <g id="patch_213">
    <path clip-path="url(#pa109ea77dc)" d="M 231.675124 497.9016 
L 238.387521 497.9016 
L 238.387521 497.9016 
L 231.675124 497.9016 
z
" style="fill:#2ca02c;opacity:0.7;"/>
   </g>
   <g id="patch_214">
    <path clip-path="url(#pa109ea77dc)" d="M 238.387521 497.9016 
L 245.099917 497.9016 
L 245.099917 497.9016 
L 238.387521 497.9016 
z
" style="fill:#2ca02c;opacity:0.7;"/>
   </g>
   <g id="patch_215">
    <path clip-path="url(#pa109ea77dc)" d="M 245.099917 497.9016 
L 251.812314 497.9016 
L 251.812314 497.9016 
L 245.099917 497.9016 
z
" style="fill:#2ca02c;opacity:0.7;"/>
   </g>
   <g id="patch_216">
    <path clip-path="url(#pa109ea77dc)" d="M 251.812314 497.9016 
L 258.524711 497.9016 
L 258.524711 497.9016 
L 251.812314 497.9016 
z
" style="fill:#2ca02c;opacity:0.7;"/>
   </g>
   <g id="patch_217">
    <path clip-path="url(#pa109ea77dc)" d="M 258.524711 497.9016 
L 265.237107 497.9016 
L 265.237107 497.9016 
L 258.524711 497.9016 
z
" style="fill:#2ca02c;opacity:0.7;"/>
   </g>
   <g id="patch_218">
    <path clip-path="url(#pa109ea77dc)" d="M 265.237107 497.9016 
L 271.949504 497.9016 
L 271.949504 497.9016 
L 265.237107 497.9016 
z
" style="fill:#2ca02c;opacity:0.7;"/>
   </g>
   <g id="patch_219">
    <path clip-path="url(#pa109ea77dc)" d="M 271.949504 497.9016 
L 278.661901 497.9016 
L 278.661901 497.9016 
L 271.949504 497.9016 
z
" style="fill:#2ca02c;opacity:0.7;"/>
   </g>
   <g id="patch_220">
    <path clip-path="url(#pa109ea77dc)" d="M 278.661901 497.9016 
L 285.374298 497.9016 
L 285.374298 497.9016 
L 278.661901 497.9016 
z
" style="fill:#2ca02c;opacity:0.7;"/>
   </g>
   <g id="patch_221">
    <path clip-path="url(#pa109ea77dc)" d="M 285.374298 497.9016 
L 292.086694 497.9016 
L 292.086694 497.9016 
L 285.374298 497.9016 
z
" style="fill:#2ca02c;opacity:0.7;"/>
   </g>
   <g id="patch_222">
    <path clip-path="url(#pa109ea77dc)" d="M 292.086694 497.9016 
L 298.799091 497.9016 
L 298.799091 497.9016 
L 292.086694 497.9016 
z
" style="fill:#2ca02c;opacity:0.7;"/>
   </g>
   <g id="patch_223">
    <path clip-path="url(#pa109ea77dc)" d="M 298.799091 497.9016 
L 305.511488 497.9016 
L 305.511488 497.9016 
L 298.799091 497.9016 
z
" style="fill:#2ca02c;opacity:0.7;"/>
   </g>
   <g id="patch_224">
    <path clip-path="url(#pa109ea77dc)" d="M 305.511488 497.9016 
L 312.223884 497.9016 
L 312.223884 497.9016 
L 305.511488 497.9016 
z
" style="fill:#2ca02c;opacity:0.7;"/>
   </g>
   <g id="patch_225">
    <path clip-path="url(#pa109ea77dc)" d="M 312.223884 497.9016 
L 318.936281 497.9016 
L 318.936281 497.9016 
L 312.223884 497.9016 
z
" style="fill:#2ca02c;opacity:0.7;"/>
   </g>
   <g id="patch_226">
    <path clip-path="url(#pa109ea77dc)" d="M 318.936281 497.9016 
L 325.648678 497.9016 
L 325.648678 497.9016 
L 318.936281 497.9016 
z
" style="fill:#2ca02c;opacity:0.7;"/>
   </g>
   <g id="patch_227">
    <path clip-path="url(#pa109ea77dc)" d="M 325.648678 497.9016 
L 332.361074 497.9016 
L 332.361074 497.9016 
L 325.648678 497.9016 
z
" style="fill:#2ca02c;opacity:0.7;"/>
   </g>
   <g id="patch_228">
    <path clip-path="url(#pa109ea77dc)" d="M 332.361074 497.9016 
L 339.073471 497.9016 
L 339.073471 497.9016 
L 332.361074 497.9016 
z
" style="fill:#2ca02c;opacity:0.7;"/>
   </g>
   <g id="patch_229">
    <path clip-path="url(#pa109ea77dc)" d="M 339.073471 497.9016 
L 345.785868 497.9016 
L 345.785868 497.9016 
L 339.073471 497.9016 
z
" style="fill:#2ca02c;opacity:0.7;"/>
   </g>
   <g id="patch_230">
    <path clip-path="url(#pa109ea77dc)" d="M 345.785868 497.9016 
L 352.498264 497.9016 
L 352.498264 497.9016 
L 345.785868 497.9016 
z
" style="fill:#2ca02c;opacity:0.7;"/>
   </g>
   <g id="patch_231">
    <path clip-path="url(#pa109ea77dc)" d="M 352.498264 497.9016 
L 359.210661 497.9016 
L 359.210661 497.9016 
L 352.498264 497.9016 
z
" style="fill:#2ca02c;opacity:0.7;"/>
   </g>
   <g id="patch_232">
    <path clip-path="url(#pa109ea77dc)" d="M 359.210661 497.9016 
L 365.923058 497.9016 
L 365.923058 497.9016 
L 359.210661 497.9016 
z
" style="fill:#2ca02c;opacity:0.7;"/>
   </g>
   <g id="patch_233">
    <path clip-path="url(#pa109ea77dc)" d="M 365.923058 497.9016 
L 372.635455 497.9016 
L 372.635455 497.9016 
L 365.923058 497.9016 
z
" style="fill:#2ca02c;opacity:0.7;"/>
   </g>
   <g id="patch_234">
    <path clip-path="url(#pa109ea77dc)" d="M 372.635455 497.9016 
L 379.347851 497.9016 
L 379.347851 497.9016 
L 372.635455 497.9016 
z
" style="fill:#2ca02c;opacity:0.7;"/>
   </g>
   <g id="patch_235">
    <path clip-path="url(#pa109ea77dc)" d="M 379.347851 497.9016 
L 386.060248 497.9016 
L 386.060248 497.9016 
L 379.347851 497.9016 
z
" style="fill:#2ca02c;opacity:0.7;"/>
   </g>
   <g id="patch_236">
    <path clip-path="url(#pa109ea77dc)" d="M 386.060248 497.9016 
L 392.772645 497.9016 
L 392.772645 497.9016 
L 386.060248 497.9016 
z
" style="fill:#2ca02c;opacity:0.7;"/>
   </g>
   <g id="patch_237">
    <path clip-path="url(#pa109ea77dc)" d="M 392.772645 497.9016 
L 399.485041 497.9016 
L 399.485041 497.9016 
L 392.772645 497.9016 
z
" style="fill:#2ca02c;opacity:0.7;"/>
   </g>
   <g id="patch_238">
    <path clip-path="url(#pa109ea77dc)" d="M 399.485041 497.9016 
L 406.197438 497.9016 
L 406.197438 497.9016 
L 399.485041 497.9016 
z
" style="fill:#2ca02c;opacity:0.7;"/>
   </g>
   <g id="patch_239">
    <path clip-path="url(#pa109ea77dc)" d="M 406.197438 497.9016 
L 412.909835 497.9016 
L 412.909835 497.9016 
L 406.197438 497.9016 
z
" style="fill:#2ca02c;opacity:0.7;"/>
   </g>
   <g id="patch_240">
    <path clip-path="url(#pa109ea77dc)" d="M 412.909835 497.9016 
L 419.622231 497.9016 
L 419.622231 497.9016 
L 412.909835 497.9016 
z
" style="fill:#2ca02c;opacity:0.7;"/>
   </g>
   <g id="patch_241">
    <path clip-path="url(#pa109ea77dc)" d="M 419.622231 497.9016 
L 426.334628 497.9016 
L 426.334628 497.9016 
L 419.622231 497.9016 
z
" style="fill:#2ca02c;opacity:0.7;"/>
   </g>
   <g id="patch_242">
    <path clip-path="url(#pa109ea77dc)" d="M 426.334628 497.9016 
L 433.047025 497.9016 
L 433.047025 497.9016 
L 426.334628 497.9016 
z
" style="fill:#2ca02c;opacity:0.7;"/>
   </g>
   <g id="patch_243">
    <path clip-path="url(#pa109ea77dc)" d="M 433.047025 497.9016 
L 439.759421 497.9016 
L 439.759421 497.9016 
L 433.047025 497.9016 
z
" style="fill:#2ca02c;opacity:0.7;"/>
   </g>
   <g id="patch_244">
    <path clip-path="url(#pa109ea77dc)" d="M 439.759421 497.9016 
L 446.471818 497.9016 
L 446.471818 497.9016 
L 439.759421 497.9016 
z
" style="fill:#2ca02c;opacity:0.7;"/>
   </g>
   <g id="patch_245">
    <path clip-path="url(#pa109ea77dc)" d="M 446.471818 497.9016 
L 453.184215 497.9016 
L 453.184215 497.9016 
L 446.471818 497.9016 
z
" style="fill:#2ca02c;opacity:0.7;"/>
   </g>
   <g id="patch_246">
    <path clip-path="url(#pa109ea77dc)" d="M 453.184215 497.9016 
L 459.896612 497.9016 
L 459.896612 497.9016 
L 453.184215 497.9016 
z
" style="fill:#2ca02c;opacity:0.7;"/>
   </g>
   <g id="patch_247">
    <path clip-path="url(#pa109ea77dc)" d="M 459.896612 497.9016 
L 466.609008 497.9016 
L 466.609008 497.9016 
L 459.896612 497.9016 
z
" style="fill:#2ca02c;opacity:0.7;"/>
   </g>
   <g id="patch_248">
    <path clip-path="url(#pa109ea77dc)" d="M 466.609008 497.9016 
L 473.321405 497.9016 
L 473.321405 497.9016 
L 466.609008 497.9016 
z
" style="fill:#2ca02c;opacity:0.7;"/>
   </g>
   <g id="patch_249">
    <path clip-path="url(#pa109ea77dc)" d="M 473.321405 497.9016 
L 480.033802 497.9016 
L 480.033802 497.9016 
L 473.321405 497.9016 
z
" style="fill:#2ca02c;opacity:0.7;"/>
   </g>
   <g id="patch_250">
    <path clip-path="url(#pa109ea77dc)" d="M 480.033802 497.9016 
L 486.746198 497.9016 
L 486.746198 497.9016 
L 480.033802 497.9016 
z
" style="fill:#2ca02c;opacity:0.7;"/>
   </g>
   <g id="patch_251">
    <path clip-path="url(#pa109ea77dc)" d="M 486.746198 497.9016 
L 493.458595 497.9016 
L 493.458595 497.9016 
L 486.746198 497.9016 
z
" style="fill:#2ca02c;opacity:0.7;"/>
   </g>
   <g id="patch_252">
    <path clip-path="url(#pa109ea77dc)" d="M 493.458595 497.9016 
L 500.170992 497.9016 
L 500.170992 497.9016 
L 493.458595 497.9016 
z
" style="fill:#2ca02c;opacity:0.7;"/>
   </g>
   <g id="patch_253">
    <path clip-path="url(#pa109ea77dc)" d="M 500.170992 497.9016 
L 506.883388 497.9016 
L 506.883388 497.9016 
L 500.170992 497.9016 
z
" style="fill:#2ca02c;opacity:0.7;"/>
   </g>
   <g id="patch_254">
    <path clip-path="url(#pa109ea77dc)" d="M 506.883388 497.9016 
L 513.595785 497.9016 
L 513.595785 497.9016 
L 506.883388 497.9016 
z
" style="fill:#2ca02c;opacity:0.7;"/>
   </g>
   <g id="patch_255">
    <path clip-path="url(#pa109ea77dc)" d="M 513.595785 497.9016 
L 520.308182 497.9016 
L 520.308182 497.9016 
L 513.595785 497.9016 
z
" style="fill:#2ca02c;opacity:0.7;"/>
   </g>
   <g id="patch_256">
    <path clip-path="url(#pa109ea77dc)" d="M 520.308182 497.9016 
L 527.020579 497.9016 
L 527.020579 497.9016 
L 520.308182 497.9016 
z
" style="fill:#2ca02c;opacity:0.7;"/>
   </g>
   <g id="patch_257">
    <path clip-path="url(#pa109ea77dc)" d="M 527.020579 497.9016 
L 533.732975 497.9016 
L 533.732975 497.9016 
L 527.020579 497.9016 
z
" style="fill:#2ca02c;opacity:0.7;"/>
   </g>
   <g id="patch_258">
    <path clip-path="url(#pa109ea77dc)" d="M 533.732975 497.9016 
L 540.445372 497.9016 
L 540.445372 497.9016 
L 533.732975 497.9016 
z
" style="fill:#2ca02c;opacity:0.7;"/>
   </g>
   <g id="patch_259">
    <path clip-path="url(#pa109ea77dc)" d="M 540.445372 497.9016 
L 547.157769 497.9016 
L 547.157769 497.9016 
L 540.445372 497.9016 
z
" style="fill:#2ca02c;opacity:0.7;"/>
   </g>
   <g id="patch_260">
    <path clip-path="url(#pa109ea77dc)" d="M 547.157769 497.9016 
L 553.870165 497.9016 
L 553.870165 497.9016 
L 547.157769 497.9016 
z
" style="fill:#2ca02c;opacity:0.7;"/>
   </g>
   <g id="patch_261">
    <path clip-path="url(#pa109ea77dc)" d="M 553.870165 497.9016 
L 560.582562 497.9016 
L 560.582562 497.9016 
L 553.870165 497.9016 
z
" style="fill:#2ca02c;opacity:0.7;"/>
   </g>
   <g id="patch_262">
    <path clip-path="url(#pa109ea77dc)" d="M 560.582562 497.9016 
L 567.294959 497.9016 
L 567.294959 497.9016 
L 560.582562 497.9016 
z
" style="fill:#2ca02c;opacity:0.7;"/>
   </g>
   <g id="patch_263">
    <path clip-path="url(#pa109ea77dc)" d="M 567.294959 497.9016 
L 574.007355 497.9016 
L 574.007355 497.9016 
L 567.294959 497.9016 
z
" style="fill:#2ca02c;opacity:0.7;"/>
   </g>
   <g id="patch_264">
    <path clip-path="url(#pa109ea77dc)" d="M 574.007355 497.9016 
L 580.719752 497.9016 
L 580.719752 497.9016 
L 574.007355 497.9016 
z
" style="fill:#2ca02c;opacity:0.7;"/>
   </g>
   <g id="patch_265">
    <path clip-path="url(#pa109ea77dc)" d="M 580.719752 497.9016 
L 587.432149 497.9016 
L 587.432149 497.9016 
L 580.719752 497.9016 
z
" style="fill:#2ca02c;opacity:0.7;"/>
   </g>
   <g id="patch_266">
    <path clip-path="url(#pa109ea77dc)" d="M 587.432149 497.9016 
L 594.144545 497.9016 
L 594.144545 497.9016 
L 587.432149 497.9016 
z
" style="fill:#2ca02c;opacity:0.7;"/>
   </g>
   <g id="patch_267">
    <path clip-path="url(#pa109ea77dc)" d="M 594.144545 497.9016 
L 600.856942 497.9016 
L 600.856942 497.9016 
L 594.144545 497.9016 
z
" style="fill:#2ca02c;opacity:0.7;"/>
   </g>
   <g id="patch_268">
    <path clip-path="url(#pa109ea77dc)" d="M 600.856942 497.9016 
L 607.569339 497.9016 
L 607.569339 497.9016 
L 600.856942 497.9016 
z
" style="fill:#2ca02c;opacity:0.7;"/>
   </g>
   <g id="patch_269">
    <path clip-path="url(#pa109ea77dc)" d="M 607.569339 497.9016 
L 614.281736 497.9016 
L 614.281736 497.9016 
L 607.569339 497.9016 
z
" style="fill:#2ca02c;opacity:0.7;"/>
   </g>
   <g id="patch_270">
    <path clip-path="url(#pa109ea77dc)" d="M 614.281736 497.9016 
L 620.994132 497.9016 
L 620.994132 497.9016 
L 614.281736 497.9016 
z
" style="fill:#2ca02c;opacity:0.7;"/>
   </g>
   <g id="patch_271">
    <path clip-path="url(#pa109ea77dc)" d="M 620.994132 497.9016 
L 627.706529 497.9016 
L 627.706529 497.9016 
L 620.994132 497.9016 
z
" style="fill:#2ca02c;opacity:0.7;"/>
   </g>
   <g id="patch_272">
    <path clip-path="url(#pa109ea77dc)" d="M 627.706529 497.9016 
L 634.418926 497.9016 
L 634.418926 497.9016 
L 627.706529 497.9016 
z
" style="fill:#2ca02c;opacity:0.7;"/>
   </g>
   <g id="patch_273">
    <path clip-path="url(#pa109ea77dc)" d="M 634.418926 497.9016 
L 641.131322 497.9016 
L 641.131322 497.9016 
L 634.418926 497.9016 
z
" style="fill:#2ca02c;opacity:0.7;"/>
   </g>
   <g id="patch_274">
    <path clip-path="url(#pa109ea77dc)" d="M 641.131322 497.9016 
L 647.843719 497.9016 
L 647.843719 497.9016 
L 641.131322 497.9016 
z
" style="fill:#2ca02c;opacity:0.7;"/>
   </g>
   <g id="patch_275">
    <path clip-path="url(#pa109ea77dc)" d="M 647.843719 497.9016 
L 654.556116 497.9016 
L 654.556116 497.9016 
L 647.843719 497.9016 
z
" style="fill:#2ca02c;opacity:0.7;"/>
   </g>
   <g id="patch_276">
    <path clip-path="url(#pa109ea77dc)" d="M 654.556116 497.9016 
L 661.268512 497.9016 
L 661.268512 497.9016 
L 654.556116 497.9016 
z
" style="fill:#2ca02c;opacity:0.7;"/>
   </g>
   <g id="patch_277">
    <path clip-path="url(#pa109ea77dc)" d="M 661.268512 497.9016 
L 667.980909 497.9016 
L 667.980909 497.9016 
L 661.268512 497.9016 
z
" style="fill:#2ca02c;opacity:0.7;"/>
   </g>
   <g id="patch_278">
    <path clip-path="url(#pa109ea77dc)" d="M 667.980909 497.9016 
L 674.693306 497.9016 
L 674.693306 497.9016 
L 667.980909 497.9016 
z
" style="fill:#2ca02c;opacity:0.7;"/>
   </g>
   <g id="patch_279">
    <path clip-path="url(#pa109ea77dc)" d="M 674.693306 497.9016 
L 681.405702 497.9016 
L 681.405702 497.9016 
L 674.693306 497.9016 
z
" style="fill:#2ca02c;opacity:0.7;"/>
   </g>
   <g id="patch_280">
    <path clip-path="url(#pa109ea77dc)" d="M 681.405702 497.9016 
L 688.118099 497.9016 
L 688.118099 497.9016 
L 681.405702 497.9016 
z
" style="fill:#2ca02c;opacity:0.7;"/>
   </g>
   <g id="patch_281">
    <path clip-path="url(#pa109ea77dc)" d="M 688.118099 497.9016 
L 694.830496 497.9016 
L 694.830496 497.9016 
L 688.118099 497.9016 
z
" style="fill:#2ca02c;opacity:0.7;"/>
   </g>
   <g id="patch_282">
    <path clip-path="url(#pa109ea77dc)" d="M 694.830496 497.9016 
L 701.542893 497.9016 
L 701.542893 497.9016 
L 694.830496 497.9016 
z
" style="fill:#2ca02c;opacity:0.7;"/>
   </g>
   <g id="patch_283">
    <path clip-path="url(#pa109ea77dc)" d="M 701.542893 497.9016 
L 708.255289 497.9016 
L 708.255289 497.9016 
L 701.542893 497.9016 
z
" style="fill:#2ca02c;opacity:0.7;"/>
   </g>
   <g id="patch_284">
    <path clip-path="url(#pa109ea77dc)" d="M 708.255289 497.9016 
L 714.967686 497.9016 
L 714.967686 497.9016 
L 708.255289 497.9016 
z
" style="fill:#2ca02c;opacity:0.7;"/>
   </g>
   <g id="patch_285">
    <path clip-path="url(#pa109ea77dc)" d="M 714.967686 497.9016 
L 721.680083 497.9016 
L 721.680083 497.9016 
L 714.967686 497.9016 
z
" style="fill:#2ca02c;opacity:0.7;"/>
   </g>
   <g id="patch_286">
    <path clip-path="url(#pa109ea77dc)" d="M 721.680083 497.9016 
L 728.392479 497.9016 
L 728.392479 497.9016 
L 721.680083 497.9016 
z
" style="fill:#2ca02c;opacity:0.7;"/>
   </g>
   <g id="patch_287">
    <path clip-path="url(#pa109ea77dc)" d="M 728.392479 497.9016 
L 735.104876 497.9016 
L 735.104876 497.9016 
L 728.392479 497.9016 
z
" style="fill:#2ca02c;opacity:0.7;"/>
   </g>
   <g id="patch_288">
    <path clip-path="url(#pa109ea77dc)" d="M 735.104876 497.9016 
L 741.817273 497.9016 
L 741.817273 497.9016 
L 735.104876 497.9016 
z
" style="fill:#2ca02c;opacity:0.7;"/>
   </g>
   <g id="patch_289">
    <path clip-path="url(#pa109ea77dc)" d="M 741.817273 497.9016 
L 748.529669 497.9016 
L 748.529669 497.9016 
L 741.817273 497.9016 
z
" style="fill:#2ca02c;opacity:0.7;"/>
   </g>
   <g id="patch_290">
    <path clip-path="url(#pa109ea77dc)" d="M 748.529669 497.9016 
L 755.242066 497.9016 
L 755.242066 497.9016 
L 748.529669 497.9016 
z
" style="fill:#2ca02c;opacity:0.7;"/>
   </g>
   <g id="patch_291">
    <path clip-path="url(#pa109ea77dc)" d="M 755.242066 497.9016 
L 761.954463 497.9016 
L 761.954463 497.9016 
L 755.242066 497.9016 
z
" style="fill:#2ca02c;opacity:0.7;"/>
   </g>
   <g id="patch_292">
    <path clip-path="url(#pa109ea77dc)" d="M 761.954463 497.9016 
L 768.66686 497.9016 
L 768.66686 497.9016 
L 761.954463 497.9016 
z
" style="fill:#2ca02c;opacity:0.7;"/>
   </g>
   <g id="patch_293">
    <path clip-path="url(#pa109ea77dc)" d="M 768.66686 497.9016 
L 775.379256 497.9016 
L 775.379256 497.9016 
L 768.66686 497.9016 
z
" style="fill:#2ca02c;opacity:0.7;"/>
   </g>
   <g id="patch_294">
    <path clip-path="url(#pa109ea77dc)" d="M 775.379256 497.9016 
L 782.091653 497.9016 
L 782.091653 497.9016 
L 775.379256 497.9016 
z
" style="fill:#2ca02c;opacity:0.7;"/>
   </g>
   <g id="patch_295">
    <path clip-path="url(#pa109ea77dc)" d="M 782.091653 497.9016 
L 788.80405 497.9016 
L 788.80405 497.9016 
L 782.091653 497.9016 
z
" style="fill:#2ca02c;opacity:0.7;"/>
   </g>
   <g id="patch_296">
    <path clip-path="url(#pa109ea77dc)" d="M 788.80405 497.9016 
L 795.516446 497.9016 
L 795.516446 497.9016 
L 788.80405 497.9016 
z
" style="fill:#2ca02c;opacity:0.7;"/>
   </g>
   <g id="patch_297">
    <path clip-path="url(#pa109ea77dc)" d="M 795.516446 497.9016 
L 802.228843 497.9016 
L 802.228843 497.9016 
L 795.516446 497.9016 
z
" style="fill:#2ca02c;opacity:0.7;"/>
   </g>
   <g id="patch_298">
    <path clip-path="url(#pa109ea77dc)" d="M 802.228843 497.9016 
L 808.94124 497.9016 
L 808.94124 497.9016 
L 802.228843 497.9016 
z
" style="fill:#2ca02c;opacity:0.7;"/>
   </g>
   <g id="patch_299">
    <path clip-path="url(#pa109ea77dc)" d="M 808.94124 497.9016 
L 815.653636 497.9016 
L 815.653636 497.9016 
L 808.94124 497.9016 
z
" style="fill:#2ca02c;opacity:0.7;"/>
   </g>
   <g id="matplotlib.axis_1">
    <g id="xtick_1">
     <g id="line2d_1">
      <defs>
       <path d="M 0 0 
L 0 3.5 
" id="m59295c202b" style="stroke:#000000;stroke-width:0.8;"/>
      </defs>
      <g>
       <use style="stroke:#000000;stroke-width:0.8;" x="151.126364" xlink:href="#m59295c202b" y="497.9016"/>
      </g>
     </g>
     <g id="text_1">
      <!-- 40 -->
      <defs>
       <path d="M 37.796875 64.3125 
L 12.890625 25.390625 
L 37.796875 25.390625 
z
M 35.203125 72.90625 
L 47.609375 72.90625 
L 47.609375 25.390625 
L 58.015625 25.390625 
L 58.015625 17.1875 
L 47.609375 17.1875 
L 47.609375 0 
L 37.796875 0 
L 37.796875 17.1875 
L 4.890625 17.1875 
L 4.890625 26.703125 
z
" id="DejaVuSans-52"/>
       <path d="M 31.78125 66.40625 
Q 24.171875 66.40625 20.328125 58.90625 
Q 16.5 51.421875 16.5 36.375 
Q 16.5 21.390625 20.328125 13.890625 
Q 24.171875 6.390625 31.78125 6.390625 
Q 39.453125 6.390625 43.28125 13.890625 
Q 47.125 21.390625 47.125 36.375 
Q 47.125 51.421875 43.28125 58.90625 
Q 39.453125 66.40625 31.78125 66.40625 
z
M 31.78125 74.21875 
Q 44.046875 74.21875 50.515625 64.515625 
Q 56.984375 54.828125 56.984375 36.375 
Q 56.984375 17.96875 50.515625 8.265625 
Q 44.046875 -1.421875 31.78125 -1.421875 
Q 19.53125 -1.421875 13.0625 8.265625 
Q 6.59375 17.96875 6.59375 36.375 
Q 6.59375 54.828125 13.0625 64.515625 
Q 19.53125 74.21875 31.78125 74.21875 
z
" id="DejaVuSans-48"/>
      </defs>
      <g transform="translate(135.220114 523.897694)scale(0.25 -0.25)">
       <use xlink:href="#DejaVuSans-52"/>
       <use x="63.623047" xlink:href="#DejaVuSans-48"/>
      </g>
     </g>
    </g>
    <g id="xtick_2">
     <g id="line2d_2">
      <g>
       <use style="stroke:#000000;stroke-width:0.8;" x="246.058831" xlink:href="#m59295c202b" y="497.9016"/>
      </g>
     </g>
     <g id="text_2">
      <!-- 50 -->
      <defs>
       <path d="M 10.796875 72.90625 
L 49.515625 72.90625 
L 49.515625 64.59375 
L 19.828125 64.59375 
L 19.828125 46.734375 
Q 21.96875 47.46875 24.109375 47.828125 
Q 26.265625 48.1875 28.421875 48.1875 
Q 40.625 48.1875 47.75 41.5 
Q 54.890625 34.8125 54.890625 23.390625 
Q 54.890625 11.625 47.5625 5.09375 
Q 40.234375 -1.421875 26.90625 -1.421875 
Q 22.3125 -1.421875 17.546875 -0.640625 
Q 12.796875 0.140625 7.71875 1.703125 
L 7.71875 11.625 
Q 12.109375 9.234375 16.796875 8.0625 
Q 21.484375 6.890625 26.703125 6.890625 
Q 35.15625 6.890625 40.078125 11.328125 
Q 45.015625 15.765625 45.015625 23.390625 
Q 45.015625 31 40.078125 35.4375 
Q 35.15625 39.890625 26.703125 39.890625 
Q 22.75 39.890625 18.8125 39.015625 
Q 14.890625 38.140625 10.796875 36.28125 
z
" id="DejaVuSans-53"/>
      </defs>
      <g transform="translate(230.152581 523.897694)scale(0.25 -0.25)">
       <use xlink:href="#DejaVuSans-53"/>
       <use x="63.623047" xlink:href="#DejaVuSans-48"/>
      </g>
     </g>
    </g>
    <g id="xtick_3">
     <g id="line2d_3">
      <g>
       <use style="stroke:#000000;stroke-width:0.8;" x="340.991299" xlink:href="#m59295c202b" y="497.9016"/>
      </g>
     </g>
     <g id="text_3">
      <!-- 60 -->
      <defs>
       <path d="M 33.015625 40.375 
Q 26.375 40.375 22.484375 35.828125 
Q 18.609375 31.296875 18.609375 23.390625 
Q 18.609375 15.53125 22.484375 10.953125 
Q 26.375 6.390625 33.015625 6.390625 
Q 39.65625 6.390625 43.53125 10.953125 
Q 47.40625 15.53125 47.40625 23.390625 
Q 47.40625 31.296875 43.53125 35.828125 
Q 39.65625 40.375 33.015625 40.375 
z
M 52.59375 71.296875 
L 52.59375 62.3125 
Q 48.875 64.0625 45.09375 64.984375 
Q 41.3125 65.921875 37.59375 65.921875 
Q 27.828125 65.921875 22.671875 59.328125 
Q 17.53125 52.734375 16.796875 39.40625 
Q 19.671875 43.65625 24.015625 45.921875 
Q 28.375 48.1875 33.59375 48.1875 
Q 44.578125 48.1875 50.953125 41.515625 
Q 57.328125 34.859375 57.328125 23.390625 
Q 57.328125 12.15625 50.6875 5.359375 
Q 44.046875 -1.421875 33.015625 -1.421875 
Q 20.359375 -1.421875 13.671875 8.265625 
Q 6.984375 17.96875 6.984375 36.375 
Q 6.984375 53.65625 15.1875 63.9375 
Q 23.390625 74.21875 37.203125 74.21875 
Q 40.921875 74.21875 44.703125 73.484375 
Q 48.484375 72.75 52.59375 71.296875 
z
" id="DejaVuSans-54"/>
      </defs>
      <g transform="translate(325.085049 523.897694)scale(0.25 -0.25)">
       <use xlink:href="#DejaVuSans-54"/>
       <use x="63.623047" xlink:href="#DejaVuSans-48"/>
      </g>
     </g>
    </g>
    <g id="xtick_4">
     <g id="line2d_4">
      <g>
       <use style="stroke:#000000;stroke-width:0.8;" x="435.923766" xlink:href="#m59295c202b" y="497.9016"/>
      </g>
     </g>
     <g id="text_4">
      <!-- 70 -->
      <defs>
       <path d="M 8.203125 72.90625 
L 55.078125 72.90625 
L 55.078125 68.703125 
L 28.609375 0 
L 18.3125 0 
L 43.21875 64.59375 
L 8.203125 64.59375 
z
" id="DejaVuSans-55"/>
      </defs>
      <g transform="translate(420.017516 523.897694)scale(0.25 -0.25)">
       <use xlink:href="#DejaVuSans-55"/>
       <use x="63.623047" xlink:href="#DejaVuSans-48"/>
      </g>
     </g>
    </g>
    <g id="xtick_5">
     <g id="line2d_5">
      <g>
       <use style="stroke:#000000;stroke-width:0.8;" x="530.856234" xlink:href="#m59295c202b" y="497.9016"/>
      </g>
     </g>
     <g id="text_5">
      <!-- 80 -->
      <defs>
       <path d="M 31.78125 34.625 
Q 24.75 34.625 20.71875 30.859375 
Q 16.703125 27.09375 16.703125 20.515625 
Q 16.703125 13.921875 20.71875 10.15625 
Q 24.75 6.390625 31.78125 6.390625 
Q 38.8125 6.390625 42.859375 10.171875 
Q 46.921875 13.96875 46.921875 20.515625 
Q 46.921875 27.09375 42.890625 30.859375 
Q 38.875 34.625 31.78125 34.625 
z
M 21.921875 38.8125 
Q 15.578125 40.375 12.03125 44.71875 
Q 8.5 49.078125 8.5 55.328125 
Q 8.5 64.0625 14.71875 69.140625 
Q 20.953125 74.21875 31.78125 74.21875 
Q 42.671875 74.21875 48.875 69.140625 
Q 55.078125 64.0625 55.078125 55.328125 
Q 55.078125 49.078125 51.53125 44.71875 
Q 48 40.375 41.703125 38.8125 
Q 48.828125 37.15625 52.796875 32.3125 
Q 56.78125 27.484375 56.78125 20.515625 
Q 56.78125 9.90625 50.3125 4.234375 
Q 43.84375 -1.421875 31.78125 -1.421875 
Q 19.734375 -1.421875 13.25 4.234375 
Q 6.78125 9.90625 6.78125 20.515625 
Q 6.78125 27.484375 10.78125 32.3125 
Q 14.796875 37.15625 21.921875 38.8125 
z
M 18.3125 54.390625 
Q 18.3125 48.734375 21.84375 45.5625 
Q 25.390625 42.390625 31.78125 42.390625 
Q 38.140625 42.390625 41.71875 45.5625 
Q 45.3125 48.734375 45.3125 54.390625 
Q 45.3125 60.0625 41.71875 63.234375 
Q 38.140625 66.40625 31.78125 66.40625 
Q 25.390625 66.40625 21.84375 63.234375 
Q 18.3125 60.0625 18.3125 54.390625 
z
" id="DejaVuSans-56"/>
      </defs>
      <g transform="translate(514.949984 523.897694)scale(0.25 -0.25)">
       <use xlink:href="#DejaVuSans-56"/>
       <use x="63.623047" xlink:href="#DejaVuSans-48"/>
      </g>
     </g>
    </g>
    <g id="xtick_6">
     <g id="line2d_6">
      <g>
       <use style="stroke:#000000;stroke-width:0.8;" x="625.788701" xlink:href="#m59295c202b" y="497.9016"/>
      </g>
     </g>
     <g id="text_6">
      <!-- 90 -->
      <defs>
       <path d="M 10.984375 1.515625 
L 10.984375 10.5 
Q 14.703125 8.734375 18.5 7.8125 
Q 22.3125 6.890625 25.984375 6.890625 
Q 35.75 6.890625 40.890625 13.453125 
Q 46.046875 20.015625 46.78125 33.40625 
Q 43.953125 29.203125 39.59375 26.953125 
Q 35.25 24.703125 29.984375 24.703125 
Q 19.046875 24.703125 12.671875 31.3125 
Q 6.296875 37.9375 6.296875 49.421875 
Q 6.296875 60.640625 12.9375 67.421875 
Q 19.578125 74.21875 30.609375 74.21875 
Q 43.265625 74.21875 49.921875 64.515625 
Q 56.59375 54.828125 56.59375 36.375 
Q 56.59375 19.140625 48.40625 8.859375 
Q 40.234375 -1.421875 26.421875 -1.421875 
Q 22.703125 -1.421875 18.890625 -0.6875 
Q 15.09375 0.046875 10.984375 1.515625 
z
M 30.609375 32.421875 
Q 37.25 32.421875 41.125 36.953125 
Q 45.015625 41.5 45.015625 49.421875 
Q 45.015625 57.28125 41.125 61.84375 
Q 37.25 66.40625 30.609375 66.40625 
Q 23.96875 66.40625 20.09375 61.84375 
Q 16.21875 57.28125 16.21875 49.421875 
Q 16.21875 41.5 20.09375 36.953125 
Q 23.96875 32.421875 30.609375 32.421875 
z
" id="DejaVuSans-57"/>
      </defs>
      <g transform="translate(609.882451 523.897694)scale(0.25 -0.25)">
       <use xlink:href="#DejaVuSans-57"/>
       <use x="63.623047" xlink:href="#DejaVuSans-48"/>
      </g>
     </g>
    </g>
    <g id="xtick_7">
     <g id="line2d_7">
      <g>
       <use style="stroke:#000000;stroke-width:0.8;" x="720.721169" xlink:href="#m59295c202b" y="497.9016"/>
      </g>
     </g>
     <g id="text_7">
      <!-- 100 -->
      <defs>
       <path d="M 12.40625 8.296875 
L 28.515625 8.296875 
L 28.515625 63.921875 
L 10.984375 60.40625 
L 10.984375 69.390625 
L 28.421875 72.90625 
L 38.28125 72.90625 
L 38.28125 8.296875 
L 54.390625 8.296875 
L 54.390625 0 
L 12.40625 0 
z
" id="DejaVuSans-49"/>
      </defs>
      <g transform="translate(696.861794 523.897694)scale(0.25 -0.25)">
       <use xlink:href="#DejaVuSans-49"/>
       <use x="63.623047" xlink:href="#DejaVuSans-48"/>
       <use x="127.246094" xlink:href="#DejaVuSans-48"/>
      </g>
     </g>
    </g>
    <g id="xtick_8">
     <g id="line2d_8">
      <g>
       <use style="stroke:#000000;stroke-width:0.8;" x="815.653636" xlink:href="#m59295c202b" y="497.9016"/>
      </g>
     </g>
     <g id="text_8">
      <!-- 110 -->
      <g transform="translate(791.794261 523.897694)scale(0.25 -0.25)">
       <use xlink:href="#DejaVuSans-49"/>
       <use x="63.623047" xlink:href="#DejaVuSans-49"/>
       <use x="127.246094" xlink:href="#DejaVuSans-48"/>
      </g>
     </g>
    </g>
    <g id="text_9">
     <!-- Loss -->
     <defs>
      <path d="M 9.8125 72.90625 
L 19.671875 72.90625 
L 19.671875 8.296875 
L 55.171875 8.296875 
L 55.171875 0 
L 9.8125 0 
z
" id="DejaVuSans-76"/>
      <path d="M 30.609375 48.390625 
Q 23.390625 48.390625 19.1875 42.75 
Q 14.984375 37.109375 14.984375 27.296875 
Q 14.984375 17.484375 19.15625 11.84375 
Q 23.34375 6.203125 30.609375 6.203125 
Q 37.796875 6.203125 41.984375 11.859375 
Q 46.1875 17.53125 46.1875 27.296875 
Q 46.1875 37.015625 41.984375 42.703125 
Q 37.796875 48.390625 30.609375 48.390625 
z
M 30.609375 56 
Q 42.328125 56 49.015625 48.375 
Q 55.71875 40.765625 55.71875 27.296875 
Q 55.71875 13.875 49.015625 6.21875 
Q 42.328125 -1.421875 30.609375 -1.421875 
Q 18.84375 -1.421875 12.171875 6.21875 
Q 5.515625 13.875 5.515625 27.296875 
Q 5.515625 40.765625 12.171875 48.375 
Q 18.84375 56 30.609375 56 
z
" id="DejaVuSans-111"/>
      <path d="M 44.28125 53.078125 
L 44.28125 44.578125 
Q 40.484375 46.53125 36.375 47.5 
Q 32.28125 48.484375 27.875 48.484375 
Q 21.1875 48.484375 17.84375 46.4375 
Q 14.5 44.390625 14.5 40.28125 
Q 14.5 37.15625 16.890625 35.375 
Q 19.28125 33.59375 26.515625 31.984375 
L 29.59375 31.296875 
Q 39.15625 29.25 43.1875 25.515625 
Q 47.21875 21.78125 47.21875 15.09375 
Q 47.21875 7.46875 41.1875 3.015625 
Q 35.15625 -1.421875 24.609375 -1.421875 
Q 20.21875 -1.421875 15.453125 -0.5625 
Q 10.6875 0.296875 5.421875 2 
L 5.421875 11.28125 
Q 10.40625 8.6875 15.234375 7.390625 
Q 20.0625 6.109375 24.8125 6.109375 
Q 31.15625 6.109375 34.5625 8.28125 
Q 37.984375 10.453125 37.984375 14.40625 
Q 37.984375 18.0625 35.515625 20.015625 
Q 33.0625 21.96875 24.703125 23.78125 
L 21.578125 24.515625 
Q 13.234375 26.265625 9.515625 29.90625 
Q 5.8125 33.546875 5.8125 39.890625 
Q 5.8125 47.609375 11.28125 51.796875 
Q 16.75 56 26.8125 56 
Q 31.78125 56 36.171875 55.265625 
Q 40.578125 54.546875 44.28125 53.078125 
z
" id="DejaVuSans-115"/>
     </defs>
     <g transform="translate(455.755234 552.093006)scale(0.25 -0.25)">
      <use xlink:href="#DejaVuSans-76"/>
      <use x="55.697266" xlink:href="#DejaVuSans-111"/>
      <use x="116.878906" xlink:href="#DejaVuSans-115"/>
      <use x="168.978516" xlink:href="#DejaVuSans-115"/>
     </g>
    </g>
   </g>
   <g id="matplotlib.axis_2">
    <g id="ytick_1">
     <g id="line2d_9">
      <defs>
       <path d="M 0 0 
L -3.5 0 
" id="m5711fc14eb" style="stroke:#000000;stroke-width:0.8;"/>
      </defs>
      <g>
       <use style="stroke:#000000;stroke-width:0.8;" x="117.9" xlink:href="#m5711fc14eb" y="497.9016"/>
      </g>
     </g>
     <g id="text_10">
      <!-- 0 -->
      <g transform="translate(94.99375 507.399647)scale(0.25 -0.25)">
       <use xlink:href="#DejaVuSans-48"/>
      </g>
     </g>
    </g>
    <g id="ytick_2">
     <g id="line2d_10">
      <g>
       <use style="stroke:#000000;stroke-width:0.8;" x="117.9" xlink:href="#m5711fc14eb" y="408.715513"/>
      </g>
     </g>
     <g id="text_11">
      <!-- 5 -->
      <g transform="translate(94.99375 418.21356)scale(0.25 -0.25)">
       <use xlink:href="#DejaVuSans-53"/>
      </g>
     </g>
    </g>
    <g id="ytick_3">
     <g id="line2d_11">
      <g>
       <use style="stroke:#000000;stroke-width:0.8;" x="117.9" xlink:href="#m5711fc14eb" y="319.529426"/>
      </g>
     </g>
     <g id="text_12">
      <!-- 10 -->
      <g transform="translate(79.0875 329.027473)scale(0.25 -0.25)">
       <use xlink:href="#DejaVuSans-49"/>
       <use x="63.623047" xlink:href="#DejaVuSans-48"/>
      </g>
     </g>
    </g>
    <g id="ytick_4">
     <g id="line2d_12">
      <g>
       <use style="stroke:#000000;stroke-width:0.8;" x="117.9" xlink:href="#m5711fc14eb" y="230.343339"/>
      </g>
     </g>
     <g id="text_13">
      <!-- 15 -->
      <g transform="translate(79.0875 239.841386)scale(0.25 -0.25)">
       <use xlink:href="#DejaVuSans-49"/>
       <use x="63.623047" xlink:href="#DejaVuSans-53"/>
      </g>
     </g>
    </g>
    <g id="ytick_5">
     <g id="line2d_13">
      <g>
       <use style="stroke:#000000;stroke-width:0.8;" x="117.9" xlink:href="#m5711fc14eb" y="141.157252"/>
      </g>
     </g>
     <g id="text_14">
      <!-- 20 -->
      <defs>
       <path d="M 19.1875 8.296875 
L 53.609375 8.296875 
L 53.609375 0 
L 7.328125 0 
L 7.328125 8.296875 
Q 12.9375 14.109375 22.625 23.890625 
Q 32.328125 33.6875 34.8125 36.53125 
Q 39.546875 41.84375 41.421875 45.53125 
Q 43.3125 49.21875 43.3125 52.78125 
Q 43.3125 58.59375 39.234375 62.25 
Q 35.15625 65.921875 28.609375 65.921875 
Q 23.96875 65.921875 18.8125 64.3125 
Q 13.671875 62.703125 7.8125 59.421875 
L 7.8125 69.390625 
Q 13.765625 71.78125 18.9375 73 
Q 24.125 74.21875 28.421875 74.21875 
Q 39.75 74.21875 46.484375 68.546875 
Q 53.21875 62.890625 53.21875 53.421875 
Q 53.21875 48.921875 51.53125 44.890625 
Q 49.859375 40.875 45.40625 35.40625 
Q 44.1875 33.984375 37.640625 27.21875 
Q 31.109375 20.453125 19.1875 8.296875 
z
" id="DejaVuSans-50"/>
      </defs>
      <g transform="translate(79.0875 150.655299)scale(0.25 -0.25)">
       <use xlink:href="#DejaVuSans-50"/>
       <use x="63.623047" xlink:href="#DejaVuSans-48"/>
      </g>
     </g>
    </g>
   </g>
   <g id="patch_300">
    <path d="M 117.9 497.9016 
L 117.9 67.1328 
" style="fill:none;stroke:#000000;stroke-linecap:square;stroke-linejoin:miter;stroke-width:0.8;"/>
   </g>
   <g id="patch_301">
    <path d="M 848.88 497.9016 
L 848.88 67.1328 
" style="fill:none;stroke:#000000;stroke-linecap:square;stroke-linejoin:miter;stroke-width:0.8;"/>
   </g>
   <g id="patch_302">
    <path d="M 117.9 497.9016 
L 848.88 497.9016 
" style="fill:none;stroke:#000000;stroke-linecap:square;stroke-linejoin:miter;stroke-width:0.8;"/>
   </g>
   <g id="patch_303">
    <path d="M 117.9 67.1328 
L 848.88 67.1328 
" style="fill:none;stroke:#000000;stroke-linecap:square;stroke-linejoin:miter;stroke-width:0.8;"/>
   </g>
   <g id="legend_1">
    <g id="patch_304">
     <path d="M 420.641719 197.218737 
L 831.38 197.218737 
Q 836.38 197.218737 836.38 192.218737 
L 836.38 84.6328 
Q 836.38 79.6328 831.38 79.6328 
L 420.641719 79.6328 
Q 415.641719 79.6328 415.641719 84.6328 
L 415.641719 192.218737 
Q 415.641719 197.218737 420.641719 197.218737 
z
" style="fill:#ffffff;opacity:0.8;stroke:#cccccc;stroke-linejoin:miter;"/>
    </g>
    <g id="patch_305">
     <path d="M 425.641719 108.628894 
L 475.641719 108.628894 
L 475.641719 91.128894 
L 425.641719 91.128894 
z
" style="fill:#1f77b4;opacity:0.7;"/>
    </g>
    <g id="text_15">
     <!-- Testing with Same Size -->
     <defs>
      <path d="M -0.296875 72.90625 
L 61.375 72.90625 
L 61.375 64.59375 
L 35.5 64.59375 
L 35.5 0 
L 25.59375 0 
L 25.59375 64.59375 
L -0.296875 64.59375 
z
" id="DejaVuSans-84"/>
      <path d="M 56.203125 29.59375 
L 56.203125 25.203125 
L 14.890625 25.203125 
Q 15.484375 15.921875 20.484375 11.0625 
Q 25.484375 6.203125 34.421875 6.203125 
Q 39.59375 6.203125 44.453125 7.46875 
Q 49.3125 8.734375 54.109375 11.28125 
L 54.109375 2.78125 
Q 49.265625 0.734375 44.1875 -0.34375 
Q 39.109375 -1.421875 33.890625 -1.421875 
Q 20.796875 -1.421875 13.15625 6.1875 
Q 5.515625 13.8125 5.515625 26.8125 
Q 5.515625 40.234375 12.765625 48.109375 
Q 20.015625 56 32.328125 56 
Q 43.359375 56 49.78125 48.890625 
Q 56.203125 41.796875 56.203125 29.59375 
z
M 47.21875 32.234375 
Q 47.125 39.59375 43.09375 43.984375 
Q 39.0625 48.390625 32.421875 48.390625 
Q 24.90625 48.390625 20.390625 44.140625 
Q 15.875 39.890625 15.1875 32.171875 
z
" id="DejaVuSans-101"/>
      <path d="M 18.3125 70.21875 
L 18.3125 54.6875 
L 36.8125 54.6875 
L 36.8125 47.703125 
L 18.3125 47.703125 
L 18.3125 18.015625 
Q 18.3125 11.328125 20.140625 9.421875 
Q 21.96875 7.515625 27.59375 7.515625 
L 36.8125 7.515625 
L 36.8125 0 
L 27.59375 0 
Q 17.1875 0 13.234375 3.875 
Q 9.28125 7.765625 9.28125 18.015625 
L 9.28125 47.703125 
L 2.6875 47.703125 
L 2.6875 54.6875 
L 9.28125 54.6875 
L 9.28125 70.21875 
z
" id="DejaVuSans-116"/>
      <path d="M 9.421875 54.6875 
L 18.40625 54.6875 
L 18.40625 0 
L 9.421875 0 
z
M 9.421875 75.984375 
L 18.40625 75.984375 
L 18.40625 64.59375 
L 9.421875 64.59375 
z
" id="DejaVuSans-105"/>
      <path d="M 54.890625 33.015625 
L 54.890625 0 
L 45.90625 0 
L 45.90625 32.71875 
Q 45.90625 40.484375 42.875 44.328125 
Q 39.84375 48.1875 33.796875 48.1875 
Q 26.515625 48.1875 22.3125 43.546875 
Q 18.109375 38.921875 18.109375 30.90625 
L 18.109375 0 
L 9.078125 0 
L 9.078125 54.6875 
L 18.109375 54.6875 
L 18.109375 46.1875 
Q 21.34375 51.125 25.703125 53.5625 
Q 30.078125 56 35.796875 56 
Q 45.21875 56 50.046875 50.171875 
Q 54.890625 44.34375 54.890625 33.015625 
z
" id="DejaVuSans-110"/>
      <path d="M 45.40625 27.984375 
Q 45.40625 37.75 41.375 43.109375 
Q 37.359375 48.484375 30.078125 48.484375 
Q 22.859375 48.484375 18.828125 43.109375 
Q 14.796875 37.75 14.796875 27.984375 
Q 14.796875 18.265625 18.828125 12.890625 
Q 22.859375 7.515625 30.078125 7.515625 
Q 37.359375 7.515625 41.375 12.890625 
Q 45.40625 18.265625 45.40625 27.984375 
z
M 54.390625 6.78125 
Q 54.390625 -7.171875 48.1875 -13.984375 
Q 42 -20.796875 29.203125 -20.796875 
Q 24.46875 -20.796875 20.265625 -20.09375 
Q 16.0625 -19.390625 12.109375 -17.921875 
L 12.109375 -9.1875 
Q 16.0625 -11.328125 19.921875 -12.34375 
Q 23.78125 -13.375 27.78125 -13.375 
Q 36.625 -13.375 41.015625 -8.765625 
Q 45.40625 -4.15625 45.40625 5.171875 
L 45.40625 9.625 
Q 42.625 4.78125 38.28125 2.390625 
Q 33.9375 0 27.875 0 
Q 17.828125 0 11.671875 7.65625 
Q 5.515625 15.328125 5.515625 27.984375 
Q 5.515625 40.671875 11.671875 48.328125 
Q 17.828125 56 27.875 56 
Q 33.9375 56 38.28125 53.609375 
Q 42.625 51.21875 45.40625 46.390625 
L 45.40625 54.6875 
L 54.390625 54.6875 
z
" id="DejaVuSans-103"/>
      <path id="DejaVuSans-32"/>
      <path d="M 4.203125 54.6875 
L 13.1875 54.6875 
L 24.421875 12.015625 
L 35.59375 54.6875 
L 46.1875 54.6875 
L 57.421875 12.015625 
L 68.609375 54.6875 
L 77.59375 54.6875 
L 63.28125 0 
L 52.6875 0 
L 40.921875 44.828125 
L 29.109375 0 
L 18.5 0 
z
" id="DejaVuSans-119"/>
      <path d="M 54.890625 33.015625 
L 54.890625 0 
L 45.90625 0 
L 45.90625 32.71875 
Q 45.90625 40.484375 42.875 44.328125 
Q 39.84375 48.1875 33.796875 48.1875 
Q 26.515625 48.1875 22.3125 43.546875 
Q 18.109375 38.921875 18.109375 30.90625 
L 18.109375 0 
L 9.078125 0 
L 9.078125 75.984375 
L 18.109375 75.984375 
L 18.109375 46.1875 
Q 21.34375 51.125 25.703125 53.5625 
Q 30.078125 56 35.796875 56 
Q 45.21875 56 50.046875 50.171875 
Q 54.890625 44.34375 54.890625 33.015625 
z
" id="DejaVuSans-104"/>
      <path d="M 53.515625 70.515625 
L 53.515625 60.890625 
Q 47.90625 63.578125 42.921875 64.890625 
Q 37.9375 66.21875 33.296875 66.21875 
Q 25.25 66.21875 20.875 63.09375 
Q 16.5 59.96875 16.5 54.203125 
Q 16.5 49.359375 19.40625 46.890625 
Q 22.3125 44.4375 30.421875 42.921875 
L 36.375 41.703125 
Q 47.40625 39.59375 52.65625 34.296875 
Q 57.90625 29 57.90625 20.125 
Q 57.90625 9.515625 50.796875 4.046875 
Q 43.703125 -1.421875 29.984375 -1.421875 
Q 24.8125 -1.421875 18.96875 -0.25 
Q 13.140625 0.921875 6.890625 3.21875 
L 6.890625 13.375 
Q 12.890625 10.015625 18.65625 8.296875 
Q 24.421875 6.59375 29.984375 6.59375 
Q 38.421875 6.59375 43.015625 9.90625 
Q 47.609375 13.234375 47.609375 19.390625 
Q 47.609375 24.75 44.3125 27.78125 
Q 41.015625 30.8125 33.5 32.328125 
L 27.484375 33.5 
Q 16.453125 35.6875 11.515625 40.375 
Q 6.59375 45.0625 6.59375 53.421875 
Q 6.59375 63.09375 13.40625 68.65625 
Q 20.21875 74.21875 32.171875 74.21875 
Q 37.3125 74.21875 42.625 73.28125 
Q 47.953125 72.359375 53.515625 70.515625 
z
" id="DejaVuSans-83"/>
      <path d="M 34.28125 27.484375 
Q 23.390625 27.484375 19.1875 25 
Q 14.984375 22.515625 14.984375 16.5 
Q 14.984375 11.71875 18.140625 8.90625 
Q 21.296875 6.109375 26.703125 6.109375 
Q 34.1875 6.109375 38.703125 11.40625 
Q 43.21875 16.703125 43.21875 25.484375 
L 43.21875 27.484375 
z
M 52.203125 31.203125 
L 52.203125 0 
L 43.21875 0 
L 43.21875 8.296875 
Q 40.140625 3.328125 35.546875 0.953125 
Q 30.953125 -1.421875 24.3125 -1.421875 
Q 15.921875 -1.421875 10.953125 3.296875 
Q 6 8.015625 6 15.921875 
Q 6 25.140625 12.171875 29.828125 
Q 18.359375 34.515625 30.609375 34.515625 
L 43.21875 34.515625 
L 43.21875 35.40625 
Q 43.21875 41.609375 39.140625 45 
Q 35.0625 48.390625 27.6875 48.390625 
Q 23 48.390625 18.546875 47.265625 
Q 14.109375 46.140625 10.015625 43.890625 
L 10.015625 52.203125 
Q 14.9375 54.109375 19.578125 55.046875 
Q 24.21875 56 28.609375 56 
Q 40.484375 56 46.34375 49.84375 
Q 52.203125 43.703125 52.203125 31.203125 
z
" id="DejaVuSans-97"/>
      <path d="M 52 44.1875 
Q 55.375 50.25 60.0625 53.125 
Q 64.75 56 71.09375 56 
Q 79.640625 56 84.28125 50.015625 
Q 88.921875 44.046875 88.921875 33.015625 
L 88.921875 0 
L 79.890625 0 
L 79.890625 32.71875 
Q 79.890625 40.578125 77.09375 44.375 
Q 74.3125 48.1875 68.609375 48.1875 
Q 61.625 48.1875 57.5625 43.546875 
Q 53.515625 38.921875 53.515625 30.90625 
L 53.515625 0 
L 44.484375 0 
L 44.484375 32.71875 
Q 44.484375 40.625 41.703125 44.40625 
Q 38.921875 48.1875 33.109375 48.1875 
Q 26.21875 48.1875 22.15625 43.53125 
Q 18.109375 38.875 18.109375 30.90625 
L 18.109375 0 
L 9.078125 0 
L 9.078125 54.6875 
L 18.109375 54.6875 
L 18.109375 46.1875 
Q 21.1875 51.21875 25.484375 53.609375 
Q 29.78125 56 35.6875 56 
Q 41.65625 56 45.828125 52.96875 
Q 50 49.953125 52 44.1875 
z
" id="DejaVuSans-109"/>
      <path d="M 5.515625 54.6875 
L 48.1875 54.6875 
L 48.1875 46.484375 
L 14.40625 7.171875 
L 48.1875 7.171875 
L 48.1875 0 
L 4.296875 0 
L 4.296875 8.203125 
L 38.09375 47.515625 
L 5.515625 47.515625 
z
" id="DejaVuSans-122"/>
     </defs>
     <g transform="translate(495.641719 108.628894)scale(0.25 -0.25)">
      <use xlink:href="#DejaVuSans-84"/>
      <use x="60.818359" xlink:href="#DejaVuSans-101"/>
      <use x="122.341797" xlink:href="#DejaVuSans-115"/>
      <use x="174.441406" xlink:href="#DejaVuSans-116"/>
      <use x="213.650391" xlink:href="#DejaVuSans-105"/>
      <use x="241.433594" xlink:href="#DejaVuSans-110"/>
      <use x="304.8125" xlink:href="#DejaVuSans-103"/>
      <use x="368.289062" xlink:href="#DejaVuSans-32"/>
      <use x="400.076172" xlink:href="#DejaVuSans-119"/>
      <use x="481.863281" xlink:href="#DejaVuSans-105"/>
      <use x="509.646484" xlink:href="#DejaVuSans-116"/>
      <use x="548.855469" xlink:href="#DejaVuSans-104"/>
      <use x="612.234375" xlink:href="#DejaVuSans-32"/>
      <use x="644.021484" xlink:href="#DejaVuSans-83"/>
      <use x="707.498047" xlink:href="#DejaVuSans-97"/>
      <use x="768.777344" xlink:href="#DejaVuSans-109"/>
      <use x="866.189453" xlink:href="#DejaVuSans-101"/>
      <use x="927.712891" xlink:href="#DejaVuSans-32"/>
      <use x="959.5" xlink:href="#DejaVuSans-83"/>
      <use x="1022.976562" xlink:href="#DejaVuSans-105"/>
      <use x="1050.759766" xlink:href="#DejaVuSans-122"/>
      <use x="1103.25" xlink:href="#DejaVuSans-101"/>
     </g>
    </g>
    <g id="patch_306">
     <path d="M 425.641719 145.324206 
L 475.641719 145.324206 
L 475.641719 127.824206 
L 425.641719 127.824206 
z
" style="fill:#ff7f0e;opacity:0.7;"/>
    </g>
    <g id="text_16">
     <!-- Training -->
     <defs>
      <path d="M 41.109375 46.296875 
Q 39.59375 47.171875 37.8125 47.578125 
Q 36.03125 48 33.890625 48 
Q 26.265625 48 22.1875 43.046875 
Q 18.109375 38.09375 18.109375 28.8125 
L 18.109375 0 
L 9.078125 0 
L 9.078125 54.6875 
L 18.109375 54.6875 
L 18.109375 46.1875 
Q 20.953125 51.171875 25.484375 53.578125 
Q 30.03125 56 36.53125 56 
Q 37.453125 56 38.578125 55.875 
Q 39.703125 55.765625 41.0625 55.515625 
z
" id="DejaVuSans-114"/>
     </defs>
     <g transform="translate(495.641719 145.324206)scale(0.25 -0.25)">
      <use xlink:href="#DejaVuSans-84"/>
      <use x="60.865234" xlink:href="#DejaVuSans-114"/>
      <use x="101.978516" xlink:href="#DejaVuSans-97"/>
      <use x="163.257812" xlink:href="#DejaVuSans-105"/>
      <use x="191.041016" xlink:href="#DejaVuSans-110"/>
      <use x="254.419922" xlink:href="#DejaVuSans-105"/>
      <use x="282.203125" xlink:href="#DejaVuSans-110"/>
      <use x="345.582031" xlink:href="#DejaVuSans-103"/>
     </g>
    </g>
    <g id="patch_307">
     <path d="M 425.641719 182.019519 
L 475.641719 182.019519 
L 475.641719 164.519519 
L 425.641719 164.519519 
z
" style="fill:#2ca02c;opacity:0.7;"/>
    </g>
    <g id="text_17">
     <!-- Testing with Different Size -->
     <defs>
      <path d="M 19.671875 64.796875 
L 19.671875 8.109375 
L 31.59375 8.109375 
Q 46.6875 8.109375 53.6875 14.9375 
Q 60.6875 21.78125 60.6875 36.53125 
Q 60.6875 51.171875 53.6875 57.984375 
Q 46.6875 64.796875 31.59375 64.796875 
z
M 9.8125 72.90625 
L 30.078125 72.90625 
Q 51.265625 72.90625 61.171875 64.09375 
Q 71.09375 55.28125 71.09375 36.53125 
Q 71.09375 17.671875 61.125 8.828125 
Q 51.171875 0 30.078125 0 
L 9.8125 0 
z
" id="DejaVuSans-68"/>
      <path d="M 37.109375 75.984375 
L 37.109375 68.5 
L 28.515625 68.5 
Q 23.6875 68.5 21.796875 66.546875 
Q 19.921875 64.59375 19.921875 59.515625 
L 19.921875 54.6875 
L 34.71875 54.6875 
L 34.71875 47.703125 
L 19.921875 47.703125 
L 19.921875 0 
L 10.890625 0 
L 10.890625 47.703125 
L 2.296875 47.703125 
L 2.296875 54.6875 
L 10.890625 54.6875 
L 10.890625 58.5 
Q 10.890625 67.625 15.140625 71.796875 
Q 19.390625 75.984375 28.609375 75.984375 
z
" id="DejaVuSans-102"/>
     </defs>
     <g transform="translate(495.641719 182.019519)scale(0.25 -0.25)">
      <use xlink:href="#DejaVuSans-84"/>
      <use x="60.818359" xlink:href="#DejaVuSans-101"/>
      <use x="122.341797" xlink:href="#DejaVuSans-115"/>
      <use x="174.441406" xlink:href="#DejaVuSans-116"/>
      <use x="213.650391" xlink:href="#DejaVuSans-105"/>
      <use x="241.433594" xlink:href="#DejaVuSans-110"/>
      <use x="304.8125" xlink:href="#DejaVuSans-103"/>
      <use x="368.289062" xlink:href="#DejaVuSans-32"/>
      <use x="400.076172" xlink:href="#DejaVuSans-119"/>
      <use x="481.863281" xlink:href="#DejaVuSans-105"/>
      <use x="509.646484" xlink:href="#DejaVuSans-116"/>
      <use x="548.855469" xlink:href="#DejaVuSans-104"/>
      <use x="612.234375" xlink:href="#DejaVuSans-32"/>
      <use x="644.021484" xlink:href="#DejaVuSans-68"/>
      <use x="721.023438" xlink:href="#DejaVuSans-105"/>
      <use x="748.806641" xlink:href="#DejaVuSans-102"/>
      <use x="784.011719" xlink:href="#DejaVuSans-102"/>
      <use x="819.216797" xlink:href="#DejaVuSans-101"/>
      <use x="880.740234" xlink:href="#DejaVuSans-114"/>
      <use x="921.822266" xlink:href="#DejaVuSans-101"/>
      <use x="983.345703" xlink:href="#DejaVuSans-110"/>
      <use x="1046.724609" xlink:href="#DejaVuSans-116"/>
      <use x="1085.933594" xlink:href="#DejaVuSans-32"/>
      <use x="1117.720703" xlink:href="#DejaVuSans-83"/>
      <use x="1181.197266" xlink:href="#DejaVuSans-105"/>
      <use x="1208.980469" xlink:href="#DejaVuSans-122"/>
      <use x="1261.470703" xlink:href="#DejaVuSans-101"/>
     </g>
    </g>
   </g>
  </g>
 </g>
 <defs>
  <clipPath id="pa109ea77dc">
   <rect height="430.7688" width="730.98" x="117.9" y="67.1328"/>
  </clipPath>
 </defs>
</svg>
